<svg id="圖層_1" data-name="圖層 1" xmlns="http://www.w3.org/2000/svg" viewBox="0 0 925.65 148.37"><defs><style>.cls-1{fill:#32489c;}</style></defs><title>enotebook_logo</title><path class="cls-1" d="M925.65,140.43a7.94,7.94,0,1,1-7.94-7.94,7.94,7.94,0,0,1,7.94,7.94"/><path class="cls-1" d="M513.38,136.12c-15,0-41-11.67-45.53-43.07C464.1,67.24,472.37,53.38,480,46.29c11.29-10.53,26.78-11.79,37.52-9.45C535,40.64,545.52,54.7,546,55.3l6.3,8.55L488.78,99.22c6.26,14.89,20.87,18.6,25.29,18.16,19.16-1.92,28.12-21.46,28.21-21.65l17.07,7.65c-.54,1.21-13.6,29.64-43.42,32.62-.8.08-1.66.12-2.55.12M508,54.54c-5.1,0-10.93,1.4-15.25,5.43-4.5,4.2-6.9,10.87-7.1,19.59L522.57,59a27.73,27.73,0,0,0-9-3.86,26.36,26.36,0,0,0-5.54-.57"/><rect class="cls-1" x="15.39" y="11.9" width="6.49" height="18.07" transform="translate(-8.67 14.61) rotate(-35.29)"/><rect class="cls-1" x="28.26" y="4.49" width="6.49" height="18.07" transform="translate(-2.76 14.72) rotate(-25.23)"/><rect class="cls-1" x="41.83" y="0.48" width="6.49" height="18.07" transform="translate(-0.99 9.84) rotate(-12.32)"/><polygon class="cls-1" points="441.43 103.6 441.43 63.05 456.1 63.05 456.1 37.32 441.43 37.32 441.43 18.2 410.28 18.2 410.28 37.32 397.18 37.32 397.18 63.05 410.28 63.05 410.28 131.39 410.34 131.39 410.34 134.75 460.28 134.75 460.28 103.6 441.43 103.6"/><polygon class="cls-1" points="146.2 50.43 146.2 45.57 120.69 45.57 120.69 50.43 120.69 105.9 120.69 140.39 148.27 140.39 148.27 79.33 179.52 79.33 179.52 140.39 203.61 140.39 203.61 50.43 146.2 50.43"/><path class="cls-1" d="M396.14,82.49c-5.22-26.52-30-44-55.33-39s-41.66,30.52-36.45,57,30,44,55.34,39S401.35,109,396.14,82.49ZM355.4,117.75c-13.85,2.72-27.39-6.82-30.23-21.31S331.24,68,345.08,65.27s27.38,6.82,30.23,21.31S369.25,115,355.4,117.75Z"/><path class="cls-1" d="M299.39,82.49c-5.22-26.52-30-44-55.33-39s-41.66,30.52-36.45,57,30,44,55.34,39S304.6,109,299.39,82.49Zm-40.73,35.26c-13.85,2.72-27.39-6.82-30.23-21.31S234.49,68,248.33,65.27s27.38,6.82,30.23,21.31S272.5,115,258.65,117.75Z"/><path class="cls-1" d="M51.77,140.71c27.3,1.91,51.2-15.28,56.77-39.47L1.06,93.71c2.14,24.73,23.41,45.09,50.71,47"/><path class="cls-1" d="M45.6,26.72C17.69,31.57-1.32,59.14.07,90.52L110,71.43C100.71,41.42,73.52,21.88,45.6,26.72Zm4.11,47.75A17.05,17.05,0,0,1,32.85,54.88a12.64,12.64,0,0,0,1.87.14A12.5,12.5,0,0,0,47.07,40.59a17,17,0,1,1,2.64,33.89Z"/><polygon class="cls-1" points="912.77 125.6 869.41 87.59 908.17 63.17 899.63 37.19 849.88 68.54 849.88 12.44 823.09 12.44 823.09 139.34 849.88 139.34 849.88 103.16 899.81 143.2 912.77 125.6"/><path class="cls-1" d="M817.79,85.13c-5.22-26.52-30-44-55.34-39a45.27,45.27,0,0,0-26.44,16l-.22.27c-10.76-12.63-27.38-19.27-44.26-16a45.28,45.28,0,0,0-26.48,16l0,0c-10.76-12.85-27.52-19.65-44.55-16.3A45.46,45.46,0,0,0,592,64.85V9.45H565.18v126.9H592V118.78c10.54,14.83,28.57,23,46.91,19.38,6.61-1.3,15.42-7.7,20.35-12l-9.44-17.16c-3.08,2.55-11,6.61-15.2,7.42-13.59,2.67-26.87-6.47-30.05-20.5v-5.5c1.33-11,9.21-20.3,20.24-22.47,13.2-2.59,26.11,6,29.76,19.32a50.9,50.9,0,0,0,.56,16.24c5.22,26.52,30,44,55.33,39a45.63,45.63,0,0,0,30-20.93A49.23,49.23,0,0,0,747.56,102a32.23,32.23,0,0,0,.41-3.55c.12-3.09,0-5.78,0-8.22,0-1.47-.35-3.13-.41-4.67a25.39,25.39,0,0,1,19.21-17.64c13.85-2.72,27.38,6.82,30.23,21.31s-6.06,28.45-19.92,31.17a24.82,24.82,0,0,1-18.11-3.45c-.75-.48-7.74-6-8.45-6.58l-10,17.88c.76.58,5.65,6.27,6.45,6.81a45.53,45.53,0,0,0,34.4,7.13C806.68,137.19,823,111.65,817.79,85.13Zm-122-16.92c13.85-2.72,27.38,6.82,30.23,21.31a27.31,27.31,0,0,1-3.44,19.58c-.16.26-.32.52-.49.77l0,.07a24.85,24.85,0,0,1-15.74,10.45A26.19,26.19,0,0,1,682.9,113a27.5,27.5,0,0,1-7-13.63C673.06,84.89,682,70.93,695.82,68.21Z"/></svg>