<svg id="圖層_1" data-name="圖層 1" xmlns="http://www.w3.org/2000/svg" viewBox="0 0 350 350"><defs><style>.cls-1{fill:#e3e2e2;}.cls-2{fill:#8db8bf;}.cls-3{fill:#f4b648;}.cls-4{fill:#f18f27;}.cls-5{fill:#f5d04d;}.cls-6{fill:#5b6bb1;}.cls-7{fill:#4a5aa7;}.cls-8{fill:#1d2e61;}.cls-9{fill:#fff;}</style></defs><title>工作區域 6 複本 2</title><path class="cls-1" d="M181.91,314.38H99.82s-49.56-18.26-43.48-33.52c8.63-21.65,42.85,7.65,43.48-13.8S13,225.78,18.73,209.27s49.88,18.29,57.1-3.26-57.3-35.11-34.71-68.32,68.17,56.93,80.21,45.19S70.87,122.46,87.2,105.12C105.19,86,129,153.6,195.41,92.71c45.34-41.56-3.86,57.87,38.87,47.72s92.23-18.66,68.51,7c-23.88,25.81-69.51,34.84-59,43.52s89.43-17.6,96.41,6.34-66.41,52.9-89.68,60.78c-22.56,7.64-17.45,23.24,11.15,20s-2,36.33-2,36.33Z"/><path class="cls-2" d="M60.22,183.53s106.09-31.36,232.25-1.84l1.15-8.53s-122.7-29.52-234.4,3.13Z"/><path class="cls-3" d="M20.79,170.21l5.75,32.9-4.26.92a7.85,7.85,0,0,1-9.39-6.31L9.75,180a7.85,7.85,0,0,1,6.67-9.15Z"/><path class="cls-4" d="M35.7,158.16l8.37,47.89-10.55,2.28A7.15,7.15,0,0,1,25,202.59L18.84,168a7.15,7.15,0,0,1,6.07-8.33Z"/><path class="cls-5" d="M55.83,147.09l10.84,62.05L53,212.1a9.25,9.25,0,0,1-11.06-7.43L34,159.8A9.25,9.25,0,0,1,41.84,149Z"/><path class="cls-3" d="M332.26,169.75l-5.75,32.9,4.26.92a7.85,7.85,0,0,0,9.39-6.31l3.15-17.76a7.85,7.85,0,0,0-6.67-9.15Z"/><path class="cls-4" d="M317.36,157.7,309,205.6l10.55,2.28a7.15,7.15,0,0,0,8.55-5.74l6.13-34.62a7.15,7.15,0,0,0-6.07-8.33Z"/><path class="cls-5" d="M297.23,146.63l-10.84,62.05,13.67,3a9.25,9.25,0,0,0,11.06-7.43l7.95-44.87a9.25,9.25,0,0,0-7.85-10.78Z"/><path class="cls-6" d="M193.57,213.74a10,10,0,0,1-.28,2.55,12.59,12.59,0,0,1-2.88,2.45,102.81,102.81,0,0,1-9.11,5.85c-1.5.69-4,0-5.42-.58-1.15-.48-7.71-2.87-10.63-4.59a5,5,0,0,1-1.25-1,9.65,9.65,0,0,1-.93-3.28c-.48-2.74-.85-6.5-1.06-8.93h0c-.12-1.45-.19-2.43-.19-2.43l-2.08-5.42s1.11-5,1.58-5.11,4.54-2.84,4.54-2.84,14.65-5,16.61-4.15,10.61,14.18,10.84,15.8c.06.4.12,1.41.18,2.71C193.58,207.41,193.66,211.21,193.57,213.74Z"/><path class="cls-7" d="M161.59,205.54l1.48,5.13s-.72-12.26-.41-13.07a7,7,0,0,1,1.78-2s14.14-9.76,15.11-3.89c1.11,6.68,12.68,12.91,13.46,13s2-.21,2-.52-9.07-17.22-9.07-17.22-7.84-4.54-8.46-4.31S161,193,161,193l-3.92,6.84Z"/><path class="cls-6" d="M163.07,215.2s-2.41,2.13-4.95-3.41,3.88-5.53,3.88-5.53h0C162.22,208.7,162.59,212.46,163.07,215.2Z"/><path class="cls-8" d="M163.42,194.14c-.88-.85-3.11,1.15-2.37,2.61s2,12.52,2,12.52l-1.06-3a4.28,4.28,0,0,0-3.2,1.25c-.75.68-1.26,1.45-.06,5.07,1.27,3.81,4.32,2.6,4.32,2.6l.93,3.28s.57.51-10.61-5.5-.77-24.22,1.77-25.37,5.77,1.08,5.77,1.08,1.61-14.53,25.45-15.84,11.37,33.31,10.74,32.81-1.6-.8-3.65-.85-10.78-15.12-12.4-17.28-17.64,6.61-17.64,6.61Z"/><path class="cls-6" d="M190.41,218.74V232.2s-8.65,4-12.8,4.27S167.34,234,167,232.54c-.27-1.16-1.3-9.44-1.75-13.12.63.37,1.43.77,2.32,1.18,3.19,1.48,7.41,3,8.31,3.4,1.38.58,3.92,1.27,5.42.58A102.82,102.82,0,0,0,190.41,218.74Z"/><path class="cls-6" d="M197.44,208.9c-1.61,3.93-3.29,5-4.34,4.83.09-2.53,0-6.32-.1-8.93C194.71,204.69,199.13,204.77,197.44,208.9Z"/><path class="cls-6" d="M166.54,229.07l-15.22,1.06s-14.76-.15-11.07,22.14,9.53,61.66,9.53,61.66h59.81s7.69-60,7.69-60.58,2.7-22.12-12.76-23.52c-15.22-1.38-17.37-.75-17.37-.75Z"/><path class="cls-7" d="M188.27,219.44l1.58-.52a33.24,33.24,0,0,1-3,4.8,55,55,0,0,1-6.4,6.06c-1.07.71-6.43-1.55-7-3.43-.37-1.25-5.4-4.85-7.59-6.55,3.78.64,7.32,1.45,8.7,1.45a55.49,55.49,0,0,0,7.76-.35A47.17,47.17,0,0,0,188.27,219.44Z"/><path class="cls-9" d="M152.45,232.05c1.53,36.21-6.67,37.43-9.14,39.83s2.78,42.5,2.78,42.5h67.81s2.77-39.52,1-41.33-11.53-43.14-11.53-43.14-.36-1.48-2.51-1.48a13.45,13.45,0,0,0-4.17.76s2.79,40.75-16.58,40.75-19.77-40-19.77-40-.06-1.53-2.77-1.53a9.87,9.87,0,0,0-5,1.61Z"/><path class="cls-5" d="M155.36,247.5c1.28,30.34-4.09,29.26-6.16,31.27s2.33,35.61,2.33,35.61h56.82s4.77-34.38,3.29-35.67c-7.53-6.61-7.33-35.79-7.33-35.79a3.49,3.49,0,0,0-2.71-1.21c-1.8,0-1.33,4.25-1.33,4.25s-3.76,30.91-20,30.91S158.82,251,158.82,251s-.37-6.06-1.63-8.17c-1.16-1.95-2,1.46-2,1.46Z"/><path class="cls-6" d="M141.12,258s-44.12-28.72-46-31.72S84.43,186,83,184.46c0,0-6-1.85-6.69-4.27s-.92-13.61.69-15.45,8.42-4,11.3-4.38,5.65,2.42,6.8,3.34.46,12.22.46,12.22l3.23-.81s-5,6.69-4.84,8.76,15.34,24.56,17.64,30.21l3,1.37,26.94,12.14s7.73.9,9.69,3S141.12,258,141.12,258Z"/><path class="cls-7" d="M93.59,177.31s-2.42,5.29-5.07,6.22a13.46,13.46,0,0,1-3.46.93l8.53,4s-1.15-6.05.58-8.79S93.59,177.31,93.59,177.31Z"/><path class="cls-7" d="M114.69,222.17l-3-8.07,3,1.37A38.3,38.3,0,0,1,114.69,222.17Z"/><path class="cls-7" d="M132,241.71s15.91,4.32,15.11,10.21a62.3,62.3,0,0,1-1.5,8.19,8.93,8.93,0,0,0-3.46-6.69C138.68,250.88,132.34,245,132,241.71Z"/><path class="cls-6" d="M95.8,167.62l4-.7s.12-5.83,0-6.6-2.77.61-3,1.87S95.8,167.62,95.8,167.62Z"/><path class="cls-6" d="M281.08,180.19c-.69,2.42-6.69,4.27-6.69,4.27-1.38,1.5-10.26,38.86-12.11,41.86s-46,31.72-46,31.72-12.16-25.38-10.2-27.45,9.69-3,9.69-3L242,215.79l3.77-1.7c2.31-5.65,17.53-28.14,17.64-30.21s-4.82-8.8-4.82-8.8l3,.49s-.51-10.94.64-11.86,3.92-3.69,6.8-3.34,9.69,2.54,11.3,4.38S281.77,177.77,281.08,180.19Z"/><path class="cls-7" d="M262.05,177.67s6.89,7.26,10.2,7.36-3.83,3.13-6.63,4.14-4.56,1.82-4.56,1.82,3.54-3.94,3.67-5.45S262.05,177.67,262.05,177.67Z"/><path class="cls-7" d="M245.79,214.09l-6.43,11.41c.06-.25,1.41-5.61,2.67-9.71Z"/><path class="cls-7" d="M227.39,241.71s-15.91,4.32-15.11,10.21a62.3,62.3,0,0,0,1.5,8.19s-.53-5.15,2.93-7.69S227,245,227.39,241.71Z"/><path class="cls-6" d="M261.64,167.34l-4-.62s-.12-5.9,0-6.67,2.77.61,3,1.87S261.64,167.34,261.64,167.34Z"/></svg>