<svg id="圖層_1" data-name="圖層 1" xmlns="http://www.w3.org/2000/svg" viewBox="0 0 350 350"><defs><style>.cls-1{fill:#e3e2e2;}.cls-2{fill:#5b6bb1;}.cls-3{fill:#4b5aa7;}.cls-4{fill:#fff;}.cls-5{fill:#f5d04d;}.cls-6{fill:#1d2e61;}.cls-7{fill:none;stroke:#5b6bb1;stroke-miterlimit:10;stroke-width:0.65px;}.cls-8{fill:#8db7c1;}.cls-9{fill:#f18f27;}.cls-10{fill:#f18f28;}</style></defs><title>工作區域 6 複本</title><path class="cls-1" d="M257.37,312.79h-143s-80-12.91-69-36.78,52.5,5.35,38.48-21.46-67-26.45-63.36-50.71,60.61,13,66.12-7.48S26,157.61,28.72,136.92s78.26,39,78.62,16S26.89,102.46,26,73.07,98.57,86.16,141.35,57c45.83-31.25,166.4,35.54,126.51,59-42,24.71-34.36,43.29,6,59.87s72.92,49.57,45.91,58.94c-27.45,9.52-51.61-23.88-59,0s-.73,34.77,45.18,47.63-4.59,30.36-4.59,30.36Z"/><path class="cls-2" d="M197.94,128.21c0,.12,0,.7,0,1.6,0,3.31-.12,11-.51,16.85-.23,3.42-.58,6.22-1.09,7.15a32.42,32.42,0,0,1-2.88,3.83l0,.06c-4,4.85-10.76,12-12.27,12.75-2,1-10.51,1.32-11.22.61a177.88,177.88,0,0,1-12.32-13.21l0,0h0a18,18,0,0,1-1.93-2.87,96.82,96.82,0,0,1-3.78-11.18c-1.53-5.26-2.85-10.36-2.85-11V110.86l5-10.51s14.69-5.41,15-5.2,16.93,9,19.79,10.3,9.8,13.77,10.1,15.2S197.94,128.21,197.94,128.21Z"/><path class="cls-3" d="M147.39,126.42s2.6,6.76,2.9,8,.71-22.69,3.27-24.42,1.79-2.22,1.79-2.22,34.23,8.45,36.68,15.49,5.54,6.39,5.54,6.39,3.2-14.86,2.5-16-7.64-13.16-8.76-13.77-13.16-2-15-2.24-26.22,3.16-26.73,4.18-4.69,15.41-4.18,16S147.39,126.42,147.39,126.42Z"/><path class="cls-2" d="M151.81,143.15c-.89.3-3.2-1.71-6.93-5.45-4.9-4.9-1.73-12.15,1.74-12.15A2.25,2.25,0,0,1,149,127v5.19C149,132.79,150.28,137.89,151.81,143.15Z"/><path class="cls-2" d="M199.16,145.45c-.89-.23-1.74.53-2.38.61.39-5.85.46-13.55.51-16.85,1.29-.95,4.08-2.57,5.55-.18C204.78,132.19,200.69,145.86,199.16,145.45Z"/><path class="cls-2" d="M195.49,180c-.77,7.35-12.55,11.17-19.74,11.17s-16.53-6.89-16.68-7.35-1.29-21.87-1.51-26c1,1.34,2.37,2.85,3.75,4.37,3.83,4.2,8.14,8.4,8.57,8.83.71.71,9.18.4,11.22-.61,1.14-.58,5.26-4.79,8.94-8.91,1.19-1.33,2.34-2.65,3.33-3.84l0-.06Z"/><path class="cls-2" d="M223.52,311.71,138.2,312,137,289.7l-5.24-93.84s-.69-10.68,3.47-12.24l29.18-11h29l19.84,2.79h0l1.93.27a2.5,2.5,0,0,1,.53.21c1.27.65,4.37,3.18,4.37,12.44Z"/><path class="cls-3" d="M190,161.55c-3.3,6.54-5.81,20.73-7,19.26-1.7-2-5.78-5.11-10.89-3.68s-6-5-6.64-7a79.3,79.3,0,0,0-4.18-7.92c3.83,4.2,8.14,8.4,8.57,8.83.71.71,9.18.4,11.22-.61C182.25,169.88,186.36,165.67,190,161.55Z"/><path class="cls-2" d="M247.83,312.8h-24.9l-3.47-124.49c0-9.26-3.1-11.79-4.37-12.44,12.33,3.13,17.12,15.3,17.12,15.3s9.08,21.84,11,41.78C244.68,247.77,247.83,312.8,247.83,312.8Z"/><path class="cls-3" d="M231.09,282.79c-1.19-.61-4.83-2-6.32,3.28a7.23,7.23,0,0,1-2.25,3.84c-1.69-13.29-3.05-68.93-3.95-97C219.78,218.76,223.36,277.51,231.09,282.79Z"/><path class="cls-4" d="M222.93,312.8H137c.15-5.72.13-20.81.13-20.81,2.57-17.07-1.49-103.88-1.9-108.37s5.51-5.92,5.51-5.92c9.8-2.66,10.17,0,10.17,0s.23,64.1,27.78,64.1,27-67.47,27.55-67.67,3.06-2.75,4.29-3.29,6.53,4,7.33,5.68c.19.4.44,6.73.75,16.27a.57.57,0,0,0,0,.1c.89,28.09,2.26,83.73,3.95,97a15.31,15.31,0,0,0,.45,2.49C225.47,299.93,222.93,312.8,222.93,312.8Z"/><path class="cls-5" d="M147.43,197.9a48.76,48.76,0,0,1-6.08,2s.22,17.85.57,21.26,5.46,62.16.26,62.8c0,0,.26,24.36.72,28.79h74.57s1.66-9.75-.49-15.47-1.18-83.7-1.87-85,1.05-16.32,0-15.92-6.62,1.37-7.06,1.52S205.9,246,179.71,247.8C151.47,249.78,147.43,197.9,147.43,197.9Z"/><path class="cls-2" d="M137.57,289.7c-.29,5.64-6.16,8.19-13.55,4.16-10.1-5.51-35.51-62.14-36.89-63.82a7.52,7.52,0,0,0-2.45-2.14c-.41-.81-11.94-10.61-11.94-10.61l5.49-2.53C77.36,211,75.7,202,75.7,201.4v0c.1-.31,4.9-13.06,6-14.49s10-4.08,12-.81,11.12,20.82,10.62,23.47,0,13.67,0,13.67,5.27,7.51,11.12,16l.91-5.12,6.83-38.16s1.49-8.12,12.55-12.29c-4.16,1.57-3.47,12.24-3.47,12.24Z"/><path class="cls-3" d="M132.22,264.4a10.1,10.1,0,0,0-.94-1.87c-3.25-5.61-13.78-20.52-15.54-23l-.24-.34.91-5.12C127.72,244,132,263.57,132.22,264.4Z"/><path class="cls-6" d="M151.81,143.15S126.16,137.74,124.5,125s-1.61-30.53,6.78-32.56,13.84,1.82,13.84,1.82,17.68-39.35,39.53-25.58,34.54,49.45,26.5,55.16-13.59,5.81-13.59,5.81-.78-21.51-20-25.09c-8.5-1.59-20-2.88-22.27,3.22,0,0-.72-.93-3.62,2.71s-2.07,21-2.07,21-1.72-6.63-4-5.74-4.88,7.68-1.15,11.4A50,50,0,0,0,151.81,143.15Z"/><path class="cls-7" d="M231.47,283a2.37,2.37,0,0,1-.38-.21C231.33,282.91,231.47,283,231.47,283Z"/><polygon class="cls-8" points="102.66 203.84 116.11 197.8 112.23 189.03 98.57 195.07 102.66 203.84"/><polygon class="cls-8" points="66.45 220.28 78.23 214.76 76.3 205.08 62.26 211.3 66.45 220.28"/><path class="cls-9" d="M57.61,199.89l13.75,31.41-6,2.61a10.62,10.62,0,0,1-14-5.49l-5.17-11.88a10.62,10.62,0,0,1,5.35-13.91Z"/><path class="cls-10" d="M124.92,179.76l6.17,15.43a8.78,8.78,0,0,1-4.89,11.41l-7.77,3.11-12.59-31.64,7.56-3.15A8.77,8.77,0,0,1,124.92,179.76Z"/></svg>