<?xml version="1.0" encoding="utf-8"?>
<!-- Generator: Adobe Illustrator 21.0.2, SVG Export Plug-In . SVG Version: 6.00 Build 0)  -->
<svg version="1.1" id="圖層_1" xmlns="http://www.w3.org/2000/svg" xmlns:xlink="http://www.w3.org/1999/xlink" x="0px" y="0px"
	 viewBox="0 0 350 350" style="enable-background:new 0 0 350 350;" xml:space="preserve">
<style type="text/css">
	.st0{fill:#E3E2E2;}
	.st1{fill:#5B6BB1;}
	.st2{fill:#495AA7;}
	.st3{fill:#FFFFFF;}
	.st4{fill:#F5D04D;}
	.st5{fill:#8BB7C1;}
	.st6{fill:#F18D28;}
	.st7{fill:#8DB7C2;}
	.st8{fill:#1D2E61;}
</style>
<title>工作區域 6</title>
<path class="st0" d="M233.3,318c0,0-112.7,0-119,0s-37,0-37,0S20,300,53.6,290.2s-16.4-31-24.7-50.1s3.9-55.2,31.4-37.8
	s-16.9-51.5-13-81.2s54,26.9,64.1,17.1s-55.7-87.3-34-107.1s62.5,61.2,76.3,52.2s34.5-31.5,58.8-6.3s104.6,85.7,84.7,91
	s-69.9,12.8-44.4,32.5s61.9,61.1,53.6,69.2s-34-15.3-32.9-1.8c1.1,13.5,55.2,26.1,53,36.9s-23,13.5-23,13.5L233.3,318z"/>
<g>
	<path class="st1" d="M210.6,154.2c-0.3,3.4-7.3,9.2-7.7,12.8c-0.1,0.5-1.8,0.6-1.9,1.1c-0.2,1.9-0.5,3.9-1,5.8
		c-0.3,0.7-1.5,1.8-2.5,3.5c-2.6,4.7-7.3,9.2-7.9,9.9c-1.5,1.5-3.5,2.3-5.6,2.3c-2.3,0-5.2-1.8-6.5-3c-1.2-1-5.9-8.4-8.6-12.9
		c-0.4-0.6-0.8-1.2-1.1-1.9c-0.7-1.5-1.2-3.1-1.6-4.7c-0.3-1-11.1-7.3-11.3-8.4c-0.7-3.2-0.2-10.2,2.3-10.9c1.8-0.5,5.9,4.9,5.9,4.9
		l-3.2-9.1l6.7-11.9c0,0,14.3-5.5,15.1-6c0.8-0.5,21.5,21.1,21.1,23.5c-0.1,0.6-0.2,2.3-0.5,4.6
		C202.3,154.3,210.6,153.5,210.6,154.2z"/>
	<path class="st2" d="M162.1,151.2c0,0,2.7,4.8,2.7,6.4c0,0-0.5-11.8,0.8-12.7c1.3-0.9,1.4-4,1.7-4.4c0.3-0.4,1.4-0.1,1.4-0.1
		s8.5-8.6,11.3-3.6c2.8,5,4,15.8,9.2,15.5c5.2-0.3,8.4-3.3,9.4-0.5c1,2.8,2.3,11.3,2.3,11.3l1.9-15.5c0,0-19.7-23.9-21.5-23.9
		c-1.8,0.1-13.1,6-13.5,6.5c-0.4,0.5-6.9,7.4-6.6,8.1c0.3,0.8,0.4,9.2,0.6,9.6S162.1,151.2,162.1,151.2z"/>
	<path class="st1" d="M199.2,186.2c0,0-8.9,14.7-15.9,15.2c-7,0.5-13.4-11-13.8-12.7c-0.1-0.4-0.2-1.7-0.2-3.4
		c-0.2-3.4-0.3-8.4-0.4-11.7l2.1,3.3c2.6,4.1,5.7,8.8,6.5,9.6c1.3,1.2,4.2,3,6.5,3c2.1,0,4.1-0.9,5.6-2.3c2.1-2.1,4.1-4.4,5.9-6.7
		c0.8-1,1.4-2.1,2.1-3.2c0.4,2.4,0.8,4.9,1.2,6.6C199,185.3,199.2,186.2,199.2,186.2z"/>
	<path class="st2" d="M189.6,187.2c2.1-2.1,4.1-4.4,5.9-6.7c-0.8,2.1-2,4.7-3.1,8.2c-1.8,5.5-5.5,7.6-5.7,7.7c0.1-0.1,0.7-1,0-3.2
		s-7.1-0.8-10.1-3.6c-2.1-2.1-4.5-9-5.6-12.6c2.6,4.1,5.7,8.8,6.5,9.6c1.3,1.2,4.2,3,6.5,3C186.1,189.5,188.1,188.7,189.6,187.2z"/>
	<path class="st1" d="M141.6,318c0,0,0.1-108.9,0-113.2s4.8-7.2,4.8-7.2s21.4-11.1,22.8-12.3c0.1,1.7,1.7,3,1.7,3.4
		c0.3,1.7,4.6,10.4,11.6,9.9c7-0.5,15.5-11.1,15.5-11.1c0.1-1.2,0.3-2.4,0.7-3.6l0,0c0.1,0.4,20.9,7.1,25.8,9.8
		c6.7,3.6,6.7,7.6,6.7,7.6l0.5,116.7L141.6,318z"/>
	<path class="st2" d="M143.3,220.8c0,0,1.8,45,11.2,50.4c-6.5,3.5-11.2,9.6-12.9,16.9L143.3,220.8z"/>
	<path class="st2" d="M229.9,221.3c0,0-1.3,36.6-4.2,37.9c0,0,5.5,19.8,5.2,26.8L229.9,221.3z"/>
	<path class="st1" d="M143.9,199.8l-2.2,90.5c0,0-5,10.8-8.8,11.3c-3.8,0.5-8.8-3.8-15.8-9.6c-7-5.8-23.1-58.6-25.2-63.7
		c-2-5-12.1-9.3-12.1-9.3l5.3-1.8c0,0-1.3-16.6-1.5-18.8c-0.3-2.2,15.3-10.7,18.9-12.5c3.5-1.8,4.8,2.6,4.8,2.6
		c-0.6,1.9-1.2,3.7-2,5.5c-0.8,1.5-0.3,25.9,0.8,28.4c1,2.5,17.8,28.6,18.4,29.4l0,0c0,0,0.4-3.1,0.9-8.1c0.6-6,1.6-14.7,2.4-23.6
		C129,204.1,143.9,199.8,143.9,199.8z"/>
	<path class="st2" d="M135.9,269.4c-2.1-4.5-11.7-17.2-11.7-17.2s0.4-3.1,0.9-8.1C129.4,250.4,135.7,268.7,135.9,269.4z"/>
	<path class="st3" d="M146.4,197.6c1-3.1,3.4-5.4,6.5-6.4c0,0,2.8-1.2,3.6,1.2s4,58.6,26.1,58.6s28-62.7,28-62.7
		c1.2-1.1,2.9-1.3,4.4-0.7c1.6,0.6,2.8,1.9,3.3,3.5c0,0,11.1,98.1,13.4,101.3c2.3,3.2,4.1,25.6,4.1,25.6h-99.8
		c0,0,5.1-28.5,7.9-31.2C146.7,284.1,146.4,197.6,146.4,197.6z"/>
	<path class="st4" d="M149.7,216.9c0,0,0.6-5.9,4.9-7.3c0,0,0.8,7.3,1.4,9.3c0.6,2,6.1,39.5,28,38.5c21.5-1,26.5-46,26.5-46
		s1.3-4.9,3.5-4c2.2,0.9,2.3,8.3,2.3,8.3s6.5,77.8,8.4,80.5c1.9,2.7,3.5,21.9,3.5,21.9H145c0,0,4.3-24.3,6.6-26.6
		C153.9,289,149.7,216.9,149.7,216.9z"/>
	<polygon class="st5" points="85,217.4 74.2,220.9 69.7,208.3 83.9,203.1 	"/>
	<polygon class="st5" points="105,211.3 118.1,206.2 113.8,192.6 104.9,195.9 	"/>
	<path class="st6" d="M54.6,211.3l5.9,18.8c0,0-9.2,2.9-12.2-6.3C45.3,214.6,54.6,211.3,54.6,211.3z"/>
	<path class="st6" d="M127.6,185.3l6.3,16.6c0,0,7.8-2.5,4.9-11.6C135.8,181.3,127.6,185.3,127.6,185.3z"/>
	<polygon class="st4" points="74.2,221.4 78.6,234.1 63,240 50,201.1 65.6,195.9 69.7,208.8 	"/>
	<polygon class="st4" points="113.8,192.6 110.4,181.8 126.3,176.5 138.7,214 122.3,219.8 	"/>
	<path class="st1" d="M294.4,218.7c0,0-10.1,4.3-12.1,9.3c-2,5-18.1,57.8-25.2,63.7c-7,5.8-12.1,10.1-15.8,9.6
		c-3.8-0.5-10.3-10.5-10.3-10.5l-1.5-93c0,0,15.6,5.9,17.1,22.2c0.9,9.8,1.9,19.2,2.5,25.2c0.4,4,0.7,6.5,0.7,6.5
		s17.4-26.9,18.4-29.4c1-2.5,1.5-26.9,0.8-28.4c-0.8-1.8-1.4-3.7-2-5.5c0,0,1.3-4.4,4.8-2.6c3.5,1.8,19.1,10.3,18.9,12.5
		c-0.3,2.2-1.5,18.8-1.5,18.8L294.4,218.7z"/>
	<path class="st2" d="M249.9,251.6c0,0-7.5,12.3-8.7,18c0,0,1.7-14.3,7.9-24.5C249.6,249.1,249.9,251.6,249.9,251.6z"/>
	<polygon class="st7" points="289.2,216.9 300,220.4 304.5,207.8 290.3,202.6 	"/>
	<polygon class="st7" points="269.2,210.8 256,205.7 260.3,192.1 269.3,195.4 	"/>
	<path class="st6" d="M319.6,210.8l-5.9,18.8c0,0,9.2,2.9,12.2-6.3C328.9,214.1,319.6,210.8,319.6,210.8z"/>
	<path class="st6" d="M246.6,184.8l-6.3,16.7c0,0-7.8-2.5-4.9-11.6C238.3,180.8,246.6,184.8,246.6,184.8z"/>
	<polygon class="st4" points="300,220.9 295.6,233.6 311.2,239.5 324.2,200.6 308.5,195.4 304.5,208.3 	"/>
	<polygon class="st4" points="260.3,192.1 263.8,181.3 247.9,176 235.5,213.5 251.9,219.3 	"/>
	<path class="st8" d="M164.9,157.9c0,0-0.4-6.7-3.6-6c-3.3,0.7-1.2,10.6,1.1,12.3c1.3,0.9,2.6,1.9,3.8,3c0,0-8.1-5.4-10.7-3.7
		c-2.6,1.8-15.8-13.5-11.6-25.5s13.6-7.9,14-8.5c0.4-0.6,4.3-30.7,24.2-23.1c19.9,7.5,35,36,32.7,42.4c-1.6,4.1-4.1,7.9-7.2,10.9
		c0,0,0.3-4.6-2.2-3.9c-2.5,0.6-4.2,7-4.3,7.5c-0.1,0.5,0.3-11.9-0.6-13c-0.9-1-8.8-0.4-11.4-3.3s-6.5-17-9.9-16s-9.2,7-9.9,8.9
		c-0.7,1.9-0.3-2.3-1.5-3c-1.3-0.8-3.1,2.6-3.3,5.2C164.2,144.6,164.9,157.9,164.9,157.9z"/>
</g>
</svg>
