<svg id="圖層_1" data-name="圖層 1" xmlns="http://www.w3.org/2000/svg" viewBox="0 0 350 350"><defs><style>.cls-1{fill:#e3e2e2;}.cls-2{fill:#5b6bb1;}.cls-3{fill:#495aa7;}.cls-4{fill:#fff;}.cls-5{fill:#f5d04d;}.cls-6{fill:#8bb7c1;}.cls-7{fill:#f18d28;}.cls-8{fill:#8db7c2;}.cls-9{fill:#1d2e61;}</style></defs><title>工作區域 6</title><path class="cls-1" d="M233.31,318s-112.69,0-119,0-37,0-37,0S20,300,53.56,290.18s-16.43-31-24.69-50.15,3.87-55.21,31.35-37.84-16.93-51.54-13-81.25,54,26.92,64.1,17.06S55.65,50.73,77.29,30.92s62.52,61.21,76.29,52.21,34.47-31.51,58.78-6.3,104.6,85.66,84.71,91-69.9,12.8-44.45,32.47,61.94,61.08,53.6,69.18-34-15.3-32.88-1.8,55.19,26.11,53,36.91-23,13.47-23,13.47Z"/><path class="cls-2" d="M203.3,122.58c-.37,4.05-8.73,11-9.2,15.21-.07.59-2.19.76-2.26,1.32A44.44,44.44,0,0,1,190.7,146c-.34.89-1.84,2.17-2.95,4.2-3.05,5.61-8.74,11-9.46,11.83a9.82,9.82,0,0,1-6.66,2.78c-2.8,0-6.15-2.2-7.75-3.6-1.38-1.21-7-10.06-10.31-15.38a25.48,25.48,0,0,1-1.29-2.23A34.15,34.15,0,0,1,150.4,138c-.32-1.19-13.21-8.72-13.52-10-.89-3.77-.26-12.14,2.8-13,2.17-.61,7,5.8,7,5.8l-3.8-10.8,8-14.2s17-6.6,18-7.2,25.6,25.21,25.21,28c-.1.71-.29,2.74-.54,5.43C193.49,122.7,203.37,121.82,203.3,122.58Z"/><path class="cls-3" d="M145.54,119s3.17,5.75,3.27,7.67c0,0-.65-14.05.93-15.18s1.65-4.73,2-5.25,1.7-.11,1.7-.11,10.15-10.25,13.45-4.25,4.8,18.83,11,18.53,10-3.9,11.18-.6,2.78,13.5,2.78,13.5l2.25-18.53S170.59,86.23,168.42,86.3s-15.6,7.13-16.13,7.73-8.18,8.78-7.88,9.68.53,11,.68,11.4S145.54,119,145.54,119Z"/><path class="cls-2" d="M189.7,160.8s-10.62,17.57-19,18.17-16-13.17-16.41-15.17c-.1-.48-.19-2-.28-4-.18-4-.34-10-.43-13.93l2.5,3.95c3.13,4.92,6.74,10.48,7.81,11.43,1.6,1.4,4.95,3.6,7.75,3.6a9.82,9.82,0,0,0,6.66-2.78,85.7,85.7,0,0,0,7-8,34.43,34.43,0,0,0,2.45-3.81c.44,2.84,1,5.83,1.4,7.9C189.47,159.73,189.7,160.8,189.7,160.8Z"/><path class="cls-3" d="M178.29,162a85.7,85.7,0,0,0,7-8c-1,2.53-2.42,5.64-3.75,9.73-2.14,6.57-6.61,9.12-6.75,9.19.06-.09.79-1.21,0-3.79s-8.47-.9-12-4.33c-2.56-2.48-5.35-10.68-6.72-15,3.13,4.92,6.74,10.48,7.81,11.43,1.6,1.4,4.95,3.6,7.75,3.6A9.82,9.82,0,0,0,178.29,162Z"/><path class="cls-2" d="M121.08,318s.15-129.93,0-135,5.7-8.55,5.7-8.55,25.51-13.2,27.22-14.7c.1,2,2,3.56,2.08,4,.4,2,5.43,12.41,13.82,11.81s18.43-13.2,18.43-13.2a22.11,22.11,0,0,1,.82-4.31h0c.08.46,24.89,8.49,30.77,11.63,8,4.27,8,9.07,8,9.07l.6,139.24Z"/><path class="cls-3" d="M123.12,202.05s2.16,53.72,13.41,60.17a30.5,30.5,0,0,0-15.39,20.1Z"/><path class="cls-3" d="M226.41,202.65s-1.5,43.66-5,45.16c0,0,6.51,23.56,6.18,32Z"/><path class="cls-2" d="M123.74,177,121.08,285s-6,12.9-10.5,13.5-10.5-4.5-18.9-11.4-27.61-69.92-30-75.92-14.4-11.1-14.4-11.1l6.3-2.1s-1.5-19.81-1.8-22.38,18.3-12.73,22.51-14.9S80,163.8,80,163.8a68.09,68.09,0,0,1-2.4,6.6c-.9,1.8-.3,30.91.9,33.91s21.26,34.11,21.89,35.08v0s.43-3.74,1.07-9.66c.77-7.15,1.85-17.48,2.83-28.15C106.08,182.1,123.74,177,123.74,177Z"/><path class="cls-3" d="M114.27,260c-2.47-5.42-13.9-20.54-13.9-20.54s.43-3.74,1.07-9.66C106.44,237.39,114,259.24,114.27,260Z"/><path class="cls-4" d="M126.78,174.45a11.92,11.92,0,0,1,7.7-7.65s3.37-1.44,4.29,1.38,4.74,69.89,31.14,69.89,33.39-74.82,33.39-74.82a4.92,4.92,0,0,1,5.2-.85,6.5,6.5,0,0,1,3.93,4.18s13.21,117.05,15.94,120.85S233.31,318,233.31,318h-119s6.11-34,9.46-37.21S126.78,174.45,126.78,174.45Z"/><path class="cls-5" d="M130.68,197.4s.66-7,5.83-8.7c0,0,.91,8.7,1.67,11.1s7.22,47.14,33.45,45.91c25.66-1.2,31.66-54.91,31.66-54.91s1.53-5.8,4.2-4.78,2.7,9.88,2.7,9.88,7.71,92.75,10,96S224.31,318,224.31,318H125.08s5.1-29,7.89-31.78S130.68,197.4,130.68,197.4Z"/><polygon class="cls-6" points="53.56 198 40.66 202.21 35.26 187.2 52.23 180.91 53.56 198"/><polygon class="cls-6" points="77.34 190.7 93.07 184.6 87.94 168.42 77.29 172.41 77.34 190.7"/><path class="cls-7" d="M17.25,190.7l7.05,22.45s-11,3.45-14.55-7.5S17.25,190.7,17.25,190.7Z"/><path class="cls-7" d="M104.32,159.74l7.46,19.82s9.3-3,5.85-13.82S104.32,159.74,104.32,159.74Z"/><polygon class="cls-5" points="40.66 202.81 45.91 217.96 27.31 225.01 11.84 178.6 30.46 172.35 35.26 187.8 40.66 202.81"/><polygon class="cls-5" points="87.94 168.42 83.87 155.54 102.84 149.28 117.63 193.95 98.01 200.89 87.94 168.42"/><path class="cls-2" d="M303.36,199.51s-12,5.1-14.4,11.1-21.61,69-30,75.92-14.4,12-18.9,11.4-12.32-12.56-12.32-12.56L226,174.48s18.59,7,20.39,26.52c1.07,11.65,2.26,22.87,3,30,.53,4.83.86,7.79.86,7.79s20.71-32.11,21.91-35.11,1.8-32.11.9-33.91a68.07,68.07,0,0,1-2.4-6.6s1.5-5.25,5.7-3.07,22.81,12.33,22.51,14.9-1.8,22.38-1.8,22.38Z"/><path class="cls-3" d="M250.25,238.82s-9,14.7-10.34,21.46c0,0,2-17.08,9.48-29.25C249.91,235.85,250.25,238.82,250.25,238.82Z"/><polygon class="cls-8" points="297.06 197.41 309.97 201.61 315.37 186.6 298.4 180.31 297.06 197.41"/><polygon class="cls-8" points="273.28 190.1 257.55 184 262.68 167.82 273.34 171.81 273.28 190.1"/><path class="cls-7" d="M333.37,190.1l-7.05,22.45s11,3.45,14.55-7.5S333.37,190.1,333.37,190.1Z"/><path class="cls-7" d="M246.31,159.14,238.85,179s-9.3-3-5.85-13.82S246.31,159.14,246.31,159.14Z"/><polygon class="cls-5" points="309.97 202.21 304.71 217.36 323.32 224.41 338.79 178 320.17 171.75 315.37 187.2 309.97 202.21"/><polygon class="cls-5" points="262.68 167.82 266.75 154.94 247.79 148.68 233 193.35 252.61 200.29 262.68 167.82"/><path class="cls-9" d="M148.84,127s-.45-8-4.35-7.2-1.49,12.7,1.37,14.68A50.47,50.47,0,0,1,150.4,138s-9.66-6.46-12.81-4.36-18.84-16.05-13.85-30.46S140,93.73,140.43,93s5.1-36.61,28.81-27.61,41.71,42.91,39,50.56A36.36,36.36,0,0,1,199.62,129s.38-5.43-2.62-4.68-5,8.4-5.1,9,.3-14.25-.75-15.45-10.5-.45-13.65-3.9-7.8-20.26-11.85-19.05-11,8.4-11.85,10.65-.3-2.7-1.8-3.6-3.75,3.15-3.9,6.15S148.84,127,148.84,127Z"/></svg>