<?xml version="1.0" encoding="utf-8"?>
<!-- Generator: Adobe Illustrator 21.0.2, SVG Export Plug-In . SVG Version: 6.00 Build 0)  -->
<svg version="1.1" id="圖層_1" xmlns="http://www.w3.org/2000/svg" xmlns:xlink="http://www.w3.org/1999/xlink" x="0px" y="0px"
	 viewBox="0 0 350 350" style="enable-background:new 0 0 350 350;" xml:space="preserve">
<style type="text/css">
	.st0{fill:#E3E2E2;}
	.st1{fill:#8DB8BF;}
	.st2{fill:#F4B648;}
	.st3{fill:#F18F27;}
	.st4{fill:#F5D04D;}
	.st5{fill:#5B6BB1;}
	.st6{fill:#4A5AA7;}
	.st7{fill:#1D2E61;}
	.st8{fill:#FFFFFF;}
</style>
<title>工作區域 6 複本 2</title>
<path class="st0" d="M181.9,314.4H99.8c0,0-49.6-18.3-43.5-33.5c8.6-21.6,42.9,7.6,43.5-13.8S13,225.8,18.7,209.3
	s49.9,18.3,57.1-3.3s-57.3-35.1-34.7-68.3s68.2,56.9,80.2,45.2s-50.5-60.4-34.1-77.8c18-19.1,41.8,48.5,108.2-12.4
	c45.3-41.6-3.9,57.9,38.9,47.7s92.2-18.7,68.5,7c-23.9,25.8-69.5,34.8-59,43.5s89.4-17.6,96.4,6.3s-66.4,52.9-89.7,60.8
	c-22.6,7.6-17.4,23.2,11.1,20s-2,36.3-2,36.3L181.9,314.4z"/>
<g>
	<path class="st1" d="M57.1,139.7c0,0,106.3-41.4,232.6-2.4l1.2-11.3c0,0-122.9-38.9-234.8,4.1L57.1,139.7z"/>
	<path class="st2" d="M17.6,122.1l5.8,43.4l-4.3,1.2c-4.2,1.2-8.4-2.3-9.3-7.9c0-0.1,0-0.3-0.1-0.4L6.6,135c-0.8-5.6,2.1-11,6.4-12
		c0.1,0,0.2,0,0.3-0.1L17.6,122.1z"/>
	<path class="st3" d="M32.5,106.2l8.4,63.2l-10.6,3c-3.9,1.1-7.7-2.2-8.5-7.3c0-0.1,0-0.2,0-0.3l-6.2-45.6c-0.7-5.1,1.9-10,5.8-10.9
		c0.1,0,0.2,0,0.3-0.1L32.5,106.2z"/>
	<path class="st4" d="M52.7,91.6l10.9,81.8l-13.7,3.9c-5,1.4-9.9-2.8-11-9.4c0-0.1,0-0.3-0.1-0.4l-8-59.2c-0.9-6.6,2.4-13,7.5-14.2
		c0.1,0,0.2-0.1,0.4-0.1L52.7,91.6z"/>
	<path class="st2" d="M329.6,121.5l-5.8,43.4l4.3,1.2c4.2,1.2,8.4-2.3,9.3-7.9c0-0.1,0-0.3,0.1-0.4l3.2-23.4c0.8-5.6-2.1-11-6.4-12
		c-0.1,0-0.2,0-0.3-0.1L329.6,121.5z"/>
	<path class="st3" d="M314.7,105.6l-8.4,63.2l10.6,3c3.9,1.1,7.7-2.1,8.5-7.2c0-0.1,0-0.2,0.1-0.3l6.1-45.7c0.7-5.1-1.9-10-5.8-10.9
		c-0.1,0-0.2,0-0.3-0.1L314.7,105.6z"/>
	<path class="st4" d="M294.5,91l-10.9,81.8l13.7,4c5,1.4,9.9-2.8,11-9.4c0-0.1,0-0.3,0.1-0.4l8-59.2c0.9-6.6-2.5-13-7.5-14.1
		c-0.1,0-0.2-0.1-0.4-0.1L294.5,91z"/>
	<path class="st5" d="M190.7,179.5c0,1.1-0.1,2.3-0.3,3.4c-0.8,1.3-1.8,2.4-2.9,3.2c-2.9,2.8-6,5.4-9.1,7.7c-1.5,0.9-4,0-5.4-0.8
		c-1.2-0.6-7.7-3.8-10.6-6.1c-0.5-0.3-0.9-0.8-1.3-1.3c-0.5-1.4-0.8-2.8-0.9-4.3c-0.5-3.6-0.9-8.6-1.1-11.8l0,0
		c-0.1-1.9-0.2-3.2-0.2-3.2l-2.1-7.1c0,0,1.1-6.6,1.6-6.7s4.5-3.7,4.5-3.7s14.7-6.6,16.6-5.5c2,1.1,10.6,18.7,10.9,20.8
		c0.1,0.5,0.1,1.9,0.2,3.6C190.7,171.2,190.8,176.2,190.7,179.5z"/>
	<path class="st6" d="M158.7,168.7l1.5,6.8c0,0-0.7-16.2-0.4-17.2c0.5-1,1.1-1.9,1.8-2.6c0,0,14.2-12.9,15.1-5.1
		c1.1,8.8,12.7,17,13.5,17.1s2-0.3,2-0.7s-9.1-22.7-9.1-22.7s-7.9-6-8.5-5.7c-0.6,0.3-16.5,13.6-16.5,13.6l-3.9,9L158.7,168.7z"/>
	<path class="st5" d="M160.1,181.4c0,0-2.4,2.8-5-4.5c-2.5-7.3,3.9-7.3,3.9-7.3l0,0C159.3,172.9,159.7,177.8,160.1,181.4z"/>
	<path class="st7" d="M160.5,153.7c-0.9-1.1-3.1,1.5-2.4,3.4c0.7,1.9,2,16.5,2,16.5l-1.1-4c-1.2-0.1-2.4,0.5-3.2,1.6
		c-0.8,0.9-1.3,1.9-0.1,6.7c1.3,5,4.3,3.4,4.3,3.4l0.9,4.3c0,0,0.6,0.7-10.6-7.3c-11.2-7.9-0.8-31.9,1.8-33.5
		c2.5-1.5,5.8,1.4,5.8,1.4s1.6-19.2,25.5-20.9s11.4,43.9,10.8,43.3s-1.6-1.1-3.7-1.1s-10.8-19.9-12.4-22.8S160.5,153.6,160.5,153.7
		L160.5,153.7z"/>
	<path class="st5" d="M187.5,186.1v17.8c0,0-8.7,5.3-12.8,5.6s-10.3-3.3-10.6-5.2c-0.3-1.5-1.3-12.5-1.8-17.3c0.6,0.5,1.4,1,2.3,1.6
		c3.2,2,7.4,4,8.3,4.5c1.4,0.8,3.9,1.7,5.4,0.8C181.5,191.5,184.6,188.9,187.5,186.1z"/>
	<path class="st5" d="M194.6,173.1c-1.6,5.2-3.3,6.6-4.3,6.4c0.1-3.3,0-8.3-0.1-11.8C191.8,167.6,196.3,167.7,194.6,173.1z"/>
	<path class="st5" d="M163.6,199.7l-15.2,1.4c0,0-14.8-0.2-11.1,29.2s9.5,81.3,9.5,81.3h59.9c0,0,7.7-79.1,7.7-79.9
		s2.7-29.2-12.8-31c-15.2-1.8-17.4-1-17.4-1L163.6,199.7z"/>
	<path class="st6" d="M185.4,187l1.6-0.7c-0.9,2.2-1.9,4.3-3,6.3c-2,2.9-4.1,5.6-6.4,8c-1.1,0.9-6.4-2-7-4.5
		c-0.4-1.6-5.4-6.4-7.6-8.6c3.8,0.8,7.3,1.9,8.7,1.9c2.6,0.1,5.2-0.1,7.8-0.5C181.4,188.5,183.4,187.8,185.4,187z"/>
	<path class="st8" d="M149.5,203.7c1.5,47.8-6.7,49.4-9.2,52.5c-2.5,3.2,2.8,56.1,2.8,56.1h67.9c0,0,2.8-52.1,1-54.5
		c-1.8-2.4-11.5-56.9-11.5-56.9s-0.4-2-2.5-2c-1.4,0-2.8,0.4-4.2,1c0,0,2.8,53.7-16.6,53.7s-19.8-52.8-19.8-52.8s-0.1-2-2.8-2
		c-1.8,0.1-3.5,0.8-5,2.1L149.5,203.7z"/>
	<path class="st4" d="M152.4,224c1.3,40-4.1,38.6-6.2,41.2c-2.1,2.7,2.3,47,2.3,47h56.9c0,0,4.8-45.3,3.3-47
		c-7.5-8.7-7.3-47.2-7.3-47.2c-0.7-1-1.7-1.6-2.7-1.6c-1.8,0-1.3,5.6-1.3,5.6s-3.8,40.8-20,40.8s-21.5-34.1-21.5-34.1
		s-0.4-8-1.6-10.8c-1.2-2.6-2,1.9-2,1.9L152.4,224z"/>
	<path class="st5" d="M138.2,237.9c0,0-44.2-37.9-46.1-41.8s-10.7-53.1-12.1-55.2c0,0-6-2.4-6.7-5.6c-0.7-3.2-0.9-18,0.7-20.4
		s8.4-5.3,11.3-5.8c2.9-0.5,5.7,3.2,6.8,4.4c1.2,1.2,0.5,16.1,0.5,16.1l3.2-1.1c0,0-5,8.8-4.8,11.6c0.2,2.7,15.4,32.4,17.7,39.8
		l3,1.8l27,16c0,0,7.7,1.2,9.7,4C150.2,204.5,138.2,237.9,138.2,237.9z"/>
	<path class="st6" d="M90.5,131.5c0,0-2.4,7-5.1,8.2c-1.1,0.6-2.3,1-3.5,1.2l8.5,5.3c0,0-1.2-8,0.6-11.6S90.5,131.5,90.5,131.5z"/>
	<path class="st6" d="M111.7,190.6l-3-10.6l3,1.8C111.9,184.7,111.9,187.7,111.7,190.6z"/>
	<path class="st6" d="M129,216.4c0,0,15.9,5.7,15.1,13.5c-0.3,3.6-0.8,7.2-1.5,10.8c-0.1-3.5-1.4-6.7-3.5-8.8
		C135.7,228.5,129.4,220.7,129,216.4z"/>
	<path class="st5" d="M92.8,118.7l4-0.9c0,0,0.1-7.7,0-8.7s-2.8,0.8-3,2.5C93.5,113.2,92.8,118.7,92.8,118.7z"/>
	<path class="st5" d="M278.4,135.3c-0.7,3.2-6.7,5.6-6.7,5.6c-1.4,2-10.3,51.3-12.1,55.2c-1.9,4-46.1,41.8-46.1,41.8
		s-12.2-33.5-10.2-36.2s9.7-4,9.7-4l26.3-15.6l3.8-2.2c2.3-7.5,17.6-37.1,17.7-39.8c0.1-2.7-4.8-11.6-4.8-11.6l3,0.6
		c0,0-0.5-14.4,0.6-15.6c1.2-1.2,3.9-4.9,6.8-4.4c2.9,0.5,9.7,3.4,11.3,5.8S279,132.1,278.4,135.3z"/>
	<path class="st6" d="M259.3,131.9c0,0,6.9,9.6,10.2,9.7c3.3,0.1-3.8,4.1-6.6,5.5c-2.8,1.3-4.6,2.4-4.6,2.4s3.5-5.2,3.7-7.2
		C262.1,140.3,259.3,131.9,259.3,131.9z"/>
	<path class="st6" d="M243,180l-6.4,15c0.1-0.3,1.4-7.4,2.7-12.8L243,180z"/>
	<path class="st6" d="M224.6,216.4c0,0-15.9,5.7-15.1,13.5c0.3,3.6,0.8,7.2,1.5,10.8c0,0-0.5-6.8,2.9-10.1
		C217.3,227.2,224.2,220.7,224.6,216.4z"/>
	<path class="st5" d="M258.9,118.3l-4-0.8c0,0-0.1-7.8,0-8.8c0.1-1,2.8,0.8,3,2.5C258.1,112.8,258.9,118.3,258.9,118.3z"/>
</g>
</svg>
