<?xml version="1.0" encoding="utf-8"?>
<!-- Generator: Adobe Illustrator 21.0.2, SVG Export Plug-In . SVG Version: 6.00 Build 0)  -->
<svg version="1.1" id="圖層_1" xmlns="http://www.w3.org/2000/svg" xmlns:xlink="http://www.w3.org/1999/xlink" x="0px" y="0px"
	 viewBox="0 0 350 350" style="enable-background:new 0 0 350 350;" xml:space="preserve">
<style type="text/css">
	.st0{fill:#E3E2E2;}
	.st1{fill:#5B6BB1;}
	.st2{fill:#4B5AA7;}
	.st3{fill:#FFFFFF;}
	.st4{fill:#F5D04D;}
	.st5{fill:#1D2E61;}
	.st6{fill:none;stroke:#5B6BB1;stroke-width:0.65;stroke-miterlimit:10;}
	.st7{fill:#8DB7C1;}
	.st8{fill:#F18F27;}
	.st9{fill:#F18F28;}
</style>
<title>工作區域 6 複本</title>
<path class="st0" d="M257.4,312.8h-143c0,0-80-12.9-69-36.8s52.5,5.4,38.5-21.5s-67-26.4-63.4-50.7s60.6,13,66.1-7.5
	S26,157.6,28.7,136.9s78.3,39,78.6,16S26.9,102.5,26,73.1S98.6,86.2,141.4,57c45.8-31.2,166.4,35.5,126.5,59
	c-42,24.7-34.4,43.3,6,59.9s72.9,49.6,45.9,58.9c-27.5,9.5-51.6-23.9-59,0s-0.7,34.8,45.2,47.6s-4.6,30.4-4.6,30.4L257.4,312.8z"/>
<g>
	<path class="st1" d="M201.1,162c0,0.1,0,0.6,0,1.3c0,2.7-0.1,9-0.4,13.8c-0.2,2.8-0.5,5.1-0.9,5.8c-0.7,1.1-1.5,2.1-2.4,3.1v0
		c-3.3,4-8.8,9.8-10,10.4c-1.6,0.8-8.6,1.1-9.2,0.5c-3.5-3.4-6.9-7-10.1-10.8l0,0l0,0c-0.6-0.7-1.1-1.5-1.6-2.3
		c-1.2-3-2.2-6-3.1-9.1c-1.2-4.3-2.3-8.5-2.3-9v-17.9l4.1-8.6c0,0,12-4.4,12.3-4.2s13.8,7.4,16.2,8.4c2.3,1.1,8,11.2,8.3,12.4
		C202.2,157,201.1,162,201.1,162z"/>
	<path class="st2" d="M159.8,160.6c0,0,2.1,5.5,2.4,6.5c0.2,1,0.6-18.5,2.7-19.9c2.1-1.4,1.5-1.8,1.5-1.8s28,6.9,30,12.7
		c2,5.8,4.5,5.2,4.5,5.2s2.6-12.1,2-13.1c-0.6-0.9-6.2-10.7-7.2-11.2c-0.9-0.5-10.7-1.6-12.3-1.8s-21.4,2.6-21.8,3.4
		c-0.4,0.8-3.8,12.6-3.4,13.1S159.8,160.6,159.8,160.6z"/>
	<path class="st1" d="M163.4,174.2c-0.7,0.2-2.6-1.4-5.7-4.5c-4-4-1.4-9.9,1.4-9.9c0.8-0.1,1.6,0.4,1.9,1.2v4.2
		C161.1,165.8,162.1,169.9,163.4,174.2z"/>
	<path class="st1" d="M202.1,176.1c-0.7-0.2-1.4,0.4-1.9,0.5c0.3-4.8,0.4-11.1,0.4-13.8c1.1-0.8,3.3-2.1,4.5-0.1
		C206.7,165.3,203.3,176.4,202.1,176.1z"/>
	<path class="st1" d="M199.1,204.3c-0.6,6-10.3,9.1-16.1,9.1c-5.9,0-13.5-5.6-13.6-6c-0.1-0.4-1.1-17.9-1.2-21.2
		c0.8,1.1,1.9,2.3,3.1,3.6c3.1,3.4,6.6,6.9,7,7.2c0.6,0.6,7.5,0.3,9.2-0.5c0.9-0.5,4.3-3.9,7.3-7.3c1-1.1,1.9-2.2,2.7-3.1v0
		L199.1,204.3z"/>
	<path class="st1" d="M222,311.9l-69.7,0.2l-1-18.2l-4.3-76.7c0,0-0.6-8.7,2.8-10l23.8-9h23.7l16.2,2.3l0,0l1.6,0.2
		c0.2,0,0.3,0.1,0.4,0.2c1,0.5,3.6,2.6,3.6,10.2L222,311.9z"/>
	<path class="st2" d="M194.6,189.2c-2.7,5.3-4.7,16.9-5.7,15.7c-1.4-1.6-4.7-4.2-8.9-3s-4.9-4.1-5.4-5.7c-1-2.2-2.2-4.4-3.4-6.5
		c3.1,3.4,6.6,6.9,7,7.2c0.6,0.6,7.5,0.3,9.2-0.5C188.3,196.1,191.6,192.6,194.6,189.2z"/>
	<path class="st1" d="M241.8,312.8h-20.3l-2.8-101.7c0-7.6-2.5-9.6-3.6-10.2c10.1,2.6,14,12.5,14,12.5s7.4,17.8,9,34.1
		C239.3,259.7,241.8,312.8,241.8,312.8z"/>
	<path class="st2" d="M228.2,288.3c-1-0.5-3.9-1.6-5.2,2.7c-0.3,1.2-0.9,2.3-1.8,3.1c-1.4-10.9-2.5-56.3-3.2-79.2
		C218.9,236,221.8,284,228.2,288.3z"/>
	<path class="st3" d="M221.5,312.8h-70.2c0.1-4.7,0.1-17,0.1-17c2.1-13.9-1.2-84.9-1.6-88.5c-0.3-3.7,4.5-4.8,4.5-4.8
		c8-2.2,8.3,0,8.3,0s0.2,52.4,22.7,52.4s22.1-55.1,22.5-55.3c0.4-0.2,2.5-2.2,3.5-2.7s5.3,3.3,6,4.6c0.2,0.3,0.4,5.5,0.6,13.3
		c0,0,0,0.1,0,0.1c0.7,22.9,1.8,68.4,3.2,79.2c0.1,0.7,0.2,1.4,0.4,2C223.6,302.3,221.5,312.8,221.5,312.8z"/>
	<path class="st4" d="M159.8,218.9c-1.6,0.7-3.3,1.2-5,1.6c0,0,0.2,14.6,0.5,17.4s4.5,50.8,0.2,51.3c0,0,0.2,19.9,0.6,23.5H217
		c0,0,1.4-8-0.4-12.6s-1-68.4-1.5-69.4s0.9-13.3,0-13c-0.9,0.3-5.4,1.1-5.8,1.2c-0.4,0.1-1.8,39.3-23.1,40.8
		C163.1,261.3,159.8,218.9,159.8,218.9z"/>
	<path class="st1" d="M151.8,293.9c-0.2,4.6-5,6.7-11.1,3.4c-8.3-4.5-29-50.8-30.1-52.1c-0.5-0.7-1.2-1.3-2-1.7
		c-0.3-0.7-9.8-8.7-9.8-8.7l4.5-2.1c-0.7-3.1-2.1-10.4-2.1-10.9l0,0c0.1-0.3,4-10.7,4.9-11.8s8.2-3.3,9.8-0.7s9.1,17,8.7,19.2
		s0,11.2,0,11.2s4.3,6.1,9.1,13.1l0.7-4.2l5.6-31.2c0,0,1.2-6.6,10.3-10c-3.4,1.3-2.8,10-2.8,10L151.8,293.9z"/>
	<path class="st2" d="M147.4,273.3c-0.2-0.5-0.5-1-0.8-1.5c-2.7-4.6-11.3-16.8-12.7-18.8l-0.2-0.3l0.7-4.2
		C143.7,256.6,147.2,272.6,147.4,273.3z"/>
	<path class="st5" d="M163.4,174.2c0,0-21-4.4-22.3-14.8c-1.4-10.4-1.3-24.9,5.5-26.6s11.3,1.5,11.3,1.5s14.4-32.1,32.3-20.9
		s28.2,40.4,21.6,45.1c-6.6,4.7-11.1,4.7-11.1,4.7s-0.6-17.6-16.3-20.5c-6.9-1.3-16.3-2.4-18.2,2.6c0,0-0.6-0.8-3,2.2
		c-2.4,3-1.7,17.2-1.7,17.2s-1.4-5.4-3.3-4.7s-4,6.3-0.9,9.3C159.2,171.1,161.2,172.8,163.4,174.2z"/>
	<path class="st6" d="M228.5,288.5c-0.1,0-0.2-0.1-0.3-0.2C228.4,288.4,228.5,288.5,228.5,288.5z"/>
	<polygon class="st7" points="123.2,223.8 134.2,218.9 131.1,211.7 119.9,216.6 	"/>
	<polygon class="st7" points="93.7,237.2 103.3,232.7 101.7,224.8 90.2,229.9 	"/>
	<path class="st8" d="M86.4,220.6l11.2,25.7l-4.9,2.1c-4.4,1.9-9.5-0.1-11.4-4.5c0,0,0,0,0,0l-4.2-9.7c-1.9-4.3,0.1-9.4,4.4-11.4
		L86.4,220.6z"/>
	<path class="st9" d="M141.4,204.1l5,12.6c1.5,3.7-0.3,7.8-4,9.3l-6.3,2.5l-10.3-25.8l6.2-2.6C135.7,198.6,139.9,200.4,141.4,204.1
		C141.4,204.1,141.4,204.1,141.4,204.1z"/>
</g>
</svg>
