<svg id="圖層_1" data-name="圖層 1" xmlns="http://www.w3.org/2000/svg" xmlns:xlink="http://www.w3.org/1999/xlink" viewBox="0 0 495 396"><defs><style>.cls-1{mask:url(#mask);filter:url(#luminosity-noclip-3);}.cls-2,.cls-4{mix-blend-mode:multiply;}.cls-2{fill:url(#鍊踑臇蜸馯鳺艜_23);}.cls-3{mask:url(#mask-2);filter:url(#luminosity-noclip-4);}.cls-4{fill:url(#鍊踑臇蜸馯鳺艜_23-2);}.cls-5{fill:none;}.cls-6{opacity:0.7;}.cls-7{mask:url(#mask-3);}.cls-8{fill:url(#鍊踑臇蜸馯鳺艜_86);}.cls-9{mask:url(#mask-4);}.cls-10{fill:url(#鍊踑臇蜸馯鳺艜_86-2);}.cls-11{fill:url(#鍊踑臇蜸馯鳺艜_43);}.cls-12{clip-path:url(#clip-path);}.cls-13{fill:#fff;}.cls-14{fill:#1e1916;}.cls-15{fill:url(#鍊踑臇蜸馯鳺艜_43-2);}.cls-16{clip-path:url(#clip-path-2);}.cls-17{fill:url(#鍊踑臇蜸馯鳺艜_10);}.cls-18{fill:#e6e6e6;}.cls-19{opacity:0.2;}.cls-20{fill:#200c0e;}.cls-21{fill:#faaf9a;}.cls-22{fill:#ed7662;}.cls-23{fill:url(#鍊踑臇蜸馯鳺艜_30);}.cls-24{fill:url(#鍊踑臇蜸馯鳺艜_43-3);}.cls-25{fill:url(#鍊踑臇蜸馯鳺艜_30-2);}.cls-26{fill:url(#鍊踑臇蜸馯鳺艜_30-3);}.cls-27{fill:url(#鍊踑臇蜸馯鳺艜_30-4);}.cls-28{fill:url(#鍊踑臇蜸馯鳺艜_43-4);}.cls-29{fill:url(#鍊踑臇蜸馯鳺艜_43-5);}.cls-30{fill:url(#鍊踑臇蜸馯鳺艜_10-2);}.cls-31{fill:url(#鍊踑臇蜸馯鳺艜_60);}.cls-32{fill-rule:evenodd;fill:url(#鍊踑臇蜸馯鳺艜_21);}.cls-33{fill:url(#鍊踑臇蜸馯鳺艜_43-6);}.cls-34{fill:url(#鍊踑臇蜸馯鳺艜_21-2);}.cls-35{fill:url(#鍊踑臇蜸馯鳺艜_2);}.cls-36{fill:url(#鍊踑臇蜸馯鳺艜_43-7);}.cls-37{fill:url(#鍊踑臇蜸馯鳺艜_30-5);}.cls-38{fill:url(#鍊踑臇蜸馯鳺艜_2-2);}.cls-39{fill:url(#鍊踑臇蜸馯鳺艜_30-6);}.cls-40{fill:#0c1540;}.cls-41{fill:url(#鍊踑臇蜸馯鳺艜_43-8);}.cls-42{fill:#cbcbcb;}.cls-43{fill:#1a1a1a;}.cls-44{filter:url(#luminosity-noclip-2);}.cls-45{filter:url(#luminosity-noclip);}</style><filter id="luminosity-noclip" x="264.06" y="-8390" width="85.39" height="32766" filterUnits="userSpaceOnUse" color-interpolation-filters="sRGB"><feFlood flood-color="#fff" result="bg"/><feBlend in="SourceGraphic" in2="bg"/></filter><mask id="mask" x="264.06" y="-8390" width="85.39" height="32766" maskUnits="userSpaceOnUse"><g class="cls-45"/></mask><radialGradient id="鍊踑臇蜸馯鳺艜_23" cx="306.76" cy="308.9" r="43.21" gradientUnits="userSpaceOnUse"><stop offset="0" stop-color="#fff"/><stop offset="1" stop-color="gray"/></radialGradient><filter id="luminosity-noclip-2" x="60.49" y="-8390" width="328.21" height="32766" filterUnits="userSpaceOnUse" color-interpolation-filters="sRGB"><feFlood flood-color="#fff" result="bg"/><feBlend in="SourceGraphic" in2="bg"/></filter><mask id="mask-2" x="60.49" y="-8390" width="328.21" height="32766" maskUnits="userSpaceOnUse"><g class="cls-44"/></mask><radialGradient id="鍊踑臇蜸馯鳺艜_23-2" cx="224.6" cy="202.48" r="158.88" xlink:href="#鍊踑臇蜸馯鳺艜_23"/><filter id="luminosity-noclip-3" x="264.06" y="265.18" width="85.39" height="87.45" filterUnits="userSpaceOnUse" color-interpolation-filters="sRGB"><feFlood flood-color="#fff" result="bg"/><feBlend in="SourceGraphic" in2="bg"/></filter><mask id="mask-3" x="264.06" y="265.18" width="85.39" height="87.45" maskUnits="userSpaceOnUse"><g class="cls-1"><path class="cls-2" d="M319,267.65c-26.32,7.3-76,58.14-45.22,82S396.74,246.11,319,267.65Z"/></g></mask><radialGradient id="鍊踑臇蜸馯鳺艜_86" cx="306.76" cy="308.9" r="43.21" gradientUnits="userSpaceOnUse"><stop offset="0" stop-color="#b3d6ff"/><stop offset="1" stop-color="#e6f2fe"/></radialGradient><filter id="luminosity-noclip-4" x="60.49" y="49" width="328.21" height="306.96" filterUnits="userSpaceOnUse" color-interpolation-filters="sRGB"><feFlood flood-color="#fff" result="bg"/><feBlend in="SourceGraphic" in2="bg"/></filter><mask id="mask-4" x="60.49" y="49" width="328.21" height="306.96" maskUnits="userSpaceOnUse"><g class="cls-3"><path class="cls-4" d="M326.16,259.93C214.57,282.68,248,340.74,173.6,354.41,73.14,372.86,26,222.22,89,129.26,139.34,55,226.16,31.5,303.08,62,411.73,105.1,414.23,242,326.16,259.93Z"/></g></mask><radialGradient id="鍊踑臇蜸馯鳺艜_86-2" cx="224.6" cy="202.48" r="158.88" xlink:href="#鍊踑臇蜸馯鳺艜_86"/><linearGradient id="鍊踑臇蜸馯鳺艜_43" x1="131.79" y1="55.15" x2="146.37" y2="55.15" gradientUnits="userSpaceOnUse"><stop offset="0" stop-color="#0e218a"/><stop offset="1" stop-color="#1f72d2"/></linearGradient><clipPath id="clip-path"><rect class="cls-5" x="66.68" y="148.65" width="367.61" height="207.31" transform="translate(500.98 504.61) rotate(180)"/></clipPath><linearGradient id="鍊踑臇蜸馯鳺艜_43-2" x1="-5151.43" y1="252.39" x2="-4925.5" y2="252.39" gradientTransform="matrix(-1, 0, 0, 1, -4724.51, 0)" xlink:href="#鍊踑臇蜸馯鳺艜_43"/><clipPath id="clip-path-2"><path class="cls-5" d="M414.61,314.09l12.28-117.23a5.59,5.59,0,0,0-5.56-6.17H218.95a5.58,5.58,0,0,0-5.56,5L201,314.09Z"/></clipPath><linearGradient id="鍊踑臇蜸馯鳺艜_10" x1="204.85" y1="257.92" x2="424.79" y2="257.92" gradientTransform="matrix(1, 0, -0.11, 1, 23.98, 0)" gradientUnits="userSpaceOnUse"><stop offset="0" stop-color="#237c8f"/><stop offset="1" stop-color="#2abdd1"/></linearGradient><linearGradient id="鍊踑臇蜸馯鳺艜_30" x1="401.28" y1="294.66" x2="398.86" y2="243.53" gradientTransform="matrix(1, 0, -0.11, 1, 23.98, 0)" gradientUnits="userSpaceOnUse"><stop offset="0" stop-color="#f6462e"/><stop offset="1" stop-color="#fb7d42"/></linearGradient><linearGradient id="鍊踑臇蜸馯鳺艜_43-3" x1="337.79" y1="349.1" x2="415.36" y2="349.1" gradientTransform="matrix(1, 0, -0.11, 1, 23.98, 0)" xlink:href="#鍊踑臇蜸馯鳺艜_43"/><linearGradient id="鍊踑臇蜸馯鳺艜_30-2" x1="375.36" y1="295.89" x2="372.94" y2="244.76" xlink:href="#鍊踑臇蜸馯鳺艜_30"/><linearGradient id="鍊踑臇蜸馯鳺艜_30-3" x1="358.95" y1="296.66" x2="356.53" y2="245.54" xlink:href="#鍊踑臇蜸馯鳺艜_30"/><linearGradient id="鍊踑臇蜸馯鳺艜_30-4" x1="-5046.85" y1="411.63" x2="-4841.88" y2="411.63" gradientTransform="matrix(-1, 0, 0, 1, -4724.51, 0)" xlink:href="#鍊踑臇蜸馯鳺艜_30"/><linearGradient id="鍊踑臇蜸馯鳺艜_43-4" x1="-4890.76" y1="436.58" x2="-4811.17" y2="235.49" gradientTransform="matrix(-1, 0, 0, 1, -4724.51, 0)" xlink:href="#鍊踑臇蜸馯鳺艜_43"/><linearGradient id="鍊踑臇蜸馯鳺艜_43-5" x1="-4945.03" y1="415.11" x2="-4865.44" y2="214.02" gradientTransform="matrix(-1, 0, 0, 1, -4724.51, 0)" xlink:href="#鍊踑臇蜸馯鳺艜_43"/><linearGradient id="鍊踑臇蜸馯鳺艜_10-2" x1="128.21" y1="198.91" x2="153.83" y2="198.91" gradientTransform="translate(324.4 38.2) rotate(84.1)" xlink:href="#鍊踑臇蜸馯鳺艜_10"/><linearGradient id="鍊踑臇蜸馯鳺艜_60" x1="129.42" y1="182.87" x2="145.5" y2="182.87" gradientUnits="userSpaceOnUse"><stop offset="0" stop-color="#d2d1cd"/><stop offset="1" stop-color="#abafb8"/></linearGradient><linearGradient id="鍊踑臇蜸馯鳺艜_21" x1="-491.37" y1="-1896.17" x2="-462.51" y2="-1896.17" gradientTransform="translate(-763.8 1727.05) rotate(49.97)" gradientUnits="userSpaceOnUse"><stop offset="0" stop-color="#fea235"/><stop offset="1" stop-color="#ffb44f"/></linearGradient><linearGradient id="鍊踑臇蜸馯鳺艜_43-6" x1="18.24" y1="1076.1" x2="43.63" y2="1076.1" gradientTransform="translate(303.62 -1001.03)" xlink:href="#鍊踑臇蜸馯鳺艜_43"/><linearGradient id="鍊踑臇蜸馯鳺艜_21-2" x1="-3846.44" y1="992.31" x2="-3831.71" y2="992.31" gradientTransform="translate(-3883.97 -8.16) rotate(-162.33)" xlink:href="#鍊踑臇蜸馯鳺艜_21"/><linearGradient id="鍊踑臇蜸馯鳺艜_2" x1="373.44" y1="92.26" x2="378.51" y2="92.26" gradientUnits="userSpaceOnUse"><stop offset="0" stop-color="#2abdd1"/><stop offset="1" stop-color="#237c8f"/></linearGradient><linearGradient id="鍊踑臇蜸馯鳺艜_43-7" x1="72.56" y1="111.43" x2="76.51" y2="111.43" xlink:href="#鍊踑臇蜸馯鳺艜_43"/><linearGradient id="鍊踑臇蜸馯鳺艜_30-5" x1="309.32" y1="152.73" x2="317.21" y2="152.73" gradientTransform="matrix(1, 0, 0, 1, 0, 0)" xlink:href="#鍊踑臇蜸馯鳺艜_30"/><linearGradient id="鍊踑臇蜸馯鳺艜_2-2" x1="114.21" y1="132.08" x2="122.1" y2="132.08" xlink:href="#鍊踑臇蜸馯鳺艜_2"/><linearGradient id="鍊踑臇蜸馯鳺艜_30-6" x1="179.1" y1="101.56" x2="284.14" y2="101.56" gradientTransform="matrix(1, 0, 0, 1, 0, 0)" xlink:href="#鍊踑臇蜸馯鳺艜_30"/><linearGradient id="鍊踑臇蜸馯鳺艜_43-8" x1="189.89" y1="95.64" x2="278.23" y2="95.64" xlink:href="#鍊踑臇蜸馯鳺艜_43"/></defs><title>bn-feature</title><g class="cls-6"><g class="cls-7"><path class="cls-8" d="M319,267.65c-26.32,7.3-76,58.14-45.22,82S396.74,246.11,319,267.65Z"/></g></g><g class="cls-6"><g class="cls-9"><path class="cls-10" d="M326.16,259.93C214.57,282.68,248,340.74,173.6,354.41,73.14,372.86,26,222.22,89,129.26,139.34,55,226.16,31.5,303.08,62,411.73,105.1,414.23,242,326.16,259.93Z"/></g></g><path class="cls-11" d="M146.37,49.55l-14.58,2.26h0l.09.91a13.48,13.48,0,0,0,4.36,8Z"/><g class="cls-12"><path class="cls-13" d="M352.87,355.44H317.43l-12.86-67a17.41,17.41,0,0,1,17.09-20.69h0a17.41,17.41,0,0,1,17.09,14.12Z"/><path class="cls-14" d="M304.06,288.58a17.93,17.93,0,0,1,35.21-6.76l14.12,73.52.12.62H317ZM338.25,282a16.89,16.89,0,1,0-33.17,6.37l12.77,66.54h34.39Z"/><path class="cls-14" d="M316.92,340.48l1.42-.27-10.07-52.44A13.63,13.63,0,1,1,335,282.63l6,31.33,1.42-.27-6-31.33A15.08,15.08,0,0,0,306.86,288Z"/><rect class="cls-13" x="251.38" y="349.47" width="93.88" height="5.97"/><path class="cls-14" d="M250.87,348.95h94.92v7H250.87Zm93.88,1H251.9v4.94h92.84Z"/><rect class="cls-14" x="251.38" y="348.74" width="77" height="1.45"/><path class="cls-13" d="M206.14,329.08H408.53A10.55,10.55,0,0,0,419,319.63l12.8-122.25a10.55,10.55,0,0,0-10.49-11.65H218.95a10.55,10.55,0,0,0-10.49,9.45l-12.8,122.25A10.55,10.55,0,0,0,206.14,329.08Z"/><path class="cls-14" d="M197.92,325.94a11.08,11.08,0,0,1-2.78-8.56l12.8-122.26a11,11,0,0,1,11-9.92H421.33a11.07,11.07,0,0,1,11,12.22l-12.8,122.25a11,11,0,0,1-11,9.92H206.14A11.08,11.08,0,0,1,197.92,325.94Zm21-139.69a10,10,0,0,0-10,9l-12.8,122.25a10,10,0,0,0,10,11.07H408.53a10,10,0,0,0,10-9l12.8-122.25a10,10,0,0,0-10-11.07Z"/><path class="cls-15" d="M414.61,314.09l12.28-117.23a5.59,5.59,0,0,0-5.56-6.17H218.95a5.58,5.58,0,0,0-5.56,5L201,314.09Z"/><path class="cls-14" d="M206.14,325.23H408.53c.23,0,.45,0,.67,0l-.14-1.44-.53,0H206.14a5.25,5.25,0,0,1-5.22-5.8l12.81-122.25a5.23,5.23,0,0,1,5.22-4.7v-1.45a6.68,6.68,0,0,0-6.66,6L199.48,317.83a6.69,6.69,0,0,0,6.66,7.39Z"/><g class="cls-16"><polygon class="cls-14" points="422.56 333.32 413.56 333.32 429.47 181.88 438.48 181.88 422.56 333.32"/><polygon class="cls-17" points="414.13 329.63 194.18 329.63 209.26 186.2 429.2 186.2 414.13 329.63"/><path class="cls-18" d="M418,334H189.41l16-152.07H434Zm-219-8.65h211.3l14.17-134.78H213.13Z"/><path class="cls-14" d="M418.33,334.32H189l16.06-152.82H434.39Zm-228.51-.75H417.66l15.9-151.33H205.72Zm220.77-7.9h-212l14.24-135.53h212Zm-211.22-.75H409.92L424,190.9H213.46Z"/><polygon class="cls-13" points="223.52 282.59 222.65 282.59 230.92 203.94 231.78 203.94 223.52 282.59"/><path class="cls-13" d="M234.88,209.84a.41.41,0,0,1-.58-.13l-3-5.58-4.14,5.58a.46.46,0,0,1-.61.13.42.42,0,0,1-.07-.6l4.56-6.15a.49.49,0,0,1,.39-.2.38.38,0,0,1,.34.2l3.27,6.15a.41.41,0,0,1,0,.23A.49.49,0,0,1,234.88,209.84Z"/><polygon class="cls-13" points="298.58 278.22 216.63 278.22 216.72 277.36 298.67 277.36 298.58 278.22"/><path class="cls-13" d="M292.28,281.94a.46.46,0,0,1,.2-.6l6-3.55-5.2-3.55a.41.41,0,0,1-.07-.6.46.46,0,0,1,.61-.13l5.74,3.92a.39.39,0,0,1,.16.36.5.5,0,0,1-.24.36l-6.56,3.92a.47.47,0,0,1-.24.07A.38.38,0,0,1,292.28,281.94Z"/><path class="cls-13" d="M270.37,268.85c-4.67,0-9.86-1.47-13.27-6.84-3.31-5.22-3.4-12.07-3.47-18.12-.09-7.65-.17-13.69-6.45-13.69-11.36,0-16,24.85-16,25.1l-.86-.07c.19-1.06,4.84-25.9,17-25.9,7.05,0,7.14,6.7,7.23,14.45.07,5.94.16,12.68,3.35,17.71,7.15,11.25,22.62,4.47,22.78,4.41l.29.78A29.15,29.15,0,0,1,270.37,268.85Z"/><polygon class="cls-13" points="260.41 298.55 217.5 298.55 217.66 296.99 260.58 296.99 260.41 298.55"/><polygon class="cls-13" points="238.49 302.98 217.03 302.98 217.2 301.42 238.65 301.42 238.49 302.98"/><polygon class="cls-13" points="266.09 302.98 244.63 302.98 244.8 301.42 266.25 301.42 266.09 302.98"/><polygon class="cls-13" points="293.99 302.98 272.54 302.98 272.7 301.42 294.15 301.42 293.99 302.98"/><polygon class="cls-13" points="294.46 298.55 264.57 298.55 264.74 296.99 294.62 296.99 294.46 298.55"/><path class="cls-13" d="M387.67,305.39H319.18l7.2-68.49h68.49Zm-67.53-.86H386.9l7-66.76H327.16Z"/><polygon class="cls-13" points="399.72 298.14 388.16 298.14 388.25 297.27 398.94 297.27 405.96 230.51 339.2 230.51 338.47 237.51 337.6 237.51 338.43 229.65 406.92 229.65 399.72 298.14"/><polygon class="cls-13" points="388.16 298.14 386.86 298.14 386.95 297.27 388.25 297.27 388.16 298.14"/><path class="cls-13" d="M384.29,298.14h-2.57l.09-.86h2.57Zm-5.13,0h-2.57l.09-.86h2.57Zm-5.13,0h-2.57l.09-.86h2.57Zm-5.13,0h-2.57l.09-.86H369Zm-5.13,0h-2.57l.09-.86h2.57Zm-5.13,0h-2.57l.09-.86h2.57Zm-5.13,0h-2.57l.09-.86h2.57Zm-5.13,0h-2.57l.09-.86h2.57Zm-5.13,0h-2.57l.09-.86h2.57Zm-5.13,0h-2.57l.09-.86h2.57Z"/><polygon class="cls-13" points="332.96 298.14 331.23 298.14 331.41 296.41 332.28 296.41 332.19 297.27 333.05 297.27 332.96 298.14"/><path class="cls-13" d="M332.54,293.91h-.86l.26-2.5h.86Zm.53-5h-.87l.26-2.5h.86Zm.53-5h-.86l.26-2.5h.86Zm.53-5h-.86l.26-2.5h.87Zm.53-5h-.86l.26-2.5h.86Zm.53-5h-.86l.26-2.5h.86Zm.53-5h-.86l.26-2.5H336Zm.53-5h-.86l.26-2.5h.86Zm.53-5h-.86l.26-2.5H337Zm.53-5h-.86l.26-2.5h.86Zm.53-5h-.86l.26-2.5h.86Z"/><polygon class="cls-13" points="338.33 238.8 337.47 238.8 337.6 237.51 338.47 237.51 338.33 238.8"/><path class="cls-13" d="M320.26,305.08l-.39-.73,2.33-1.4.39.73Zm4.66-2.8-.39-.73,2.33-1.4.39.73Zm4.66-2.8-.39-.73,2.33-1.4.39.73Z"/><polygon class="cls-13" points="326.97 237.7 326.57 236.97 338.62 229.72 339.01 230.45 326.97 237.7"/><polygon class="cls-13" points="394.59 237.7 394.2 236.97 406.24 229.72 406.63 230.45 394.59 237.7"/><polygon class="cls-13" points="387.48 305.32 387.09 304.6 399.14 297.34 399.53 298.07 387.48 305.32"/><path class="cls-13" d="M351.34,214.11l2.38-.23a2.57,2.57,0,0,0,.68,1.75,2.39,2.39,0,0,0,1.7.56,2.93,2.93,0,0,0,1.82-.5,1.67,1.67,0,0,0,.72-1.16,1,1,0,0,0-.17-.73,1.74,1.74,0,0,0-.82-.52q-.41-.15-1.89-.52a5.86,5.86,0,0,1-2.61-1.19,2.82,2.82,0,0,1-.85-2.42,3.41,3.41,0,0,1,.7-1.72,3.79,3.79,0,0,1,1.63-1.22,6.34,6.34,0,0,1,2.41-.42,4.66,4.66,0,0,1,3.3,1,3.16,3.16,0,0,1,.92,2.65l-2.44.11a1.84,1.84,0,0,0-.53-1.33,2.26,2.26,0,0,0-1.49-.41,3,3,0,0,0-1.7.43,1,1,0,0,0-.46.75.83.83,0,0,0,.28.73,5.74,5.74,0,0,0,2.15.8,10.67,10.67,0,0,1,2.53.86,2.9,2.9,0,0,1,1.2,1.22,3.36,3.36,0,0,1,.28,1.91,3.89,3.89,0,0,1-.78,1.93,4,4,0,0,1-1.76,1.34,7.17,7.17,0,0,1-2.66.44,4.77,4.77,0,0,1-3.39-1.05A4.1,4.1,0,0,1,351.34,214.11Z"/><path class="cls-13" d="M362.92,211.34l.22-2.12h8.4l-.22,2.12Zm-.38,3.64.22-2.12h8.4l-.22,2.12Z"/><path class="cls-13" d="M380.8,208.95l-2.26.25a1.47,1.47,0,0,0-.32-1,1.13,1.13,0,0,0-.86-.33,1.69,1.69,0,0,0-1.3.66,6,6,0,0,0-.92,2.73,3,3,0,0,1,2.25-1,2.92,2.92,0,0,1,2.36,1.1,3.65,3.65,0,0,1,.73,2.84,4.53,4.53,0,0,1-1.39,3,4.1,4.1,0,0,1-2.9,1.11,3.31,3.31,0,0,1-2.84-1.41q-1-1.41-.68-4.64a8.1,8.1,0,0,1,1.72-4.76A4.4,4.4,0,0,1,377.7,206a3.07,3.07,0,0,1,2.19.77A3.2,3.2,0,0,1,380.8,208.95ZM375,214a2.43,2.43,0,0,0,.33,1.73,1.35,1.35,0,0,0,1.12.61,1.51,1.51,0,0,0,1.12-.5,2.76,2.76,0,0,0,.6-1.64,2.46,2.46,0,0,0-.28-1.72,1.28,1.28,0,0,0-1.09-.55,1.61,1.61,0,0,0-1.18.52A2.49,2.49,0,0,0,375,214Z"/><path class="cls-13" d="M384.23,212l-2.05-.38a3.76,3.76,0,0,1,1.41-1.87,4.77,4.77,0,0,1,2.62-.61,5.25,5.25,0,0,1,2.26.36,2,2,0,0,1,1,.93,4.59,4.59,0,0,1,.09,2.06l-.31,2.69a9.26,9.26,0,0,0-.07,1.69,4.56,4.56,0,0,0,.29,1.17h-2.28q-.07-.23-.15-.68c0-.14,0-.23-.05-.27a4.81,4.81,0,0,1-1.35.86,3.85,3.85,0,0,1-1.47.29,2.7,2.7,0,0,1-2-.73,2.2,2.2,0,0,1-.58-1.84,2.68,2.68,0,0,1,1.57-2.2,8.4,8.4,0,0,1,1.89-.54,13.55,13.55,0,0,0,2.3-.57l0-.23a1.1,1.1,0,0,0-.23-.95,1.83,1.83,0,0,0-1.21-.28,1.78,1.78,0,0,0-1,.24A1.94,1.94,0,0,0,384.23,212Zm2.89,1.87q-.46.15-1.44.35a4.63,4.63,0,0,0-1.3.4,1.09,1.09,0,0,0-.54.81,1,1,0,0,0,.27.84,1.13,1.13,0,0,0,.88.35,2.19,2.19,0,0,0,1.23-.41,1.67,1.67,0,0,0,.63-.76,4.77,4.77,0,0,0,.21-1.12Z"/><path class="cls-13" d="M394.95,206.27l-.1,1h-3.65a2.82,2.82,0,0,1,.47-1,8.12,8.12,0,0,1,1.31-1.3,8.87,8.87,0,0,0,1-.89,1.27,1.27,0,0,0,.28-.64.67.67,0,0,0-.13-.54.63.63,0,0,0-.5-.19.77.77,0,0,0-.54.2,1.12,1.12,0,0,0-.29.65l-1-.1a1.93,1.93,0,0,1,.71-1.24,2.13,2.13,0,0,1,1.26-.37,1.6,1.6,0,0,1,1.22.43,1.29,1.29,0,0,1,.35,1.08,2,2,0,0,1-.21.7,3.31,3.31,0,0,1-.49.7,7.74,7.74,0,0,1-.75.69c-.36.3-.59.5-.69.6a2,2,0,0,0-.24.29Z"/><g class="cls-19"><path class="cls-20" d="M412.71,424c-1.31-2.38-3.78-3.89-7.35-4.5a3.7,3.7,0,0,0-1.48.18l-.5-.1a3.21,3.21,0,0,0-.88,0,17.5,17.5,0,0,1-4.28-1.31l0-.37a2.58,2.58,0,0,0-.62.08,16.62,16.62,0,0,1-1.85-1.06l.19-.25-.29-.1s-2.71-.95-4.39-6.34c-.78-2.5-1.61-4.89-2.47-7.12l.23-.05c-.28-.45-.54-.93-.81-1.42-.89-2.2-1.8-4.21-2.71-6-3.91-10.41-6-24.48-8.75-36.65a66.09,66.09,0,0,1-1.49-13.09c.55.37,1.1.74,1.61,1.07v0l0,0a9.57,9.57,0,0,0,2,1.08c1,.19,5-7,5-7s-3.34,8.12-3.32,11.28c0,.81,1,.58,1.61,0,2.93-2.64,4.5-12.15,4.5-12.15s1.13-5.12-2.43-7.13-2.83-7-2.83-7h0c2.13-7.25,14.47-28.18,15.31-30a9.31,9.31,0,0,0,.94-4.6,53.34,53.34,0,0,0,4.82-2.65l.32-.21-.2-.28a14.88,14.88,0,0,1-1.52-4,4.92,4.92,0,0,0,2.86-3.61c1.67-6.41-3.11-19.84-10.48-25.32l-.22.28h0a15.54,15.54,0,0,0-12.56-3.08,7.2,7.2,0,0,0-1.52-.69l-.13.32h0a11.34,11.34,0,0,0-2.82-3.08,11.56,11.56,0,0,0,6.9-2.18l1.83-3.86.55,2.89c4.48-1.4,6.66-6.93,4.11-9.39-.51-.49-8.37-9.06-12.85-13.82l0,0a5.65,5.65,0,0,1,1.88.79c4.75,3.13,4.29-1.75,3.73-4.09-2.13-8.92-18.6-11.66-18.33-.6,0,.11,0,.2,0,.3a9.25,9.25,0,0,0-5.22,4.83c-1.05.74-4.23,3.2-3.33,5.27l.07.19-.26.18c-1.63.15-1.73.37-1.76.44a1.77,1.77,0,0,0,.17,1l.08.25a1.18,1.18,0,0,0,.47.56,5.48,5.48,0,0,0,1,3.6,3,3,0,0,0,2.24,1.07c.21,4.26,1.42,8.49,5.18,9l-.29,2.77a5.28,5.28,0,0,0-2.35,1.87,17.52,17.52,0,0,0-7.5-.59c-3.57-.14-7.27,1.87-9.92,6.49-4.31,7.51-12.59,10.4-15.37,17.43s2.22,9.73,2.22,9.73a4.4,4.4,0,0,1-.53,2.36c-8.61-2.34-26.46-6.64-31.93-7.43a49.73,49.73,0,0,0-6-1.51,63.9,63.9,0,0,1-6.47-1.51c-1.68-.5-2.41-.31-3.33.34l-.08.06L263,241.47l-.72.41L279.2,277l-.24.19c-5.34,2.84-1.2,4.52-1.2,4.52h0c-2.08,2.32,1.15,3.26,1.15,3.26-1.09,3,2,2.47,2,2.47a.22.22,0,0,0,0,0h0c-.32,2.09,1.6,2.35,4.08,1.66l4.83,10a1.53,1.53,0,0,0,2.17.53,1.73,1.73,0,0,0,.77-2.22l-5-9.39a22.91,22.91,0,0,0,2.48-1.37l.08,0c5.33,1.58,22.43,14.54,34.38,17.6a63.66,63.66,0,0,0-4.45,16.27c-4.06,25.52-3,96-3,96A109.56,109.56,0,0,0,334.94,419c-.08,9,0,17.52,0,22.08h-1.44a32,32,0,0,1-4.82,7.07l-.34,0,0,.45c-.59.64-1.19,1.25-1.82,1.83-.21,0-.42,0-.64,0l-.07.66a25.08,25.08,0,0,1-11.75,6,4.9,4.9,0,0,0-1.46-.44l-.12.62c-.25,0-.5,0-.75,0a14.13,14.13,0,0,0-10.35,4.47h-.33l-.08.09a13.67,13.67,0,0,0-1.91,2.55l-.18.33h.36c.11,0,7.37.15,14.23.15,3.46,0,6.81,0,9.09-.15,6.84-.33,21.56-.67,25.15-.67a3.12,3.12,0,0,0,3.25-2.55l.08-.29h-.34a18.12,18.12,0,0,0-.33-7.6c-1.11-5.38,1.21-12.55,1.21-12.55h-.48c1.15-3.42,2.62-7.51,3.89-10.32a79.63,79.63,0,0,0,4-12.61l.26,0a73,73,0,0,0,2-10.1c.25-1.31.48-2.6.69-3.83,6.9,7.39,15.29,15.76,20.57,20.95a12.5,12.5,0,0,0,0,1.38c2.22,1.81,3.93,4.88,5.39,8.77a8,8,0,0,0,.14,2.8l.66-.21c0-.21-.07-.4-.1-.59q.42,1.26.82,2.6a8.21,8.21,0,0,0,.19,2.32l.44-.14q.6,2.15,1.18,4.46c.81,3.18,1.85,6.23.78,9.73a14,14,0,0,1-6,7.17c-.76.46-.84,1.24,0,1.23h1.19a1,1,0,0,0,.69.26h.76a.9.9,0,0,0,.35.07h0l9.48,0a11.69,11.69,0,0,0,8.64-3.41,8.42,8.42,0,0,0,2-7c-.87-7,.75-12.34,3.54-20.24C414.1,430.15,414.13,426.57,412.71,424ZM374.87,299a7.18,7.18,0,0,0,3.15.87,4.25,4.25,0,0,0,1.79-.38c-.45,1.9-.93,4-1.4,6C377.2,303,375.84,300.79,374.87,299Zm-14.8-74.9h.08c-.09.09-.18.16-.27.26A1.12,1.12,0,0,1,360.07,224.1Zm-2,4.37H358l.14-.36C358.14,228.24,358.11,228.36,358.09,228.47Zm-2,.43c-.64-1.47,1.05-3,2.3-3.86a9.64,9.64,0,0,0-.4,3.45,5.24,5.24,0,0,0-1.85.56Zm-.47,6.21a5.43,5.43,0,0,1-.83-4,7.14,7.14,0,0,1,.39-.92,6.13,6.13,0,0,1,.53-.4c.6,1.68.19,2.35-.49,3.11l.47.41c.94-1.06,1.29-2,.61-3.87a4.71,4.71,0,0,1,1.69-.52c-.12.63-.23,1.29-.31,2a36.66,36.66,0,0,0-.22,5.07A2.56,2.56,0,0,1,355.61,235.11Z"/></g><path class="cls-18" d="M300.45,295h0a1.73,1.73,0,0,0,.77-2.22l-29.82-56-.72.41,27.59,57.31A1.53,1.53,0,0,0,300.45,295Z"/><path class="cls-21" d="M371.83,235.9l-1.2,11.41c.53.93,3.51,5,12.68-.7l1.62-15.45A126.34,126.34,0,0,1,371.83,235.9Z"/><path class="cls-14" d="M370.41,247.44l0-.06,1.23-11.66.18-.05a127.4,127.4,0,0,0,13.07-4.72l.36-.16-1.68,16-.12.07c-3.66,2.26-6.37,3-8.33,3A5.12,5.12,0,0,1,370.41,247.44Zm14.24-15.9a133.75,133.75,0,0,1-12.6,4.54l-1.17,11.16c.58.95,3.5,4.56,12.2-.76Z"/><path class="cls-14" d="M385,231c.48-2.3-4.19-17.22-2.78-15.88,1.87,1.76,15,16.14,15.71,16.78,2.55,2.46.37,8-4.11,9.39l-.55-2.89-1.83,3.86c-2.81,2.12-7.82,3.07-9.21,1.27C378,237.94,384.86,231.76,385,231Z"/><path class="cls-22" d="M371.46,239.37l-.53,5.06c6.67.13,7.54-6.55,7.52-6.54A10.06,10.06,0,0,1,371.46,239.37Z"/><path class="cls-21" d="M372,240.93c3.63,0,10.77-5,12.58-8.29.65-1.18.77-4.32.45-5.84-1-4.75-1.75-9.07-5.31-10.37-1.5-.55-7.35,1.35-8.81,1.65-2.79.59-4.27,3.35-4.8,8.16C365.48,231.66,365.57,241,372,240.93Z"/><path class="cls-14" d="M370.44,232.42c-.34-.09-2-.61-2.23-1.44a.83.83,0,0,1,.23-.76c1.44-1.6,1.48-4.22,1.47-4.87a3.51,3.51,0,0,0-2.82-.14l-.14-.62a4,4,0,0,1,3.5.29l.11.08v.14c0,.14.19,3.48-1.65,5.53-.07.08-.06.12-.06.14.07.33,1,.78,1.82,1Z"/><path class="cls-14" d="M384.59,224.18s-2.37,2.5-3.71-1.37c-1.65-4.73-9.23-4-12.39-3.42,0,0-.47.33-2.08,4.46,0,0-1-8.17,8.44-10.21C384.06,211.66,385.55,220.41,384.59,224.18Z"/><path class="cls-14" d="M390.75,214.71c.56,2.34,1,7.22-3.73,4.09-5.82-3.83-14.34,5.7-14.6-4.69C372.15,203.05,388.61,205.79,390.75,214.71Z"/><path class="cls-14" d="M384.18,224.32s1.15.13,1.32-.6a31.21,31.21,0,0,0,0-4l-.58-1.53s.23-.57,1.25-.13-1.11-5.35-1.11-5.35l-5.58,0a17.77,17.77,0,0,1-2.17.42c-.47,0-4.67.8-4.67.8l0,.55s-.81.31-1,.42-1.82,1.71-3,2.83l-1.06,1a9,9,0,0,0-.64,1.53c-.23.8,4.52-4.58,4.52-4.58l.91,2.51.33.47s1.14,0,1.94.11c1,.13,2.38.4,2.38.4s1.92.56,2,.64,3.34,3.37,3.34,3.37l.45.55Z"/><path class="cls-21" d="M381.83,226.49a3.08,3.08,0,0,0,1.75,4.26,3.76,3.76,0,0,0,4.49-2.19,3.08,3.08,0,0,0-1.75-4.26A3.76,3.76,0,0,0,381.83,226.49Z"/><path class="cls-14" d="M385,229.44a.92.92,0,0,1-.87-.46.77.77,0,0,1,.31-1c.2-.16.32-.26.28-.56a1.11,1.11,0,0,0-.31-.6c-.31-.37-.53-.77.17-1.51a1.15,1.15,0,0,1,.84-.38h0c1,0,1.92,1.21,2,1.34l-.54.43c-.34-.43-1.06-1.12-1.56-1.12h0a.42.42,0,0,0-.31.14c-.34.36-.32.38-.1.64a1.65,1.65,0,0,1,.44.91,1.24,1.24,0,0,1-.55,1.2l-.14.12,0,.05c.18.34,1,0,1,0l.22.59A2.4,2.4,0,0,1,385,229.44Z"/><path class="cls-14" d="M371.76,235.41l0-.66s4.49-.36,5.81-3.35l.6.21C376.69,235,372,235.4,371.76,235.41Z"/><path class="cls-14" d="M373.44,224.65l-.54-.32c.05-.08,1.34-2,4.86-1.19l-.21.64C374.53,223.13,373.48,224.59,373.44,224.65Z"/><path class="cls-14" d="M364.11,228.64l-.47-.41c.76-.85,1.18-1.57.25-3.72-1-2.41,3.45-5.36,3.66-5.5l-.48,1.14c-1.26.82-3.25,2.47-2.56,4C365.48,226.47,365.14,227.48,364.11,228.64Z"/><path class="cls-14" d="M376.71,226.85a1.3,1.3,0,0,1-1.26,1.14,1,1,0,0,1-1-1.14,1.3,1.3,0,0,1,1.26-1.14A1,1,0,0,1,376.71,226.85Z"/><path class="cls-14" d="M369.83,226.85a1.3,1.3,0,0,1-1.26,1.14,1,1,0,0,1-1-1.14,1.3,1.3,0,0,1,1.26-1.14A1,1,0,0,1,369.83,226.85Z"/><path class="cls-13" d="M388.84,383.91c3.53,3.15,7.72,12.39,10.63,21.75,1.74,5.58,4.53,6.47,4.53,6.47s-5.63,7.47-7.83,13.11c0,0-32.5-31.32-36.73-39.26S376.85,373.2,388.84,383.91Z"/><path class="cls-14" d="M396,425.43c-1.33-1.28-32.57-31.43-36.77-39.32-1.08-2-.6-4,1.37-5.64,5.22-4.25,19.46-4.76,28.42,3.25l-.17.19.17-.19c3.28,2.93,7.48,11.5,10.69,21.85,1.68,5.39,4.36,6.33,4.39,6.34l.29.1-.2.27c-.06.07-5.63,7.5-7.79,13l-.14.37Zm3.25-19.67c-3.2-10.28-7.35-18.78-10.57-21.66-8.65-7.72-22.82-7.3-27.79-3.26-1.77,1.44-2.19,3.18-1.22,5,4,7.45,33.35,36,36.43,39,2-5,6.57-11.25,7.54-12.56C402.86,411.87,400.69,410.42,399.24,405.76Z"/><path class="cls-13" d="M371.33,388.48c.26,4.92-3.79,28-8.14,37.53-2.59,5.71-5.93,16.59-5.93,16.59s-8.27-6-13.56-2.83c0,0-.82-47.21,1.68-56.5S370.45,371.75,371.33,388.48Z"/><path class="cls-14" d="M357.11,442.81c-.08-.06-8.21-5.84-13.3-2.83l-.35.2v-.38c0-1.93-.79-47.35,1.69-56.57,1.15-4.29,6.52-7.39,12.78-7.39H358c6.25,0,13.1,3.34,13.58,12.6h0c.27,5.12-3.93,28.32-8.16,37.65-2.56,5.63-5.88,16.45-5.91,16.56l-.11.35Zm14-54.29c-.47-9-7.1-12.17-13.15-12.19h-.06c-5.92,0-11.19,3-12.26,7-2.35,8.72-1.75,51.63-1.68,56.07,4.86-2.49,11.71,1.82,13.2,2.83.59-1.91,3.52-11.19,5.83-16.28,4.21-9.28,8.38-32.33,8.11-37.42Z"/><path class="cls-21" d="M383,318.07s-5.44,10.69-.9,12.49C387,332.5,395,335.49,395,335.49s1.13-5.12-2.43-7.13-2.83-7-2.83-7Z"/><path class="cls-21" d="M395,335.49s-1.57,9.51-4.5,12.15c-.64.58-1.61.81-1.61,0,0-3.16,3.32-11.28,3.32-11.28s-4,7.21-5,7a27.94,27.94,0,0,1-4.44-2.75c-1.25-.86-1-2.45-.28-3.95a10.69,10.69,0,0,0,1.23-3.71,3.93,3.93,0,0,0-1.82-2.51l8.63.68Z"/><path class="cls-14" d="M383.31,340.83l3.6-7.25S385.21,338.53,383.31,340.83Z"/><path class="cls-14" d="M385.3,342.33l5-8.09S387.39,340.2,385.3,342.33Z"/><path class="cls-21" d="M383,318.21l6.69,3.46c1.84-6.92,14.55-28.5,15.41-30.39,4.93-10.89-10.33-14.25-14.39-5.6C389.28,288.68,383,318.21,383,318.21Z"/><path class="cls-23" d="M401.6,250.92c9,6.66,14.62,26.33,7.42,28.44a16.73,16.73,0,0,0,1.65,4.4s-11.46,7.41-22.35,7.42c0,0-.41-2.63-1.31-3.17,0,0-5.93,1.23-8.06-5.51s3-14,1.85-22.07C379.13,248.68,391.77,243.61,401.6,250.92Z"/><path class="cls-14" d="M403.25,288l-.21-.62a58.16,58.16,0,0,0,7.17-3.67,18.44,18.44,0,0,1-1.5-4.21l-.08-.33.34-.1a4,4,0,0,0,2.68-3.18c1.59-6.1-3.19-19.4-10.26-24.66l.44-.56c7.37,5.48,12.15,18.91,10.48,25.32a4.91,4.91,0,0,1-2.86,3.61,14.92,14.92,0,0,0,1.52,4l.2.28-.32.21A56.85,56.85,0,0,1,403.25,288Z"/><path class="cls-14" d="M391,286.4a10.31,10.31,0,0,1-2.46-.3l.23-.66c7.12,1.74,11.43-5.11,11.47-5.18l.16-.25.26.08c3.5,1.12,7-3.46,7.05-3.5l.53.37c-.15.2-3.72,4.84-7.59,3.85C399.86,281.91,396.4,286.4,391,286.4Z"/><path class="cls-24" d="M397.46,398.4c-6.37-10.23-8.82-28.67-12.27-44.07-2-9.12-2.46-22.75,1.68-31.31,6.86-14.16-1.27-24-4-29.58s-30.48-12.71-36.51-8.57c-8.67,5.95-14.55,11.83-17.61,31-4.06,25.52-3,96-3,96a122.07,122.07,0,0,0,42,1.57c1.76-5.63,3-19.27,3-19.27l10.07,12.6C386.18,401.42,393.23,399.26,397.46,398.4Z"/><path class="cls-25" d="M387.38,247.47S385.3,244,383,243.74a92.29,92.29,0,0,0-11.91-.2,4.91,4.91,0,0,0-2.64,2S358.47,242,352,250c-4.81,6-8.5,28-5.74,35.55,0,0,14.68-4.17,36.7,8.21,13.16,7.4,9.14-24.88,10.87-30.41C395.59,257.65,392.86,249.14,387.38,247.47Z"/><path class="cls-14" d="M386.43,295.17a7.63,7.63,0,0,1-3.67-1.13l.38-.6c2.12,1.19,3.88,1.37,5.24.54,4.14-2.56,4.36-13.86,4.52-22.11.08-4,.14-7.13.6-8.61,1.71-5.46-.89-13.84-6.24-15.47l.26-.65c5.66,1.72,8.42,10.52,6.63,16.26-.43,1.38-.49,4.64-.57,8.41-.16,8.42-.39,19.95-4.89,22.73A4.21,4.21,0,0,1,386.43,295.17Z"/><path class="cls-21" d="M339.52,300c4.81-.44,14.95-4.37,18.75-12.73s-11-17.05-13.92-14.25c0,0-8.78,15.16-8.55,19.45S336.92,300.23,339.52,300Z"/><path class="cls-21" d="M286.18,277s-4.14-1.68,1.2-4.52c0,0,1.32-1.07,2.24-1.73s1.65-.84,3.33-.34a63.89,63.89,0,0,0,6.47,1.51,49.71,49.71,0,0,1,6,1.51c6.86,1,33.16,7.5,36.36,8.74,11.49,4.44,7.11,17.06-3,18C327.35,301.28,305,283.86,298.79,282l-.08,0c-4.19,2.67-9.91,4.27-9.33.73,0,0-3.14.49-2-2.47C287.33,280.3,284.1,279.36,286.18,277Z"/><path class="cls-14" d="M286.18,277a7.79,7.79,0,0,0,1.93-.74,8.1,8.1,0,0,0,1.73-1.18,7.76,7.76,0,0,0-1.93.74A8.13,8.13,0,0,0,286.18,277Z"/><path class="cls-14" d="M287.34,280.3a11.56,11.56,0,0,0,2.59-1,13.45,13.45,0,0,0,1.21-.7,7.08,7.08,0,0,0,1.12-.88,26.25,26.25,0,0,0-2.52,1.13A18.2,18.2,0,0,0,287.34,280.3Z"/><path class="cls-14" d="M289.36,282.8a2.77,2.77,0,0,0,.95,0,4.47,4.47,0,0,0,.94-.22,4,4,0,0,0,1.66-1.07c-.32.08-.61.19-.91.29l-.87.31C290.54,282.34,290,282.53,289.36,282.8Z"/><path class="cls-21" d="M343.49,285.53l9.77,3-3.58,6.3-4.49,3.45s-5,2.26-8.79,1.22-.15-7.06-.15-7.06l4.15-4.83Z"/><path class="cls-26" d="M371.83,256.46c2.13,11.26-6.38,31.41-12.84,28.65a20.33,20.33,0,0,0-1.63,4.75s-12.86-1-20.6-7.82c0,0,1.38-2.47,1.09-3.5,0,0-5-2.7-2.22-9.73s11.06-9.93,15.37-17.43C357.28,240.43,369.49,244.12,371.83,256.46Z"/><path class="cls-14" d="M357.66,290.23l-.36,0a47.26,47.26,0,0,1-7.9-1.47l.24-.65a48.09,48.09,0,0,0,7.43,1.42,22.65,22.65,0,0,1,1.61-4.49l.16-.33.31.13c1.19.51,2.52.17,3.93-1,5-4.14,10.09-18.37,8.41-27.25l.67-.19c1.75,9.26-3.41,23.59-8.68,27.94-1.5,1.24-3,1.66-4.33,1.24a18.1,18.1,0,0,0-1.45,4.31Z"/><path class="cls-14" d="M360,282.58c-.24.07-5.73,1.74-7.85-1.53-1.43.51-8.18,2.54-12-3.17l.58-.41c4,5.95,11.15,3,11.45,2.86l.27-.12.13.24c1.78,3.15,7.19,1.51,7.24,1.49Z"/><path class="cls-20" d="M370,386.13c0-1.19,0-2.46,0-3.79-.16-17.22-.43-46,8.05-61.3,8.85-15.93-2.69-27.12-2.81-27.23l.5-.51c.12.11,12,11.63,2.9,28-8.39,15.09-8.12,43.8-8,60.95,0,1.34,0,2.6,0,3.79Z"/><path class="cls-20" d="M381.32,288.53a15.4,15.4,0,0,1-6.08-15.76l.65.12A14.78,14.78,0,0,0,381.77,288Z"/><path class="cls-20" d="M381.58,224.95c0-.07-.08-.3-2.06-.31l-.53-.18.44.42c.37.21.62,1.49.69,2l0,.16.15-.08a2,2,0,0,0,.77-.69l.14-.26C381.46,225.5,381.64,225.15,381.58,224.95Z"/><path class="cls-20" d="M363.85,224.86c-1.79.15-1.88.38-1.92.46a1.77,1.77,0,0,0,.17,1l.08.25a1.36,1.36,0,0,0,.59.65l.15.08,0-.18a5.23,5.23,0,0,1,.93-2l.42-.27Z"/><path class="cls-20" d="M369.9,225.76a.41.41,0,0,0,.15,0,3,3,0,0,1,2.31,0,.42.42,0,0,0,.54-.17.36.36,0,0,0-.11-.52,3.69,3.69,0,0,0-2.95,0,.43.43,0,0,0-.27.5A.33.33,0,0,0,369.9,225.76Z"/><path class="cls-20" d="M375.47,231.82a3.27,3.27,0,0,1-2.6-1.06,5.79,5.79,0,0,1-.91-4.39c.24-1.56,1.4-2.29,4.14-2.61a5.69,5.69,0,0,1,.65,0,5.28,5.28,0,0,1,3.76,1.56l0,0,0,.06a7,7,0,0,1-1.61,5,4.53,4.53,0,0,1-3.35,1.48Zm1.22-7.63a5.26,5.26,0,0,0-.59,0c-2.48.28-3.47.87-3.67,2.16,0,.27-.38,2.67.82,4a2.86,2.86,0,0,0,2.27.92h.12a4,4,0,0,0,3-1.31,6.41,6.41,0,0,0,1.47-4.49A4.9,4.9,0,0,0,376.69,224.19Z"/><path class="cls-20" d="M366.09,231.82a3,3,0,0,1-2.45-1.09,6.28,6.28,0,0,1-.82-5v0l0-.06a5.93,5.93,0,0,1,4-1.86h.24c2.43.13,3.36.79,3.33,2.34a7.51,7.51,0,0,1-1.65,4.63,3.63,3.63,0,0,1-2.49,1.1Zm-2.82-6a5.81,5.81,0,0,0,.75,4.59,2.62,2.62,0,0,0,2.13.94h.19a3.11,3.11,0,0,0,2.14-.94,7,7,0,0,0,1.5-4.27c0-1.3-.75-1.8-2.94-1.92h-.21A5.33,5.33,0,0,0,363.27,225.81Z"/><path class="cls-20" d="M381.27,225.21a.23.23,0,0,1-.08-.17.3.3,0,0,1,.07-.2.3.3,0,0,1,.23-.11l.09,0,2.71-.68-.29.46,0,.06-2.64.67Z"/></g><path class="cls-14" d="M342.23,355.91s-2.89-15.69-16.34-15.69c-14.94,0-21.5,8.81-25.1,15.54Z"/><path class="cls-27" d="M138.44,447.82c14,4.71,39.55,2.26,66,2.26s78,3.44,93.38-3.46c10.93-4.91,35.94-21.5,18.5-45.26s-163.66-28.42-179-29S100.85,435.19,138.44,447.82Z"/><path class="cls-21" d="M122.54,212.08l0-.06a45,45,0,0,1-3-25.77c1.79-9.89,15.58-18.83,37.42-14.56,11.31,2.21,5.3,20.35,4.79,30-.57,10.88-5.42,27.06-13.85,27.3a13.47,13.47,0,0,1-4.68-1.24l-4.08,12.49s-18,4.54-25.61-7.65Z"/><path class="cls-14" d="M161.38,181.05c-1.18.33-4.78,1.11-4.78,1.11s-2.22,8.44-4,11.44-.89,10.11-5.11.67-.67,10.66-12.44,15.88-15,7.44-15,7.44-.78-4.66-3.67-6.22-10-13.44-8.22-27.1,8.66-17.33,21.1-17.88,8.92-6.29,16.66-6.55S164.61,152,164.61,152,172.19,178,161.38,181.05Z"/><path class="cls-28" d="M147.16,236.66c21.57,7.58,35.34,24.55,47.19,73.61s27.11,54,31.12,67.64c0,0-49.56,26.68-74.5,72.23,0,0-84.42,6.69-79.21-61.88s-7.68-82-4.61-107.59,24.75-47.83,39.5-49.22C118.82,230.29,130.51,230.8,147.16,236.66Z"/><ellipse class="cls-21" cx="141.02" cy="199.58" rx="7.13" ry="8.32" transform="translate(-51.85 49.51) rotate(-16.87)"/><path class="cls-14" d="M143.19,205.09a1.67,1.67,0,0,0,.53-.09c1.2-.4,1.86-2.06,1.93-2.24l-1.19-.45c-.16.42-.65,1.33-1.14,1.49a.48.48,0,0,1-.44-.09c-.38-.24-.38-.41-.31-1.09a3.69,3.69,0,0,0-.86-3.12,6.31,6.31,0,0,0-2.26-1.62c-1-.5-1.26-.61-.93-1.71a1.3,1.3,0,0,1,.67-.81c1.15-.61,3.3-.15,4,.08l.38-1.21c-.13,0-3.15-1-5,0a2.56,2.56,0,0,0-1.29,1.57c-.64,2.13.55,2.71,1.6,3.22a5.16,5.16,0,0,1,1.85,1.3,2.47,2.47,0,0,1,.57,2.18,2.06,2.06,0,0,0,.89,2.29A1.83,1.83,0,0,0,143.19,205.09Z"/><path class="cls-21" d="M202.56,284.39s23.58,26.73,30.79,35.53c19.57,7.76,52.64,18.15,56.57,19.24,4.36,1.2,6.77.9,13.38-5.41s8.12-4.51,16.24-2.11,10.53-2.26,14.29,6.62,10.37,10.59,10.23,12.48c-.24,3.16-9.25-.6-9.25-.6s0,5-3.31,5.19-1.8-4-3.31-7.14-9.1-6.47-10.9.07-9.62,7.59-9.62,7.59h-90.3a9,9,0,0,1-3.32-.06c-14.09-3-39.26-20-54.14-40.44S180.18,263.21,202.56,284.39Z"/><path class="cls-29" d="M132.44,244.39c-6.86,4.5-13.26,12.31-7.25,31.33s29.46,49.09,51.75,68.42c0,0,40-19.9,36.81-48,0,0-34.25-38.21-47.38-48.31S140,239.43,132.44,244.39Z"/><path class="cls-14" d="M168.16,313a24.49,24.49,0,0,0,5.26-.51l-.31-1.23a26.76,26.76,0,0,1-28.16-12.78l-1.08.67C151.19,311.05,161.84,313,168.16,313Z"/><path class="cls-14" d="M177.18,345.25l.38-.18c.15-.07,15.34-7.34,26-20.12l-1-.82c-9.58,11.44-22.83,18.4-25.23,19.6-3.52-3.23-35.25-32.76-48.16-60.38l-1.15.54c13.72,29.35,48.43,60.76,48.78,61.08Z"/><circle class="cls-30" cx="141.02" cy="198.91" r="12.81" transform="translate(-71.33 318.76) rotate(-84.1)"/><circle class="cls-14" cx="141.02" cy="198.91" r="5.95" transform="translate(-71.33 318.76) rotate(-84.1)"/><path class="cls-31" d="M139.28,164.55s-3.37-2.13-9.86.6A36.46,36.46,0,0,1,135.88,180a69.54,69.54,0,0,1,1.35,12.72c0,2.25-1.46,5.55-.16,7.52,2.36,3.59,8,1.05,8.28-2.76C146.6,177.8,139.28,164.55,139.28,164.55Z"/><path class="cls-22" d="M143.21,227.8a17.11,17.11,0,0,1-7-6.42L141,234.19Z"/></g><polygon class="cls-32" points="374.9 157.37 376.67 127.3 401.83 143.86 374.9 157.37"/><path class="cls-14" d="M376.93,152l1.83-31.12.44.29L404.79,138Zm2.37-30-1.7,29,26-13Z"/><rect class="cls-33" x="321.84" y="62.43" width="25.39" height="25.39" transform="translate(-0.67 147.19) rotate(-24.79)"/><path class="cls-14" d="M331.91,86.93,321.08,63.47l23.45-10.83,10.83,23.46ZM321.68,63.69l10.46,22.64,22.64-10.46L344.32,53.23Z"/><path class="cls-34" d="M84,208.32l.05-.17L70,203.83l3.22,14.07.75-.12A14,14,0,0,0,84,208.32Z"/><circle class="cls-35" cx="375.97" cy="92.26" r="2.54"/><circle class="cls-36" cx="74.54" cy="111.43" r="1.97"/><circle class="cls-37" cx="313.27" cy="152.73" r="3.94"/><circle class="cls-38" cx="118.15" cy="132.08" r="3.94"/><path class="cls-39" d="M190.75,53.65l82.34.28c6.13,0,11.11,5.32,11.06,11.79l-.42,54.61c0,6.47-5.11,11.76-11.24,11.75l-48-.27-28.72,17.64,1.39-17.7-7.05,0c-6.13,0-11.11-5.32-11.06-11.79l.42-54.61C179.56,58.93,184.62,53.64,190.75,53.65Z"/><path class="cls-14" d="M224.24,110s-2.06,1-5.37-.37l-29.05-7.34a.21.21,0,0,1-.08-.37l31.55-23.56a1.55,1.55,0,0,1,1.32-.25l55.22,14.6a.21.21,0,0,1,.08.36l-27.37,22.79a1.54,1.54,0,0,1-1.36.31Z"/><polygon class="cls-40" points="278.22 91.44 277.99 92.9 277.39 93.07 276.71 92.87 276.24 92.45 277.27 91.68 278.22 91.44"/><polygon class="cls-40" points="189.66 102.05 189.89 100.6 190.83 100.68 191.59 100.89 191.19 101.67 189.66 102.05"/><path class="cls-41" d="M224.48,108.51s-2.06,1-5.37-.37l-29.05-7.34a.21.21,0,0,1-.08-.37l31.55-23.56a1.55,1.55,0,0,1,1.32-.25l55.22,14.6a.21.21,0,0,1,.08.36l-27.37,22.79a1.54,1.54,0,0,1-1.36.31Z"/><path class="cls-13" d="M276.56,90.5s-9.41,9.63-12.69,11.6-13.82,11.65-13.82,11.65l-25.62-6.51s-4-2.59-5.72.19l-25.79-7.27a23.31,23.31,0,0,0-.61-3.75c-.35-.95,27.91-21.91,27.91-21.91L277,87.7Z"/><path class="cls-42" d="M250.06,113.75l-1-5,28-21-.57,3.47s-8.53,8.19-12.58,10.93S250.06,113.75,250.06,113.75Z"/><path class="cls-13" d="M249,108.71s-21.75-7-27.75-3.49a5.65,5.65,0,0,1,4.31,2.31l24.48,6.22Z"/><path class="cls-13" d="M221.27,105.22,192.32,96.4a19.06,19.06,0,0,1,.61,3.75l24.59,6.94S219.88,105.3,221.27,105.22Z"/><path class="cls-42" d="M224.43,107.24l1.14.29a5,5,0,0,0-4.31-2.31,4.68,4.68,0,0,0-3.75,1.87l1.2.34a5,5,0,0,1,2.48-1.3A7.5,7.5,0,0,1,224.43,107.24Z"/><path class="cls-13" d="M221.27,105.22,193.51,95.1a4.84,4.84,0,0,1,.56-3.45c12.37,3.66,27.29,12.43,27.82,13.55Z"/><path class="cls-42" d="M221.27,105.22s19.24-2.58,27.3.85l27.06-19.84s-17.28-6.42-28.41-6.43Z"/><path class="cls-42" d="M221.27,105.22A146.65,146.65,0,0,0,193,92.28s18.33-18.67,26.26-19.83c0,0,16.88,2.21,28,7.35C247.22,79.81,223.64,95.16,221.27,105.22Z"/><path class="cls-13" d="M221.27,105.22S202.59,90,193.51,89.08c0,0,18.08-17.56,24.9-17.59,0,0,17.47,2.77,28.81,8.31C247.22,79.81,222.48,96.2,221.27,105.22Z"/><path class="cls-42" d="M193.51,95.1s26.84,9.61,27.76,10.12l-28.13-9.78Z"/><path class="cls-13" d="M221.27,105.22s13.42-7.44,27.82-4.44c0,0,17.84-15.33,26.12-17.81,0,0-18-7.13-28-3.17C247.22,79.81,222.38,95.39,221.27,105.22Z"/><path class="cls-42" d="M221.27,105.22s4.9-12.67,26-25.41l-1.43-.67S224.66,91,221.27,105.22Z"/><polygon class="cls-14" points="260.54 100.2 260.41 100.02 274.29 89.61 274.43 89.78 260.54 100.2"/><path class="cls-14" d="M216.47,102.6c-6.42-4.26-21.21-9.41-21.36-9.46l.07-.21c.15.05,15,5.21,21.41,9.48Z"/><path class="cls-14" d="M249.53,111.78l-.62-3a36.28,36.28,0,0,0-9.63-2.59l0-.22a36.51,36.51,0,0,1,9.75,2.63l.05,0,.64,3.1Z"/><path class="cls-14" d="M218.2,106.49l-.18-.14s1.92-2.41,5.54-.78l-.09.2C220,104.22,218.22,106.46,218.2,106.49Z"/><polygon class="cls-14" points="240.5 111.44 226.41 107.85 226.47 107.64 240.56 111.22 240.5 111.44"/><path class="cls-14" d="M240.28,85.68l-.17-.15c2.16-2.4,6.81-4.89,6.86-4.91l.1.2S242.41,83.31,240.28,85.68Z"/><rect class="cls-43" x="65.43" y="355.96" width="318.34" height="2.42"/></svg>