<svg id="圖層_1" data-name="圖層 1" xmlns="http://www.w3.org/2000/svg" xmlns:xlink="http://www.w3.org/1999/xlink" viewBox="0 0 495 396"><defs><style>.cls-1{mask:url(#mask);filter:url(#luminosity-noclip-3);}.cls-2,.cls-4{mix-blend-mode:multiply;}.cls-2{fill:url(#鍊踑臇蜸馯鳺艜_23);}.cls-3{mask:url(#mask-2);filter:url(#luminosity-noclip-4);}.cls-4{fill:url(#鍊踑臇蜸馯鳺艜_23-2);}.cls-5{opacity:0.7;}.cls-6{mask:url(#mask-3);}.cls-7{fill:url(#鍊踑臇蜸馯鳺艜_86);}.cls-8{mask:url(#mask-4);}.cls-9{fill:url(#鍊踑臇蜸馯鳺艜_86-2);}.cls-10,.cls-36{fill:#fff;}.cls-11{fill:#faaf9a;}.cls-12,.cls-37{fill:#1e1916;}.cls-13{fill:#e8e5e6;}.cls-14{fill:url(#鍊踑臇蜸馯鳺艜_60);}.cls-15{fill:url(#鍊踑臇蜸馯鳺艜_43);}.cls-16{fill:url(#鍊踑臇蜸馯鳺艜_43-2);}.cls-17{fill:url(#鍊踑臇蜸馯鳺艜_43-3);}.cls-18{fill:url(#鍊踑臇蜸馯鳺艜_21);}.cls-19{fill:#e5974c;}.cls-20{fill:url(#鍊踑臇蜸馯鳺艜_21-2);}.cls-21{fill:url(#鍊踑臇蜸馯鳺艜_30);}.cls-22{fill:url(#鍊踑臇蜸馯鳺艜_60-2);}.cls-23{opacity:0.2;}.cls-24{fill:#200c0e;}.cls-25{fill:url(#鍊踑臇蜸馯鳺艜_43-4);}.cls-26{fill:url(#鍊踑臇蜸馯鳺艜_60-3);}.cls-27{fill:url(#鍊踑臇蜸馯鳺艜_43-5);}.cls-28{fill:url(#鍊踑臇蜸馯鳺艜_54);}.cls-29{fill:url(#鍊踑臇蜸馯鳺艜_43-6);}.cls-30{fill:#ed7662;}.cls-31{fill:url(#鍊踑臇蜸馯鳺艜_21-3);}.cls-32{fill:url(#鍊踑臇蜸馯鳺艜_10);}.cls-33{fill:url(#鍊踑臇蜸馯鳺艜_10-2);}.cls-34,.cls-35,.cls-36,.cls-37{fill-rule:evenodd;}.cls-34{fill:url(#鍊踑臇蜸馯鳺艜_10-3);}.cls-35{fill:url(#鍊踑臇蜸馯鳺艜_30-2);}.cls-38{fill:url(#鍊踑臇蜸馯鳺艜_43-7);}.cls-39{filter:url(#luminosity-noclip-2);}.cls-40{filter:url(#luminosity-noclip);}</style><filter id="luminosity-noclip" x="298.14" y="-8390" width="104.14" height="32766" filterUnits="userSpaceOnUse" color-interpolation-filters="sRGB"><feFlood flood-color="#fff" result="bg"/><feBlend in="SourceGraphic" in2="bg"/></filter><mask id="mask" x="298.14" y="-8390" width="104.14" height="32766" maskUnits="userSpaceOnUse"><g class="cls-40"/></mask><radialGradient id="鍊踑臇蜸馯鳺艜_23" cx="350.21" cy="328.97" r="52.7" gradientUnits="userSpaceOnUse"><stop offset="0" stop-color="#fff"/><stop offset="1" stop-color="gray"/></radialGradient><filter id="luminosity-noclip-2" x="49.88" y="-8390" width="400.27" height="32766" filterUnits="userSpaceOnUse" color-interpolation-filters="sRGB"><feFlood flood-color="#fff" result="bg"/><feBlend in="SourceGraphic" in2="bg"/></filter><mask id="mask-2" x="49.88" y="-8390" width="400.27" height="32766" maskUnits="userSpaceOnUse"><g class="cls-39"/></mask><radialGradient id="鍊踑臇蜸馯鳺艜_23-2" cx="250.01" cy="199.18" r="193.77" xlink:href="#鍊踑臇蜸馯鳺艜_23"/><filter id="luminosity-noclip-3" x="298.14" y="275.65" width="104.14" height="106.65" filterUnits="userSpaceOnUse" color-interpolation-filters="sRGB"><feFlood flood-color="#fff" result="bg"/><feBlend in="SourceGraphic" in2="bg"/></filter><mask id="mask-3" x="298.14" y="275.65" width="104.14" height="106.65" maskUnits="userSpaceOnUse"><g class="cls-1"><path class="cls-2" d="M365.19,278.65c-32.1,8.9-92.74,70.91-55.14,100S460,252.39,365.19,278.65Z"/></g></mask><radialGradient id="鍊踑臇蜸馯鳺艜_86" cx="350.21" cy="328.97" r="52.7" gradientUnits="userSpaceOnUse"><stop offset="0" stop-color="#b3d6ff"/><stop offset="1" stop-color="#e6f2fe"/></radialGradient><filter id="luminosity-noclip-4" x="49.88" y="12" width="400.27" height="374.36" filterUnits="userSpaceOnUse" color-interpolation-filters="sRGB"><feFlood flood-color="#fff" result="bg"/><feBlend in="SourceGraphic" in2="bg"/></filter><mask id="mask-4" x="49.88" y="12" width="400.27" height="374.36" maskUnits="userSpaceOnUse"><g class="cls-3"><path class="cls-4" d="M373.87,269.25C237.78,297,278.61,367.79,187.81,384.47,65.3,407,7.86,223.26,84.66,109.88,146,19.28,251.91-9.35,345.72,27.86,478.23,80.42,481.29,247.36,373.87,269.25Z"/></g></mask><radialGradient id="鍊踑臇蜸馯鳺艜_86-2" cx="250.01" cy="199.18" r="193.77" xlink:href="#鍊踑臇蜸馯鳺艜_86"/><linearGradient id="鍊踑臇蜸馯鳺艜_60" x1="246.77" y1="320.71" x2="286.8" y2="320.71" gradientUnits="userSpaceOnUse"><stop offset="0" stop-color="#d2d1cd"/><stop offset="1" stop-color="#abafb8"/></linearGradient><linearGradient id="鍊踑臇蜸馯鳺艜_43" x1="304.68" y1="300.15" x2="239.58" y2="135.45" gradientUnits="userSpaceOnUse"><stop offset="0" stop-color="#0e218a"/><stop offset="1" stop-color="#1f72d2"/></linearGradient><linearGradient id="鍊踑臇蜸馯鳺艜_43-2" x1="291.98" y1="305.17" x2="226.88" y2="140.47" xlink:href="#鍊踑臇蜸馯鳺艜_43"/><linearGradient id="鍊踑臇蜸馯鳺艜_43-3" x1="255.91" y1="209.01" x2="246.15" y2="76.21" xlink:href="#鍊踑臇蜸馯鳺艜_43"/><linearGradient id="鍊踑臇蜸馯鳺艜_21" x1="167.34" y1="257.1" x2="356.55" y2="257.1" gradientUnits="userSpaceOnUse"><stop offset="0" stop-color="#fea235"/><stop offset="1" stop-color="#ffb44f"/></linearGradient><linearGradient id="鍊踑臇蜸馯鳺艜_21-2" x1="-888.03" y1="-2044.53" x2="-865.26" y2="-2044.53" gradientTransform="matrix(0, 1, -1, 0, -1808.92, 1099.17)" xlink:href="#鍊踑臇蜸馯鳺艜_21"/><linearGradient id="鍊踑臇蜸馯鳺艜_30" x1="-887.36" y1="-1897.84" x2="-821.03" y2="-1897.84" gradientTransform="translate(-860.24 2158.42) rotate(52.72)" gradientUnits="userSpaceOnUse"><stop offset="0" stop-color="#f6462e"/><stop offset="1" stop-color="#fb7d42"/></linearGradient><linearGradient id="鍊踑臇蜸馯鳺艜_60-2" x1="119.83" y1="314.01" x2="185.09" y2="314.01" xlink:href="#鍊踑臇蜸馯鳺艜_60"/><linearGradient id="鍊踑臇蜸馯鳺艜_43-4" x1="253.04" y1="320.56" x2="187.94" y2="155.86" xlink:href="#鍊踑臇蜸馯鳺艜_43"/><linearGradient id="鍊踑臇蜸馯鳺艜_60-3" x1="156.05" y1="327.05" x2="190.86" y2="327.05" xlink:href="#鍊踑臇蜸馯鳺艜_60"/><linearGradient id="鍊踑臇蜸馯鳺艜_43-5" x1="242.92" y1="324.56" x2="177.82" y2="159.86" xlink:href="#鍊踑臇蜸馯鳺艜_43"/><linearGradient id="鍊踑臇蜸馯鳺艜_54" x1="220.5" y1="202.94" x2="167.55" y2="96.61" gradientUnits="userSpaceOnUse"><stop offset="0" stop-color="#caf0db"/><stop offset="1" stop-color="#f8f7db"/></linearGradient><linearGradient id="鍊踑臇蜸馯鳺艜_43-6" x1="202.58" y1="218.42" x2="192.39" y2="79.83" xlink:href="#鍊踑臇蜸馯鳺艜_43"/><linearGradient id="鍊踑臇蜸馯鳺艜_21-3" x1="222.81" y1="123.09" x2="232.23" y2="123.09" xlink:href="#鍊踑臇蜸馯鳺艜_21"/><linearGradient id="鍊踑臇蜸馯鳺艜_10" x1="109.27" y1="259.49" x2="121.9" y2="259.49" gradientUnits="userSpaceOnUse"><stop offset="0" stop-color="#237c8f"/><stop offset="1" stop-color="#2abdd1"/></linearGradient><linearGradient id="鍊踑臇蜸馯鳺艜_10-2" x1="87.8" y1="229.37" x2="111.12" y2="229.37" xlink:href="#鍊踑臇蜸馯鳺艜_10"/><linearGradient id="鍊踑臇蜸馯鳺艜_10-3" x1="49.56" y1="284.63" x2="115.41" y2="284.63" xlink:href="#鍊踑臇蜸馯鳺艜_10"/><linearGradient id="鍊踑臇蜸馯鳺艜_30-2" x1="45.3" y1="288.75" x2="95.59" y2="288.75" gradientTransform="matrix(1, 0, 0, 1, 0, 0)" xlink:href="#鍊踑臇蜸馯鳺艜_30"/><linearGradient id="鍊踑臇蜸馯鳺艜_43-7" x1="160.5" y1="216.03" x2="150.73" y2="83.22" xlink:href="#鍊踑臇蜸馯鳺艜_43"/></defs><title>bn-feature</title><g class="cls-5"><g class="cls-6"><path class="cls-7" d="M365.19,278.65c-32.1,8.9-92.74,70.91-55.14,100S460,252.39,365.19,278.65Z"/></g></g><g class="cls-5"><g class="cls-8"><path class="cls-9" d="M373.87,269.25C237.78,297,278.61,367.79,187.81,384.47,65.3,407,7.86,223.26,84.66,109.88,146,19.28,251.91-9.35,345.72,27.86,478.23,80.42,481.29,247.36,373.87,269.25Z"/></g></g><path class="cls-10" d="M385.39,124.87h-.17a34.26,34.26,0,0,0-32.16-6.41c1.06-3.4,2.74-6.58,1.26-10.21s-5.64-5.87-9.27-6.88c-6.63-1.86-13.78-1-19,3.12-1.89-9-9.48-16.56-19.27-16.12-10.37.47-17.56,9.81-17.82,19.55-5.45-1.49-11.47-2.09-16.84-.25-4.64,1.59-5.9,6.25-9.33,7.76-4.65,2-10-1.55-14.12,2.84a6.27,6.27,0,0,0-1.61,6.29,13.59,13.59,0,0,0,3.76,4.38h133a2.08,2.08,0,0,0,2.59-.35C387.91,127.62,387.56,124.87,385.39,124.87Z"/><path class="cls-10" d="M459.7,220.12h-.12a24.8,24.8,0,0,0-23.27-4.64c.77-2.46,2-4.76.91-7.39s-4.08-4.24-6.71-5c-4.8-1.34-10-.71-13.73,2.26-1.37-6.48-6.86-12-13.95-11.66-7.5.34-12.71,7.1-12.9,14.15-3.94-1.08-8.3-1.51-12.19-.18-3.36,1.15-4.27,4.52-6.75,5.61-3.36,1.48-7.24-1.12-10.22,2.06a4.54,4.54,0,0,0-1.16,4.55,9.83,9.83,0,0,0,2.72,3.17h96.28a1.51,1.51,0,0,0,1.88-.26A1.48,1.48,0,0,0,459.7,220.12Z"/><path class="cls-10" d="M142.18,182.83H142a27.61,27.61,0,0,0-25.91-5.16c.85-2.74,2.21-5.3,1-8.23s-4.55-4.73-7.47-5.54c-5.35-1.5-11.1-.79-15.28,2.51-1.53-7.22-7.64-13.35-15.53-13-8.36.38-14.15,7.9-14.36,15.75-4.39-1.2-9.24-1.68-13.57-.21-3.74,1.28-4.76,5-7.52,6.25-3.75,1.65-8.06-1.25-11.38,2.29a5.05,5.05,0,0,0-1.3,5.07,11,11,0,0,0,3,3.53H141a1.68,1.68,0,0,0,2.09-.29A1.65,1.65,0,0,0,142.18,182.83Z"/><polygon class="cls-11" points="283.84 279.48 272.6 296.18 258.58 290.25 266.28 272.05 283.84 279.48"/><path class="cls-12" d="M261.84,290.16c.88.87,5.85,1.48,11.16,2.88,2.55.67,3.38-.74,3.38-.74s-1.66,8.1-2.45,13.17,10.48,19.59,12.46,23.7-1.94,7.06-1.94,7.06L246.77,308.8c6.88-11.63,10.94-20.29,10.94-20.29A5.4,5.4,0,0,1,261.84,290.16Z"/><path class="cls-13" d="M256,311.46l-.75-.54a12.07,12.07,0,0,0,.41-13.72l.76-.53C256.51,296.74,261.42,304,256,311.46Z"/><path class="cls-14" d="M284.45,336.23,246.77,308.8c.62-.93,1.25-2.29,2.27-3.62l37.76,27.49A7,7,0,0,1,284.45,336.23Z"/><path class="cls-13" d="M270.43,293.63a70.26,70.26,0,0,1-2.81,9.13c-1.5,3.57,4.61,10.36,5.34,11.16l5.2,2-.33.87-5.4-2-.07-.08c-.3-.32-7.41-7.9-5.59-12.22a85.4,85.4,0,0,0,2.95-9.36Z"/><rect class="cls-13" x="272.29" y="307.34" width="0.92" height="5.14" transform="translate(-103.8 479.16) rotate(-72.85)"/><rect class="cls-13" x="270.78" y="302.61" width="0.92" height="5.14" transform="translate(-100.36 474.38) rotate(-72.85)"/><path class="cls-15" d="M314.73,219.89c-1.29,10.53-5,28.82-8.45,42.49s-8.12,33.18-8.12,33.18-30-.24-46.36-20.18c0,0,14.89-40.9,18.5-53.15S317,201,314.73,219.89Z"/><path class="cls-16" d="M314.88,220.93a25,25,0,0,1-1.45,6.83,16.39,16.39,0,0,1-5.07,7.42c-17.49,13.6-90.11-1.53-99.53-7.34-27.41-16.89-.82-37.28,10.35-38.33,7.26-.68,42.82,1.53,60.59,3.55,4.4.5,8.53,1.07,12.07,1.7a48.27,48.27,0,0,1,9.64,2.48C311.74,201.65,315.54,211.89,314.88,220.93Z"/><path class="cls-12" d="M270.15,222.68c-10.16-3-46.66-14.3-47-14.42l.27-.88c.37.11,36.87,11.38,47,14.41a5.11,5.11,0,0,1,3.25,2.73c3,6.15-2.55,20.68-9.61,39.08-2.09,5.43-4.24,11.05-6.3,16.81l-.87-.31c2.07-5.76,4.22-11.39,6.31-16.83,6.7-17.47,12.49-32.56,9.65-38.34A4.16,4.16,0,0,0,270.15,222.68Z"/><path class="cls-12" d="M295.79,262.61c-.53,13.67,2.13,30,2.16,30.17l-.91.15c0-.16-2.7-16.6-2.17-30.36Z"/><path class="cls-11" d="M344.21,85.28c-.17-2.2,1.14-4.33-.17-6.37a11.09,11.09,0,0,1-1.52-4.35,32.23,32.23,0,0,0,10.12-3.25c2.32-1.35,1.25-2.6-.09-2.4-3,.47-10.15.64-13.67,1.74l-.09,0c-2.56.4-10.4,5.28-11.62,6.62-1.81,2-.33,1-6.3,4.13-9.55,6.48-42.24,12.5-45.89,14.89-11.73,7.69-1,27.44,11.94,23.36,10.28-3.25,30.92-21.48,38.07-29.55h0c3.71-4.21,10.5.88,13.56,0S344.38,87.48,344.21,85.28Z"/><path class="cls-17" d="M227.46,125.61c11.19,3.37,33.76,10.86,52.81,8.47,0,0,11.5-29.44-3.71-46.32,0,0-49.75-.65-60.33,1.38S216.28,122.24,227.46,125.61Z"/><polygon class="cls-18" points="356.55 200.34 281.98 257.1 204.31 316.22 195.15 323.19 183.71 331.9 183.48 332.07 182.04 333.18 171.2 318.94 167.61 314.22 167.34 313.87 169.01 312.6 169.1 312.52 186.94 298.94 194.42 293.25 266.72 238.22 341.85 181.03 341.85 181.03 356.55 200.34"/><rect class="cls-19" x="237.52" y="129.33" width="21.27" height="219.31" transform="matrix(0.61, 0.8, -0.8, 0.61, 288.01, -103.22)"/><rect class="cls-20" x="125.95" y="211.12" width="219.31" height="22.77" transform="translate(-86.63 188.16) rotate(-37.28)"/><path class="cls-21" d="M133.32,363.05,100.09,319.4a5.73,5.73,0,0,1,1.09-8l22.44-17.08a5.73,5.73,0,0,1,8,1.09L164.88,339a5.73,5.73,0,0,1-1.09,8l-22.44,17.08A5.73,5.73,0,0,1,133.32,363.05Z"/><path class="cls-22" d="M183.73,337.65l-16.8,12.79a3.47,3.47,0,0,1-4.86-.66l-.68-.89-40.17-52.78-.68-.89a3.47,3.47,0,0,1,.66-4.86L138,277.58a3.46,3.46,0,0,1,4.86.66l.27.36,13,17.08.79,1L169,312.6v0l14.69,19.29.68.89a3.45,3.45,0,0,1-.66,4.86Z"/><path class="cls-11" d="M356.55,200.34,316,147l32.76-4.19L376,139.35a3.73,3.73,0,0,1,3.9,5.13l-10.64,25.4Z"/><path class="cls-12" d="M369.3,169.88l-20.58-27L376,139.35a3.73,3.73,0,0,1,3.9,5.13Z"/><g class="cls-23"><path class="cls-24" d="M204.31,316.22c-1-1.35-1.93-2.78-2.84-4.27a3.2,3.2,0,0,1,.07.5s-5.31-.77-7,4.06a9.4,9.4,0,0,0,.16,4.77l.33.18-.2.38c.1.44.22.89.35,1.35l-11.44,8.71.68.89a3.5,3.5,0,0,1,.4.67l-1.31-1.39L171.2,318.94l-4-4.28.4-.44.21-.23c.36-.42.76-.88,1.2-1.37l.08-.09c.31-.33.65-.66,1-1l0,.05a106,106,0,0,1,16.78-12.64c3-1.84,4.93-2.9,4.93-2.9l.12.14,2.63-1.7c-.07-.4-.14-.81-.21-1.22-.15-.91-.27-1.84-.36-2.77,0,0,16.28-11.76,29.8-21.84-5.74-3.65-11.15-7.44-15.82-10.85l-1.09-.8c-6.09-4.5-10.77-8.24-13-10a28.29,28.29,0,0,1-4.09-4c-14.52-17.43-7.78-50.86,13.1-47.35,10.86,1.82,21.48,7.05,31.19,13.64a159,159,0,0,1,17.34,13.78l1,.88c5.4,5,10.21,9.92,14.22,14.26,5.09,5.51,8.91,10.06,11.05,12.43A23.16,23.16,0,0,1,282,257.1Z"/></g><path class="cls-25" d="M191.83,192.57c34.53,5.79,66.66,46,74.79,55,12.42,13.7,3,31.59-8.53,34.33-21.56,5.1-66.79-31.23-75.27-38C163.18,228.33,169.21,188.78,191.83,192.57Z"/><polygon class="cls-11" points="203.57 301.1 184.9 308.62 176.62 295.84 193.2 285.1 203.57 301.1"/><path class="cls-12" d="M182.26,297.14c-.06,1.24-2.31,4.17,2.82,6.13s5.31,6.11,5.31,6.11-5.31-.76-7,4.07,6.59,21.21,7.76,25.63-3.24,6.56-3.24,6.56l-31.82-34c9-10.12,24.68-18.62,24.68-18.62A5.4,5.4,0,0,1,182.26,297.14Z"/><path class="cls-13" d="M164.64,315.94l-.63-.68a12.07,12.07,0,0,0,3-13.39l.85-.37C167.89,301.58,171.34,309.68,164.64,315.94Z"/><path class="cls-26" d="M187.88,345.63l-31.82-34c.78-.8,1.66-2,2.92-3.13l31.9,34.12A7,7,0,0,1,187.88,345.63Z"/><path class="cls-13" d="M185.43,305.84c-.05,0-5.46.28-7.76,3.74-2.14,3.22,2.57,11,3.14,12l4.74,2.91-.48.79-4.92-3-.06-.09c-.24-.37-5.78-9.16-3.18-13.06s8.25-4.14,8.49-4.15Z"/><rect class="cls-13" x="180.9" y="315.01" width="0.92" height="5.14" transform="translate(-184.19 328.46) rotate(-61.97)"/><rect class="cls-13" x="180.3" y="310.08" width="0.92" height="5.14" transform="translate(-180.16 325.31) rotate(-61.97)"/><path class="cls-27" d="M266.14,276.81c-7,8-20.29,21.07-30.85,30.42S210,330.13,210,330.13s-24.72-17.05-27-42.72c0,0,35.28-25.49,45.14-33.6S278.63,262.5,266.14,276.81Z"/><path class="cls-12" d="M235.8,244.38a4.64,4.64,0,0,1,1,3.67c-1.29,10.06-28.12,29.63-49.67,45.36L185,294.91l-.54-.75,2.06-1.5c21.41-15.62,48.06-35.06,49.3-44.73a3.7,3.7,0,0,0-.75-3c-6.59-8.08-39.2-13.39-39.53-13.44l.15-.91C197.06,230.83,229,236,235.8,244.38Z"/><path class="cls-12" d="M229.67,286.57l.11.92c-10.16,1.16-21.78,5.79-21.89,5.84l-.35-.86C207.66,292.42,219.39,287.74,229.67,286.57Z"/><path class="cls-12" d="M269.64,271.75c1.75-3,5-8.58-.82-16.46l.74-.55c6.2,8.38,2.61,14.52.88,17.48-.18.31-.35.59-.48.84-1.47,2.74-16.83,18.51-17.48,19.18l-.66-.64c.16-.16,15.92-16.35,17.33-19C269.28,272.36,269.45,272.07,269.64,271.75Z"/><path class="cls-12" d="M183.19,227a40.25,40.25,0,0,0,16.51-14.13l-.65-.38a39.51,39.51,0,0,1-16.18,13.83Z"/><path class="cls-28" d="M238.34,112.69c4.05,18.54,1.91,66.4,7.37,74.24,0,0-1,3.09-7.57,3.09-24.14,0-55.32,55.29-70,36-13.63-17.91-14.28-117.9,4.57-130.38C192,82.88,231,79,238.34,112.69Z"/><path class="cls-29" d="M249.57,186.63c-5.46-7.85-7-55.24-11-73.78-3.72-17-15.66-24.78-28.93-26.31a173.64,173.64,0,0,1,3.82,52.69s-16.68-36.16-26-50.3c-5.47,1.64-14.34,5-18.5,7.77-18.85,12.48-18.16,118.59-13.67,140.65,19.24,9.78,49.58-20.9,72.75-32.52l-3.38-30.72s15.76,18.08,16.22,18.08C247.77,192.1,249.57,186.63,249.57,186.63Z"/><path class="cls-12" d="M243,177.07a124.42,124.42,0,0,1-1.78-21c.23-9.54-3.15-39.43-3.18-39.73l.83-.1c0,.3,3.42,30.25,3.19,39.84a123.51,123.51,0,0,0,1.76,20.81Z"/><path class="cls-11" d="M209,74.54l-1.85,15.56c-.77,1.46-4.86,9-19.54-1.16l3.59-22.6A162.74,162.74,0,0,0,209,74.54Z"/><path class="cls-30" d="M207.19,89.65s-13-1.46-16.79-10.8c0,0,.39-6.59.43-6.55,8.89,6.13,14.47,7.1,16.79,11.73C208.16,85.1,207.33,88.48,207.19,89.65Z"/><path class="cls-11" d="M209.47,84.48c-4.93,1.52-16-2.34-19.46-6.21-1.22-1.38-2.29-5.73-2.29-8,0-7.1-.22-13.47,4.23-16.83,1.88-1.41,7.4-2.45,9.47-2.67,6.83-.69,9.72,4.06,11.83,10.59C215.62,68.69,218.17,81.79,209.47,84.48Z"/><path class="cls-12" d="M209.29,72.5l-.45-.71c.88-.57,2.19-1.67,2.2-2.24,0,0,0-.12-.14-.22a9.18,9.18,0,0,1-3.54-6.17v-.1l0-.09a4.45,4.45,0,0,1,4.21-2.61v.84a3.58,3.58,0,0,0-3.38,2,8.38,8.38,0,0,0,3.16,5.46,1.06,1.06,0,0,1,.51.92C211.86,70.78,209.72,72.22,209.29,72.5Z"/><circle class="cls-11" cx="186.95" cy="71.18" r="4.83" transform="translate(-12.77 59.73) rotate(-17.56)"/><path class="cls-12" d="M187.47,74.63a2.67,2.67,0,0,1-1.89-.15l.34-.77s1.14.46,1.49-.05c.07-.1,0-.23-.38-.63s-1-1.1-.54-1.92a4.29,4.29,0,0,1,.4-.56c.2-.25.47-.59.44-.77s-.15-.21-.35-.32a1.85,1.85,0,0,0-2,.19l-.53-.65a2.68,2.68,0,0,1,2.88-.29,1.35,1.35,0,0,1,.78.89,1.85,1.85,0,0,1-.61,1.46,3.53,3.53,0,0,0-.33.45c-.14.25,0,.46.43.95s.9,1,.45,1.67A1.32,1.32,0,0,1,187.47,74.63Z"/><path class="cls-12" d="M210.67,74.94a11.19,11.19,0,0,1-5.08.82l.08-.83c3.45.35,6.84-1.83,6.88-1.85l.46.7A13.81,13.81,0,0,1,210.67,74.94Z"/><path class="cls-12" d="M198.42,65.9l-.59-.59c3.75-3.73,5.79-2,5.88-1.92l-.56.63.28-.31-.27.32S201.57,62.77,198.42,65.9Z"/><path class="cls-12" d="M211.54,103l-.09-.83c5.53-.57,7.88-6.1,7.91-6.15l.78.32C220,96.62,217.58,102.42,211.54,103Z"/><path class="cls-12" d="M220.23,190.44c-.23-.08-22.62-8.4-27.9-23.86l.79-.27c5.14,15.08,27.17,23.26,27.39,23.34Z"/><path class="cls-12" d="M191.34,64.12l.46,5.74a6.32,6.32,0,0,1-1.79.46c-1.73-5.47-6-3-6-3-6.14-5.07-3.72-17.43,1.2-18.55,0,0,1.81-7.65,12.84-8s12,6.26,12,6.26,3.2.28,4.33,5.26-.55,11.13-.55,11.13l-1.34-4.27S202.28,61,195.16,56.41C195.54,62.22,191.34,64.12,191.34,64.12Z"/><circle class="cls-12" cx="201.78" cy="67.28" r="1.38" transform="translate(-10.66 77.89) rotate(-21.3)"/><circle class="cls-12" cx="211.13" cy="64.61" r="1.38" transform="translate(-9.05 81.1) rotate(-21.3)"/><path class="cls-31" d="M232.23,117.73s-5.38-1.22-9.42.34a65.09,65.09,0,0,1,.24,7.72l3.85,3.12,4.22-2.91A29.56,29.56,0,0,0,232.23,117.73Z"/><path class="cls-32" d="M117.48,208.49s1.23,1.09,3.11,4.88c0,0,5.39,67-5.66,97.13l-5.66-9.65S121.3,257.14,117.48,208.49Z"/><path class="cls-12" d="M115.33,209s1,.5,2.92,4.28c0,0,4.22,64.06-3.8,93.88l-7.33-5.81S119.16,257.64,115.33,209Z"/><path class="cls-12" d="M89,244.91s9.57-40.09,18.45-37.7.27,7.21.27,7.21-13.08,16.12-11.36,34.28S89,244.91,89,244.91Z"/><path class="cls-33" d="M87.8,242.94s10.43-40.39,19.3-38,.27,7.21.27,7.21-13.94,16.42-12.22,34.58S87.8,242.94,87.8,242.94Z"/><path class="cls-34" d="M75.23,242.4c-16.37,4-27.77,21.07-25.34,37.84L55.8,321a7.67,7.67,0,0,0,9.58,6.48l42.83-10.59a9.73,9.73,0,0,0,7.1-10.61l-5.91-40.76C107,248.76,91.6,238.36,75.23,242.4Z"/><path class="cls-35" d="M64.9,256.5h0c-12.5,3.09-21.21,16.09-19.35,28.9l4.51,31.13a5.86,5.86,0,0,0,7.32,5l32.71-8.09a7.43,7.43,0,0,0,5.42-8.1L91,274.16A20.9,20.9,0,0,0,64.9,256.5Z"/><path class="cls-36" d="M63.41,263.71h0a11.89,11.89,0,0,0-8.68,13l.65,3.85a2.63,2.63,0,0,0,3.28,2.22l14.68-3.63a3.33,3.33,0,0,0,2.43-3.64l-.65-3.85A9.38,9.38,0,0,0,63.41,263.71Z"/><path class="cls-37" d="M93.44,249.54A27.42,27.42,0,0,0,74,245.21q-1.47.21-2.91.57a31.68,31.68,0,0,0-8.33,3.39c-2.67,1.56-8.1,8.71-8.1,8.71,3.92-4.16,6.26-6,8.81-7.49a30.28,30.28,0,0,1,8-3.24q1.42-.35,2.78-.55a25.86,25.86,0,0,1,29.17,19.72h0q.35,1.4.55,2.82l1.39-.2q-.22-1.53-.58-3h0A27.68,27.68,0,0,0,93.44,249.54Z"/><path class="cls-12" d="M85.15,309.9l-26.84,6.64a4,4,0,0,1-4.9-3.42c-.69-6.43-1.1-13.13-1.38-18.25a3.86,3.86,0,0,1,2.85-3.92l27.84-7.42a2.93,2.93,0,0,1,2.34.39,2.87,2.87,0,0,1,1.24,2l2.39,18.82A4.7,4.7,0,0,1,85.15,309.9Zm-2.22-25.58-27.84,7.42a3,3,0,0,0-2.24,3.08c.28,5.11.68,11.8,1.37,18.2a3.14,3.14,0,0,0,3.88,2.71L85,309.1a3.88,3.88,0,0,0,2.91-4.23L85.48,286a2,2,0,0,0-.88-1.44,2.08,2.08,0,0,0-1.67-.28Z"/><path class="cls-11" d="M119.08,208.29l-9.94-5.71c.1-.33,5-54.18,7.73-58.21,5.48-8,14.55-11.71,20-8.9l.2.11.33.18c.32.18.62.38.91.58a10.51,10.51,0,0,1,1.6,1.41c.16.17.32.36.47.54s.3.38.45.58.23.32.34.49.14.21.2.32c3.28,5.25,3.43,13.5-.5,20-.45,1.27-1.22,3.19-2.22,5.53-1.69,4-4,9.2-6.47,14.63-2.77,6.11-5.71,12.47-8.1,17.63s-4.27,9.15-4.85,10.39l-.18.39Z"/><path class="cls-11" d="M118.52,222.53s1.54-1.83,2.46-3.12,1.18-2.35.36-4.88-.45-7.89-2.54-9.47-9.16-6.67-14.16-1.42-5.47,17-1.4,14.78c0,0-.59,4.58,3.74,3.3,0,0,1.53,4.88,4.88,2.07C111.87,223.79,114.54,230.1,118.52,222.53Z"/><path class="cls-12" d="M111.87,223.79a12,12,0,0,0,1.63-2.45,11.9,11.9,0,0,0,1.06-2.75,11.81,11.81,0,0,0-1.63,2.45A12,12,0,0,0,111.87,223.79Z"/><path class="cls-12" d="M107,221.72a28.18,28.18,0,0,0,2-3.41c.58-1.17,1.13-2.34,1.62-3.58a9.9,9.9,0,0,0-1.22,1.57,18.7,18.7,0,0,0-1,1.72A17.23,17.23,0,0,0,107,221.72Z"/><path class="cls-12" d="M103.2,218.45c.33-.87.58-1.71.87-2.55.13-.42.28-.83.43-1.25s.3-.84.43-1.29a5.43,5.43,0,0,0-1.47,2.34,6.56,6.56,0,0,0-.3,1.36A4.4,4.4,0,0,0,103.2,218.45Z"/><path class="cls-38" d="M188.23,100.91c-3.2-5-11.22-11.06-22.52-5.43s-35.56,20.9-49.64,36.82c0,0,16.14,27.08,40,21.47,0,0,22.05-19.05,29.42-28.45S191.75,106.39,188.23,100.91Z"/><path class="cls-12" d="M138.9,130a20.15,20.15,0,0,1,9.79-21.16l.43.72a19.29,19.29,0,0,0-9.41,20.24Z"/><path class="cls-12" d="M115.5,132.27c.34-.38,34.73-37.61,58.58-38.61l0,.84c-23.51,1-57.66,38-58,38.34Z"/><rect class="cls-12" x="151.84" y="142.68" width="31.65" height="0.65" transform="translate(-52.5 152.38) rotate(-42.9)"/></svg>