<svg id="圖層_1" data-name="圖層 1" xmlns="http://www.w3.org/2000/svg" xmlns:xlink="http://www.w3.org/1999/xlink" viewBox="0 0 495 396"><defs><style>.cls-1{mask:url(#mask);filter:url(#luminosity-noclip-3);}.cls-2,.cls-4{mix-blend-mode:multiply;}.cls-2{fill:url(#鍊踑臇蜸馯鳺艜_23);}.cls-3{mask:url(#mask-2);filter:url(#luminosity-noclip-4);}.cls-4{fill:url(#鍊踑臇蜸馯鳺艜_23-2);}.cls-5{fill:none;}.cls-6{opacity:0.7;}.cls-7{mask:url(#mask-3);}.cls-8{fill:url(#鍊踑臇蜸馯鳺艜_86);}.cls-9{mask:url(#mask-4);}.cls-10{fill:url(#鍊踑臇蜸馯鳺艜_86-2);}.cls-11{fill:url(#鍊踑臇蜸馯鳺艜_43);}.cls-12,.cls-38{fill:#1e1916;}.cls-13{fill:url(#鍊踑臇蜸馯鳺艜_21);}.cls-14{fill:url(#鍊踑臇蜸馯鳺艜_2);}.cls-15{fill:url(#鍊踑臇蜸馯鳺艜_21-2);}.cls-16{fill:url(#鍊踑臇蜸馯鳺艜_30);}.cls-17{fill:url(#鍊踑臇蜸馯鳺艜_30-2);}.cls-18{fill:url(#鍊踑臇蜸馯鳺艜_43-2);}.cls-19{fill:url(#鍊踑臇蜸馯鳺艜_30-3);}.cls-20{fill:url(#鍊踑臇蜸馯鳺艜_43-3);}.cls-21{clip-path:url(#clip-path);}.cls-22{fill:#fff;}.cls-23{fill:url(#鍊踑臇蜸馯鳺艜_10);}.cls-24{opacity:0.2;}.cls-25{fill:#200c0e;}.cls-26{clip-path:url(#clip-path-2);}.cls-27{fill:#faaf9a;}.cls-28{fill:url(#鍊踑臇蜸馯鳺艜_43-4);}.cls-29{fill:url(#鍊踑臇蜸馯鳺艜_43-5);}.cls-30{fill:#ed7662;}.cls-31{fill:url(#鍊踑臇蜸馯鳺艜_30-4);}.cls-32{fill:url(#鍊踑臇蜸馯鳺艜_43-6);}.cls-33{fill:url(#鍊踑臇蜸馯鳺艜_43-7);}.cls-34{fill:url(#鍊踑臇蜸馯鳺艜_30-5);}.cls-35{clip-path:url(#clip-path-3);}.cls-36{fill:url(#鍊踑臇蜸馯鳺艜_43-8);}.cls-37,.cls-38,.cls-44,.cls-45,.cls-46{fill-rule:evenodd;}.cls-37{fill:url(#鍊踑臇蜸馯鳺艜_43-9);}.cls-39{fill:url(#鍊踑臇蜸馯鳺艜_30-6);}.cls-40{fill:url(#鍊踑臇蜸馯鳺艜_30-7);}.cls-41{fill:url(#鍊踑臇蜸馯鳺艜_30-8);}.cls-42{fill:url(#鍊踑臇蜸馯鳺艜_30-9);}.cls-43{fill:url(#鍊踑臇蜸馯鳺艜_30-10);}.cls-44{fill:url(#鍊踑臇蜸馯鳺艜_43-10);}.cls-45{fill:url(#鍊踑臇蜸馯鳺艜_54);}.cls-46{fill:url(#鍊踑臇蜸馯鳺艜_10-2);}.cls-47{fill:#1a1a1a;}.cls-48{filter:url(#luminosity-noclip-2);}.cls-49{filter:url(#luminosity-noclip);}</style><filter id="luminosity-noclip" x="218.91" y="-8390" width="118.66" height="32766" filterUnits="userSpaceOnUse" color-interpolation-filters="sRGB"><feFlood flood-color="#fff" result="bg"/><feBlend in="SourceGraphic" in2="bg"/></filter><mask id="mask" x="218.91" y="-8390" width="118.66" height="32766" maskUnits="userSpaceOnUse"><g class="cls-49"/></mask><radialGradient id="鍊踑臇蜸馯鳺艜_23" cx="278.24" cy="75.15" r="46.49" gradientUnits="userSpaceOnUse"><stop offset="0" stop-color="#fff"/><stop offset="1" stop-color="gray"/></radialGradient><filter id="luminosity-noclip-2" x="73.16" y="-8390" width="339.76" height="32766" filterUnits="userSpaceOnUse" color-interpolation-filters="sRGB"><feFlood flood-color="#fff" result="bg"/><feBlend in="SourceGraphic" in2="bg"/></filter><mask id="mask-2" x="73.16" y="-8390" width="339.76" height="32766" maskUnits="userSpaceOnUse"><g class="cls-48"/></mask><radialGradient id="鍊踑臇蜸馯鳺艜_23-2" cx="243.04" cy="220.31" r="156.37" xlink:href="#鍊踑臇蜸馯鳺艜_23"/><filter id="luminosity-noclip-3" x="218.91" y="46.8" width="118.66" height="56.69" filterUnits="userSpaceOnUse" color-interpolation-filters="sRGB"><feFlood flood-color="#fff" result="bg"/><feBlend in="SourceGraphic" in2="bg"/></filter><mask id="mask-3" x="218.91" y="46.8" width="118.66" height="56.69" maskUnits="userSpaceOnUse"><g class="cls-1"><path class="cls-2" d="M332.77,89.24c-37.16,29-88.4,8-105.43-12.32C177,16.95,369.94,60.22,332.77,89.24Z"/></g></mask><radialGradient id="鍊踑臇蜸馯鳺艜_86" cx="278.24" cy="75.15" r="46.49" gradientUnits="userSpaceOnUse"><stop offset="0" stop-color="#b3d6ff"/><stop offset="1" stop-color="#e6f2fe"/></radialGradient><filter id="luminosity-noclip-4" x="73.16" y="78.73" width="339.76" height="283.14" filterUnits="userSpaceOnUse" color-interpolation-filters="sRGB"><feFlood flood-color="#fff" result="bg"/><feBlend in="SourceGraphic" in2="bg"/></filter><mask id="mask-4" x="73.16" y="78.73" width="339.76" height="283.14" maskUnits="userSpaceOnUse"><g class="cls-3"><path class="cls-4" d="M390.46,273C366.08,314.77,318,350.5,264.9,359.62a153.88,153.88,0,0,1-26.07,2.25c-2.07,0-4.15,0-6.23-.14-35.36-1.5-71.31-15.94-102.79-49C81.18,261.8,66.74,211.94,75.64,169a123.52,123.52,0,0,1,13.42-35.54c55.06-98,118.08-36.78,195.09-26,53.12,7.41,113.4,28.52,126.28,76.62C416.58,207.07,411.91,236.22,390.46,273Z"/></g></mask><radialGradient id="鍊踑臇蜸馯鳺艜_86-2" cx="243.04" cy="220.31" r="156.37" xlink:href="#鍊踑臇蜸馯鳺艜_86"/><linearGradient id="鍊踑臇蜸馯鳺艜_43" x1="-42.21" y1="1706.83" x2="-17.1" y2="1706.83" gradientTransform="matrix(1, 0, 0, 1, 447.36, -1609.02)" gradientUnits="userSpaceOnUse"><stop offset="0" stop-color="#0e218a"/><stop offset="1" stop-color="#1f72d2"/></linearGradient><linearGradient id="鍊踑臇蜸馯鳺艜_21" x1="178.95" y1="41.78" x2="216.54" y2="41.78" gradientUnits="userSpaceOnUse"><stop offset="0" stop-color="#fea235"/><stop offset="1" stop-color="#ffb44f"/></linearGradient><linearGradient id="鍊踑臇蜸馯鳺艜_2" x1="346.5" y1="55.08" x2="354.3" y2="55.08" gradientUnits="userSpaceOnUse"><stop offset="0" stop-color="#2abdd1"/><stop offset="1" stop-color="#237c8f"/></linearGradient><linearGradient id="鍊踑臇蜸馯鳺艜_21-2" x1="257.42" y1="28.78" x2="261.32" y2="28.78" xlink:href="#鍊踑臇蜸馯鳺艜_21"/><linearGradient id="鍊踑臇蜸馯鳺艜_30" x1="413.74" y1="170.29" x2="421.54" y2="170.29" gradientUnits="userSpaceOnUse"><stop offset="0" stop-color="#f6462e"/><stop offset="1" stop-color="#fb7d42"/></linearGradient><linearGradient id="鍊踑臇蜸馯鳺艜_30-2" x1="-7006.88" y1="99.6" x2="-6901.75" y2="99.6" gradientTransform="matrix(-1, 0, 0, 1, -6845.14, 0)" xlink:href="#鍊踑臇蜸馯鳺艜_30"/><linearGradient id="鍊踑臇蜸馯鳺艜_43-2" x1="70.47" y1="171.42" x2="84.89" y2="171.42" gradientTransform="matrix(1, 0, 0, 1, 0, 0)" xlink:href="#鍊踑臇蜸馯鳺艜_43"/><linearGradient id="鍊踑臇蜸馯鳺艜_30-3" x1="-5844.08" y1="-2288.41" x2="-5829.52" y2="-2288.41" gradientTransform="translate(-5224.17 3025.98) rotate(130.46)" xlink:href="#鍊踑臇蜸馯鳺艜_30"/><linearGradient id="鍊踑臇蜸馯鳺艜_43-3" x1="219.6" y1="85.29" x2="223.5" y2="85.29" gradientTransform="matrix(1, 0, 0, 1, 0, 0)" xlink:href="#鍊踑臇蜸馯鳺艜_43"/><clipPath id="clip-path"><rect class="cls-5" x="173.24" y="95.25" width="224.73" height="264.24"/></clipPath><linearGradient id="鍊踑臇蜸馯鳺艜_10" x1="206.21" y1="243.74" x2="374.52" y2="243.74" gradientUnits="userSpaceOnUse"><stop offset="0" stop-color="#237c8f"/><stop offset="1" stop-color="#2abdd1"/></linearGradient><clipPath id="clip-path-2"><rect class="cls-5" x="63.28" y="152.16" width="231.34" height="207.33"/></clipPath><linearGradient id="鍊踑臇蜸馯鳺艜_43-4" x1="111.95" y1="493.56" x2="100.53" y2="231.57" gradientTransform="matrix(1, 0, 0, 1, 0, 0)" xlink:href="#鍊踑臇蜸馯鳺艜_43"/><linearGradient id="鍊踑臇蜸馯鳺艜_43-5" x1="156.44" y1="491.62" x2="145.03" y2="229.63" gradientTransform="matrix(1, 0, 0, 1, 0, 0)" xlink:href="#鍊踑臇蜸馯鳺艜_43"/><linearGradient id="鍊踑臇蜸馯鳺艜_30-4" x1="107.3" y1="285.72" x2="198.61" y2="285.72" xlink:href="#鍊踑臇蜸馯鳺艜_30"/><linearGradient id="鍊踑臇蜸馯鳺艜_43-6" x1="158.14" y1="491.54" x2="146.73" y2="229.56" gradientTransform="matrix(1, 0, 0, 1, 0, 0)" xlink:href="#鍊踑臇蜸馯鳺艜_43"/><linearGradient id="鍊踑臇蜸馯鳺艜_43-7" x1="198" y1="489.8" x2="186.59" y2="227.82" gradientTransform="matrix(1, 0, 0, 1, 0, 0)" xlink:href="#鍊踑臇蜸馯鳺艜_43"/><linearGradient id="鍊踑臇蜸馯鳺艜_30-5" x1="126.99" y1="171.78" x2="145" y2="171.78" xlink:href="#鍊踑臇蜸馯鳺艜_30"/><clipPath id="clip-path-3"><rect class="cls-5" x="259.37" y="268.73" width="128.76" height="90.76"/></clipPath><linearGradient id="鍊踑臇蜸馯鳺艜_43-8" x1="340.9" y1="357.92" x2="367.53" y2="357.92" gradientTransform="matrix(1, 0, 0, 1, 0, 0)" xlink:href="#鍊踑臇蜸馯鳺艜_43"/><linearGradient id="鍊踑臇蜸馯鳺艜_43-9" x1="271.27" y1="353.58" x2="355.75" y2="353.58" gradientTransform="matrix(1, 0, 0, 1, 0, 0)" xlink:href="#鍊踑臇蜸馯鳺艜_43"/><linearGradient id="鍊踑臇蜸馯鳺艜_30-6" x1="281.8" y1="939.78" x2="294.15" y2="939.78" gradientTransform="translate(-144.42 -581.21) rotate(-10.31)" xlink:href="#鍊踑臇蜸馯鳺艜_30"/><linearGradient id="鍊踑臇蜸馯鳺艜_30-7" x1="293.98" y1="933.7" x2="299.72" y2="933.7" gradientTransform="translate(-144.42 -581.21) rotate(-10.31)" xlink:href="#鍊踑臇蜸馯鳺艜_30"/><linearGradient id="鍊踑臇蜸馯鳺艜_30-8" x1="276.65" y1="938.97" x2="303.42" y2="938.97" gradientTransform="translate(-144.42 -581.21) rotate(-10.31)" xlink:href="#鍊踑臇蜸馯鳺艜_30"/><linearGradient id="鍊踑臇蜸馯鳺艜_30-9" x1="-1146.31" y1="3437.6" x2="-1067.71" y2="3437.6" gradientTransform="translate(-1899.91 -2501.95) rotate(-56.25)" xlink:href="#鍊踑臇蜸馯鳺艜_30"/><linearGradient id="鍊踑臇蜸馯鳺艜_30-10" x1="-1135.61" y1="3417.15" x2="-1076.79" y2="3417.15" gradientTransform="translate(-1899.91 -2501.95) rotate(-56.25)" xlink:href="#鍊踑臇蜸馯鳺艜_30"/><linearGradient id="鍊踑臇蜸馯鳺艜_43-10" x1="270.93" y1="338.22" x2="348.37" y2="338.22" gradientTransform="matrix(1, 0, 0, 1, 0, 0)" xlink:href="#鍊踑臇蜸馯鳺艜_43"/><linearGradient id="鍊踑臇蜸馯鳺艜_54" x1="265.49" y1="358.39" x2="329.9" y2="358.39" gradientUnits="userSpaceOnUse"><stop offset="0" stop-color="#caf0db"/><stop offset="1" stop-color="#f8f7db"/></linearGradient><linearGradient id="鍊踑臇蜸馯鳺艜_10-2" x1="283.5" y1="339.96" x2="311.03" y2="339.96" xlink:href="#鍊踑臇蜸馯鳺艜_10"/></defs><title>bn-feature</title><g class="cls-6"><g class="cls-7"><path class="cls-8" d="M332.77,89.24c-37.16,29-88.4,8-105.43-12.32C177,16.95,369.94,60.22,332.77,89.24Z"/></g></g><g class="cls-6"><g class="cls-9"><path class="cls-10" d="M390.46,273C366.08,314.77,318,350.5,264.9,359.62a153.88,153.88,0,0,1-26.07,2.25c-2.07,0-4.15,0-6.23-.14-35.36-1.5-71.31-15.94-102.79-49C81.18,261.8,66.74,211.94,75.64,169a123.52,123.52,0,0,1,13.42-35.54c55.06-98,118.08-36.78,195.09-26,53.12,7.41,113.4,28.52,126.28,76.62C416.58,207.07,411.91,236.22,390.46,273Z"/></g></g><rect class="cls-11" x="405.09" y="85.33" width="25.11" height="25.11" transform="translate(-2.56 184.14) rotate(-24.79)"/><path class="cls-12" d="M415,109.56l-10.71-23.2,23.2-10.71,10.71,23.2Zm-10.13-23L415.26,109l22.4-10.34-10.34-22.4Z"/><circle class="cls-13" cx="197.74" cy="41.78" r="18.8"/><path class="cls-12" d="M200.81,58.1a19.05,19.05,0,1,1,19-19A19.07,19.07,0,0,1,200.81,58.1Zm0-37.59a18.54,18.54,0,1,0,18.54,18.54A18.56,18.56,0,0,0,200.81,20.51Z"/><circle class="cls-14" cx="350.4" cy="55.08" r="3.9"/><circle class="cls-15" cx="259.37" cy="28.78" r="1.95"/><circle class="cls-16" cx="417.64" cy="170.29" r="3.9"/><path class="cls-17" d="M150.07,47l-82.4.29c-6.14,0-11.11,5.32-11.06,11.8L57,113.79c.05,6.48,5.11,11.77,11.25,11.76l32.92-.27,28.25,26.88-.89-26.93,22.13,0c6.14,0,11.11-5.32,11.07-11.8l-.42-54.66C161.27,52.32,156.21,47,150.07,47Z"/><path class="cls-18" d="M84.89,165.89l-14.42,2.23h0l.09.9a13.36,13.36,0,0,0,1.13,3.7A13.22,13.22,0,0,0,74.88,177Z"/><path class="cls-19" d="M304.48,60.83l-.14-.11L295,71.89l14.06,2.46.18-.73A13.8,13.8,0,0,0,304.48,60.83Z"/><circle class="cls-20" cx="221.55" cy="85.29" r="1.95"/><g class="cls-21"><path class="cls-12" d="M394,124.22v346a26.34,26.34,0,0,1-26.32,26.31h-69.2v0H211.13a26.36,26.36,0,0,1-24.75-26.26v-346a26.35,26.35,0,0,1,26.32-26.31H367.65A26.34,26.34,0,0,1,394,124.22Z"/><path class="cls-22" d="M388.12,124.22v346a20.46,20.46,0,0,1-20.47,20.46H212.7a20.46,20.46,0,0,1-20.46-20.46v-346a20.46,20.46,0,0,1,20.46-20.46H367.65A20.46,20.46,0,0,1,388.12,124.22Z"/><path class="cls-12" d="M314.58,107.17H266.34a1.95,1.95,0,0,0,0,3.9h48.24a1.95,1.95,0,1,0,0-3.9Z"/><rect class="cls-12" x="209.15" y="125" width="9.14" height="1.16" transform="translate(-26.24 187.74) rotate(-44.96)"/><rect class="cls-12" x="213.14" y="121.01" width="1.16" height="9.14" transform="translate(-26.2 187.88) rotate(-45)"/><rect class="cls-12" x="359.38" y="127.13" width="10.37" height="1.16"/><rect class="cls-23" x="206.21" y="154.26" width="168.31" height="178.94" rx="5.68" ry="5.68"/><g class="cls-24"><path class="cls-25" d="M295.24,235.67c-4.13,1.38-14,3.34-18.69,5.73a.26.26,0,0,0-.12.07c-3.47,1.18-13.27,9.89-14.64,12.05-2.05,3.21-.65,4.81-6,12.76-3.55,6.72-13.38,16.62-23.19,25.86-.24-2.51-1.41-5.8-4.57-9.88-5.29-6.8-13.64-14.17-21.84-21.32-4.42-3.86-8.8-7.64-12.63-11.25-.44-.42-.89-.82-1.33-1.18a22,22,0,0,0-5.85-3.61V470.18a26.36,26.36,0,0,0,24.75,26.26h37.16c-.31-1.21-.81-3.19-1.45-5.79-4.7-19-17.31-71.62-22.76-112.48-3.23-24.16-9.21-35.28-18.77-44.09a16,16,0,0,0,.72-2c.48-.28,1-.58,1.54-.91l.74-.46a18,18,0,0,0,1.26,2c6.37,8.78,20.56,13,29.24,4.11a32.41,32.41,0,0,0,3-3.61c10.13-13.83,21.7-45.26,24.95-58.78h0c1.84-7.74,10-3.75,14-5.71s7.5-5.13,6.73-8.16.54-6.33-1.77-8.86a15.86,15.86,0,0,1-3.18-5.72c3.92-1.29,9.85-4,13.36-7C298.86,236.55,297.06,235.06,295.24,235.67Z"/></g><g class="cls-24"><path class="cls-25" d="M376.22,394.54c-2.71-40.23.46-47.3-4.17-62.15A27.29,27.29,0,0,0,366.17,322l.54-.81h0l.62-.93h0l1.55-2.3h0l.37-.55,1.8-2.68h0l.62-.93h0l0-.06,1.51-2.24h0l.62-.93h0l1.54-2.3h0l.62-.93h0l2.88-4.29-5.09-3.42.06-.1-4.54-3.08-5.14,7.65a29.29,29.29,0,0,0-18-4.89c-.34,0-.68,0-1,.08a29.45,29.45,0,0,0-8,1.94c-1.3-7.24-2.65-15.55-4-25.09l-56.67,10.31a305.37,305.37,0,0,0,6.47,42.12,13.94,13.94,0,0,0-.86,7.07,8.91,8.91,0,0,1-1.54,6l.16.13c-1,.78-1.81,2.59-2.46,9.09l-4,40.34a7.53,7.53,0,0,0,5.75,8.24,9.85,9.85,0,0,0,10,10.21h56.87a12.15,12.15,0,0,0,7.91-3.06l11.66-2,.68-.14,0,0,.2-.05.55-.14.47-.13.53-.18.44-.17.51-.21.42-.2.48-.24.4-.23.45-.27.38-.26.41-.3.36-.28.38-.32.33-.31.34-.34.3-.34.3-.35.27-.37.25-.36c.08-.13.16-.26.24-.39s.15-.24.21-.37.13-.28.2-.42.12-.24.17-.37.11-.3.16-.45.09-.24.12-.36.08-.32.11-.49.06-.23.08-.34,0-.37.06-.55,0-.19,0-.29A7.43,7.43,0,0,0,376.22,394.54Zm-27.43-83.67c.33,0,.65,0,1,.08l.7.09a17.06,17.06,0,0,1,3.26.79l.63.23a17.68,17.68,0,0,1,3.4,1.77h0l2.66-4,.06,0-4.84,7.19h-.91a34.59,34.59,0,0,0-7.89-6.17c.27,0,.54-.06.81-.06S348.4,310.85,348.78,310.87Zm16.55,83.32-5.88.31,4.81-48.78a37.17,37.17,0,0,0-2.32-17.31,15,15,0,0,1,2.6,5.56c1.83,7.79,3.35,49,3.89,57C368.53,392.47,367.17,393.88,365.33,394.19Z"/></g></g><g class="cls-26"><path class="cls-27" d="M278.67,248.66c-.77-3,.55-6.33-1.77-8.86a15.72,15.72,0,0,1-3.17-5.72c3.91-1.28,9.85-4,13.36-7,2.91-2.45,1.12-3.94-.7-3.33-4.14,1.39-14,3.34-18.69,5.73l-.11.08c-3.48,1.18-13.27,9.9-14.64,12.05-2.05,3.21-.65,4.81-6,12.77-7.64,14.48-44.54,43.82-47.51,49.25-9.56,17.44,17.09,35,30.52,21.27,10.7-10.93,24.38-47.51,27.94-62.39h0c1.84-7.74,10-3.75,14-5.72S279.45,251.69,278.67,248.66Z"/><path class="cls-27" d="M116.35,399.4c7.81-3.44,1.06-21.06.52-22.43-.35-3.26-5.84-53.54-7.75-58.79-5.71-15.68-34-9.58-27.16,10.15,1.18,3.38,19.54,41.32,22,54.47h0s.15,9.18-6.47,12.72c-6.85,3.66-5.77,12.93-5.77,12.93s1,17.25,5.84,22c1,1,2.76,1.47,2.92,0,.65-5.73-3.86-20.45-3.86-20.45s5.9,13.08,7.68,12.74c1-.19,5.18-2.79,8.57-5,2.42-1.56,2.23-4.44,1.25-7.15-1.18-3.29-1.72-5.84-1.52-6.72C113.21,401.28,116,399.6,116.35,399.4Z"/><path class="cls-28" d="M96,242.89c-17.52,12.07-31.53,60-18.88,63.82,0,0-1.88,5.59-3.82,8,0,0,19.37,13.44,39.09,13.45,0,0,1.24-4.76,3-5.75,0,0,10.52,2.24,15.67-10s-2.77-37.67.84-52.26C137.12,238.83,115.17,229.65,96,242.89Z"/><path class="cls-12" d="M85.92,322.31a90.31,90.31,0,0,1-13-7.12l-.54-.38.42-.51c1.5-1.84,3-5.76,3.52-7.22-2.33-1-3.81-3.44-4.41-7.29-2.34-15,9.76-47.78,23.72-57.4l.7,1c-13.66,9.42-25.49,41.54-23.21,56.21.57,3.67,2,5.86,4.16,6.52l.6.18-.2.6a37.41,37.41,0,0,1-3.52,7.63,92.17,92.17,0,0,0,12.29,6.66Z"/><path class="cls-12" d="M108.44,319.46c-9.82,0-15.23-8.13-16.41-10.14-7.19,1.79-12.79-6.62-13-7l1-.67c.06.08,5.57,8.38,12.11,6.35l.49-.15.23.46c.26.51,6.58,12.55,19.81,9.39l.29,1.19A19.5,19.5,0,0,1,108.44,319.46Z"/><path class="cls-29" d="M215.22,366.28c-3.93-29.41-11.92-39.52-25.52-49.59-10.15-7.49-61.76,5.49-67.81,15.54s-23.78,31.23-19.75,53.27c6.68,36.63-29.53,57.8-29.53,100.67,4.05.73,26.55-2.9,26.55-2.9s12.85,6.61,22.23,7.38a234.64,234.64,0,0,0,31.91.36s29,7.29,37.46,6.63c7.64-.59,28.42-9.71,28.42-9.71s14.66,1.42,20.61-2C239.79,486,222,417,215.22,366.28Z"/><path class="cls-12" d="M123.3,208c2.93,5,8.21,8.49,7.59-2.32-.75-13.24,37.82-19.31,23-30.07C131.75,159.54,111.64,187.89,123.3,208Z"/><path class="cls-27" d="M152.32,215.37v20.71c-1.14,1.68-7.31,9-22.88-1.27v-28A206.57,206.57,0,0,0,152.32,215.37Z"/><path class="cls-30" d="M152.32,221.68v9.19c-12.13.24-12.43-11.9-12.41-11.88A17.33,17.33,0,0,0,152.32,221.68Z"/><path class="cls-27" d="M151.09,224.51c-6.58,0-18.6-9-21.26-15-.95-2.15-.58-7.85.29-10.6,2.73-8.63,4.91-16.46,11.62-18.82,2.82-1,13.09,2.45,15.68,3,4.95,1.07,7.11,6.08,7.16,14.82C164.64,207.68,162.7,224.59,151.09,224.51Z"/><path class="cls-12" d="M155.51,209.08l-.32-1.18c1.53-.42,3.29-1.25,3.48-1.82,0,0,0-.1-.08-.24-3-3.73-2-9.79-1.95-10.05l0-.26.22-.15a7.57,7.57,0,0,1,6.43-.53l-.39,1.16a6.52,6.52,0,0,0-5.13.25c-.14,1.19-.55,5.92,1.74,8.81a1.43,1.43,0,0,1,.28,1.39C159.33,208,156.14,208.91,155.51,209.08Z"/><circle class="cls-27" cx="130.09" cy="200.17" r="6.15" transform="translate(-54.83 49.19) rotate(-17.75)"/><path class="cls-12" d="M129.58,203.67a4.09,4.09,0,0,1-1.65-.39l.52-1.11s1.4.61,1.78,0a.44.44,0,0,0,.06-.12s-.14-.1-.22-.17a2,2,0,0,1-.77-2.19,3.45,3.45,0,0,1,1-1.65c.44-.47.47-.5-.07-1.14a.65.65,0,0,0-.53-.26h0c-.9,0-2.34,1.24-3,2l-.92-.81c.22-.25,2.2-2.45,4-2.45h0a1.89,1.89,0,0,1,1.46.7c1.14,1.36.66,2.08,0,2.76a2.25,2.25,0,0,0-.68,1.09c-.12.53.06.7.4,1a1.31,1.31,0,0,1,.38,1.86A1.88,1.88,0,0,1,129.58,203.67Z"/><path class="cls-12" d="M160.14,211s-6.07,2.84-11.57-.79c0,0,2.24,6.12,5.9,5.78S160.14,211,160.14,211Z"/><path class="cls-12" d="M151.66,195.81c-.08-.1-2-2.55-7.43-.74l-.39-1.16c6.36-2.12,8.71,1.05,8.81,1.19Z"/><circle class="cls-12" cx="147.26" cy="198.96" r="2.08"/><circle class="cls-12" cx="159.75" cy="198.96" r="2.07"/><path class="cls-12" d="M131.39,194.11s3.82,4.53,7-2.48c3.89-8.58,17.51-7.26,23.15-6.2,0,0,.79.61,2.92,8.1,0,0,3.42-14.82-13.38-18.53C134.74,171.39,130.37,187.26,131.39,194.11Z"/><path class="cls-31" d="M122.39,245.4s2.3-8.34,6.57-8.84,23.55-1.59,25.51.31a11.49,11.49,0,0,1,2.68,4.94s18.71-6.39,28.92,8.14c7.58,10.79,16.82,58.51,10.38,72.24,0,0-44.41,17.71-78.87,12.52-7.62-1.15-7.79-50.53-9.87-60.54C105.57,263.86,112.14,248.42,122.39,245.4Z"/><path class="cls-32" d="M122.39,236.64s2.3-8.34,6.57-8.84,23.55-1.59,25.51.31a11.5,11.5,0,0,1,2.68,4.94s18.71-6.39,28.92,8.14c7.58,10.79,10.07,63,3.63,76.7,0,0-25.81-7.56-68.08,14.89-25.26,13.41-11.83-57.36-13.91-67.37C105.57,255.09,112.14,239.66,122.39,236.64Z"/><path class="cls-12" d="M115.91,335.06a6.93,6.93,0,0,1-3.87-1.12c-8.82-5.75-6.89-32.25-5.47-51.59.56-7.71,1.05-14.37.54-16.83-2.16-10.39,4.52-26.35,15.11-29.47l.35,1.17c-10,3-16.31,18.14-14.26,28,.55,2.63.08,9-.52,17.17-1.31,18-3.3,45.11,4.92,50.47,2.18,1.42,5.08,1.19,8.62-.68l.57,1.08A13,13,0,0,1,115.91,335.06Z"/><path class="cls-33" d="M152.12,260.66c2,21.18,26.18,63.11,35.72,54,0,0,4,4.37,5.09,7.24,0,0,22.75-12.32,32.42-29.51,0,0-3.12-4.1-3.13-6.1,0,0,5.12-5.38-3-15.86s-23.52-22.28-34.47-32.58C168.74,222.78,150,237.42,152.12,260.66Z"/><path class="cls-12" d="M192.59,322.7l-.24-.62c-.87-2.21-3.56-5.43-4.58-6.6a5.48,5.48,0,0,1-5.49.57c-11.74-4.38-29.19-38.07-30.78-55.33l1.22-.11c1.69,18.36,19.35,50.32,30,54.29a4.14,4.14,0,0,0,4.7-.72l.46-.44.42.47a37.5,37.5,0,0,1,4.93,6.81A92,92,0,0,0,205,313.57l.73,1a90.26,90.26,0,0,1-12.58,7.86Z"/><path class="cls-12" d="M185,310.81l-.08-1.22c.1,0,10-.76,11.47-7.46l.11-.5.52,0c.57,0,14.16.41,17.89-12.68l1.18.34c-3.58,12.55-15.95,13.51-18.61,13.56C195.47,310,185.4,310.78,185,310.81Z"/><path class="cls-12" d="M143.49,168.65c-2.36-6.94-10.79-13.86-23.94-3.44-14,11.09-19.8,69.54-20.21,108.56,0,0,3.84,3.12,10.21,1.51,0,0,1.84-19.22,2.2-22.15,0,0,0,17.16.68,20.54,0,0,5,2.48,8.72-1.1,0,0-4.18-64.44,7.59-81.76C139.82,174.5,146,175.88,143.49,168.65Z"/><path class="cls-34" d="M143.88,167.12s2.11,2.23.55,4.32c0,0-10.46,0-15.15,5.53a6.82,6.82,0,0,1-2.27-5.06S136.09,164.58,143.88,167.12Z"/><path class="cls-12" d="M126.77,448.33c-.28-7.61.85-14.28,1.95-20.72,2.22-13,4.31-25.32-4.49-44.85-13.39-29.7,10.35-50.58,10.59-50.79l.8.93c-.23.2-23.28,20.51-10.27,49.36,9,19.87,6.73,32.93,4.58,45.56-1.09,6.38-2.21,13-1.93,20.47Z"/><path class="cls-12" d="M125.56,323.33l-.71-1C141,310.82,138.4,295.14,138.37,295l1.21-.22C139.61,294.93,142.37,311.35,125.56,323.33Z"/></g><g class="cls-35"><path class="cls-36" d="M363.35,328.06c-1.63-5.2-7.09-17.25-20.13-15.05-.27,0-.4,6.49,1.3,6.43,5.22-.2,9.95,4.36,11.32,10.21,1.83,7.79,3.35,49,3.89,57,.1,1.48-1.26,2.88-3.1,3.19l-14.61.76L340.9,403.1l16.85-2.84c5.79-1,10.08-5.39,9.77-10.06C364.8,350,368,342.9,363.35,328.06Z"/><path class="cls-12" d="M363.35,328.06c-1.63-5.2-7.09-17.25-20.13-15.05,0,0-.07.13-.1.33,11.78-.89,16.83,10.29,18.38,15.26,4.64,14.84,1.46,21.91,4.17,62.15.27,4-2.8,7.76-7.3,9.4,5.47-1.18,9.44-5.44,9.13-9.93C364.8,350,368,342.9,363.35,328.06Z"/><path class="cls-37" d="M319.94,301.87c-21.73,0-41.26,17.78-43.41,39.51l-5.21,52.82a9.89,9.89,0,0,0,10,11.08h56.87a12.54,12.54,0,0,0,12.17-11.08l5.21-52.82C357.7,319.65,341.68,301.87,319.94,301.87Z"/><path class="cls-38" d="M340.52,316.43a35.34,35.34,0,0,0-23-11.43c-1.27-.12-2.55-.19-3.82-.19a40.82,40.82,0,0,0-11.48,1.67c-3.82,1.12-12.83,8.39-12.83,8.39,6.19-4,9.69-5.58,13.34-6.65a39,39,0,0,1,11-1.59q1.88,0,3.65.17a33.33,33.33,0,0,1,30.4,33.7h0q0,1.85-.18,3.7l1.81.18q.2-2,.19-3.88h0A35.67,35.67,0,0,0,340.52,316.43Z"/><path class="cls-38" d="M348.37,343.08l-4.26-.75-24.82-19.06s-25.09-5.59-25.54-5.41-7.45-.89-7.45-.89l8.75-6.33,12.53-4.75,12.77.44,10.19,3.37,8,5.94,5.59,6.83,3.1,7.09,1.15,6.21Z"/><path class="cls-22" d="M267.73,282.12s5.34,74.31,29,84.22l46.07-20.68s-8.7-5.81-18.43-73.84Z"/><path class="cls-39" d="M314.3,297.33c-1.11-3.81-1.21-8.1-3.82-11.3a5.11,5.11,0,0,0-2-1.7c-.95-.3-1.62.72-2,1.44a21.36,21.36,0,0,0-1.77,5.58c-.1.48-.2,1-.28,1.45-.92.37-1.82.79-2.71,1.23a.76.76,0,0,0,.66,1.36c.6-.3,1.2-.58,1.81-.85a35.08,35.08,0,0,0-.24,3.77c0,1,1.5,1.11,1.51.13a34.74,34.74,0,0,1,.34-4.55c.47-.17.94-.33,1.42-.46a24.61,24.61,0,0,1,4.51-.76c.37,1.64.63,3.31,1.1,4.93C313.08,298.52,314.57,298.26,314.3,297.33ZM306.73,292l-.68.21c0-.17.06-.33.1-.5a32.14,32.14,0,0,1,.89-3.3c.15-.47.31-.94.5-1.39a3.4,3.4,0,0,1,.64-1.13,4.53,4.53,0,0,1,.89.84,8,8,0,0,1,.84,1.11,12.13,12.13,0,0,1,1.24,2.75c.07.2.13.41.18.61A24.21,24.21,0,0,0,306.73,292Z"/><path class="cls-40" d="M317.21,283.61a3.14,3.14,0,0,0-2.1-.34,9.47,9.47,0,0,1-.08-1c0-1-1.54-1.11-1.51-.13a12.68,12.68,0,0,0,.14,1.56,6.91,6.91,0,0,0-1.46.92c-.75.62.23,1.77,1,1.15a5.18,5.18,0,0,1,.8-.55,11.86,11.86,0,0,0,.56,1.54c.4.89,1.76.23,1.36-.66a10.38,10.38,0,0,1-.5-1.37,1.41,1.41,0,0,1,.93.09C317.19,285.34,318.06,284.1,317.21,283.61Z"/><path class="cls-41" d="M322.11,290a16.38,16.38,0,0,1-1.51,7.91,8.74,8.74,0,0,1-6.84,4.58,25.24,25.24,0,0,1-8.47-.2c-2.59-.54-5.29-1.84-6.48-4.35a8.42,8.42,0,0,1-.75-2.83h0q0-.8,0-1.51a11.62,11.62,0,0,1,1.24-5,29.22,29.22,0,0,0-.24,4.31c.06,2.25.46,4.69,1.85,5.51h0c1.61,1.87,4.36,2.48,6.71,2.68a32.48,32.48,0,0,0,3.85.07,12.74,12.74,0,0,0,4.22-.71,7.51,7.51,0,0,0,4.35-5.4,18.7,18.7,0,0,0,.32-7.48,8.29,8.29,0,0,0-4-6.41c-2.5-1.36-5.47-1.38-8.22-1.09s-5.48.59-7.76,2.12c-4,1.74-4.85,9.26-4.88,9.5,0-.21-.34-6.93,3.14-10.1h0a11,11,0,0,1,2.68-1.67,18.45,18.45,0,0,1,5.1-1.19,29.66,29.66,0,0,1,5.22-.32,11.14,11.14,0,0,1,7.85,3.28C321.52,283.9,322,287.05,322.11,290Z"/><rect class="cls-12" x="274.33" y="289.77" width="14.78" height="1.82" transform="translate(-47.34 54.93) rotate(-10.28)"/><rect class="cls-12" x="275.7" y="297.71" width="5.9" height="1.82" transform="translate(-48.82 54.53) rotate(-10.28)"/><rect class="cls-12" x="284.21" y="296.04" width="7.3" height="1.82" transform="translate(-48.36 56.12) rotate(-10.28)"/><rect class="cls-12" x="276.57" y="301.99" width="17.13" height="1.82" transform="translate(-49.46 55.73) rotate(-10.28)"/><rect class="cls-12" x="277.71" y="308.67" width="7.39" height="1.82" transform="translate(-50.72 55.17) rotate(-10.28)"/><rect class="cls-12" x="288.54" y="306.25" width="12.29" height="1.82" transform="translate(-50.07 57.5) rotate(-10.28)"/><rect class="cls-12" x="279.52" y="312.84" width="23.77" height="1.82" transform="translate(-51.3 57.02) rotate(-10.28)"/><rect class="cls-12" x="308.99" y="308.82" width="10.24" height="1.82" transform="translate(-50.23 61.03) rotate(-10.28)"/><rect class="cls-12" x="280.46" y="318.3" width="17.56" height="1.82" transform="translate(-52.31 56.73) rotate(-10.28)"/><rect class="cls-12" x="305.05" y="313.67" width="19.32" height="1.82" transform="translate(-51.09 61.22) rotate(-10.28)"/><rect class="cls-12" x="282.56" y="324.48" width="22.86" height="1.82" transform="translate(-53.35 57.69) rotate(-10.28)"/><rect class="cls-12" x="312.05" y="320.57" width="6.95" height="1.82" transform="translate(-52.31 61.48) rotate(-10.28)"/><rect class="cls-12" x="324.02" y="318.41" width="6.73" height="1.82" transform="translate(-52.05 64.03) rotate(-10.35)"/><rect class="cls-12" x="285.41" y="328.55" width="47.87" height="1.82" transform="translate(-53.83 60.5) rotate(-10.28)"/><rect class="cls-12" x="288.4" y="336.98" width="27.51" height="1.82" transform="translate(-55.44 59.33) rotate(-10.28)"/><rect class="cls-12" x="323.31" y="332.97" width="11.33" height="1.82" transform="translate(-54.29 64.04) rotate(-10.28)"/><rect class="cls-12" x="293.47" y="346.21" width="24.15" height="1.82" transform="translate(-57.03 60.08) rotate(-10.28)"/><rect class="cls-12" x="322.49" y="341.63" width="16.49" height="1.82" transform="translate(-55.81 64.5) rotate(-10.28)"/><rect class="cls-12" x="303.33" y="352.26" width="34.36" height="1.82" transform="translate(-57.87 62.85) rotate(-10.28)"/><polygon class="cls-42" points="342.35 340.18 370.2 298.72 360.66 292.32 316.81 357.52 326.35 363.92 342.35 340.18"/><rect class="cls-22" x="362.55" y="303.47" width="1.12" height="4.16" transform="translate(-93 436.58) rotate(-56.11)"/><rect class="cls-22" x="363.96" y="298.83" width="1.12" height="5.97" transform="translate(-89.25 436.19) rotate(-56.12)"/><rect class="cls-22" x="358.22" y="309.93" width="1.12" height="4.16" transform="translate(-100.27 435.88) rotate(-56.11)"/><rect class="cls-22" x="359.63" y="305.29" width="1.12" height="5.97" transform="translate(-96.56 435.38) rotate(-56.11)"/><rect class="cls-22" x="353.88" y="316.39" width="1.12" height="4.16" transform="translate(-107.56 435.1) rotate(-56.11)"/><rect class="cls-22" x="355.29" y="311.75" width="1.12" height="5.97" transform="matrix(0.56, -0.83, 0.83, 0.56, -103.82, 434.68)"/><rect class="cls-22" x="349.54" y="322.84" width="1.12" height="4.16" transform="translate(-114.82 434.45) rotate(-56.12)"/><rect class="cls-22" x="350.95" y="318.21" width="1.12" height="5.97" transform="translate(-111.1 433.96) rotate(-56.12)"/><rect class="cls-22" x="345.2" y="329.3" width="1.12" height="4.16" transform="translate(-122.11 433.63) rotate(-56.11)"/><rect class="cls-22" x="346.61" y="324.66" width="1.12" height="5.97" transform="translate(-118.4 433.14) rotate(-56.11)"/><rect class="cls-22" x="340.87" y="335.76" width="1.12" height="4.16" transform="matrix(0.56, -0.83, 0.83, 0.56, -129.4, 432.87)"/><rect class="cls-22" x="342.28" y="331.12" width="1.12" height="5.97" transform="translate(-125.69 432.35) rotate(-56.1)"/><rect class="cls-22" x="336.53" y="342.22" width="1.12" height="4.16" transform="translate(-136.66 432.24) rotate(-56.12)"/><rect class="cls-22" x="337.94" y="337.58" width="1.12" height="5.97" transform="translate(-132.96 431.65) rotate(-56.11)"/><rect class="cls-22" x="332.19" y="348.68" width="1.12" height="4.16" transform="translate(-143.94 431.48) rotate(-56.12)"/><rect class="cls-22" x="333.6" y="344.04" width="1.12" height="5.97" transform="translate(-140.22 430.99) rotate(-56.12)"/><rect class="cls-22" x="327.85" y="355.13" width="1.12" height="4.16" transform="translate(-151.23 430.66) rotate(-56.11)"/><rect class="cls-22" x="329.26" y="350.5" width="1.12" height="5.97" transform="translate(-147.52 430.12) rotate(-56.1)"/><polygon class="cls-12" points="360.63 292.13 365.17 295.21 365.01 295.44 360.7 292.51 351.88 305.65 351.65 305.49 360.63 292.13"/><polygon class="cls-12" points="359.2 306.77 363.05 309.36 362.9 309.59 359.05 307 359.2 306.77"/><polygon class="cls-12" points="349.31 318.87 352.06 320.72 351.91 320.95 349.38 319.25 348.83 320.07 348.61 319.91 349.31 318.87"/><polygon class="cls-12" points="350.79 327.37 351.02 327.52 350.08 328.93 349.85 328.77 350.79 327.37"/><polygon class="cls-12" points="325.1 345.66 325.33 345.81 318.7 355.9 318.47 355.75 325.1 345.66"/><path class="cls-43" d="M337.47,294.89c-.35,0-.68,0-1,.08a29.41,29.41,0,0,0-9.73,2.64l-.66.31a29.43,29.43,0,0,0-5.6,49l.49.39c.58.46,1.18.9,1.81,1.32l.08.05,6.48-9.7,0,0a16.76,16.76,0,0,1-1.8-1.39l-.47-.42a17.43,17.43,0,0,1-3.25-4.14c0-.09-.11-.19-.15-.29a17.75,17.75,0,0,1,15.33-26.22c.38,0,.77,0,1.15,0s.65,0,1,.08.47.05.7.08a17.17,17.17,0,0,1,3.26.79c.21.07.42.15.62.24a17.59,17.59,0,0,1,3.4,1.77h0l6.48-9.7,0,0A29.3,29.3,0,0,0,337.47,294.89Z"/><path class="cls-44" d="M348.37,343.08s-13.57-27.53-33-29.12-35.11-.74-39.23,7.54-.35,8.68-4.36,17.06,7.42,13.7,7.42,13.7l37.3,9,24.39,1.86Z"/><path class="cls-45" d="M278,327.72h0c-4.12,16.08-6.88,2.18-8.52,18.77l-4,40.34a7.55,7.55,0,0,0,7.62,8.46h43.43a9.58,9.58,0,0,0,9.29-8.46l4-40.34C331.5,329.89,282.16,311.64,278,327.72Z"/><path class="cls-46" d="M298.76,328.78h0a15.33,15.33,0,0,0-14.87,13.54l-.37,5a3.39,3.39,0,0,0,3.42,3.8h19.49a4.3,4.3,0,0,0,4.17-3.8l.37-5A12.08,12.08,0,0,0,298.76,328.78Z"/><path class="cls-12" d="M347.21,343.32l.95-.48c-.3-.6-7.51-14.67-13.83-19.74-6.09-4.88-14.43-11.58-30.94-10.33-3.3.25-6.1.4-8.57.54-9.46.52-13.37.74-16.92,5-4.65,5.59-4.94,9.55-4.55,13a8.91,8.91,0,0,1-1.54,6l.84.65a9.83,9.83,0,0,0,1.76-6.73c-.36-3.22-.09-6.92,4.31-12.2,3.25-3.9,6.77-4.1,16.16-4.62,2.47-.14,5.28-.29,8.59-.54,16.08-1.21,24.24,5.32,30.2,10.1C339.8,328.86,347.14,343.18,347.21,343.32Z"/></g><rect class="cls-22" x="96.14" y="55.9" width="0.68" height="61.59"/><path class="cls-22" d="M99.73,60.52a.34.34,0,0,1-.47-.1l-2.78-4.37L93.7,60.42a.34.34,0,1,1-.57-.36l3.07-4.82a.34.34,0,0,1,.57,0l3.07,4.82a.33.33,0,0,1,.05.18A.34.34,0,0,1,99.73,60.52Z"/><rect class="cls-22" x="91.06" y="113.39" width="64.17" height="0.68"/><path class="cls-22" d="M150.61,117a.34.34,0,0,1,.1-.47l4.37-2.78-4.37-2.78a.34.34,0,1,1,.36-.57l4.82,3.07a.34.34,0,0,1,0,.57l-4.82,3.07a.34.34,0,0,1-.18.05A.34.34,0,0,1,150.61,117Z"/><path class="cls-22" d="M132.38,106.73a13,13,0,0,1-11-5.35c-3-4.08-3.65-9.45-4.21-14.19-.7-6-1.26-10.72-6.18-10.72-8.89,0-10.48,19.46-10.49,19.66l-.67-.05c.06-.83,1.66-20.28,11.17-20.28,5.52,0,6.14,5.24,6.85,11.32C118.43,91.76,119,97,122,101c6.52,8.81,18.08,3.5,18.2,3.45l.29.61A21.31,21.31,0,0,1,132.38,106.73Z"/><rect class="cls-22" x="64.78" y="60.58" width="15.32" height="1.4"/><rect class="cls-22" x="64.78" y="66.13" width="21.98" height="1.4"/><rect class="cls-22" x="64.78" y="70.64" width="4.54" height="1.4"/><rect class="cls-22" x="71.23" y="70.64" width="4.54" height="1.4"/><rect class="cls-22" x="77.68" y="70.64" width="4.54" height="1.4"/><rect class="cls-22" x="84.12" y="70.64" width="2.64" height="1.4"/><rect class="cls-22" x="81.61" y="60.58" width="4.66" height="1.4"/><rect class="cls-22" x="64.78" y="75.23" width="15.32" height="1.4"/><rect class="cls-22" x="64.78" y="80.78" width="21.98" height="1.4"/><rect class="cls-22" x="64.78" y="85.29" width="4.54" height="1.4"/><rect class="cls-22" x="71.23" y="85.29" width="4.54" height="1.4"/><rect class="cls-22" x="77.68" y="85.29" width="4.54" height="1.4"/><rect class="cls-22" x="84.12" y="85.29" width="2.64" height="1.4"/><rect class="cls-22" x="81.61" y="75.23" width="4.66" height="1.4"/><rect class="cls-22" x="64.78" y="89.88" width="15.32" height="1.4"/><rect class="cls-22" x="64.78" y="95.44" width="21.98" height="1.4"/><rect class="cls-22" x="64.78" y="99.94" width="4.54" height="1.4"/><rect class="cls-22" x="71.23" y="99.94" width="4.54" height="1.4"/><rect class="cls-22" x="77.68" y="99.94" width="4.54" height="1.4"/><rect class="cls-22" x="84.12" y="99.94" width="2.64" height="1.4"/><rect class="cls-22" x="81.61" y="89.88" width="4.66" height="1.4"/><rect class="cls-22" x="64.78" y="104.53" width="15.32" height="1.4"/><rect class="cls-22" x="64.78" y="110.09" width="21.98" height="1.4"/><rect class="cls-22" x="64.78" y="114.59" width="4.54" height="1.4"/><rect class="cls-22" x="71.23" y="114.59" width="4.54" height="1.4"/><rect class="cls-22" x="77.68" y="114.59" width="4.54" height="1.4"/><rect class="cls-22" x="84.12" y="114.59" width="2.64" height="1.4"/><rect class="cls-22" x="81.61" y="104.53" width="4.66" height="1.4"/><rect class="cls-47" x="85.61" y="359.48" width="314.86" height="2.39"/></svg>