<svg id="圖層_1" data-name="圖層 1" xmlns="http://www.w3.org/2000/svg" xmlns:xlink="http://www.w3.org/1999/xlink" viewBox="0 0 495 396"><defs><style>.cls-1{mask:url(#mask);filter:url(#luminosity-noclip-4);}.cls-2,.cls-4,.cls-6{mix-blend-mode:multiply;}.cls-2{fill:url(#鍊踑臇蜸馯鳺艜_23);}.cls-3{mask:url(#mask-2);filter:url(#luminosity-noclip-5);}.cls-4{fill:url(#鍊踑臇蜸馯鳺艜_23-2);}.cls-5{mask:url(#mask-3);filter:url(#luminosity-noclip-6);}.cls-6{fill:url(#鍊踑臇蜸馯鳺艜_9);}.cls-7{fill:none;}.cls-8{opacity:0.7;}.cls-9{mask:url(#mask-4);}.cls-10{fill:url(#鍊踑臇蜸馯鳺艜_86);}.cls-11{mask:url(#mask-5);}.cls-12{fill:url(#鍊踑臇蜸馯鳺艜_86-2);}.cls-13{fill-rule:evenodd;fill:url(#鍊踑臇蜸馯鳺艜_21);}.cls-14{fill:#1e1916;}.cls-15{fill:url(#鍊踑臇蜸馯鳺艜_43);}.cls-16{fill:url(#鍊踑臇蜸馯鳺艜_21-2);}.cls-17{fill:url(#鍊踑臇蜸馯鳺艜_30);}.cls-18{fill:url(#鍊踑臇蜸馯鳺艜_2);}.cls-19{clip-path:url(#clip-path);}.cls-20{fill:url(#鍊踑臇蜸馯鳺艜_30-2);}.cls-21{fill:url(#鍊踑臇蜸馯鳺艜_30-3);}.cls-22{fill:url(#鍊踑臇蜸馯鳺艜_30-4);}.cls-23{fill:#fff;}.cls-24{fill:#faaf9a;}.cls-25{fill:#ed7662;}.cls-26{fill:url(#鍊踑臇蜸馯鳺艜_30-5);}.cls-27{mask:url(#mask-6);}.cls-28{fill:url(#鍊踑臇蜸馯鳺艜_21-3);}.cls-29{fill:url(#鍊踑臇蜸馯鳺艜_60);}.cls-30{fill:url(#鍊踑臇蜸馯鳺艜_43-2);}.cls-31{fill:url(#鍊踑臇蜸馯鳺艜_43-3);}.cls-32{fill:url(#鍊踑臇蜸馯鳺艜_30-6);}.cls-33{fill:url(#鍊踑臇蜸馯鳺艜_10);}.cls-34{fill:url(#鍊踑臇蜸馯鳺艜_10-2);}.cls-35{fill:url(#鍊踑臇蜸馯鳺艜_10-3);}.cls-36{fill:url(#鍊踑臇蜸馯鳺艜_10-4);}.cls-37{fill:url(#鍊踑臇蜸馯鳺艜_10-5);}.cls-38{fill:url(#鍊踑臇蜸馯鳺艜_43-4);}.cls-39{fill:url(#鍊踑臇蜸馯鳺艜_43-5);}.cls-40{fill:url(#鍊踑臇蜸馯鳺艜_43-6);}.cls-41{fill:url(#鍊踑臇蜸馯鳺艜_43-7);}.cls-42{fill:url(#鍊踑臇蜸馯鳺艜_43-8);}.cls-43{fill:url(#鍊踑臇蜸馯鳺艜_43-9);}.cls-44{fill:url(#鍊踑臇蜸馯鳺艜_43-10);}.cls-45{fill:url(#鍊踑臇蜸馯鳺艜_43-11);}.cls-46{fill:url(#鍊踑臇蜸馯鳺艜_43-12);}.cls-47{fill:url(#鍊踑臇蜸馯鳺艜_10-6);}.cls-48{fill:url(#鍊踑臇蜸馯鳺艜_10-7);}.cls-49{fill:url(#鍊踑臇蜸馯鳺艜_10-8);}.cls-50{fill:url(#鍊踑臇蜸馯鳺艜_10-9);}.cls-51{fill:url(#鍊踑臇蜸馯鳺艜_10-10);}.cls-52{fill:url(#鍊踑臇蜸馯鳺艜_10-11);}.cls-53{fill:url(#鍊踑臇蜸馯鳺艜_10-12);}.cls-54{fill:url(#鍊踑臇蜸馯鳺艜_10-13);}.cls-55{fill:url(#鍊踑臇蜸馯鳺艜_10-14);}.cls-56{fill:url(#鍊踑臇蜸馯鳺艜_10-15);}.cls-57{fill:url(#鍊踑臇蜸馯鳺艜_10-16);}.cls-58{fill:url(#鍊踑臇蜸馯鳺艜_30-7);}.cls-59{fill:url(#鍊踑臇蜸馯鳺艜_30-8);}.cls-60{fill:url(#鍊踑臇蜸馯鳺艜_30-9);}.cls-61{fill:url(#鍊踑臇蜸馯鳺艜_30-10);}.cls-62{fill:url(#鍊踑臇蜸馯鳺艜_30-11);}.cls-63{fill:url(#鍊踑臇蜸馯鳺艜_30-12);}.cls-64{fill:url(#鍊踑臇蜸馯鳺艜_30-13);}.cls-65{fill:url(#鍊踑臇蜸馯鳺艜_43-13);}.cls-66{fill:url(#鍊踑臇蜸馯鳺艜_21-4);}.cls-67{fill:url(#鍊踑臇蜸馯鳺艜_43-14);}.cls-68{fill:url(#鍊踑臇蜸馯鳺艜_2-2);}.cls-69{fill:#1a1a1a;}.cls-70{filter:url(#luminosity-noclip-3);}.cls-71{filter:url(#luminosity-noclip-2);}.cls-72{filter:url(#luminosity-noclip);}</style><filter id="luminosity-noclip" x="290.73" y="-8390" width="90.27" height="32766" filterUnits="userSpaceOnUse" color-interpolation-filters="sRGB"><feFlood flood-color="#fff" result="bg"/><feBlend in="SourceGraphic" in2="bg"/></filter><mask id="mask" x="290.73" y="-8390" width="90.27" height="32766" maskUnits="userSpaceOnUse"><g class="cls-72"/></mask><radialGradient id="鍊踑臇蜸馯鳺艜_23" cx="335.86" cy="309.17" r="45.68" gradientUnits="userSpaceOnUse"><stop offset="0" stop-color="#fff"/><stop offset="1" stop-color="gray"/></radialGradient><filter id="luminosity-noclip-2" x="75.53" y="-8390" width="346.96" height="32766" filterUnits="userSpaceOnUse" color-interpolation-filters="sRGB"><feFlood flood-color="#fff" result="bg"/><feBlend in="SourceGraphic" in2="bg"/></filter><mask id="mask-2" x="75.53" y="-8390" width="346.96" height="32766" maskUnits="userSpaceOnUse"><g class="cls-71"/></mask><radialGradient id="鍊踑臇蜸馯鳺艜_23-2" cx="249.01" cy="196.66" r="167.96" xlink:href="#鍊踑臇蜸馯鳺艜_23"/><filter id="luminosity-noclip-3" x="94.6" y="-8390" width="348.1" height="32766" filterUnits="userSpaceOnUse" color-interpolation-filters="sRGB"><feFlood flood-color="#fff" result="bg"/><feBlend in="SourceGraphic" in2="bg"/></filter><mask id="mask-3" x="94.6" y="-8390" width="348.1" height="32766" maskUnits="userSpaceOnUse"><g class="cls-70"/></mask><linearGradient id="鍊踑臇蜸馯鳺艜_9" x1="268.65" y1="331.16" x2="268.65" y2="177.73" gradientUnits="userSpaceOnUse"><stop offset="0" stop-color="#fff"/><stop offset="1"/></linearGradient><filter id="luminosity-noclip-4" x="290.73" y="262.95" width="90.27" height="92.44" filterUnits="userSpaceOnUse" color-interpolation-filters="sRGB"><feFlood flood-color="#fff" result="bg"/><feBlend in="SourceGraphic" in2="bg"/></filter><mask id="mask-4" x="290.73" y="262.95" width="90.27" height="92.44" maskUnits="userSpaceOnUse"><g class="cls-1"><path class="cls-2" d="M348.85,265.55C321,273.27,268.46,327,301,352.23S431,242.79,348.85,265.55Z"/></g></mask><radialGradient id="鍊踑臇蜸馯鳺艜_86" cx="335.86" cy="309.17" r="45.68" gradientUnits="userSpaceOnUse"><stop offset="0" stop-color="#b3d6ff"/><stop offset="1" stop-color="#e6f2fe"/></radialGradient><filter id="luminosity-noclip-5" x="75.53" y="34.42" width="346.96" height="324.5" filterUnits="userSpaceOnUse" color-interpolation-filters="sRGB"><feFlood flood-color="#fff" result="bg"/><feBlend in="SourceGraphic" in2="bg"/></filter><mask id="mask-5" x="75.53" y="34.42" width="346.96" height="324.5" maskUnits="userSpaceOnUse"><g class="cls-3"><path class="cls-4" d="M356.37,257.4c-118,24-82.57,85.42-161.28,99.88-106.19,19.5-156-139.74-89.41-238,53.2-78.53,145-103.34,226.29-71.09C446.83,93.72,449.48,238.43,356.37,257.4Z"/></g></mask><radialGradient id="鍊踑臇蜸馯鳺艜_86-2" cx="249.01" cy="196.66" r="167.96" xlink:href="#鍊踑臇蜸馯鳺艜_86"/><linearGradient id="鍊踑臇蜸馯鳺艜_21" x1="331.46" y1="101.9" x2="361.97" y2="101.9" gradientUnits="userSpaceOnUse"><stop offset="0" stop-color="#fea235"/><stop offset="1" stop-color="#ffb44f"/></linearGradient><linearGradient id="鍊踑臇蜸馯鳺艜_43" x1="393.9" y1="109.3" x2="399.11" y2="109.3" gradientUnits="userSpaceOnUse"><stop offset="0" stop-color="#0e218a"/><stop offset="1" stop-color="#1f72d2"/></linearGradient><linearGradient id="鍊踑臇蜸馯鳺艜_21-2" x1="252.74" y1="127.95" x2="256.91" y2="127.95" xlink:href="#鍊踑臇蜸馯鳺艜_21"/><linearGradient id="鍊踑臇蜸馯鳺艜_30" x1="295.66" y1="122.45" x2="304" y2="122.45" gradientUnits="userSpaceOnUse"><stop offset="0" stop-color="#f6462e"/><stop offset="1" stop-color="#fb7d42"/></linearGradient><linearGradient id="鍊踑臇蜸馯鳺艜_2" x1="95.11" y1="186.31" x2="103.45" y2="186.31" gradientUnits="userSpaceOnUse"><stop offset="0" stop-color="#2abdd1"/><stop offset="1" stop-color="#237c8f"/></linearGradient><clipPath id="clip-path"><rect class="cls-7" x="84" y="109.3" width="346.5" height="249.07"/></clipPath><linearGradient id="鍊踑臇蜸馯鳺艜_30-2" x1="322.41" y1="386.23" x2="328.83" y2="225.67" xlink:href="#鍊踑臇蜸馯鳺艜_30"/><linearGradient id="鍊踑臇蜸馯鳺艜_30-3" x1="173.62" y1="380.28" x2="180.04" y2="219.72" xlink:href="#鍊踑臇蜸馯鳺艜_30"/><linearGradient id="鍊踑臇蜸馯鳺艜_30-4" x1="248.86" y1="383.29" x2="255.29" y2="222.73" xlink:href="#鍊踑臇蜸馯鳺艜_30"/><linearGradient id="鍊踑臇蜸馯鳺艜_30-5" x1="350.03" y1="387.34" x2="356.45" y2="226.78" xlink:href="#鍊踑臇蜸馯鳺艜_30"/><filter id="luminosity-noclip-6" x="94.6" y="130.34" width="348.1" height="132.54" filterUnits="userSpaceOnUse" color-interpolation-filters="sRGB"><feFlood flood-color="#fff" result="bg"/><feBlend in="SourceGraphic" in2="bg"/></filter><mask id="mask-6" x="94.6" y="130.34" width="348.1" height="132.54" maskUnits="userSpaceOnUse"><g class="cls-5"><path class="cls-6" d="M98.81,130.34S85,163.08,107.46,191.2c16.69,20.88,37.1,18.55,60.94,56.14l88.45,15.55,76.23-15.55s12.8-33.42,41.81-44.38,55.92-36.64,67.82-60.59Z"/></g></mask><linearGradient id="鍊踑臇蜸馯鳺艜_21-3" x1="268.65" y1="331.16" x2="268.65" y2="177.73" xlink:href="#鍊踑臇蜸馯鳺艜_21"/><linearGradient id="鍊踑臇蜸馯鳺艜_60" x1="173.51" y1="273.15" x2="329.98" y2="273.15" gradientUnits="userSpaceOnUse"><stop offset="0" stop-color="#d2d1cd"/><stop offset="1" stop-color="#abafb8"/></linearGradient><linearGradient id="鍊踑臇蜸馯鳺艜_43-2" x1="256.85" y1="308.07" x2="333.08" y2="308.07" xlink:href="#鍊踑臇蜸馯鳺艜_43"/><linearGradient id="鍊踑臇蜸馯鳺艜_43-3" x1="168.4" y1="308.07" x2="244.63" y2="308.07" xlink:href="#鍊踑臇蜸馯鳺艜_43"/><linearGradient id="鍊踑臇蜸馯鳺艜_30-6" x1="145.07" y1="379.14" x2="151.5" y2="218.58" xlink:href="#鍊踑臇蜸馯鳺艜_30"/><linearGradient id="鍊踑臇蜸馯鳺艜_10" x1="316.89" y1="156.27" x2="331.57" y2="156.27" gradientUnits="userSpaceOnUse"><stop offset="0" stop-color="#237c8f"/><stop offset="1" stop-color="#2abdd1"/></linearGradient><linearGradient id="鍊踑臇蜸馯鳺艜_10-2" x1="333.43" y1="155.59" x2="346.46" y2="155.59" xlink:href="#鍊踑臇蜸馯鳺艜_10"/><linearGradient id="鍊踑臇蜸馯鳺艜_10-3" x1="348.34" y1="154.84" x2="360.56" y2="154.84" xlink:href="#鍊踑臇蜸馯鳺艜_10"/><linearGradient id="鍊踑臇蜸馯鳺艜_10-4" x1="362.44" y1="156.56" x2="374.88" y2="156.56" xlink:href="#鍊踑臇蜸馯鳺艜_10"/><linearGradient id="鍊踑臇蜸馯鳺艜_10-5" x1="374.89" y1="142.36" x2="380.47" y2="142.36" xlink:href="#鍊踑臇蜸馯鳺艜_10"/><linearGradient id="鍊踑臇蜸馯鳺艜_43-4" x1="263.98" y1="89.73" x2="270.83" y2="49.7" xlink:href="#鍊踑臇蜸馯鳺艜_43"/><linearGradient id="鍊踑臇蜸馯鳺艜_43-5" x1="284.65" y1="93.27" x2="291.5" y2="53.24" xlink:href="#鍊踑臇蜸馯鳺艜_43"/><linearGradient id="鍊踑臇蜸馯鳺艜_43-6" x1="281.94" y1="92.81" x2="288.79" y2="52.77" xlink:href="#鍊踑臇蜸馯鳺艜_43"/><linearGradient id="鍊踑臇蜸馯鳺艜_43-7" x1="284.25" y1="93.2" x2="291.1" y2="53.17" xlink:href="#鍊踑臇蜸馯鳺艜_43"/><linearGradient id="鍊踑臇蜸馯鳺艜_43-8" x1="300.63" y1="96.01" x2="307.48" y2="55.97" xlink:href="#鍊踑臇蜸馯鳺艜_43"/><linearGradient id="鍊踑臇蜸馯鳺艜_43-9" x1="283.07" y1="93" x2="289.92" y2="52.97" gradientTransform="translate(6.46 -20.37) rotate(4.13)" xlink:href="#鍊踑臇蜸馯鳺艜_43"/><linearGradient id="鍊踑臇蜸馯鳺艜_43-10" x1="273.31" y1="91.33" x2="280.17" y2="51.3" gradientTransform="translate(46.22 -95.23) rotate(21.32)" xlink:href="#鍊踑臇蜸馯鳺艜_43"/><linearGradient id="鍊踑臇蜸馯鳺艜_43-11" x1="291.15" y1="94.4" x2="298.01" y2="54.34" gradientTransform="translate(335.52 -228.59) rotate(83.9)" xlink:href="#鍊踑臇蜸馯鳺艜_43"/><linearGradient id="鍊踑臇蜸馯鳺艜_43-12" x1="282.93" y1="92.98" x2="289.78" y2="52.94" gradientTransform="translate(269.38 -229.68) rotate(73.75)" xlink:href="#鍊踑臇蜸馯鳺艜_43"/><linearGradient id="鍊踑臇蜸馯鳺艜_10-6" x1="157.74" y1="181.39" x2="147.14" y2="140.61" xlink:href="#鍊踑臇蜸馯鳺艜_10"/><linearGradient id="鍊踑臇蜸馯鳺艜_10-7" x1="163.13" y1="179.99" x2="152.54" y2="139.21" xlink:href="#鍊踑臇蜸馯鳺艜_10"/><linearGradient id="鍊踑臇蜸馯鳺艜_10-8" x1="175.99" y1="176.64" x2="165.4" y2="135.89" xlink:href="#鍊踑臇蜸馯鳺艜_10"/><linearGradient id="鍊踑臇蜸馯鳺艜_10-9" x1="161.93" y1="180.3" x2="151.34" y2="139.53" xlink:href="#鍊踑臇蜸馯鳺艜_10"/><linearGradient id="鍊踑臇蜸馯鳺艜_10-10" x1="147.74" y1="183.99" x2="137.15" y2="143.23" xlink:href="#鍊踑臇蜸馯鳺艜_10"/><linearGradient id="鍊踑臇蜸馯鳺艜_10-11" x1="146.09" y1="184.42" x2="135.49" y2="143.64" xlink:href="#鍊踑臇蜸馯鳺艜_10"/><linearGradient id="鍊踑臇蜸馯鳺艜_10-12" x1="144.66" y1="184.76" x2="134.07" y2="144.01" gradientTransform="translate(59.35 -37.19) rotate(19.87)" xlink:href="#鍊踑臇蜸馯鳺艜_10"/><linearGradient id="鍊踑臇蜸馯鳺艜_10-13" x1="144.93" y1="184.72" x2="134.34" y2="143.95" xlink:href="#鍊踑臇蜸馯鳺艜_10"/><linearGradient id="鍊踑臇蜸馯鳺艜_10-14" x1="141.57" y1="185.6" x2="130.97" y2="144.81" gradientTransform="translate(171.07 -46.24) rotate(52.69)" xlink:href="#鍊踑臇蜸馯鳺艜_10"/><linearGradient id="鍊踑臇蜸馯鳺艜_10-15" x1="176.03" y1="176.65" x2="165.43" y2="135.86" gradientTransform="translate(174.58 -77.78) rotate(52.69)" xlink:href="#鍊踑臇蜸馯鳺艜_10"/><linearGradient id="鍊踑臇蜸馯鳺艜_10-16" x1="179.3" y1="175.79" x2="168.7" y2="135.01" xlink:href="#鍊踑臇蜸馯鳺艜_10"/><linearGradient id="鍊踑臇蜸馯鳺艜_30-7" x1="145.41" y1="91.24" x2="163.5" y2="91.24" xlink:href="#鍊踑臇蜸馯鳺艜_30"/><linearGradient id="鍊踑臇蜸馯鳺艜_30-8" x1="162.91" y1="98.61" x2="176.03" y2="98.61" xlink:href="#鍊踑臇蜸馯鳺艜_30"/><linearGradient id="鍊踑臇蜸馯鳺艜_30-9" x1="177.13" y1="98.93" x2="184.84" y2="98.93" xlink:href="#鍊踑臇蜸馯鳺艜_30"/><linearGradient id="鍊踑臇蜸馯鳺艜_30-10" x1="184.63" y1="98.82" x2="200.16" y2="98.82" xlink:href="#鍊踑臇蜸馯鳺艜_30"/><linearGradient id="鍊踑臇蜸馯鳺艜_30-11" x1="200.83" y1="102.06" x2="216.34" y2="102.06" xlink:href="#鍊踑臇蜸馯鳺艜_30"/><linearGradient id="鍊踑臇蜸馯鳺艜_30-12" x1="214.72" y1="106.13" x2="222.45" y2="106.13" xlink:href="#鍊踑臇蜸馯鳺艜_30"/><linearGradient id="鍊踑臇蜸馯鳺艜_30-13" x1="222.65" y1="106.67" x2="235.42" y2="106.67" xlink:href="#鍊踑臇蜸馯鳺艜_30"/><linearGradient id="鍊踑臇蜸馯鳺艜_43-13" x1="192.46" y1="58.18" x2="207.87" y2="58.18" xlink:href="#鍊踑臇蜸馯鳺艜_43"/><linearGradient id="鍊踑臇蜸馯鳺艜_21-4" x1="-5090.68" y1="1277" x2="-5075.11" y2="1277" gradientTransform="translate(-5125.96 -201.25) rotate(-162.33)" xlink:href="#鍊踑臇蜸馯鳺艜_21"/><linearGradient id="鍊踑臇蜸馯鳺艜_43-14" x1="344.08" y1="63.01" x2="348.25" y2="63.01" xlink:href="#鍊踑臇蜸馯鳺艜_43"/><linearGradient id="鍊踑臇蜸馯鳺艜_2-2" x1="250.66" y1="24.17" x2="259" y2="24.17" xlink:href="#鍊踑臇蜸馯鳺艜_2"/></defs><title>bn-feature</title><g class="cls-8"><g class="cls-9"><path class="cls-10" d="M348.85,265.55C321,273.27,268.46,327,301,352.23S431,242.79,348.85,265.55Z"/></g></g><g class="cls-8"><g class="cls-11"><path class="cls-12" d="M356.37,257.4c-118,24-82.57,85.42-161.28,99.88-106.19,19.5-156-139.74-89.41-238,53.2-78.53,145-103.34,226.29-71.09C446.83,93.72,449.48,238.43,356.37,257.4Z"/></g></g><polygon class="cls-13" points="354.59 117.38 331.45 95.51 361.97 86.41 354.59 117.38"/><path class="cls-14" d="M351.6,112.08,327.65,89.44l.53-.16,31-9.26ZM328.9,89.74l22.33,21.11L358.35,81Z"/><circle class="cls-15" cx="396.5" cy="109.3" r="2.61"/><circle class="cls-16" cx="254.83" cy="127.95" r="2.08"/><circle class="cls-17" cx="299.83" cy="122.45" r="4.17"/><circle class="cls-18" cx="99.28" cy="186.31" r="4.17"/><g class="cls-19"><path class="cls-14" d="M273.8,155.94c13.55,16.71,23.88,14.9,15.54,33.47s22.49,8.92,20.8,27.71-16.25,17.43-2.92,33.05-14.82,44.17-14.82,44.17H208.63s-30.12-14.21-21.79-37.94-6.16-24,13.92-40.5c12.83-10.57,1-17,1-32.44,0-17.08,17-25.08,24.77-23.44S251.22,128.11,273.8,155.94Z"/><path class="cls-20" d="M309.25,234.33c14.22,14.19,56.68,55,67.77,78.54s-18.16,55.49-39.31,38.85-59-56-63.45-65.45C265.57,267.78,287.38,212.5,309.25,234.33Z"/><path class="cls-21" d="M193.46,234.33c-14.22,14.19-56.68,55-67.77,78.54s18.16,55.49,39.31,38.85,59-56,63.45-65.45C237.14,267.78,215.33,212.5,193.46,234.33Z"/><path class="cls-14" d="M322.18,320.2c-.47-4.19-43.23-64.37-45.68-66.38-4.31,11.85-5.71,25.08-2.24,32.46,4.12,8.77,37.21,43.48,58.82,61.66-.92-1.59-1.81-3.16-2.7-4.65A59,59,0,0,1,322.18,320.2Z"/><path class="cls-22" d="M312.83,301c2.55-7.5.49-65.78-11.62-71.39-2.41-1.12-27.81-5.59-52.13-5.32-22.88.26-44.73,5.24-48.13,5.32-5.67.13-16.14,41.53-18.84,58-1.55,8.81-.12,15.8,5.24,28.64,7.77,21.85-11.12,56.18-11.12,56.18s78.69,31.23,146.18-.62C322.4,371.83,302.68,330.83,312.83,301Z"/><path class="cls-23" d="M181.56,362.24l-.87-.36c4.52-10.78,11.34-31,6.21-45.44-5.5-13.17-6.78-20.19-5.26-28.88,1.19-7.22,2-14.39,2.87-21.33s1.66-14,2.83-21.07l.93.15c-1.16,7.07-2,14.16-2.82,21s-1.68,14.12-2.87,21.37c-1.49,8.49-.22,15.38,5.21,28.38C192.77,330.11,187.15,348.92,181.56,362.24Z"/><path class="cls-23" d="M313.6,348.67c-3.52-13.09-6.59-32-1.22-47.79,2.39-7,1.59-26.92.12-38l.94-.12c1.48,11.18,2.27,31.3-.16,38.44-5.3,15.56-2.25,34.28,1.24,47.24Z"/><path class="cls-24" d="M260.16,205.89V225c9.12,23.6-11.25,53.07-11.25,53.07s-19.1-31.83-10.43-53.13V197.47A191.55,191.55,0,0,0,260.16,205.89Z"/><path class="cls-25" d="M256.17,216.77c1.4-1.36,2.82-6.73,4.36-7.24V205a202.51,202.51,0,0,1-22.43-8.42v15.58c1.06.84,2.85,5.51,5,7.11C246.83,221.93,251.69,221.14,256.17,216.77Z"/><path class="cls-24" d="M265.17,187.89c-.73-5.6-1-9.47-10-12.52-9.63-3.26-18.13.91-21.39,10.53-1.13,3.32.95,18.26,2.22,22.92.88,3.21,8.78,7.78,10.87,8.82.87.44,3.94.76,5.13-.05,2.49-1.7,9.7-6.54,10.5-8.7C264.17,204.34,265.39,189.55,265.17,187.89Z"/><path class="cls-14" d="M248.16,203l-.42-.85c.65-.32,2.41-1.46,2-2.43-1.58-3.52-.94-8.27-.91-8.47l.94.13s-.63,4.69.84,8C251.3,200.88,249.4,202.34,248.16,203Z"/><path class="cls-14" d="M237.26,189.94l-.53-.78c4.65-3.13,8.11-.27,8.14-.24l-.61.72C244.14,189.54,241.29,187.22,237.26,189.94Z"/><path class="cls-14" d="M260.14,190.16c-.1-.12-2.57-2.83-7-.74l-.41-.85c5.07-2.4,8.06.94,8.09,1Z"/><path class="cls-14" d="M247.49,207.64a14.76,14.76,0,0,1-4.29-.56l.3-.9a14.13,14.13,0,0,0,4,.52,33.12,33.12,0,0,0,7.05-1.46l.28.9A33.31,33.31,0,0,1,247.49,207.64Z"/><path class="cls-14" d="M237.14,175.85S256.75,186.12,267.6,189C267.6,189,265.81,161.33,237.14,175.85Z"/><path class="cls-23" d="M241.38,370.46a21.47,21.47,0,0,1-8.26-1.41l.37-.87c14.28,6,46.54-10.22,46.87-10.38l.43.84C279.66,359.21,257.25,370.46,241.38,370.46Z"/><path class="cls-14" d="M252.88,212.22a29.72,29.72,0,0,1-3.56.31c-.59,0-1.17,0-1.76,0a13,13,0,0,1-1.81-.12,8.59,8.59,0,0,1,3.54-.84,10.07,10.07,0,0,1,1.82.11A5.87,5.87,0,0,1,252.88,212.22Z"/><path class="cls-23" d="M227.27,318.78l-.35-.88c.15-.06,14.87-5.79,37.89-1.31l-.18.93C241.87,313.09,227.41,318.72,227.27,318.78Z"/><rect class="cls-23" x="340.05" y="248.44" width="0.95" height="36.41" transform="translate(-90.69 300.07) rotate(-42.5)"/><path class="cls-23" d="M204,228.19l-.16-.68c16-3.67,34.48-2.92,34.67-2.91l0,.69C238.27,225.29,219.84,224.54,204,228.19Z"/><path class="cls-23" d="M308.51,234.1c-2.18-2.16-3.75-3.45-10.57-5s-26.93-3.62-27.13-3.64l.07-.69c.2,0,20.41,2.15,27.21,3.65,7,1.54,8.63,2.89,10.9,5.14Z"/><path class="cls-14" d="M242.47,194.19a1.59,1.59,0,1,1-3.18,0,1.61,1.61,0,0,1,.27-.89,2.85,2.85,0,0,0,1.25.28,2.89,2.89,0,0,0,1.36-.33A1.59,1.59,0,0,1,242.47,194.19Z"/><path class="cls-14" d="M258.4,194.19a1.59,1.59,0,1,1-3.19,0,1.52,1.52,0,0,1,.3-.91,2.91,2.91,0,0,0,2.61,0A1.6,1.6,0,0,1,258.4,194.19Z"/><ellipse class="cls-26" cx="352.67" cy="321.39" rx="26.79" ry="42.74"/><ellipse class="cls-14" cx="352.67" cy="321.39" rx="18" ry="28.72"/><path class="cls-24" d="M352.24,302.79l-10.72-4.47s-6.38,18.61.06,31.88l10.66.43c4.18,0,7.57-6.23,7.57-13.92S356.42,302.79,352.24,302.79Z"/><g class="cls-27"><path class="cls-28" d="M98.81,130.34S85,163.08,107.46,191.2c16.69,20.88,37.1,18.55,60.94,56.14l88.45,15.55,76.23-15.55s12.8-33.42,41.81-44.38,55.92-36.64,67.82-60.59Z"/></g><path class="cls-29" d="M173.51,248.49l13.31-6.28s39.23,1.42,62.42,18.17c0,0,44.55-21.35,70.11-18.51L330,249.62l-21.89,55.06L206.51,293.61l-30.39-11.36Z"/><polygon class="cls-30" points="333.08 351.54 256.85 368.8 256.85 264.6 333.08 247.33 333.08 351.54"/><polygon class="cls-31" points="168.4 351.54 244.63 368.8 244.63 264.6 168.4 247.33 168.4 351.54"/><rect class="cls-14" x="244.07" y="262.88" width="12.78" height="106.91"/><path class="cls-14" d="M263.85,260.12l-.23-.6c.21-.08,21.4-8.27,34.89-9l0,.64C285.15,251.89,264.06,260,263.85,260.12Z"/><path class="cls-14" d="M225.61,256.34c-9.8-6.4-32.7-8.67-32.93-8.69l.06-.64c.23,0,23.28,2.3,33.22,8.79Z"/><path class="cls-24" d="M321.79,294.74s3.51-1.57,5.89-2.42,3.7.09,7.46,2.21c4,2.27,7,3,8.32,7.5s6.3,23.73-1.23,27.81c-10.32,5.6-27.47-.8-22-6.48,0,0-7.13-1.65-3-8.35,0,0-6.51-5.47-.62-9.59C316.56,305.43,308.5,297.19,321.79,294.74Z"/><path class="cls-14" d="M316.56,305.43a17,17,0,0,1,4.48-1.37c1.52-.25,6.79-1.16,8.37-1-1.45.72-6.7,1.84-8.22,2.13A16.34,16.34,0,0,1,316.56,305.43Z"/><path class="cls-14" d="M317.19,315a39.21,39.21,0,0,1,6.07-1.39c2-.31,7-1.05,9.07-1.17a51.7,51.7,0,0,1-5.87,1.65,26,26,0,0,1-3.05.68A23.56,23.56,0,0,1,317.19,315Z"/><path class="cls-14" d="M320.15,323.44c1.47-.06,2.84,0,4.23,0,.69,0,1.38,0,2.08,0s3-.47,3.72-.42a14.25,14.25,0,0,1-5.81,1.59,9.05,9.05,0,0,1-2.17-.27A6.36,6.36,0,0,1,320.15,323.44Z"/><path class="cls-24" d="M339.85,297.57a23.81,23.81,0,0,0,2.86,1.51c.87.3,7.61,5.56,7.61,5.56v15.84s-4.63,9-4.68,9l-2.91.52a7,7,0,0,0-2.19.22c-.91.3-6.23-6.84-6.23-6.84s0-11.86.32-12.87a48.1,48.1,0,0,0,1.72-5.5C336.85,302.67,339.85,297.57,339.85,297.57Z"/><ellipse class="cls-32" cx="147.38" cy="321.39" rx="26.79" ry="42.74"/><ellipse class="cls-14" cx="147.38" cy="321.39" rx="18" ry="28.72"/><path class="cls-24" d="M147.81,302.79l10.72-4.47s6.38,18.61-.06,31.88l-10.66.43c-4.18,0-7.57-6.23-7.57-13.92S143.63,302.79,147.81,302.79Z"/><path class="cls-24" d="M178.26,294.74s-3.51-1.57-5.89-2.42-3.7.09-7.46,2.21c-4,2.27-7,3-8.32,7.5s-6.3,23.73,1.23,27.81c10.32,5.6,27.47-.8,22-6.48,0,0,7.12-1.65,3-8.35,0,0,6.51-5.47.62-9.59C183.49,305.43,191.55,297.19,178.26,294.74Z"/><path class="cls-14" d="M183.49,305.43a17,17,0,0,0-4.48-1.37c-1.52-.25-6.79-1.16-8.37-1,1.45.72,6.7,1.84,8.22,2.13A16.35,16.35,0,0,0,183.49,305.43Z"/><path class="cls-14" d="M182.86,315a39.25,39.25,0,0,0-6.07-1.39c-2-.31-7-1.05-9.07-1.17a51.8,51.8,0,0,0,5.87,1.65,25.9,25.9,0,0,0,3.05.68A23.56,23.56,0,0,0,182.86,315Z"/><path class="cls-14" d="M179.9,323.44c-1.47-.06-2.84,0-4.23,0-.69,0-1.38,0-2.08,0s-3-.47-3.72-.42a14.26,14.26,0,0,0,5.81,1.59,9,9,0,0,0,2.17-.27A6.36,6.36,0,0,0,179.9,323.44Z"/><path class="cls-24" d="M160.2,297.57a23.81,23.81,0,0,1-2.86,1.51c-.87.3-7.61,5.56-7.61,5.56v15.84s4.63,9,4.68,9l2.91.52a7,7,0,0,1,2.19.22c.91.3,6.23-6.84,6.23-6.84s0-11.86-.32-12.87a48,48,0,0,1-1.72-5.5C163.2,302.67,160.2,297.57,160.2,297.57Z"/></g><path class="cls-33" d="M316.89,159.78l3.52-.52a4.32,4.32,0,0,0,1.43,2.55,3.93,3.93,0,0,0,2.68.7,4.06,4.06,0,0,0,2.61-.88,2.22,2.22,0,0,0,.8-1.78,1.64,1.64,0,0,0-.43-1.07,3,3,0,0,0-1.35-.71q-.65-.19-3-.64a9.91,9.91,0,0,1-4.19-1.57,4.69,4.69,0,0,1-1.84-3.54,4.63,4.63,0,0,1,.65-2.61,4.9,4.9,0,0,1,2.16-1.94,9,9,0,0,1,3.51-.8,7.6,7.6,0,0,1,5.18,1.23,5.25,5.25,0,0,1,2,3.88l-3.63.34a3.09,3.09,0,0,0-1.1-1.95,3.66,3.66,0,0,0-2.33-.49,4.17,4.17,0,0,0-2.45.78,1.31,1.31,0,0,0-.52,1.15,1.38,1.38,0,0,0,.59,1.07,9.55,9.55,0,0,0,3.4,1,17.59,17.59,0,0,1,4,1.1,5.09,5.09,0,0,1,2.08,1.73,5.36,5.36,0,0,1,.86,2.83,5.3,5.3,0,0,1-.71,2.94,5.16,5.16,0,0,1-2.33,2.13,10.21,10.21,0,0,1-3.88.85,7.81,7.81,0,0,1-5.32-1.31A6.87,6.87,0,0,1,316.89,159.78Z"/><path class="cls-34" d="M333.59,154.77l-.16-3.17L346,151l.16,3.17Zm.27,5.45L333.7,157l12.59-.63.16,3.18Z"/><path class="cls-35" d="M359.82,149.86l-3.32.54a2.43,2.43,0,0,0-.72-1.49,1.86,1.86,0,0,0-1.36-.42,2.26,2.26,0,0,0-1.8,1.07q-.71,1-.75,4.14A4,4,0,0,1,355,152a4.9,4.9,0,0,1,3.79,1.46,6,6,0,0,1,1.76,4.17,6.11,6.11,0,0,1-1.4,4.52,5.91,5.91,0,0,1-8.67,0q-1.86-2-2.11-6.86t1.47-7.23a5.91,5.91,0,0,1,4.64-2.43,5.05,5.05,0,0,1,3.45,1A5.39,5.39,0,0,1,359.82,149.86Zm-7.45,7.92a3.91,3.91,0,0,0,.91,2.56,2.28,2.28,0,0,0,1.81.83,2,2,0,0,0,1.56-.83,3.79,3.79,0,0,0,.51-2.49,4,4,0,0,0-.82-2.54,2.22,2.22,0,0,0-3.4.13A3.4,3.4,0,0,0,352.37,157.79Z"/><path class="cls-36" d="M365.66,154.11l-3.16-.41a4.89,4.89,0,0,1,1.68-2.89,6.66,6.66,0,0,1,3.79-1.1,8.28,8.28,0,0,1,3.47.37,3.44,3.44,0,0,1,1.66,1.31,7.11,7.11,0,0,1,.62,3.07l.17,4a14,14,0,0,0,.29,2.53,7.38,7.38,0,0,0,.71,1.72l-3.42.17q-.15-.34-.38-1c-.07-.2-.12-.33-.14-.4a6.25,6.25,0,0,1-1.83,1.38,5.45,5.45,0,0,1-2.13.54,4.45,4.45,0,0,1-3.23-.93,3.64,3.64,0,0,1-1.3-2.71,3.73,3.73,0,0,1,.43-2,3.47,3.47,0,0,1,1.41-1.4,11.63,11.63,0,0,1,2.71-.94,18.79,18.79,0,0,0,3.31-1l0-.35a1.79,1.79,0,0,0-.56-1.39,3,3,0,0,0-1.88-.33,2.47,2.47,0,0,0-1.42.43A2.54,2.54,0,0,0,365.66,154.11Zm4.76,2.57a21.49,21.49,0,0,1-2.07.63,6.38,6.38,0,0,0-1.85.7,1.44,1.44,0,0,0-.61,1.25,1.69,1.69,0,0,0,.6,1.23,1.89,1.89,0,0,0,1.4.46,3,3,0,0,0,1.75-.7,2.17,2.17,0,0,0,.77-1.18,6.84,6.84,0,0,0,.05-1.69Z"/><path class="cls-37" d="M380.4,144.8l.07,1.45-5.48.28a3.77,3.77,0,0,1,.46-1.59,10.36,10.36,0,0,1,1.66-2,11,11,0,0,0,1.23-1.4,1.71,1.71,0,0,0,.27-1,1.08,1.08,0,0,0-.32-.79,1.2,1.2,0,0,0-1.55.09,1.52,1.52,0,0,0-.28,1l-1.57-.08a2.56,2.56,0,0,1,.78-1.9,2.93,2.93,0,0,1,1.81-.65,2.65,2.65,0,0,1,1.93.56,2.13,2.13,0,0,1,.77,1.58,2.83,2.83,0,0,1-.14,1.06,4.28,4.28,0,0,1-.57,1.07,9.93,9.93,0,0,1-1,1.09q-.71.71-.89.95a2.67,2.67,0,0,0-.3.45Z"/><circle class="cls-38" cx="265.71" cy="79.64" r="4.7"/><circle class="cls-39" cx="285.52" cy="88.15" r="4.7"/><circle class="cls-40" cx="285.52" cy="71.87" r="2.74"/><circle class="cls-41" cx="290.22" cy="58.3" r="4.7"/><circle class="cls-42" cx="304.53" cy="73.23" r="4.7"/><rect class="cls-43" x="284.96" y="72.53" width="0.91" height="13.59" transform="translate(-4.98 20.78) rotate(-4.13)"/><rect class="cls-44" x="265.95" y="74.7" width="20.27" height="0.91" transform="translate(-8.43 105.52) rotate(-21.32)"/><rect class="cls-45" x="294.47" y="64.12" width="0.91" height="16.46" transform="translate(191.64 357.92) rotate(-83.9)"/><rect class="cls-46" x="281.11" y="64.24" width="13.32" height="0.91" transform="translate(145.15 322.88) rotate(-73.75)"/><path class="cls-47" d="M176.19,173.93l-34,12.38-12.38-34,34-12.38Zm-33.76,11.8,33.17-12.07-12.07-33.17-33.17,12.07Z"/><polygon class="cls-48" points="180.49 168.28 174.74 170.38 174.58 169.94 179.9 168.01 167.83 134.84 134.66 146.91 135.92 150.38 135.49 150.54 134.07 146.64 168.1 134.25 180.49 168.28"/><polygon class="cls-49" points="174.74 170.38 174.09 170.61 173.94 170.18 174.58 169.94 174.74 170.38"/><path class="cls-50" d="M172.82,171.07l-1.27.46-.16-.43,1.28-.46Zm-2.55.93-1.28.46-.16-.43,1.28-.46Zm-2.55.93-1.27.46-.16-.43,1.28-.46Zm-2.55.93-1.28.46-.16-.43,1.27-.46Zm-2.55.93-1.28.46-.16-.43,1.28-.46Zm-2.55.93-1.27.46-.16-.43,1.28-.46Zm-2.55.93-1.28.46-.16-.43,1.28-.47Zm-2.55.93-1.27.46-.16-.43,1.28-.46Zm-2.55.93-1.28.46-.16-.43,1.28-.46Zm-2.55.93-1.27.46-.16-.43,1.28-.46Z"/><polygon class="cls-51" points="147.31 180.35 146.45 180.66 146.14 179.81 146.57 179.65 146.73 180.08 147.16 179.92 147.31 180.35"/><path class="cls-52" d="M146.12,178.41l-.43.16-.45-1.25.43-.16Zm-.91-2.49-.43.16-.45-1.24.43-.16Zm-.91-2.49-.43.16-.45-1.24.43-.16Zm-.91-2.49-.43.16-.45-1.25.43-.16Zm-.91-2.49-.43.16-.45-1.24.43-.16Zm-.91-2.49-.43.16-.45-1.24.43-.16Zm-.9-2.49-.43.16-.45-1.24.43-.16Zm-.91-2.49-.43.16-.45-1.24.43-.16Zm-.91-2.49-.43.16-.45-1.24.43-.16ZM138,156l-.43.16-.45-1.24.43-.16Zm-.91-2.49-.43.16-.45-1.24.43-.16Z"/><rect class="cls-53" x="135.6" y="150.44" width="0.46" height="0.69" transform="translate(-43.17 55.16) rotate(-19.87)"/><path class="cls-54" d="M142.62,186l-.36-.28.83-1.09.37.28Zm1.66-2.18-.36-.28.83-1.09.36.28Zm1.66-2.18-.36-.28.83-1.09.36.28Z"/><rect class="cls-55" x="128.67" y="149.36" width="7.09" height="0.46" transform="translate(-66.9 164.09) rotate(-52.69)"/><rect class="cls-56" x="162.27" y="137.14" width="7.09" height="0.46" transform="translate(-43.94 186) rotate(-52.69)"/><polygon class="cls-57" points="176.08 173.93 175.72 173.65 180.01 168.01 180.37 168.29 176.08 173.93"/><path class="cls-58" d="M145.41,97.5,148.51,82l4.69.94.7,11.15,4.9-10,4.7.94-3.1,15.52-2.91-.58,2.44-12.21-5.52,11.6-3-.6-.63-12.83-2.44,12.21Z"/><path class="cls-59" d="M163.06,101.8l3.32,1.09a1.18,1.18,0,0,0,.23.89,2.28,2.28,0,0,0,1.27.59,3.54,3.54,0,0,0,1.82,0,1.46,1.46,0,0,0,.74-.63,4.59,4.59,0,0,0,.41-1.34l.33-1.64a4.1,4.1,0,0,1-3.73,1.15,4.22,4.22,0,0,1-3.2-2.63,6.63,6.63,0,0,1-.28-4,6.32,6.32,0,0,1,2.22-4,4.47,4.47,0,0,1,3.68-.82A4.2,4.2,0,0,1,172.93,93l.31-1.58,2.78.56L174,102a10.21,10.21,0,0,1-.92,2.91,3.77,3.77,0,0,1-1.23,1.36,4.16,4.16,0,0,1-1.76.56,8.51,8.51,0,0,1-2.57-.18,6.61,6.61,0,0,1-3.86-1.79,3.13,3.13,0,0,1-.7-2.72C163,102.06,163,101.94,163.06,101.8Zm4-6.06a4.14,4.14,0,0,0,.17,2.76,2.19,2.19,0,0,0,1.54,1.17,2.41,2.41,0,0,0,2-.48A3.79,3.79,0,0,0,172,96.81a4,4,0,0,0-.2-2.74,2.33,2.33,0,0,0-1.65-1.21,2.24,2.24,0,0,0-1.93.48A4,4,0,0,0,167,95.73Z"/><path class="cls-60" d="M180.75,109.3l-2-.41a20.92,20.92,0,0,1-1.45-5.57,16.93,16.93,0,0,1,.17-5.27,16.33,16.33,0,0,1,2.21-5.58,20.75,20.75,0,0,1,3.18-3.91l2,.41A32.81,32.81,0,0,0,181.76,94a20.95,20.95,0,0,0-1.89,8.28,23.6,23.6,0,0,0,.19,3.64Q180.22,107.1,180.75,109.3Z"/><path class="cls-61" d="M184.86,97.42a10.06,10.06,0,0,1,1.51-3.84,7.42,7.42,0,0,1,1.87-1.84,6.16,6.16,0,0,1,2.28-1,8.7,8.7,0,0,1,3.47.06A7.44,7.44,0,0,1,199,94a9.69,9.69,0,0,1-2.34,11.8,8.32,8.32,0,0,1-11-2.18A8.18,8.18,0,0,1,184.86,97.42Zm3.25.54a5.93,5.93,0,0,0,.42,4.24,4.27,4.27,0,0,0,6.16,1.24,6.05,6.05,0,0,0,2-3.81,6,6,0,0,0-.37-4.21,4.42,4.42,0,0,0-6.23-1.23A6,6,0,0,0,188.11,98Z"/><path class="cls-62" d="M200.83,108.58l3.1-15.52,3.13.63-1.22,6.11L212,101l1.22-6.11,3.13.63-3.1,15.52-3.13-.63,1.36-6.78-6.14-1.23L204,109.2Z"/><path class="cls-63" d="M214.72,116.09q1.26-1.71,1.82-2.64a21.39,21.39,0,0,0,1.13-2.19,24.93,24.93,0,0,0,1-2.4,20,20,0,0,0,.63-2.39,20.82,20.82,0,0,0,.41-4.88,32.29,32.29,0,0,0-.9-5.85l2,.4a19.79,19.79,0,0,1,1.52,5.32,16,16,0,0,1-.15,5.35,18.12,18.12,0,0,1-1.65,4.6,20.44,20.44,0,0,1-3.73,5.08Z"/><path class="cls-64" d="M233.63,112.26l-.55,2.76-10.42-2.08a7.32,7.32,0,0,1,1.61-2.77,20.17,20.17,0,0,1,4.09-3.05,21.57,21.57,0,0,0,3-2,3.34,3.34,0,0,0,1-1.7,2.12,2.12,0,0,0-.23-1.64,2,2,0,0,0-1.37-.83,2,2,0,0,0-1.59.27,2.94,2.94,0,0,0-1,1.73l-2.9-.89a5,5,0,0,1,2.37-3.19,5.7,5.7,0,0,1,3.71-.37,5.14,5.14,0,0,1,3.36,2,4.14,4.14,0,0,1,.7,3.34,5.49,5.49,0,0,1-.77,1.92,8.23,8.23,0,0,1-1.59,1.74,19.28,19.28,0,0,1-2.34,1.59q-1.67,1-2.13,1.36a5.18,5.18,0,0,0-.77.7Z"/><path class="cls-65" d="M207.87,52.26l-15.41,2.39h0l.1,1a14.29,14.29,0,0,0,1.21,4,14.14,14.14,0,0,0,3.4,4.53Z"/><path class="cls-66" d="M114.1,121.4l.06-.18-14.88-4.57,3.4,14.87.79-.12A14.75,14.75,0,0,0,114.1,121.4Z"/><circle class="cls-67" cx="346.16" cy="63.01" r="2.08"/><circle class="cls-68" cx="254.83" cy="24.17" r="4.17"/><rect class="cls-69" x="84" y="358.37" width="336.53" height="2.56"/></svg>