<?xml version="1.0" encoding="utf-8"?>
<!-- Generator: Adobe Illustrator 21.0.2, SVG Export Plug-In . SVG Version: 6.00 Build 0)  -->
<svg version="1.1" id="圖層_1" xmlns="http://www.w3.org/2000/svg" xmlns:xlink="http://www.w3.org/1999/xlink" x="0px" y="0px"
	 viewBox="0 0 470.4 274.7" style="enable-background:new 0 0 470.4 274.7;" xml:space="preserve">
<style type="text/css">
	.st0{fill:#A8CCFF;}
	.st1{opacity:0.6;fill:#FFFFFF;enable-background:new    ;}
	.st2{fill:#5C9CF4;}
	.st3{fill:#DAE6FF;}
	.st4{opacity:0.5;fill:#C8DFFD;enable-background:new    ;}
	.st5{opacity:0.5;fill:#7798F8;enable-background:new    ;}
	.st6{opacity:0.3;}
	.st7{fill:#B8D0FC;}
	.st8{fill:#FF912B;}
	.st9{fill:#FC7600;}
	.st10{fill:#4B49F2;}
	.st11{fill:#C23B35;}
	.st12{fill:#1E3865;}
	.st13{fill:#25468F;}
	.st14{fill:#FFEBD8;}
	.st15{fill:#448DE8;}
	.st16{fill:#F9D0B3;}
	.st17{fill:#478BE0;}
	.st18{fill:#9CC3F8;}
	.st19{fill:#F99352;}
	.st20{fill:#FFAE73;}
	.st21{fill:#FDDBBA;}
	.st22{fill:#EB6600;}
	.st23{fill:#FFFFFF;}
	.st24{fill:#0B3563;}
	.st25{fill:#0D458E;}
	.st26{fill:#F1DDCB;}
	.st27{fill:#E8F2FA;}
	.st28{fill:#89B4FD;}
	.st29{fill:#F9924F;}
	.st30{fill:#F8CAA4;}
	.st31{fill:#D44B40;}
	.st32{fill:#2A3967;}
</style>
<g>
	<g>
		<g>
			<path class="st0" d="M172.7,235.9l-0.9-0.5c-0.9-0.5-1.2-1.6-0.7-2.6l3.9-7.2c0.5-0.9,1.6-1.2,2.6-0.7l1.2,0.7
				c0.2,0.1,0.2,0.3,0.1,0.5c-0.1,0.2-0.3,0.2-0.5,0.1l-1.2-0.7c-0.6-0.3-1.3-0.1-1.6,0.5l-3.9,7.2c-0.3,0.6-0.1,1.3,0.5,1.6
				l0.9,0.5c0.6,0.3,1.3,0.1,1.6-0.5l2.6-4.7c0.1-0.2,0.3-0.2,0.5-0.1s0.2,0.3,0.1,0.5l-2.6,4.7
				C174.8,236.1,173.6,236.4,172.7,235.9z"/>
		</g>
		<g>
			<path class="st0" d="M169.1,243.4l-1.5-0.8c-1.4-0.8-1.9-2.6-1.1-4.2l5.9-10.8c0.1-0.2,0.3-0.2,0.5-0.1c0.2,0.1,0.2,0.3,0.1,0.5
				l-5.9,10.8c-0.6,1.2-0.3,2.6,0.8,3.2l1.5,0.8c1.1,0.6,2.4,0.1,3.1-1.1l6.7-12.3c0.6-1.2,0.3-2.6-0.8-3.2
				c-0.2-0.1-0.2-0.3-0.1-0.5c0.1-0.2,0.3-0.2,0.5-0.1c1.4,0.8,1.9,2.6,1.1,4.2l-6.7,12.3C172.3,243.6,170.5,244.2,169.1,243.4z"/>
		</g>
	</g>
	<g>
		<path class="st1" d="M276.8,196.1H168.2c-26.4,0-47.9-21.4-47.9-47.9V69.8c0-26.4,21.4-47.9,47.9-47.9h108.6
			c26.4,0,47.9,21.4,47.9,47.9v78.5C324.7,174.7,303.3,196.1,276.8,196.1z"/>
		<path class="st2" d="M324.7,41.3H120.4l0,0c0-10.7,8.7-19.3,19.3-19.3h165.7C316.1,21.9,324.7,30.6,324.7,41.3L324.7,41.3z"/>
		<g>
			<circle class="st3" cx="130.9" cy="31.5" r="2.3"/>
			<circle class="st3" cx="140.6" cy="31.5" r="2.3"/>
			<circle class="st3" cx="150.3" cy="31.5" r="2.3"/>
		</g>
		<rect x="136.6" y="56.6" class="st4" width="57.9" height="57.9"/>
		<path class="st5" d="M256.3,60.9h-46.1c-1.2,0-2.2-1-2.2-2.2l0,0c0-1.2,1-2.2,2.2-2.2h46.1c1.2,0,2.2,1,2.2,2.2l0,0
			C258.5,59.9,257.5,60.9,256.3,60.9z"/>
		<path class="st5" d="M311.4,58h-46.1c-1.2,0-2.2-1-2.2-2.2l0,0c0-1.2,1-2.2,2.2-2.2h46.1c1.2,0,2.2,1,2.2,2.2l0,0
			C313.6,57,312.6,58,311.4,58z"/>
		<g class="st6">
			<path class="st7" d="M265.4,77.8h-56c-0.8,0-1.4-0.6-1.4-1.4l0,0c0-0.8,0.6-1.4,1.4-1.4h56c0.8,0,1.4,0.6,1.4,1.4l0,0
				C266.9,77.1,266.2,77.8,265.4,77.8z"/>
			<path class="st7" d="M286.7,77.8h-14.8c-0.8,0-1.4-0.6-1.4-1.4l0,0c0-0.8,0.6-1.4,1.4-1.4h14.8c0.8,0,1.4,0.6,1.4,1.4l0,0
				C288.1,77.1,287.5,77.8,286.7,77.8z"/>
			<path class="st7" d="M230.6,86.6h-21.1c-0.8,0-1.4-0.6-1.4-1.4l0,0c0-0.8,0.6-1.4,1.4-1.4h21.1c0.8,0,1.4,0.6,1.4,1.4l0,0
				C232,85.9,231.4,86.6,230.6,86.6z"/>
			<path class="st7" d="M264.8,86.6h-28.9c-0.8,0-1.4-0.6-1.4-1.4l0,0c0-0.8,0.6-1.4,1.4-1.4h28.9c0.8,0,1.4,0.6,1.4,1.4l0,0
				C266.2,85.9,265.6,86.6,264.8,86.6z"/>
			<path class="st7" d="M286.7,86.6h-14.8c-0.8,0-1.4-0.6-1.4-1.4l0,0c0-0.8,0.6-1.4,1.4-1.4h14.8c0.8,0,1.4,0.6,1.4,1.4l0,0
				C288.1,85.9,287.5,86.6,286.7,86.6z"/>
			<path class="st7" d="M238.1,94.2h-28.7c-0.8,0-1.4-0.6-1.4-1.4l0,0c0-0.8,0.6-1.4,1.4-1.4h28.7c0.8,0,1.4,0.6,1.4,1.4l0,0
				C239.5,93.5,238.9,94.2,238.1,94.2z"/>
			<path class="st7" d="M292.8,94.2H246c-0.8,0-1.4-0.6-1.4-1.4l0,0c0-0.8,0.6-1.4,1.4-1.4h46.9c0.8,0,1.4,0.6,1.4,1.4l0,0
				C294.3,93.5,293.6,94.2,292.8,94.2z"/>
		</g>
		<g class="st6">
			<path class="st7" d="M265.4,105.7h-56c-0.8,0-1.4-0.6-1.4-1.4l0,0c0-0.8,0.6-1.4,1.4-1.4h56c0.8,0,1.4,0.6,1.4,1.4l0,0
				C266.9,105.1,266.2,105.7,265.4,105.7z"/>
			<path class="st7" d="M286.7,105.7h-14.8c-0.8,0-1.4-0.6-1.4-1.4l0,0c0-0.8,0.6-1.4,1.4-1.4h14.8c0.8,0,1.4,0.6,1.4,1.4l0,0
				C288.1,105.1,287.5,105.7,286.7,105.7z"/>
			<path class="st7" d="M230.6,114.5h-21.1c-0.8,0-1.4-0.6-1.4-1.4l0,0c0-0.8,0.6-1.4,1.4-1.4h21.1c0.8,0,1.4,0.6,1.4,1.4l0,0
				C232,113.9,231.4,114.5,230.6,114.5z"/>
			<path class="st7" d="M264.8,114.5h-28.9c-0.8,0-1.4-0.6-1.4-1.4l0,0c0-0.8,0.6-1.4,1.4-1.4h28.9c0.8,0,1.4,0.6,1.4,1.4l0,0
				C266.2,113.9,265.6,114.5,264.8,114.5z"/>
		</g>
		<g>
			<path class="st7" d="M162.5,65.2h6l16.2,37h-6.8l-3.7-8.9h-17.4l-3.8,8.9h-6.6L162.5,65.2z M171.8,87.6l-6.3-14.7l-6.3,14.7
				H171.8z"/>
		</g>
		<g>
			<rect x="136.6" y="126.2" class="st8" width="32.4" height="6.2"/>
			<rect x="136.6" y="132.4" class="st9" width="32.4" height="6.2"/>
			<rect x="136.6" y="138.7" class="st10" width="32.4" height="6.2"/>
		</g>
		<g>
			<path class="st7" d="M192.8,129.7H175c-0.7,0-1.3-0.6-1.3-1.3l0,0c0-0.7,0.6-1.3,1.3-1.3h17.8c0.7,0,1.3,0.6,1.3,1.3l0,0
				C194.1,129.1,193.5,129.7,192.8,129.7z"/>
			<path class="st7" d="M186.8,134.5H175c-0.7,0-1.3-0.6-1.3-1.3l0,0c0-0.7,0.6-1.3,1.3-1.3h11.8c0.7,0,1.3,0.6,1.3,1.3l0,0
				C188.1,133.9,187.5,134.5,186.8,134.5z"/>
		</g>
		<g>
			<rect x="136.6" y="158.5" class="st8" width="32.4" height="12.8"/>
			<rect x="136.6" y="168.1" class="st11" width="32.4" height="9.1"/>
			<polygon class="st10" points="136.6,158.5 148.2,168.2 136.6,177.2 			"/>
		</g>
		<g>
			<path class="st7" d="M192.8,162H175c-0.7,0-1.3-0.6-1.3-1.3l0,0c0-0.7,0.6-1.3,1.3-1.3h17.8c0.7,0,1.3,0.6,1.3,1.3l0,0
				C194.1,161.4,193.5,162,192.8,162z"/>
			<path class="st7" d="M186.8,166.8H175c-0.7,0-1.3-0.6-1.3-1.3l0,0c0-0.7,0.6-1.3,1.3-1.3h11.8c0.7,0,1.3,0.6,1.3,1.3l0,0
				C188.1,166.2,187.5,166.8,186.8,166.8z"/>
		</g>
	</g>
	<g>
		<path class="st12" d="M326.8,37.7c0,0,0.8,10-1.4,9.9c-2.3-0.2-6.8-4.6-15.9-3.9s-20.3,2.7-27-9.2s8.6-15.4,8.6-15.4L326.8,37.7
			L326.8,37.7z"/>
		<polygon class="st13" points="307.4,37 353.3,40.8 354.3,38.7 310.2,6.2 265.8,1 264.9,2.8 		"/>
		<g>
			<path class="st8" d="M338.7,71.6c-0.3-0.9-1.3-1.5-2.2-1.2c-0.9,0.3-1.5,1.3-1.2,2.2s1.3,1.5,2.2,1.2
				C338.4,73.5,338.9,72.5,338.7,71.6L338.7,71.6z"/>
			<path class="st8" d="M337.1,72.1c1.8-0.1,2.3,16.6,2.3,16.6s-1.2,0.6-1.8,0.4c-0.6-0.1-0.9-2.4-0.9-2.4l-0.1,2.4
				c0,0-2,0.1-2.7-0.4C333.9,88.7,334.2,72.3,337.1,72.1L337.1,72.1z"/>
		</g>
		<polygon class="st8" points="337.7,72.4 337.4,35.8 337.2,35.6 313.2,17.9 312.3,19.1 336.1,36.6 336.6,72.4 		"/>
	</g>
	<g>
		<g>
			<g>
				<path class="st14" d="M364.5,245.3h-96.7V207h97.1c10.5,0,19,8.5,19,19l0,0C383.8,236.6,375.2,245.3,364.5,245.3z"/>
				<path class="st2" d="M470.4,222.7v5.8c0,3.1-0.8,6-2.1,8.5c-2.7,5-7.8,8.3-13.6,8.3h-190c-1.3,0-2.3-1.1-2.3-2.4V242
					c0-1.3,1-2.4,2.3-2.4h115.9c0.6-0.8,1.2-1.7,1.6-2.6c1.1-2.2,1.7-4.7,1.7-7.3v-7.3c0-1.3-0.2-2.7-0.5-3.9
					c-0.5-2.1-1.4-4-2.7-5.7h-116c-1.3,0-2.3-1.1-2.3-2.4v-0.9c0-1.3,1-2.4,2.3-2.4h191c6.7,0,12.4,4.8,14.2,11.4
					C470.2,219.7,470.4,221.2,470.4,222.7z"/>
				<path class="st15" d="M469.9,218.4h-86.5c-0.5-2.1-1.4-4-2.7-5.7h-116c-1.3,0-2.3-1.1-2.3-2.4v-0.9c0-1.3,1-2.4,2.3-2.4h191
					C462.4,206.9,468.1,211.8,469.9,218.4z"/>
			</g>
			<polygon class="st16" points="267.8,226.1 281.8,226.7 267.8,227.1 			"/>
			<polygon class="st16" points="267.8,232.1 301.2,232.8 267.8,233.1 			"/>
		</g>
		<g>
			<g>
				<g>
					<path class="st8" d="M254.1,275h98v-29.8h-98.9c-8,0-14.4,6.5-14.4,14.4l0,0C238.7,268.1,245.6,275,254.1,275z"/>
					<path class="st14" d="M348.4,275h111.8v-29.8H348.1c-8.1,0-14.7,6.6-14.7,14.7l0,0C333.3,268.3,340.1,275,348.4,275z"/>
					<path class="st8" d="M326,275h137.9c1.2,0,2.2-1,2.2-2.2l0,0c0-1.2-1-2.2-2.2-2.2H326c-1.2,0-2.2,1-2.2,2.2l0,0
						C323.8,274,324.8,275,326,275z"/>
					<path class="st8" d="M326,249.7h137.9c1.2,0,2.2-1,2.2-2.2l0,0c0-1.2-1-2.2-2.2-2.2H326c-1.2,0-2.2,1-2.2,2.2l0,0
						C323.8,248.7,324.8,249.7,326,249.7z"/>
				</g>
				<polygon class="st16" points="460.2,260.1 444.9,260.6 460.2,260.9 				"/>
				<polygon class="st16" points="460.2,253.2 423.6,253.7 460.2,254 				"/>
			</g>
			<g>
				<path class="st2" d="M424,253.6c0,0,1.6,1.3,2.1,3.4c0.1,0.4,0.2,0.8,0.2,1.2c0.1,2.8,0,9.1,0,9.1l4.6-3.2l4.6,3.2v-8.5
					c0-1.6-0.4-3.2-1.1-4.2c-0.4-0.5-0.8-0.9-1.3-0.9H424V253.6z"/>
				<path class="st17" d="M424,253.6c0,0,1.6,1.3,2.1,3.4l9.3,0.1c0,0-0.4-3-2.3-3.5H424z"/>
			</g>
		</g>
		<g>
			<g>
				<g>
					<path class="st14" d="M333.7,207h-91.4v-43.8h91.9c12,0,21.7,9.7,21.7,21.7l0,0C355.8,197.1,345.9,207,333.7,207z"/>
					<path class="st0" d="M355.9,180.2v9.4c0,4-1.9,7.5-4.6,9.4c-1.4,0.9-2.9,1.4-4.6,1.4H239.3c-1.3,0-2.3,1.2-2.3,2.7v1.1
						c0,1.5,1,2.7,2.3,2.7h185.5c5.3,0,10-3.2,12.9-8c1.8-3,2.8-6.8,2.8-10.8v-7.3c0-2.7-0.5-5.3-1.5-7.7c-2.4-5.9-7.4-10-13.3-10
						H239.3c-1.3,0-2.3,1.2-2.3,2.7v1.1c0,1.5,1,2.7,2.3,2.7H347c2.6,0,4.9,1.3,6.5,3.4C355,175,355.9,177.5,355.9,180.2z"/>
					<path class="st18" d="M237,203.2v1.1c0,1.5,1,2.7,2.3,2.7h185.5c5.3,0,10-3.2,12.9-8h-86.4c-1.4,0.9-2.9,1.4-4.6,1.4H239.3
						C238,200.5,237,201.7,237,203.2z"/>
				</g>
				<polygon class="st16" points="242.3,185.1 256.1,185.8 242.3,186.3 				"/>
				<polygon class="st16" points="242.3,175 275,175.7 242.3,176.2 				"/>
			</g>
			<g>
				<path class="st8" d="M274.7,175.6c0,0-2.2,1.4-2.9,3.7c-0.1,0.4-0.2,0.8-0.2,1.3c-0.1,3,0,9.9,0,9.9l-6.4-3.4l-6.4,3.4v-9.3
					c0-1.8,0.5-3.5,1.6-4.6c0.5-0.5,1.1-1,1.8-1L274.7,175.6L274.7,175.6z"/>
				<path class="st9" d="M274.7,175.6c0,0-2.2,1.4-2.9,3.7l-12.8,0.1c0,0,0.5-3.3,3.1-3.8H274.7z"/>
			</g>
		</g>
	</g>
	<g id="girl_2_2_">
		<path class="st19" d="M111.7,203.1c0,0,20,8.7,23.6,8.6c3.6-0.2,26-6.8,26-6.8l-0.6,3.8c0,0-17.3,9.9-23.3,10.5
			c-5.9,0.6-26.2-5.3-28.2-6.6S106,204.4,111.7,203.1z"/>
		<path class="st12" d="M108.7,171.1c0,0-7.4-1.4-11,1.3c-6.7,4.9-7,21.6-9.5,24.1s-8.5,1.4-9,14.3c-0.5,12.9,2.4,14-1.1,19.8
			s1.5,11.5,1.5,11.5s-2-3.2-1.2-5.5c0,0,0.8,5.1,4.1,6.3c3.2,1.2,3.7,2.1,4.2,3.8c0,0,27.5-14.1,27.5-24.1s5.4-19.9,2.8-24.2
			c0,0,1.2,1.9,1.3,3.9c0,0,1.6-3-1.2-5.9c-2.7-2.8,3.2-8.7,2.3-15.4C118.8,176.4,115.5,171.3,108.7,171.1z"/>
		<path class="st20" d="M114.1,212.6c-1.8,1.2-4,2.2-6.7,2.9c-10.4,2.4-14.3-6.4-15.8-12.4c1.4-0.8,2.7-1,3.5-1.1
			c0.7-0.1,1.5-0.1,2.2-0.2c1.2-0.9,2.9-4.5,3.3-10.2l0.5,0.1l8.2,2.2c0,0-0.4,2.6-0.6,5c-0.1,1.9-0.2,3.8,0.2,4.2
			c0.6,0.1,1,0.2,1,0.2l0,0C110,203.7,112.4,207.6,114.1,212.6z"/>
		<path class="st19" d="M109.2,194c0,0-0.4,2.6-0.6,5c-4.6-0.5-6.8-4.9-7.6-7.3L109.2,194z"/>
		<path class="st20" d="M110.6,196.5c0,0-11-0.6-10.5-7.4c0.5-6.8-0.6-11.5,6.4-11.4s8.2,2.8,8.6,5.1
			C115.5,185.1,113.5,196.5,110.6,196.5z"/>
		<path class="st12" d="M115.1,178.9c-1.5-2.2-2.9-1.8-3.6-1.3c-5.8-3.7-10,0.9-10,0.9c-1.1,4.8-4.8,7.4-4.8,7.4s1.9,1.4,6.6,0.5
			c1.4-0.3,2.8-1.2,3.9-2.3c-2.1,3-4.8,5.1-4.8,5.1c5.7-2.1,8.4-9.6,8.7-10.4c0.6,0.6,1.9,2,2.2,3.4c0.4,1.8,2.2,4.6,3.3,4.5
			C116.6,186.7,117.4,182.2,115.1,178.9z"/>
		<path class="st21" d="M88.5,235c-1-5.1-4.2-25.3-1-31.8c1.2-2.3,5.7-2.6,10.7-2.3c1.6,1,7.5,4.8,9.9,4.3h0.1
			c1.1-0.3,1.6-1.1,0.6-1.8c0,0,2.5-0.2,5.5,0.3c1.7,0.3,6.4,2.8,6.4,2.8s-2.4,4.3-5.8,5.7c0.6,5.3-0.3,7.6-5.8,19.8
			c-4.6,10.3,0.6,19.6,0.6,19.6s-27.3,21.9-27.4,10.8C82.3,253.9,89.7,241.4,88.5,235z"/>
		<path class="st22" d="M111.2,275.4c1.5-0.2,2.8-1,3.7-2.2c0.1-0.2,0.3-0.4,0.4-0.6c3.1-4.7,4.3-19.1,11.3-34.5
			c1.7-3.7,7.8-4.4,9.5-8.6c0,0,4.1-13.7-7.8-14.1c-12-0.4-32,38.1-32.3,42.1C95.6,261.4,88,278.1,111.2,275.4z"/>
		<path class="st12" d="M158.7,275.1h-17c0,0-0.6-2.7,0.5-4.6c1-1.6,0.6-2.6-0.1-3.9c0.8,0.3,1.8,0.6,2.9,0.5c0.8,0,1.7-0.4,2.5-0.9
			c0.7,0.8,3.9,4.4,4.8,5.1C153.4,272.2,158.4,271.9,158.7,275.1z"/>
		<path class="st9" d="M136.4,219.4c1,7.7,5,31.9,12.1,43.7c2.3,3.8-5.7,5.9-5.8,5.9c-1.1-0.3-2.9-2-3.7-2.7
			c-5.7-5.2-17.4-19.8-17.4-31.5c0-5.7-0.1-16.6,4.1-19.4C128.3,213.7,136,216.3,136.4,219.4z"/>
		<path class="st8" d="M101.1,275.1c0,0,0.6-0.9,1.7-2.5c1.3-2,2.8-5.9,4.5-10.9c1.8-5.2,4-11.7,6.8-18.4c0.8-2.1,1.7-4.2,2.7-6.3
			c1.7-3.7,6.4-3.2,8.1-7.4c0,0,6.5-14.6-5.4-15c-12-0.4-34.7,39.2-36,43C82,261.7,75,279.1,101.1,275.1z"/>
		<path class="st13" d="M146.2,275.1h-17c0,0-0.6-2.7,0.5-4.6c1-1.6,0.6-2.6-0.1-3.9c0.8,0.3,1.8,0.6,2.9,0.5c0.8,0,1.7-0.4,2.5-0.9
			c0.7,0.8,3.9,4.4,4.8,5.1C140.9,272.2,145.9,271.9,146.2,275.1z"/>
		<path class="st9" d="M107.3,261.7c1.8-5.2,4-11.7,6.8-18.4c-0.7-5.1-2.3-9.5-4.8-11.3C109.2,232,102.9,251.4,107.3,261.7z"/>
		<path class="st8" d="M126.5,218.8c1,7.7,2.5,32.5,9.5,44.3c2.3,3.8-5.7,5.9-5.8,5.9c-1.1-0.3-2.9-2-3.7-2.7
			c-5.7-5.2-17.4-19.8-17.4-31.5c0-5.7,6.7-16.2,10.9-18.9C122.6,214.2,126.1,215.8,126.5,218.8z"/>
		<path class="st23" d="M112.7,192.5c0,0-1-0.4-4-0.2c0,0,0.2,1.1,2.3,1.3C112.2,193.7,112.7,192.5,112.7,192.5z"/>
		<g>
			<g>
				<polygon class="st24" points="163.4,196.8 159.9,190.5 152.3,211.7 156.8,216.6 				"/>
				<polygon class="st25" points="145,200.6 137.9,220.8 156.8,216.6 163.4,196.8 				"/>
				<polygon class="st26" points="138.3,219.8 138,219.2 144.7,200 145,200.6 				"/>
				<polygon class="st14" points="144.7,200 162.6,196.6 163.4,196.8 145,200.6 				"/>
			</g>
			<polygon class="st26" points="163.4,196.8 159.6,190.8 157.2,197.6 162.6,196.6 			"/>
		</g>
		<path class="st20" d="M150.5,203.5c-0.6-0.1-1.9-0.6-3.3-1c0.4-0.3,0.8-0.7,1-1.1c0.2-0.8,0.4-1-0.4-0.8c-0.8,0.2-3.6,1.5-3.6,1.5
			l0,0c-1.6,0.5-3,2.7-3,2.7s-19.5,6.9-21.8,7c-3.6,0.2-27.8-8.7-27.8-8.7c-5.7,1.3-4.4,8.3-2.5,9.5c2,1.2,19.3,7.6,29.6,7.7
			c5.2,0.1,24.2-12.1,24.2-12.1s2.2-1,4-0.7c1.7,0.3,5.8,0,6.7-1.4C154.4,204.6,151.5,203.7,150.5,203.5z"/>
		<path class="st21" d="M104,207.5c0,0-2.2,6.8-9.6,8.4c0,0-12.2-3.8-6.1-12.1C88.3,203.8,94.3,199.3,104,207.5z"/>
		<path class="st20" d="M163.1,204L163.1,204c0-0.2,0-0.4-0.1-0.6c0,0-1.7-2.8-2.3-2.9c-1.7-0.3-1.7,2-1.4,3.4c0.3,1,0.9,2,1.4,2.6
			l0,0l-0.1,2.2C163.7,207.1,163.1,204,163.1,204z"/>
	</g>
	<g>
		<path class="st27" d="M60.8,167.9c0.7-17.2-13.7-24.9-28.5-24.9s-30.8,3.8-32.2,26.7c-0.9,14.7,7,23.8,29.6,23.8
			c7.6,0,13.6-1.2,18.1-3.3l11.3,10l-5.6-13.9C58.4,181.8,60.5,175.4,60.8,167.9z"/>
		<g>
			<path class="st28" d="M21.1,162.2v4h2.6v-4h1.1v9.4h-1.1v-4.4h-2.6v4.4H20v-9.4H21.1z"/>
			<path class="st28" d="M27.1,168.3c0,2.1,0.8,2.5,1.6,2.5c0.5,0,0.8-0.1,1.1-0.3l0.2,0.8c-0.4,0.2-0.9,0.3-1.5,0.3
				c-1.6,0-2.5-1.3-2.5-3.4c0-2.2,0.9-3.5,2.3-3.5s1.9,1.4,1.9,3c0,0.3,0,0.4,0,0.6L27.1,168.3L27.1,168.3z M29.2,167.5
				c0-1.3-0.5-1.9-1-1.9c-0.7,0-1.1,1-1.1,1.9H29.2z"/>
			<path class="st28" d="M31.4,161.9h1.1v9.6h-1.1V161.9z"/>
			<path class="st28" d="M34,161.9h1.1v9.6H34V161.9z"/>
			<path class="st28" d="M40.8,168.2c0,2.6-1.2,3.5-2.2,3.5c-1.2,0-2.2-1.1-2.2-3.5c0-2.5,1.1-3.5,2.3-3.5
				C39.9,164.7,40.8,165.8,40.8,168.2z M37.5,168.2c0,1.1,0.2,2.6,1.2,2.6c0.9,0,1.1-1.6,1.1-2.6s-0.2-2.6-1.1-2.6
				C37.7,165.6,37.5,167.1,37.5,168.2z"/>
		</g>
	</g>
	<g>
		<path class="st28" d="M356.6,116.2c0.6-15.8-12.6-22.7-26.1-22.7S302.3,97,301,117.9c-0.8,13.5,6.4,21.8,27,21.8
			c7,0,12.4-1.1,16.5-3.1l10.5,9.2l-5.1-12.7C354.4,128.9,356.3,123,356.6,116.2z"/>
		<g>
			<path class="st23" d="M314.9,113.5c0.4-0.1,0.8-0.2,1.3-0.2c0.7,0,1.3,0.2,1.8,0.6c0.3,0.3,0.5,0.8,0.5,1.4
				c0,0.8-0.4,1.4-1.2,1.8l0,0c0.9,0.2,1.5,1,1.5,2c0,0.7-0.2,1.2-0.6,1.6c-0.4,0.5-1.2,0.7-2.1,0.7c-0.6,0-0.9,0-1.2-0.1
				L314.9,113.5L314.9,113.5z M315.8,116.7h0.4c0.7,0,1.4-0.6,1.4-1.4c0-0.7-0.3-1.3-1.3-1.3c-0.2,0-0.4,0-0.5,0.1V116.7z
				 M315.8,120.6c0.1,0,0.3,0,0.5,0c0.9,0,1.5-0.6,1.5-1.6c0-1.1-0.8-1.6-1.6-1.6h-0.4V120.6z"/>
			<path class="st23" d="M323.3,118.4c0,2.2-1,2.9-1.9,2.9c-1,0-1.8-0.9-1.8-2.9c0-2.1,0.9-2.9,1.9-2.9S323.3,116.5,323.3,118.4z
				 M320.5,118.4c0,0.9,0.2,2.2,1,2.2s0.9-1.3,0.9-2.2s-0.2-2.2-1-2.2C320.6,116.2,320.5,117.6,320.5,118.4z"/>
			<path class="st23" d="M324.3,117.1c0-0.7,0-1,0-1.5h0.8v0.7l0,0c0.2-0.5,0.7-0.8,1.3-0.8c0.8,0,1.4,0.6,1.4,2v3.8h-0.9v-3.7
				c0-0.7-0.1-1.4-0.8-1.4c-0.4,0-0.7,0.3-0.8,0.9c0,0.1,0,0.3,0,0.5v3.6h-0.9v-4.1H324.3z"/>
			<path class="st23" d="M328.1,122.9c0.3-0.1,0.6-0.2,0.8-0.4c0.2-0.3,0.3-0.7,0.3-1.8v-5.1h0.9v5.3c0,1.2-0.2,1.8-0.6,2.2
				c-0.3,0.4-0.9,0.5-1.2,0.5L328.1,122.9z M330.1,114.1c0,0.4-0.2,0.6-0.5,0.6s-0.5-0.2-0.5-0.6s0.2-0.6,0.5-0.6
				S330.1,113.8,330.1,114.1z"/>
			<path class="st23" d="M334.8,118.4c0,2.2-1,2.9-1.9,2.9c-1,0-1.8-0.9-1.8-2.9c0-2.1,0.9-2.9,1.9-2.9S334.8,116.5,334.8,118.4z
				 M332,118.4c0,0.9,0.2,2.2,1,2.2s0.9-1.3,0.9-2.2s-0.2-2.2-1-2.2C332.1,116.2,332,117.6,332,118.4z"/>
			<path class="st23" d="M339.2,119.7c0,0.6,0,1.1,0,1.6h-0.8l-0.1-0.6l0,0c-0.2,0.3-0.6,0.7-1.2,0.7c-1,0-1.4-0.8-1.4-2.2v-3.6h0.9
				v3.5c0,0.9,0.1,1.6,0.8,1.6c0.5,0,0.8-0.5,0.8-0.8c0-0.2,0-0.3,0-0.5v-3.8h0.9v4.1C339.1,119.7,339.2,119.7,339.2,119.7z"/>
			<path class="st23" d="M340.5,117.1c0-0.5,0-1,0-1.5h0.8v0.9l0,0c0.2-0.5,0.7-1,1.2-1c0.1,0,0.1,0,0.2,0v0.9c-0.1,0-0.1,0-0.2,0
				c-0.6,0-1,0.5-1.1,1.2c0,0.2,0,0.3,0,0.5v3.2h-0.9V117.1z"/>
		</g>
	</g>
	<g>
		<path class="st12" d="M352.4,199.3c3.2,5.7,7.3,7.9,7.3,7.9l17,0.1C376.6,207.3,349.9,195,352.4,199.3z"/>
		<g>
			<path class="st20" d="M365.1,243.1c0.4,0.5,0.5,1.1,0.3,1.7l0,0c-0.4,1.1-1.8,2.4-3.3,3.6c-0.2,0.2-0.4,0.3-0.5,0.4l-0.1,0.1
				l-0.1,0.1c-1.5,1.3-0.9,1.6-3.5,4.3c-3,3.1-5,3.1-5.6,2.8c-0.5-0.2,0.5-1.9,1.6-3.7c0.1-0.1,0.1-0.2,0.2-0.3
				c0.1-0.2,0.3-0.5,0.4-0.7c1.3-2.2,1-3.2,0.7-6.5c-0.2-2.7-4.1-15-4.1-15l5.7-0.9c0,0,1.6,9.8,3.5,11.3c1,0.8,2.1,0.8,3.1,1.4
				c0.1,0,0.1,0.1,0.2,0.1C364.1,242.2,364.7,242.6,365.1,243.1z"/>
			<path class="st12" d="M365.1,243.1c0.4,0.5,0.5,1.1,0.3,1.7l0,0c-0.5,1.1-1.8,2.3-3.3,3.6c-0.2,0.2-0.4,0.3-0.5,0.4l-0.1,0.1
				l-0.1,0.1c-1.5,1.3-0.9,1.6-3.5,4.3c-3,3.1-5,3.1-5.6,2.8c-0.5-0.2,0.5-1.9,1.6-3.7c0.6-0.2,3.3-1.3,5.3-3.9
				c1.8-2.3,3-5.2,4.2-6.9c0.1,0,0.1,0.1,0.2,0.1C364.1,242.2,364.7,242.6,365.1,243.1z"/>
			<path class="st20" d="M319.3,239.2c-0.4,1.8-2.9,1.4-5.7,0.7c-2.8-0.7-2.1,0.1-6.1-0.4s-5.2-2-5.3-2.6c-0.1-0.5,1.9-0.7,4-0.9
				c0.3,0,0.5-0.1,0.8-0.1c2.4-0.3,4.1-1.8,6.3-3.1c2.1-1.2,5.1-6,5.1-6l5.5,0.5c0,0-2.9,4.3-4,6.2c-0.7,1.1-0.6,2.6-0.6,3.7
				C319.4,238,319.4,238.6,319.3,239.2z"/>
			<path class="st12" d="M313.6,239.9c-2.8-0.7-2.1,0.1-6.1-0.4s-5.2-2-5.3-2.6c-0.1-0.5,1.9-0.7,4-0.9l0,0c0,0,2.4,1.7,5.7,1.8
				c2.7,0.1,5.6-0.7,7.4-0.6c0,0.6,0.1,1.2-0.1,1.9C318.9,241,316.4,240.6,313.6,239.9z"/>
			<path class="st12" d="M340.4,204.5l5,13.8l6.5,18c0,0,1.8,0.2,3.5-0.3c1.6-0.4,3.4-1.6,3.4-1.6s-1.7-19.3-5.1-30.3
				c-0.9-2.8-1.8-5.1-2.9-6.4C345.6,191.1,340.4,204.5,340.4,204.5z"/>
			<path class="st13" d="M345.8,182.7c3.3-1.1,12.9,0.4,22.4,2.3l2-3.3l20.7-1.5c0,0,6.7,15.2,2.9,24.8c-0.6,1.4-1.9,2-3.8,2l0,0
				c0,0-12.3,0.2-16.3,0.2c-10.3-0.1-21.7-7.2-23.2-7.5c-2.4-0.5-3.4,4.4-5.9,9.4c-2.5,5.1-23,22.4-23,22.4s-3.1,0-4.4-0.5
				c-1.4-0.5-1.9-1.2-1.9-1.2S338.2,185.1,345.8,182.7z"/>
			<path class="st12" d="M370.6,153.3c7.3,4.1,22.2,12.6,22.3,12.6c0,0,5.5,2.1,8.6,0.1c5.2-3.4,8.1-12.7-1.4-20.7
				c-4.7-4-8.1-5-8.5-11.4c-0.3-3.5-4.9-14.9-12.7-13.9c-0.7,0.1-1.3,0.1-2,0.1c-0.9,0-2.4,0.1-4,1
				C368.4,123.7,359.5,151.6,370.6,153.3z"/>
			<path class="st20" d="M376.7,149.9c0,0,3.6,1.3,6.1,0.2c2.3-1,4.1-4.8,4-4.8c-1-0.1-2.2-1-3-7l-0.4,0.2l-7.5,2.6
				c0,0,0.5,2.4,0.9,4.7C377,147.8,377.2,149.6,376.7,149.9z"/>
			<path class="st29" d="M375.9,141.1c0,0,0.3,1.7,0.8,4.1c4.3-0.7,6.1-4.4,6.7-6.7L375.9,141.1z"/>
			<path class="st20" d="M374.7,143.5c0,0,10.3-1.3,9.3-7.7c-0.9-6.4-0.2-10.8-6.8-10.3c-6.6,0.6-7.5,3.2-7.7,5.4
				C369.4,133.2,372,143.7,374.7,143.5z"/>
			<path class="st12" d="M370,127.5c0,0,6.5,5.7,11,6.2s6.2-0.9,6.2-0.9s-2.6-2.2-4.2-5.7c-0.5-1-1.4-1.8-2.6-1.9
				C377.2,124.8,371.1,124.6,370,127.5z"/>
			<path class="st12" d="M374.1,127c0,0-2.2,2.1-2.9,3.7c-0.7,1.5-0.9,5.1-0.4,6.6c0,0-3.4-6.7-1.4-9.9
				C371.4,124,374.1,127,374.1,127z"/>
			<path class="st21" d="M368,164.9c0.2,20.7,0,16.4,2.2,18.4c0.5,0.5,2.1,0.8,4.1,0.9c6.4,0.5,17.5-0.5,18-1.7
				c1.5-4.1,0.5-5.3,1.7-11.5c0.1-0.7,0.3-1.4,0.5-2.2c1.1-4.3,2.1-5.7-1.5-12.6c-3.2-6.2-6.6-11.3-6.9-11.1
				c-8.7,5.1-9.4,0.8-9.4,0.8S367.9,154.8,368,164.9z"/>
			<path class="st13" d="M345.4,218.2l6.5,18c0,0,1.8,0.2,3.5-0.3c1.6-0.4,3.4-1.6,3.4-1.6s-1.7-19.3-5.1-30.3L345.4,218.2z"/>
			<path class="st21" d="M376.7,145.8c0,0-8.9,1.4-10,5.3c-1.1,3.8-7.4,26.3-7.4,26.3s4.5,0.8,6.6-1.2c2.1-2.1,7.4-19.4,7.4-19.4
				L376.7,145.8z"/>
			<path class="st30" d="M374.3,184.2c6.4,0.5,17.5-0.5,18-1.7c1.5-4.1,0.5-5.3,1.7-11.5l-3-8.7c0,0,0.4,9.6-2.4,12.1
				c-2.9,2.5-11.6,4.8-13,6.9C374.9,182.4,374.5,183.4,374.3,184.2z"/>
			<path class="st20" d="M381.7,180.2c0,0-6.3-1.4-7.3-0.9s-3.5,2.6-3.8,3.3s2.3-0.5,3.1-0.7c0.5-0.1,2,0.4,2.7,0.6
				c3,1,4.8,0.5,4.8,0.5L381.7,180.2z"/>
			<path class="st21" d="M386.1,145.1c0,0,8.4,0.6,11.3,4.7c4.1,5.8,12,30.2,7.3,33.4c-5.3,3.6-23.9,0.8-23.9,0.8s-0.6-2.9,0.3-4.3
				c0.9-1.4,14.9-3.6,15.6-4.2c0.7-0.6-8-12.7-8-14.6C388.7,158.9,386.1,145.1,386.1,145.1z"/>
			<path class="st20" d="M374.1,181.1c0,0-1.3,1.7-1.8,1.9c-0.4,0.2-0.7,0.1-0.7,0.1l0.9-1.6L374.1,181.1z"/>
			<path class="st20" d="M374.4,179.3l-3.8,1.8c0,0,0.2,0.3,0.6,0.2c0.5,0,1.7-0.4,1.7-0.4L374.4,179.3z"/>
		</g>
		<g>
			<g>
				<polygon class="st8" points="373.1,185.7 342.9,185.5 333.9,162.8 364.1,163 				"/>
				<polygon class="st9" points="342.5,184.6 382.5,184.9 382.5,185.8 342.9,185.5 				"/>
			</g>
			<path class="st23" d="M350.6,174.2c-0.2-0.8,0.2-1.4,1-1.4s1.6,0.7,1.8,1.5c0.2,0.8-0.2,1.4-1,1.4S350.8,175,350.6,174.2z"/>
		</g>
	</g>
	<g>
		<rect x="189.4" y="257" class="st31" width="91.9" height="18.3"/>
		<path class="st14" d="M189.4,275.3l-13.5-5.8l-7.9-3.4l8-3.4l13.3-5.7c0,0,1.8,4.4,1.8,8.6C191.2,272.3,189.4,275.3,189.4,275.3z"
			/>
		<path class="st14" d="M291.9,263.1v5.8c0,3.6-2.9,6.4-6.4,6.4h-4.2V257h4.6C289.2,257.1,291.9,259.8,291.9,263.1z"/>
		<path class="st13" d="M176.1,262.8c0.3,1.8,0.6,4.7-0.2,6.8l-7.9-3.4L176.1,262.8z"/>
	</g>
	<g>
		<path class="st8" d="M209.1,162c0,0,1.6,7.1,6.4,7.1c4.1,0,9.8-9.3,9.8-9.3L209.1,162z"/>
		<path class="st13" d="M264.2,267.4l-3.1,2.1c0,0-14.8-15.8-18.4-30.9c-0.6-2.7-0.9-5.4-0.6-7.9c0,0-0.2-0.7-0.6-1.9
			c0-0.1,0-0.1-0.1-0.2c-0.2-0.5-0.4-1.2-0.6-1.9c-0.7-2.3-1.7-5.4-2.8-9c-2.6-8.2-8.5-26.7-11-34.4l18.2-6.6c0,0,2.1,4.7,5,17.5
			c0.5,1.7,0.9,3.5,1.3,5.5c0.5,2.3,0.9,4.8,1.3,7.5c0.6,4.6,1.1,9.7,1.1,15.3c0,2.3,0,4.7-0.2,7.1c-0.1,1.8,0.2,4.2,0.7,6.9
			C256.7,249.2,264.2,267.4,264.2,267.4z"/>
		<path class="st12" d="M273.9,275.1h-14.7c0,0-0.5-2.3,0.4-3.9c0.9-1.4,0.5-2.2-0.1-3.4c0.7,0.3,1.5,0.5,2.5,0.5
			c0.7,0,1.5-0.4,2.2-0.8c0.6,0.7,3.3,3.8,4.2,4.4C269.3,272.5,273.6,272.3,273.9,275.1z"/>
		<path class="st12" d="M252.9,207.4l-11.4,21.3c-0.2-0.5-0.4-1.2-0.6-1.9c-0.7-2.3-1.7-5.4-2.8-9c-2.6-8.2-8.5-26.7-11-34.4
			l18.2-6.6c0,0,2.1,4.7,5,17.5c0.5,1.7,0.9,3.5,1.3,5.5C252,202.2,252.5,204.7,252.9,207.4z"/>
		<path class="st12" d="M226.7,270.4c0,0-1,2.5-0.1,4.6h8c0,0,0.2-1.9-2.7-4.1C229.7,269.3,226.7,270.4,226.7,270.4z"/>
		<path class="st32" d="M235.4,107.8c0-0.4,0.2-4.7,6.7-5.1c0,0-3.2,0.5-3.7,1.9c0,0,2.1-1.8,3.9-1.3c1.8,0.5,2.9,3.6,3,4.6
			c0,1-0.9,4.4-2,4.7c-0.4,0.1-0.9,0.1-1.4,0c0.3,0.5,0.6,1,0.9,1.5c2.7,5.3,0.4,11.5-1.8,11c-1.4-0.3-2.3,2.1-2.3,2.1L225,115.6
			C225,115.6,229.8,105,235.4,107.8z"/>
		<path class="st20" d="M226.8,143.6c1.5,1.1,3.4,1.9,5.8,2.5c9,2.1,12.4-5.5,13.7-10.7c-1.2-0.7-2.4-0.9-3-0.9
			c-0.6-0.1-1.3-0.1-1.9-0.2c-1-0.8-2.5-3.9-2.8-8.8l-0.4,0.1l-7.1,1.9c0,0,0.3,2.2,0.5,4.4c0.1,1.7,0.1,3.2-0.2,3.6
			c-0.6,0.1-0.9,0.2-0.9,0.2l0,0C230.4,135.9,228.3,139.2,226.8,143.6z"/>
		<path class="st19" d="M231,127.5c0,0,0.3,2.2,0.5,4.4c4-0.4,5.9-4.2,6.6-6.3L231,127.5z"/>
		<path class="st20" d="M230.9,130.9c0,0,9.2-2.4,7.6-8.1c-1.6-5.7-1.4-9.9-7.4-8.6c-5.9,1.3-6.5,3.8-6.4,5.8
			C224.9,122,228.5,131.3,230.9,130.9z"/>
		<path class="st32" d="M224.2,116.7c0.9-2.1,2.1-2,2.9-1.7c4.3-4.1,8.6-0.9,8.6-0.9c1.7,3.9,5.3,5.5,5.3,5.5s-1.4,1.5-5.5,1.6
			c-1.3,0-2.5-0.5-3.7-1.3c2.3,2.2,4.9,3.5,4.9,3.5c-5.2-0.9-8.8-6.8-9.2-7.4c-0.4,0.7-1.2,2.1-1.3,3.2c-0.1,1.6,0.6,4.6-0.3,4.8
			C225.9,123.9,222.8,119.9,224.2,116.7z"/>
		<path class="st20" d="M228.3,135.2c0,0,15.5-3.8,22.2,1.8l-3.4,46.9l-30.2-7.3c0,0,0.9-3,6.7-10.9
			C229.3,157.8,226.8,146.3,228.3,135.2z"/>
		<path class="st13" d="M237.3,178.7c0,0,0,0.2,0,0.5c0,0.1,0,0.3-0.1,0.5c-0.1,1.2-0.4,3.5-0.7,6.6c-0.8,7.9-2.1,20.7-3,30.8
			c-0.7,7.9-1.1,14.1-0.9,15.1c0.7,3,0,39,0,39c-2.6,1.2-6.5,0-6.5,0s-6.8-32.5-5.9-37c1-4.5-0.6-8.4-0.6-8.4
			c-5.3-24.8-4.7-38.5-3.7-45.1c0.3-1.9,0.7-3.2,0.9-4c0.2-0.7,0.4-1,0.4-1C228.9,172.6,237.3,178.7,237.3,178.7z"/>
		<path class="st8" d="M252.6,150.4c-0.7,5.6-3.7,12.5-4.8,16.3c0,0,1.8,12.9,0.1,16.4c-0.2,0.4-0.4,0.7-0.7,0.8
			c-6.3,2.7-30.9,0.1-31.9-7.8c-0.4-2.9,9.4-13,9.9-14.2c0.2-0.5,0.5-2.2-0.7-5.6c-1.6,5-10.5,3.6-10.5,3.6c1-1.8,3.7-14.2,6.6-19.8
			c2.2-4.2,8-4.8,8-4.8s2.4,3.9,8.3,3.3c5.9-0.5,7-4.2,7-4.2s5.2,0.7,6.8,2C251,136.6,253.6,143,252.6,150.4z"/>
		<path class="st9" d="M247.8,166.6c0,0,1.8,12.9,0.1,16.4c-4.6-2.3-8.2-8.5-7.4-15.5c0.6-5.1,1.5-6.3,4.3-9.2
			c2-2.2,6.7-2.3,6.3-1.3C250,160.1,248.3,164.7,247.8,166.6z"/>
		<g>
			<polygon class="st25" points="228.6,151.4 239.1,168.3 221.2,168.3 211.2,151.8 			"/>
			<polygon class="st26" points="238.6,167.4 238.8,166.8 228.8,150.9 228.6,151.4 			"/>
			<polygon class="st14" points="228.8,150.9 211.9,151.3 211.2,151.8 228.6,151.4 			"/>
			<polygon class="st24" points="211.2,151.8 201.7,146.6 212.7,164 221.2,168.3 			"/>
		</g>
		<path class="st20" d="M261.3,163.6c-1,0.5-3.6,3.5-4.5,3.8c-4.2,1.4-22-2.3-22-2.3l0.6-3.1c0,0,17.5,0.5,19.4,0
			c0.4-0.1,2.2-3,3-3.5L261.3,163.6z"/>
		<path class="st20" d="M235.3,162c0,0-2.1-1.7-3.5-1.3s-3.5,2.2-4.3,2.6c-0.8,0.4-2.9,1.9-1.8,2.9c1.1,0.9,4.4,0.1,5.7-0.6
			c1.3-0.7,3.4-0.5,3.4-0.5L235.3,162z"/>
		<path class="st20" d="M232.2,160.6c0,0-2.6-0.3-3.3-0.3s-0.5,0.2-0.1,0.7s1.7,0.7,1.8,0.9C230.7,162.2,232.2,160.6,232.2,160.6z"
			/>
		<path class="st8" d="M243.9,134.3c0,0,7.6,0.9,9.7,4.2c2.6,4.1,8.9,20.5,8.7,24.6c0,0-4.6,7.8-20.2,6.5c0,0-1.6-5.7,1.7-7.6
			c0,0,8-1.4,8.9-2.2l-6.5-11.9L243.9,134.3z"/>
		<path class="st20" d="M213.6,157.9c-0.2-1-2.3-0.4-3,0.2c-0.2,0.1-0.4,0.4-0.5,0.6c0-0.2,0-0.3-0.1-0.4c0-0.4-0.6-1.3-0.7-0.7
			c-0.1,0.6-0.3,3.1-0.3,3.1c0,2,1.3,2.9,2.1,2.2C211.9,162.3,213.8,158.9,213.6,157.9z"/>
	</g>
</g>
</svg>
