<?xml version="1.0" encoding="utf-8"?>
<!-- Generator: Adobe Illustrator 21.0.2, SVG Export Plug-In . SVG Version: 6.00 Build 0)  -->
<svg version="1.1" id="圖層_1" xmlns="http://www.w3.org/2000/svg" xmlns:xlink="http://www.w3.org/1999/xlink" x="0px" y="0px"
	 viewBox="0 0 494.6 303.2" style="enable-background:new 0 0 494.6 303.2;" xml:space="preserve">
<style type="text/css">
	.st0{fill:#A8CCFF;}
	.st1{opacity:0.6;fill:#FFFFFF;enable-background:new    ;}
	.st2{fill:#5C9CF4;}
	.st3{fill:#DAE6FF;}
	.st4{opacity:0.5;fill:#C8DFFD;enable-background:new    ;}
	.st5{opacity:0.5;fill:#7798F8;enable-background:new    ;}
	.st6{opacity:0.3;}
	.st7{fill:#B8D0FC;}
	.st8{fill:#FF912B;}
	.st9{fill:#FC7600;}
	.st10{fill:#4B49F2;}
	.st11{fill:#C23B35;}
	.st12{fill:#1E3865;}
	.st13{fill:#25468F;}
	.st14{fill:#FFEBD8;}
	.st15{fill:#448DE8;}
	.st16{fill:#F9D0B3;}
	.st17{fill:#478BE0;}
	.st18{fill:#9CC3F8;}
	.st19{fill:#F99352;}
	.st20{fill:#FFAE73;}
	.st21{fill:#FDDBBA;}
	.st22{fill:#EB6600;}
	.st23{fill:#FFFFFF;}
	.st24{fill:#0B3563;}
	.st25{fill:#0D458E;}
	.st26{fill:#F1DDCB;}
	.st27{fill:#E8F2FA;}
	.st28{fill:#89B4FD;}
	.st29{fill:#F9924F;}
	.st30{fill:#F8CAA4;}
	.st31{fill:#D44B40;}
	.st32{fill:#2A3967;}
</style>
<g>
	<g>
		<g>
			<path class="st0" d="M172.7,262.1l-0.9-0.5c-0.9-0.5-1.2-1.6-0.7-2.6l3.9-7.2c0.5-0.9,1.6-1.2,2.6-0.7l1.2,0.7
				c0.2,0.1,0.2,0.3,0.1,0.5c-0.1,0.2-0.3,0.2-0.5,0.1l-1.2-0.7c-0.6-0.3-1.3-0.1-1.6,0.5l-3.9,7.2c-0.3,0.6-0.1,1.3,0.5,1.6
				l0.9,0.5c0.6,0.3,1.3,0.1,1.6-0.5l2.6-4.7c0.1-0.2,0.3-0.2,0.5-0.1s0.2,0.3,0.1,0.5l-2.6,4.7
				C174.8,262.3,173.6,262.6,172.7,262.1z"/>
		</g>
		<g>
			<path class="st0" d="M169.1,269.6l-1.5-0.8c-1.4-0.8-1.9-2.6-1.1-4.2l5.9-10.8c0.1-0.2,0.3-0.2,0.5-0.1c0.2,0.1,0.2,0.3,0.1,0.5
				l-5.9,10.8c-0.6,1.2-0.3,2.6,0.8,3.2l1.5,0.8c1.1,0.6,2.4,0.1,3.1-1.1l6.7-12.3c0.6-1.2,0.3-2.6-0.8-3.2
				c-0.2-0.1-0.2-0.3-0.1-0.5c0.1-0.2,0.3-0.2,0.5-0.1c1.4,0.8,1.9,2.6,1.1,4.2l-6.7,12.3C172.3,269.8,170.5,270.4,169.1,269.6z"/>
		</g>
	</g>
	<g>
		<path class="st1" d="M276.8,222.3H168.2c-26.4,0-47.9-21.4-47.9-47.9V96c0-26.4,21.4-47.9,47.9-47.9h108.6
			c26.4,0,47.9,21.4,47.9,47.9v78.5C324.7,200.9,303.3,222.3,276.8,222.3z"/>
		<path class="st2" d="M324.7,67.5H120.4l0,0c0-10.7,8.7-19.3,19.3-19.3h165.7C316.1,48.1,324.7,56.8,324.7,67.5L324.7,67.5z"/>
		<g>
			<circle class="st3" cx="130.9" cy="57.7" r="2.3"/>
			<circle class="st3" cx="140.6" cy="57.7" r="2.3"/>
			<circle class="st3" cx="150.3" cy="57.7" r="2.3"/>
		</g>
		<rect x="136.6" y="82.8" class="st4" width="57.9" height="57.9"/>
		<path class="st5" d="M256.3,87.1h-46.1c-1.2,0-2.2-1-2.2-2.2l0,0c0-1.2,1-2.2,2.2-2.2h46.1c1.2,0,2.2,1,2.2,2.2l0,0
			C258.5,86.1,257.5,87.1,256.3,87.1z"/>
		<path class="st5" d="M311.4,84.2h-46.1c-1.2,0-2.2-1-2.2-2.2l0,0c0-1.2,1-2.2,2.2-2.2h46.1c1.2,0,2.2,1,2.2,2.2l0,0
			C313.6,83.2,312.6,84.2,311.4,84.2z"/>
		<g class="st6">
			<path class="st7" d="M265.4,104h-56c-0.8,0-1.4-0.6-1.4-1.4l0,0c0-0.8,0.6-1.4,1.4-1.4h56c0.8,0,1.4,0.6,1.4,1.4l0,0
				C266.9,103.3,266.2,104,265.4,104z"/>
			<path class="st7" d="M286.7,104h-14.8c-0.8,0-1.4-0.6-1.4-1.4l0,0c0-0.8,0.6-1.4,1.4-1.4h14.8c0.8,0,1.4,0.6,1.4,1.4l0,0
				C288.1,103.3,287.5,104,286.7,104z"/>
			<path class="st7" d="M230.6,112.8h-21.1c-0.8,0-1.4-0.6-1.4-1.4l0,0c0-0.8,0.6-1.4,1.4-1.4h21.1c0.8,0,1.4,0.6,1.4,1.4l0,0
				C232,112.1,231.4,112.8,230.6,112.8z"/>
			<path class="st7" d="M264.8,112.8h-28.9c-0.8,0-1.4-0.6-1.4-1.4l0,0c0-0.8,0.6-1.4,1.4-1.4h28.9c0.8,0,1.4,0.6,1.4,1.4l0,0
				C266.2,112.1,265.6,112.8,264.8,112.8z"/>
			<path class="st7" d="M286.7,112.8h-14.8c-0.8,0-1.4-0.6-1.4-1.4l0,0c0-0.8,0.6-1.4,1.4-1.4h14.8c0.8,0,1.4,0.6,1.4,1.4l0,0
				C288.1,112.1,287.5,112.8,286.7,112.8z"/>
			<path class="st7" d="M238.1,120.4h-28.7c-0.8,0-1.4-0.6-1.4-1.4l0,0c0-0.8,0.6-1.4,1.4-1.4h28.7c0.8,0,1.4,0.6,1.4,1.4l0,0
				C239.5,119.7,238.9,120.4,238.1,120.4z"/>
			<path class="st7" d="M292.8,120.4H246c-0.8,0-1.4-0.6-1.4-1.4l0,0c0-0.8,0.6-1.4,1.4-1.4h46.9c0.8,0,1.4,0.6,1.4,1.4l0,0
				C294.3,119.7,293.6,120.4,292.8,120.4z"/>
		</g>
		<g class="st6">
			<path class="st7" d="M265.4,131.9h-56c-0.8,0-1.4-0.6-1.4-1.4l0,0c0-0.8,0.6-1.4,1.4-1.4h56c0.8,0,1.4,0.6,1.4,1.4l0,0
				C266.9,131.3,266.2,131.9,265.4,131.9z"/>
			<path class="st7" d="M286.7,131.9h-14.8c-0.8,0-1.4-0.6-1.4-1.4l0,0c0-0.8,0.6-1.4,1.4-1.4h14.8c0.8,0,1.4,0.6,1.4,1.4l0,0
				C288.1,131.3,287.5,131.9,286.7,131.9z"/>
			<path class="st7" d="M230.6,140.7h-21.1c-0.8,0-1.4-0.6-1.4-1.4l0,0c0-0.8,0.6-1.4,1.4-1.4h21.1c0.8,0,1.4,0.6,1.4,1.4l0,0
				C232,140.1,231.4,140.7,230.6,140.7z"/>
			<path class="st7" d="M264.8,140.7h-28.9c-0.8,0-1.4-0.6-1.4-1.4l0,0c0-0.8,0.6-1.4,1.4-1.4h28.9c0.8,0,1.4,0.6,1.4,1.4l0,0
				C266.2,140.1,265.6,140.7,264.8,140.7z"/>
		</g>
		<g>
			<path class="st7" d="M162.5,91.4h6l16.2,37h-6.8l-3.7-8.9h-17.4l-3.8,8.9h-6.6L162.5,91.4z M171.8,113.8l-6.3-14.7l-6.3,14.7
				H171.8z"/>
		</g>
		<g>
			<rect x="136.6" y="152.4" class="st8" width="32.4" height="6.2"/>
			<rect x="136.6" y="158.6" class="st9" width="32.4" height="6.2"/>
			<rect x="136.6" y="164.9" class="st10" width="32.4" height="6.2"/>
		</g>
		<g>
			<path class="st7" d="M192.8,155.9H175c-0.7,0-1.3-0.6-1.3-1.3l0,0c0-0.7,0.6-1.3,1.3-1.3h17.8c0.7,0,1.3,0.6,1.3,1.3l0,0
				C194.1,155.3,193.5,155.9,192.8,155.9z"/>
			<path class="st7" d="M186.8,160.7H175c-0.7,0-1.3-0.6-1.3-1.3l0,0c0-0.7,0.6-1.3,1.3-1.3h11.8c0.7,0,1.3,0.6,1.3,1.3l0,0
				C188.1,160.1,187.5,160.7,186.8,160.7z"/>
		</g>
		<g>
			<rect x="136.6" y="184.7" class="st8" width="32.4" height="12.8"/>
			<rect x="136.6" y="194.3" class="st11" width="32.4" height="9.1"/>
			<polygon class="st10" points="136.6,184.7 148.2,194.4 136.6,203.4 			"/>
		</g>
		<g>
			<path class="st7" d="M192.8,188.2H175c-0.7,0-1.3-0.6-1.3-1.3l0,0c0-0.7,0.6-1.3,1.3-1.3h17.8c0.7,0,1.3,0.6,1.3,1.3l0,0
				C194.1,187.6,193.5,188.2,192.8,188.2z"/>
			<path class="st7" d="M186.8,193H175c-0.7,0-1.3-0.6-1.3-1.3l0,0c0-0.7,0.6-1.3,1.3-1.3h11.8c0.7,0,1.3,0.6,1.3,1.3l0,0
				C188.1,192.4,187.5,193,186.8,193z"/>
		</g>
	</g>
	<g>
		<path class="st12" d="M326.8,63.9c0,0,0.8,10-1.4,9.9c-2.3-0.2-6.8-4.6-15.9-3.9s-20.3,2.7-27-9.2s8.6-15.4,8.6-15.4L326.8,63.9
			L326.8,63.9z"/>
		<polygon class="st13" points="307.4,63.2 353.3,67 354.3,64.9 310.2,32.4 265.8,27.2 264.9,29 		"/>
		<g>
			<path class="st8" d="M338.7,97.8c-0.3-0.9-1.3-1.5-2.2-1.2c-0.9,0.3-1.5,1.3-1.2,2.2c0.3,0.9,1.3,1.5,2.2,1.2
				C338.4,99.7,338.9,98.7,338.7,97.8L338.7,97.8z"/>
			<path class="st8" d="M337.1,98.3c1.8-0.1,2.3,16.6,2.3,16.6s-1.2,0.6-1.8,0.4c-0.6-0.1-0.9-2.4-0.9-2.4l-0.1,2.4
				c0,0-2,0.1-2.7-0.4C333.9,114.9,334.2,98.5,337.1,98.3L337.1,98.3z"/>
		</g>
		<polygon class="st8" points="337.7,98.6 337.4,62 337.2,61.8 313.2,44.1 312.3,45.3 336.1,62.8 336.6,98.6 		"/>
	</g>
	<g>
		<g>
			<g>
				<path class="st14" d="M364.5,271.5h-96.7v-38.3h97.1c10.5,0,19,8.5,19,19l0,0C383.8,262.8,375.2,271.5,364.5,271.5z"/>
				<path class="st2" d="M470.4,248.9v5.8c0,3.1-0.8,6-2.1,8.5c-2.7,5-7.8,8.3-13.6,8.3h-190c-1.3,0-2.3-1.1-2.3-2.4v-0.9
					c0-1.3,1-2.4,2.3-2.4h115.9c0.6-0.8,1.2-1.7,1.6-2.6c1.1-2.2,1.7-4.7,1.7-7.3v-7.3c0-1.3-0.2-2.7-0.5-3.9
					c-0.5-2.1-1.4-4-2.7-5.7h-116c-1.3,0-2.3-1.1-2.3-2.4v-0.9c0-1.3,1-2.4,2.3-2.4h191c6.7,0,12.4,4.8,14.2,11.4
					C470.2,245.9,470.4,247.4,470.4,248.9z"/>
				<path class="st15" d="M469.9,244.6h-86.5c-0.5-2.1-1.4-4-2.7-5.7h-116c-1.3,0-2.3-1.1-2.3-2.4v-0.9c0-1.3,1-2.4,2.3-2.4h191
					C462.4,233.1,468.1,238,469.9,244.6z"/>
			</g>
			<polygon class="st16" points="267.8,252.3 281.8,252.9 267.8,253.3 			"/>
			<polygon class="st16" points="267.8,258.3 301.2,259 267.8,259.3 			"/>
		</g>
		<g>
			<g>
				<g>
					<path class="st8" d="M254.1,301.2h98v-29.8h-98.9c-8,0-14.4,6.5-14.4,14.4l0,0C238.7,294.3,245.6,301.2,254.1,301.2z"/>
					<path class="st14" d="M348.4,301.2h111.8v-29.8H348.1c-8.1,0-14.7,6.6-14.7,14.7l0,0C333.3,294.5,340.1,301.2,348.4,301.2z"/>
					<path class="st8" d="M326,301.2h137.9c1.2,0,2.2-1,2.2-2.2l0,0c0-1.2-1-2.2-2.2-2.2H326c-1.2,0-2.2,1-2.2,2.2l0,0
						C323.8,300.2,324.8,301.2,326,301.2z"/>
					<path class="st8" d="M326,275.9h137.9c1.2,0,2.2-1,2.2-2.2l0,0c0-1.2-1-2.2-2.2-2.2H326c-1.2,0-2.2,1-2.2,2.2l0,0
						C323.8,274.9,324.8,275.9,326,275.9z"/>
				</g>
				<polygon class="st16" points="460.2,286.3 444.9,286.8 460.2,287.1 				"/>
				<polygon class="st16" points="460.2,279.4 423.6,279.9 460.2,280.2 				"/>
			</g>
			<g>
				<path class="st2" d="M424,279.8c0,0,1.6,1.3,2.1,3.4c0.1,0.4,0.2,0.8,0.2,1.2c0.1,2.8,0,9.1,0,9.1l4.6-3.2l4.6,3.2V285
					c0-1.6-0.4-3.2-1.1-4.2c-0.4-0.5-0.8-0.9-1.3-0.9H424V279.8z"/>
				<path class="st17" d="M424,279.8c0,0,1.6,1.3,2.1,3.4l9.3,0.1c0,0-0.4-3-2.3-3.5H424z"/>
			</g>
		</g>
		<g>
			<g>
				<g>
					<path class="st14" d="M333.7,233.2h-91.4v-43.8h91.9c12,0,21.7,9.7,21.7,21.7l0,0C355.8,223.3,345.9,233.2,333.7,233.2z"/>
					<path class="st0" d="M355.9,206.4v9.4c0,4-1.9,7.5-4.6,9.4c-1.4,0.9-2.9,1.4-4.6,1.4H239.3c-1.3,0-2.3,1.2-2.3,2.7v1.1
						c0,1.5,1,2.7,2.3,2.7h185.5c5.3,0,10-3.2,12.9-8c1.8-3,2.8-6.8,2.8-10.8V207c0-2.7-0.5-5.3-1.5-7.7c-2.4-5.9-7.4-10-13.3-10
						H239.3c-1.3,0-2.3,1.2-2.3,2.7v1.1c0,1.5,1,2.7,2.3,2.7H347c2.6,0,4.9,1.3,6.5,3.4C355,201.2,355.9,203.7,355.9,206.4z"/>
					<path class="st18" d="M237,229.4v1.1c0,1.5,1,2.7,2.3,2.7h185.5c5.3,0,10-3.2,12.9-8h-86.4c-1.4,0.9-2.9,1.4-4.6,1.4H239.3
						C238,226.7,237,227.9,237,229.4z"/>
				</g>
				<polygon class="st16" points="242.3,211.3 256.1,212 242.3,212.5 				"/>
				<polygon class="st16" points="242.3,201.2 275,201.9 242.3,202.4 				"/>
			</g>
			<g>
				<path class="st8" d="M274.7,201.8c0,0-2.2,1.4-2.9,3.7c-0.1,0.4-0.2,0.8-0.2,1.3c-0.1,3,0,9.9,0,9.9l-6.4-3.4l-6.4,3.4v-9.3
					c0-1.8,0.5-3.5,1.6-4.6c0.5-0.5,1.1-1,1.8-1L274.7,201.8L274.7,201.8z"/>
				<path class="st9" d="M274.7,201.8c0,0-2.2,1.4-2.9,3.7l-12.8,0.1c0,0,0.5-3.3,3.1-3.8H274.7z"/>
			</g>
		</g>
	</g>
	<g id="girl_2_1_">
		<path class="st19" d="M111.7,229.3c0,0,20,8.7,23.6,8.6c3.6-0.2,26-6.8,26-6.8l-0.6,3.8c0,0-17.3,9.9-23.3,10.5
			c-5.9,0.6-26.2-5.3-28.2-6.6S106,230.6,111.7,229.3z"/>
		<path class="st12" d="M108.7,197.3c0,0-7.4-1.4-11,1.3c-6.7,4.9-7,21.6-9.5,24.1s-8.5,1.4-9,14.3c-0.5,12.9,2.4,14-1.1,19.8
			c-3.5,5.8,1.5,11.5,1.5,11.5s-2-3.2-1.2-5.5c0,0,0.8,5.1,4.1,6.3c3.2,1.2,3.7,2.1,4.2,3.8c0,0,27.5-14.1,27.5-24.1
			s5.4-19.9,2.8-24.2c0,0,1.2,1.9,1.3,3.9c0,0,1.6-3-1.2-5.9c-2.7-2.8,3.2-8.7,2.3-15.4C118.8,202.6,115.5,197.5,108.7,197.3z"/>
		<path class="st20" d="M114.1,238.8c-1.8,1.2-4,2.2-6.7,2.9c-10.4,2.4-14.3-6.4-15.8-12.4c1.4-0.8,2.7-1,3.5-1.1
			c0.7-0.1,1.5-0.1,2.2-0.2c1.2-0.9,2.9-4.5,3.3-10.2l0.5,0.1l8.2,2.2c0,0-0.4,2.6-0.6,5c-0.1,1.9-0.2,3.8,0.2,4.2
			c0.6,0.1,1,0.2,1,0.2l0,0C110,229.9,112.4,233.8,114.1,238.8z"/>
		<path class="st19" d="M109.2,220.2c0,0-0.4,2.6-0.6,5c-4.6-0.5-6.8-4.9-7.6-7.3L109.2,220.2z"/>
		<path class="st20" d="M110.6,222.7c0,0-11-0.6-10.5-7.4c0.5-6.8-0.6-11.5,6.4-11.4s8.2,2.8,8.6,5.1
			C115.5,211.3,113.5,222.7,110.6,222.7z"/>
		<path class="st12" d="M115.1,205.1c-1.5-2.2-2.9-1.8-3.6-1.3c-5.8-3.7-10,0.9-10,0.9c-1.1,4.8-4.8,7.4-4.8,7.4s1.9,1.4,6.6,0.5
			c1.4-0.3,2.8-1.2,3.9-2.3c-2.1,3-4.8,5.1-4.8,5.1c5.7-2.1,8.4-9.6,8.7-10.4c0.6,0.6,1.9,2,2.2,3.4c0.4,1.8,2.2,4.6,3.3,4.5
			C116.6,212.9,117.4,208.4,115.1,205.1z"/>
		<path class="st21" d="M88.5,261.2c-1-5.1-4.2-25.3-1-31.8c1.2-2.3,5.7-2.6,10.7-2.3c1.6,1,7.5,4.8,9.9,4.3h0.1
			c1.1-0.3,1.6-1.1,0.6-1.8c0,0,2.5-0.2,5.5,0.3c1.7,0.3,6.4,2.8,6.4,2.8s-2.4,4.3-5.8,5.7c0.6,5.3-0.3,7.6-5.8,19.8
			c-4.6,10.3,0.6,19.6,0.6,19.6s-27.3,21.9-27.4,10.8C82.3,280.1,89.7,267.6,88.5,261.2z"/>
		<path class="st22" d="M111.2,301.6c1.5-0.2,2.8-1,3.7-2.2c0.1-0.2,0.3-0.4,0.4-0.6c3.1-4.7,4.3-19.1,11.3-34.5
			c1.7-3.7,7.8-4.4,9.5-8.6c0,0,4.1-13.7-7.8-14.1c-12-0.4-32,38.1-32.3,42.1C95.6,287.6,88,304.3,111.2,301.6z"/>
		<path class="st12" d="M158.7,301.3h-17c0,0-0.6-2.7,0.5-4.6c1-1.6,0.6-2.6-0.1-3.9c0.8,0.3,1.8,0.6,2.9,0.5c0.8,0,1.7-0.4,2.5-0.9
			c0.7,0.8,3.9,4.4,4.8,5.1C153.4,298.4,158.4,298.1,158.7,301.3z"/>
		<path class="st9" d="M136.4,245.6c1,7.7,5,31.9,12.1,43.7c2.3,3.8-5.7,5.9-5.8,5.9c-1.1-0.3-2.9-2-3.7-2.7
			c-5.7-5.2-17.4-19.8-17.4-31.5c0-5.7-0.1-16.6,4.1-19.4C128.3,239.9,136,242.5,136.4,245.6z"/>
		<path class="st8" d="M101.1,301.3c0,0,0.6-0.9,1.7-2.5c1.3-2,2.8-5.9,4.5-10.9c1.8-5.2,4-11.7,6.8-18.4c0.8-2.1,1.7-4.2,2.7-6.3
			c1.7-3.7,6.4-3.2,8.1-7.4c0,0,6.5-14.6-5.4-15c-12-0.4-34.7,39.2-36,43C82,287.9,75,305.3,101.1,301.3z"/>
		<path class="st13" d="M146.2,301.3h-17c0,0-0.6-2.7,0.5-4.6c1-1.6,0.6-2.6-0.1-3.9c0.8,0.3,1.8,0.6,2.9,0.5c0.8,0,1.7-0.4,2.5-0.9
			c0.7,0.8,3.9,4.4,4.8,5.1C140.9,298.4,145.9,298.1,146.2,301.3z"/>
		<path class="st9" d="M107.3,287.9c1.8-5.2,4-11.7,6.8-18.4c-0.7-5.1-2.3-9.5-4.8-11.3C109.2,258.2,102.9,277.6,107.3,287.9z"/>
		<path class="st8" d="M126.5,245c1,7.7,2.5,32.5,9.5,44.3c2.3,3.8-5.7,5.9-5.8,5.9c-1.1-0.3-2.9-2-3.7-2.7
			c-5.7-5.2-17.4-19.8-17.4-31.5c0-5.7,6.7-16.2,10.9-18.9C122.6,240.4,126.1,242,126.5,245z"/>
		<path class="st23" d="M112.7,218.7c0,0-1-0.4-4-0.2c0,0,0.2,1.1,2.3,1.3C112.2,219.9,112.7,218.7,112.7,218.7z"/>
		<g>
			<g>
				<polygon class="st24" points="163.4,223 159.9,216.7 152.3,237.9 156.8,242.8 				"/>
				<polygon class="st25" points="145,226.8 137.9,247 156.8,242.8 163.4,223 				"/>
				<polygon class="st26" points="138.3,246 138,245.4 144.7,226.2 145,226.8 				"/>
				<polygon class="st14" points="144.7,226.2 162.6,222.8 163.4,223 145,226.8 				"/>
			</g>
			<polygon class="st26" points="163.4,223 159.6,217 157.2,223.8 162.6,222.8 			"/>
		</g>
		<path class="st20" d="M150.5,229.7c-0.6-0.1-1.9-0.6-3.3-1c0.4-0.3,0.8-0.7,1-1.1c0.2-0.8,0.4-1-0.4-0.8c-0.8,0.2-3.6,1.5-3.6,1.5
			l0,0c-1.6,0.5-3,2.7-3,2.7s-19.5,6.9-21.8,7c-3.6,0.2-27.8-8.7-27.8-8.7c-5.7,1.3-4.4,8.3-2.5,9.5c2,1.2,19.3,7.6,29.6,7.7
			c5.2,0.1,24.2-12.1,24.2-12.1s2.2-1,4-0.7c1.7,0.3,5.8,0,6.7-1.4C154.4,230.8,151.5,229.9,150.5,229.7z"/>
		<path class="st21" d="M104,233.7c0,0-2.2,6.8-9.6,8.4c0,0-12.2-3.8-6.1-12.1C88.3,230,94.3,225.5,104,233.7z"/>
		<path class="st20" d="M163.1,230.2L163.1,230.2c0-0.2,0-0.4-0.1-0.6c0,0-1.7-2.8-2.3-2.9c-1.7-0.3-1.7,2-1.4,3.4
			c0.3,1,0.9,2,1.4,2.6l0,0l-0.1,2.2C163.7,233.3,163.1,230.2,163.1,230.2z"/>
	</g>
	<g>
		<path class="st27" d="M60.8,194.1c0.7-17.2-13.7-24.9-28.5-24.9S1.5,173,0.1,195.9c-0.9,14.7,7,23.8,29.6,23.8
			c7.6,0,13.6-1.2,18.1-3.3l11.3,10l-5.6-13.9C58.4,208,60.5,201.6,60.8,194.1z"/>
		<g>
			<path class="st28" d="M21.1,188.4v4h2.6v-4h1.1v9.4h-1.1v-4.4h-2.6v4.4H20v-9.4H21.1z"/>
			<path class="st28" d="M27.1,194.5c0,2.1,0.8,2.5,1.6,2.5c0.5,0,0.8-0.1,1.1-0.3l0.2,0.8c-0.4,0.2-0.9,0.3-1.5,0.3
				c-1.6,0-2.5-1.3-2.5-3.4c0-2.2,0.9-3.5,2.3-3.5s1.9,1.4,1.9,3c0,0.3,0,0.4,0,0.6L27.1,194.5L27.1,194.5z M29.2,193.7
				c0-1.3-0.5-1.9-1-1.9c-0.7,0-1.1,1-1.1,1.9H29.2z"/>
			<path class="st28" d="M31.4,188.1h1.1v9.6h-1.1V188.1z"/>
			<path class="st28" d="M34,188.1h1.1v9.6H34V188.1z"/>
			<path class="st28" d="M40.8,194.4c0,2.6-1.2,3.5-2.2,3.5c-1.2,0-2.2-1.1-2.2-3.5c0-2.5,1.1-3.5,2.3-3.5
				C39.9,190.9,40.8,192,40.8,194.4z M37.5,194.4c0,1.1,0.2,2.6,1.2,2.6c0.9,0,1.1-1.6,1.1-2.6s-0.2-2.6-1.1-2.6
				C37.7,191.8,37.5,193.3,37.5,194.4z"/>
		</g>
	</g>
	<g>
		<path class="st28" d="M356.6,142.4c0.6-15.8-12.6-22.7-26.1-22.7s-28.2,3.5-29.5,24.4c-0.8,13.5,6.4,21.8,27,21.8
			c7,0,12.4-1.1,16.5-3.1L355,172l-5.1-12.7C354.4,155.1,356.3,149.2,356.6,142.4z"/>
		<g>
			<path class="st23" d="M314.9,139.7c0.4-0.1,0.8-0.2,1.3-0.2c0.7,0,1.3,0.2,1.8,0.6c0.3,0.3,0.5,0.8,0.5,1.4
				c0,0.8-0.4,1.4-1.2,1.8l0,0c0.9,0.2,1.5,1,1.5,2c0,0.7-0.2,1.2-0.6,1.6c-0.4,0.5-1.2,0.7-2.1,0.7c-0.6,0-0.9,0-1.2-0.1
				L314.9,139.7L314.9,139.7z M315.8,142.9h0.4c0.7,0,1.4-0.6,1.4-1.4c0-0.7-0.3-1.3-1.3-1.3c-0.2,0-0.4,0-0.5,0.1V142.9z
				 M315.8,146.8c0.1,0,0.3,0,0.5,0c0.9,0,1.5-0.6,1.5-1.6c0-1.1-0.8-1.6-1.6-1.6h-0.4V146.8z"/>
			<path class="st23" d="M323.3,144.6c0,2.2-1,2.9-1.9,2.9c-1,0-1.8-0.9-1.8-2.9c0-2.1,0.9-2.9,1.9-2.9
				C322.5,141.7,323.3,142.7,323.3,144.6z M320.5,144.6c0,0.9,0.2,2.2,1,2.2s0.9-1.3,0.9-2.2s-0.2-2.2-1-2.2
				C320.6,142.4,320.5,143.8,320.5,144.6z"/>
			<path class="st23" d="M324.3,143.3c0-0.7,0-1,0-1.5h0.8v0.7l0,0c0.2-0.5,0.7-0.8,1.3-0.8c0.8,0,1.4,0.6,1.4,2v3.8h-0.9v-3.7
				c0-0.7-0.1-1.4-0.8-1.4c-0.4,0-0.7,0.3-0.8,0.9c0,0.1,0,0.3,0,0.5v3.6h-0.9v-4.1H324.3z"/>
			<path class="st23" d="M328.1,149.1c0.3-0.1,0.6-0.2,0.8-0.4c0.2-0.3,0.3-0.7,0.3-1.8v-5.1h0.9v5.3c0,1.2-0.2,1.8-0.6,2.2
				c-0.3,0.4-0.9,0.5-1.2,0.5L328.1,149.1z M330.1,140.3c0,0.4-0.2,0.6-0.5,0.6s-0.5-0.2-0.5-0.6c0-0.4,0.2-0.6,0.5-0.6
				S330.1,140,330.1,140.3z"/>
			<path class="st23" d="M334.8,144.6c0,2.2-1,2.9-1.9,2.9c-1,0-1.8-0.9-1.8-2.9c0-2.1,0.9-2.9,1.9-2.9
				C334,141.7,334.8,142.7,334.8,144.6z M332,144.6c0,0.9,0.2,2.2,1,2.2s0.9-1.3,0.9-2.2s-0.2-2.2-1-2.2
				C332.1,142.4,332,143.8,332,144.6z"/>
			<path class="st23" d="M339.2,145.9c0,0.6,0,1.1,0,1.6h-0.8l-0.1-0.6l0,0c-0.2,0.3-0.6,0.7-1.2,0.7c-1,0-1.4-0.8-1.4-2.2v-3.6h0.9
				v3.5c0,0.9,0.1,1.6,0.8,1.6c0.5,0,0.8-0.5,0.8-0.8c0-0.2,0-0.3,0-0.5v-3.8h0.9v4.1H339.2z"/>
			<path class="st23" d="M340.5,143.3c0-0.5,0-1,0-1.5h0.8v0.9l0,0c0.2-0.5,0.7-1,1.2-1c0.1,0,0.1,0,0.2,0v0.9c-0.1,0-0.1,0-0.2,0
				c-0.6,0-1,0.5-1.1,1.2c0,0.2,0,0.3,0,0.5v3.2h-0.9V143.3z"/>
		</g>
	</g>
	<g>
		<path class="st12" d="M352.4,225.5c3.2,5.7,7.3,7.9,7.3,7.9l17,0.1C376.6,233.5,349.9,221.2,352.4,225.5z"/>
		<g>
			<path class="st20" d="M365.1,269.3c0.4,0.5,0.5,1.1,0.3,1.7l0,0c-0.4,1.1-1.8,2.4-3.3,3.6c-0.2,0.2-0.4,0.3-0.5,0.4l-0.1,0.1
				l-0.1,0.1c-1.5,1.3-0.9,1.6-3.5,4.3c-3,3.1-5,3.1-5.6,2.8c-0.5-0.2,0.5-1.9,1.6-3.7c0.1-0.1,0.1-0.2,0.2-0.3
				c0.1-0.2,0.3-0.5,0.4-0.7c1.3-2.2,1-3.2,0.7-6.5c-0.2-2.7-4.1-15-4.1-15l5.7-0.9c0,0,1.6,9.8,3.5,11.3c1,0.8,2.1,0.8,3.1,1.4
				c0.1,0,0.1,0.1,0.2,0.1C364.1,268.4,364.7,268.8,365.1,269.3z"/>
			<path class="st12" d="M365.1,269.3c0.4,0.5,0.5,1.1,0.3,1.7l0,0c-0.5,1.1-1.8,2.3-3.3,3.6c-0.2,0.2-0.4,0.3-0.5,0.4l-0.1,0.1
				l-0.1,0.1c-1.5,1.3-0.9,1.6-3.5,4.3c-3,3.1-5,3.1-5.6,2.8c-0.5-0.2,0.5-1.9,1.6-3.7c0.6-0.2,3.3-1.3,5.3-3.9
				c1.8-2.3,3-5.2,4.2-6.9c0.1,0,0.1,0.1,0.2,0.1C364.1,268.4,364.7,268.8,365.1,269.3z"/>
			<path class="st20" d="M319.3,265.4c-0.4,1.8-2.9,1.4-5.7,0.7c-2.8-0.7-2.1,0.1-6.1-0.4s-5.2-2-5.3-2.6c-0.1-0.5,1.9-0.7,4-0.9
				c0.3,0,0.5-0.1,0.8-0.1c2.4-0.3,4.1-1.8,6.3-3.1c2.1-1.2,5.1-6,5.1-6l5.5,0.5c0,0-2.9,4.3-4,6.2c-0.7,1.1-0.6,2.6-0.6,3.7
				C319.4,264.2,319.4,264.8,319.3,265.4z"/>
			<path class="st12" d="M313.6,266.1c-2.8-0.7-2.1,0.1-6.1-0.4s-5.2-2-5.3-2.6c-0.1-0.5,1.9-0.7,4-0.9l0,0c0,0,2.4,1.7,5.7,1.8
				c2.7,0.1,5.6-0.7,7.4-0.6c0,0.6,0.1,1.2-0.1,1.9C318.9,267.2,316.4,266.8,313.6,266.1z"/>
			<path class="st12" d="M340.4,230.7l5,13.8l6.5,18c0,0,1.8,0.2,3.5-0.3c1.6-0.4,3.4-1.6,3.4-1.6s-1.7-19.3-5.1-30.3
				c-0.9-2.8-1.8-5.1-2.9-6.4C345.6,217.3,340.4,230.7,340.4,230.7z"/>
			<path class="st13" d="M345.8,208.9c3.3-1.1,12.9,0.4,22.4,2.3l2-3.3l20.7-1.5c0,0,6.7,15.2,2.9,24.8c-0.6,1.4-1.9,2-3.8,2l0,0
				c0,0-12.3,0.2-16.3,0.2c-10.3-0.1-21.7-7.2-23.2-7.5c-2.4-0.5-3.4,4.4-5.9,9.4c-2.5,5.1-23,22.4-23,22.4s-3.1,0-4.4-0.5
				c-1.4-0.5-1.9-1.2-1.9-1.2S338.2,211.3,345.8,208.9z"/>
			<path class="st12" d="M370.6,179.5c7.3,4.1,22.2,12.6,22.3,12.6c0,0,5.5,2.1,8.6,0.1c5.2-3.4,8.1-12.7-1.4-20.7
				c-4.7-4-8.1-5-8.5-11.4c-0.3-3.5-4.9-14.9-12.7-13.9c-0.7,0.1-1.3,0.1-2,0.1c-0.9,0-2.4,0.1-4,1
				C368.4,149.9,359.5,177.8,370.6,179.5z"/>
			<path class="st20" d="M376.7,176.1c0,0,3.6,1.3,6.1,0.2c2.3-1,4.1-4.8,4-4.8c-1-0.1-2.2-1-3-7l-0.4,0.2l-7.5,2.6
				c0,0,0.5,2.4,0.9,4.7C377,174,377.2,175.8,376.7,176.1z"/>
			<path class="st29" d="M375.9,167.3c0,0,0.3,1.7,0.8,4.1c4.3-0.7,6.1-4.4,6.7-6.7L375.9,167.3z"/>
			<path class="st20" d="M374.7,169.7c0,0,10.3-1.3,9.3-7.7c-0.9-6.4-0.2-10.8-6.8-10.3c-6.6,0.6-7.5,3.2-7.7,5.4
				C369.4,159.4,372,169.9,374.7,169.7z"/>
			<path class="st12" d="M370,153.7c0,0,6.5,5.7,11,6.2s6.2-0.9,6.2-0.9s-2.6-2.2-4.2-5.7c-0.5-1-1.4-1.8-2.6-1.9
				C377.2,151,371.1,150.8,370,153.7z"/>
			<path class="st12" d="M374.1,153.2c0,0-2.2,2.1-2.9,3.7c-0.7,1.5-0.9,5.1-0.4,6.6c0,0-3.4-6.7-1.4-9.9
				C371.4,150.2,374.1,153.2,374.1,153.2z"/>
			<path class="st21" d="M368,191.1c0.2,20.7,0,16.4,2.2,18.4c0.5,0.5,2.1,0.8,4.1,0.9c6.4,0.5,17.5-0.5,18-1.7
				c1.5-4.1,0.5-5.3,1.7-11.5c0.1-0.7,0.3-1.4,0.5-2.2c1.1-4.3,2.1-5.7-1.5-12.6c-3.2-6.2-6.6-11.3-6.9-11.1
				c-8.7,5.1-9.4,0.8-9.4,0.8S367.9,181,368,191.1z"/>
			<path class="st13" d="M345.4,244.4l6.5,18c0,0,1.8,0.2,3.5-0.3c1.6-0.4,3.4-1.6,3.4-1.6s-1.7-19.3-5.1-30.3L345.4,244.4z"/>
			<path class="st21" d="M376.7,172c0,0-8.9,1.4-10,5.3c-1.1,3.8-7.4,26.3-7.4,26.3s4.5,0.8,6.6-1.2c2.1-2.1,7.4-19.4,7.4-19.4
				L376.7,172z"/>
			<path class="st30" d="M374.3,210.4c6.4,0.5,17.5-0.5,18-1.7c1.5-4.1,0.5-5.3,1.7-11.5l-3-8.7c0,0,0.4,9.6-2.4,12.1
				c-2.9,2.5-11.6,4.8-13,6.9C374.9,208.6,374.5,209.6,374.3,210.4z"/>
			<path class="st20" d="M381.7,206.4c0,0-6.3-1.4-7.3-0.9s-3.5,2.6-3.8,3.3s2.3-0.5,3.1-0.7c0.5-0.1,2,0.4,2.7,0.6
				c3,1,4.8,0.5,4.8,0.5L381.7,206.4z"/>
			<path class="st21" d="M386.1,171.3c0,0,8.4,0.6,11.3,4.7c4.1,5.8,12,30.2,7.3,33.4c-5.3,3.6-23.9,0.8-23.9,0.8s-0.6-2.9,0.3-4.3
				c0.9-1.4,14.9-3.6,15.6-4.2c0.7-0.6-8-12.7-8-14.6C388.7,185.1,386.1,171.3,386.1,171.3z"/>
			<path class="st20" d="M374.1,207.3c0,0-1.3,1.7-1.8,1.9c-0.4,0.2-0.7,0.1-0.7,0.1l0.9-1.6L374.1,207.3z"/>
			<path class="st20" d="M374.4,205.5l-3.8,1.8c0,0,0.2,0.3,0.6,0.2c0.5,0,1.7-0.4,1.7-0.4L374.4,205.5z"/>
		</g>
		<g>
			<g>
				<polygon class="st8" points="373.1,211.9 342.9,211.7 333.9,189 364.1,189.2 				"/>
				<polygon class="st9" points="342.5,210.8 382.5,211.1 382.5,212 342.9,211.7 				"/>
			</g>
			<path class="st23" d="M350.6,200.4c-0.2-0.8,0.2-1.4,1-1.4s1.6,0.7,1.8,1.5c0.2,0.8-0.2,1.4-1,1.4S350.8,201.2,350.6,200.4z"/>
		</g>
	</g>
	<g>
		<rect x="189.4" y="283.2" class="st31" width="91.9" height="18.3"/>
		<path class="st14" d="M189.4,301.5l-13.5-5.8l-7.9-3.4l8-3.4l13.3-5.7c0,0,1.8,4.4,1.8,8.6C191.2,298.5,189.4,301.5,189.4,301.5z"
			/>
		<path class="st14" d="M291.9,289.3v5.8c0,3.6-2.9,6.4-6.4,6.4h-4.2v-18.3h4.6C289.2,283.3,291.9,286,291.9,289.3z"/>
		<path class="st13" d="M176.1,289c0.3,1.8,0.6,4.7-0.2,6.8l-7.9-3.4L176.1,289z"/>
	</g>
	<g>
		<path class="st8" d="M209.1,188.2c0,0,1.6,7.1,6.4,7.1c4.1,0,9.8-9.3,9.8-9.3L209.1,188.2z"/>
		<path class="st13" d="M264.2,293.6l-3.1,2.1c0,0-14.8-15.8-18.4-30.9c-0.6-2.7-0.9-5.4-0.6-7.9c0,0-0.2-0.7-0.6-1.9
			c0-0.1,0-0.1-0.1-0.2c-0.2-0.5-0.4-1.2-0.6-1.9c-0.7-2.3-1.7-5.4-2.8-9c-2.6-8.2-8.5-26.7-11-34.4l18.2-6.6c0,0,2.1,4.7,5,17.5
			c0.5,1.7,0.9,3.5,1.3,5.5c0.5,2.3,0.9,4.8,1.3,7.5c0.6,4.6,1.1,9.7,1.1,15.3c0,2.3,0,4.7-0.2,7.1c-0.1,1.8,0.2,4.2,0.7,6.9
			C256.7,275.4,264.2,293.6,264.2,293.6z"/>
		<path class="st12" d="M273.9,301.3h-14.7c0,0-0.5-2.3,0.4-3.9c0.9-1.4,0.5-2.2-0.1-3.4c0.7,0.3,1.5,0.5,2.5,0.5
			c0.7,0,1.5-0.4,2.2-0.8c0.6,0.7,3.3,3.8,4.2,4.4C269.3,298.7,273.6,298.5,273.9,301.3z"/>
		<path class="st12" d="M252.9,233.6l-11.4,21.3c-0.2-0.5-0.4-1.2-0.6-1.9c-0.7-2.3-1.7-5.4-2.8-9c-2.6-8.2-8.5-26.7-11-34.4
			l18.2-6.6c0,0,2.1,4.7,5,17.5c0.5,1.7,0.9,3.5,1.3,5.5C252,228.4,252.5,230.9,252.9,233.6z"/>
		<path class="st12" d="M226.7,296.6c0,0-1,2.5-0.1,4.6h8c0,0,0.2-1.9-2.7-4.1C229.7,295.5,226.7,296.6,226.7,296.6z"/>
		<path class="st32" d="M235.4,134c0-0.4,0.2-4.7,6.7-5.1c0,0-3.2,0.5-3.7,1.9c0,0,2.1-1.8,3.9-1.3c1.8,0.5,2.9,3.6,3,4.6
			c0,1-0.9,4.4-2,4.7c-0.4,0.1-0.9,0.1-1.4,0c0.3,0.5,0.6,1,0.9,1.5c2.7,5.3,0.4,11.5-1.8,11c-1.4-0.3-2.3,2.1-2.3,2.1L225,141.8
			C225,141.8,229.8,131.2,235.4,134z"/>
		<path class="st20" d="M226.8,169.8c1.5,1.1,3.4,1.9,5.8,2.5c9,2.1,12.4-5.5,13.7-10.7c-1.2-0.7-2.4-0.9-3-0.9
			c-0.6-0.1-1.3-0.1-1.9-0.2c-1-0.8-2.5-3.9-2.8-8.8l-0.4,0.1l-7.1,1.9c0,0,0.3,2.2,0.5,4.4c0.1,1.7,0.1,3.2-0.2,3.6
			c-0.6,0.1-0.9,0.2-0.9,0.2l0,0C230.4,162.1,228.3,165.4,226.8,169.8z"/>
		<path class="st19" d="M231,153.7c0,0,0.3,2.2,0.5,4.4c4-0.4,5.9-4.2,6.6-6.3L231,153.7z"/>
		<path class="st20" d="M230.9,157.1c0,0,9.2-2.4,7.6-8.1c-1.6-5.7-1.4-9.9-7.4-8.6c-5.9,1.3-6.5,3.8-6.4,5.8
			C224.9,148.2,228.5,157.5,230.9,157.1z"/>
		<path class="st32" d="M224.2,142.9c0.9-2.1,2.1-2,2.9-1.7c4.3-4.1,8.6-0.9,8.6-0.9c1.7,3.9,5.3,5.5,5.3,5.5s-1.4,1.5-5.5,1.6
			c-1.3,0-2.5-0.5-3.7-1.3c2.3,2.2,4.9,3.5,4.9,3.5c-5.2-0.9-8.8-6.8-9.2-7.4c-0.4,0.7-1.2,2.1-1.3,3.2c-0.1,1.6,0.6,4.6-0.3,4.8
			C225.9,150.1,222.8,146.1,224.2,142.9z"/>
		<path class="st20" d="M228.3,161.4c0,0,15.5-3.8,22.2,1.8l-3.4,46.9l-30.2-7.3c0,0,0.9-3,6.7-10.9
			C229.3,184,226.8,172.5,228.3,161.4z"/>
		<path class="st13" d="M237.3,204.9c0,0,0,0.2,0,0.5c0,0.1,0,0.3-0.1,0.5c-0.1,1.2-0.4,3.5-0.7,6.6c-0.8,7.9-2.1,20.7-3,30.8
			c-0.7,7.9-1.1,14.1-0.9,15.1c0.7,3,0,39,0,39c-2.6,1.2-6.5,0-6.5,0s-6.8-32.5-5.9-37c1-4.5-0.6-8.4-0.6-8.4
			c-5.3-24.8-4.7-38.5-3.7-45.1c0.3-1.9,0.7-3.2,0.9-4c0.2-0.7,0.4-1,0.4-1C228.9,198.8,237.3,204.9,237.3,204.9z"/>
		<path class="st8" d="M252.6,176.6c-0.7,5.6-3.7,12.5-4.8,16.3c0,0,1.8,12.9,0.1,16.4c-0.2,0.4-0.4,0.7-0.7,0.8
			c-6.3,2.7-30.9,0.1-31.9-7.8c-0.4-2.9,9.4-13,9.9-14.2c0.2-0.5,0.5-2.2-0.7-5.6c-1.6,5-10.5,3.6-10.5,3.6c1-1.8,3.7-14.2,6.6-19.8
			c2.2-4.2,8-4.8,8-4.8s2.4,3.9,8.3,3.3c5.9-0.5,7-4.2,7-4.2s5.2,0.7,6.8,2C251,162.8,253.6,169.2,252.6,176.6z"/>
		<path class="st9" d="M247.8,192.8c0,0,1.8,12.9,0.1,16.4c-4.6-2.3-8.2-8.5-7.4-15.5c0.6-5.1,1.5-6.3,4.3-9.2
			c2-2.2,6.7-2.3,6.3-1.3C250,186.3,248.3,190.9,247.8,192.8z"/>
		<g>
			<polygon class="st25" points="228.6,177.6 239.1,194.5 221.2,194.5 211.2,178 			"/>
			<polygon class="st26" points="238.6,193.6 238.8,193 228.8,177.1 228.6,177.6 			"/>
			<polygon class="st14" points="228.8,177.1 211.9,177.5 211.2,178 228.6,177.6 			"/>
			<polygon class="st24" points="211.2,178 201.7,172.8 212.7,190.2 221.2,194.5 			"/>
		</g>
		<path class="st20" d="M261.3,189.8c-1,0.5-3.6,3.5-4.5,3.8c-4.2,1.4-22-2.3-22-2.3l0.6-3.1c0,0,17.5,0.5,19.4,0
			c0.4-0.1,2.2-3,3-3.5L261.3,189.8z"/>
		<path class="st20" d="M235.3,188.2c0,0-2.1-1.7-3.5-1.3s-3.5,2.2-4.3,2.6c-0.8,0.4-2.9,1.9-1.8,2.9c1.1,0.9,4.4,0.1,5.7-0.6
			c1.3-0.7,3.4-0.5,3.4-0.5L235.3,188.2z"/>
		<path class="st20" d="M232.2,186.8c0,0-2.6-0.3-3.3-0.3s-0.5,0.2-0.1,0.7s1.7,0.7,1.8,0.9C230.7,188.4,232.2,186.8,232.2,186.8z"
			/>
		<path class="st8" d="M243.9,160.5c0,0,7.6,0.9,9.7,4.2c2.6,4.1,8.9,20.5,8.7,24.6c0,0-4.6,7.8-20.2,6.5c0,0-1.6-5.7,1.7-7.6
			c0,0,8-1.4,8.9-2.2l-6.5-11.9L243.9,160.5z"/>
		<path class="st20" d="M213.6,184.1c-0.2-1-2.3-0.4-3,0.2c-0.2,0.1-0.4,0.4-0.5,0.6c0-0.2,0-0.3-0.1-0.4c0-0.4-0.6-1.3-0.7-0.7
			c-0.1,0.6-0.3,3.1-0.3,3.1c0,2,1.3,2.9,2.1,2.2C211.9,188.5,213.8,185.1,213.6,184.1z"/>
	</g>
</g>
</svg>
