<?xml version="1.0" encoding="utf-8"?>
<!-- Generator: Adobe Illustrator 21.0.2, SVG Export Plug-In . SVG Version: 6.00 Build 0)  -->
<svg version="1.1" id="圖層_1" xmlns="http://www.w3.org/2000/svg" xmlns:xlink="http://www.w3.org/1999/xlink" x="0px" y="0px"
	 viewBox="0 0 1440 479" style="enable-background:new 0 0 1440 479;" xml:space="preserve">
<style type="text/css">
	.st0{fill:#4951EC;}
	.st1{fill:#7C9AF2;}
	.st2{fill:#92B5F9;}
	.st3{fill:#0B0754;}
	.st4{fill:#BED1F9;}
	.st5{fill:#FFFFFF;}
	.st6{fill:#DDE8FE;}
	.st7{fill:#FA7167;}
	.st8{fill:#FB9390;}
	.st9{fill:#EF7F7F;}
	.st10{fill:#E8605D;}
</style>
<title>homePage_girlUseLaptop</title>
<g>
	
		<image style="overflow:visible;opacity:0.75;" width="541" height="405" xlink:href="E7F81921664608BB.png"  transform="matrix(1 0 0 1 769 50)">
	</image>
	<g>
		<g>
			<polygon class="st0" points="978.3,136.2 974.3,137.5 971.6,131.2 965.6,132.3 962.8,128 960.6,129.4 964.3,135.2 970.1,134.1 
				972.9,140.6 978.9,138.8 			"/>
			<polygon class="st1" points="1235.3,360.3 1231.3,361.5 1228.6,355.3 1222.6,356.4 1219.8,352 1217.6,353.4 1221.3,359.2 
				1227.1,358.2 1229.9,364.7 1235.9,362.8 			"/>
			<path class="st2" d="M953.7,434c0,0-21.4-72.5-23.1-88.5s10.2-11,10.2-11s-10.1-30.5-2.8-37.7s13.8,6.2,13.8,6.2s2.2-37,10-37
				c14.5,0,14.2,40.3,14.2,40.3s3.7-15.8,11.4-11.5c11.7,6.5-5.1,38.2-5.1,38.2s14.9,0,20.1,7.5C1011.8,354.1,953.7,434,953.7,434z"
				/>
			<path class="st2" d="M960.6,424.4c0,0-61.6-10.3-75.1-21.2s-0.1-15.9-0.1-15.9s-31-15.9-30.6-26.7s15.7-5.3,15.7-5.3
				s-26.1-29.7-19.9-35.4c11.5-10.5,41.7,20.4,41.7,20.4s-9-14.7,0.5-17c14.2-3.5,24.7,32.8,24.7,32.8s-2.7-14.3,7.1-12.4
				C942.3,347.1,960.6,424.4,960.6,424.4z"/>
			<path class="st1" d="M924.7,343.7c-9.8-1.8-7.1,12.4-7.1,12.4s-10.5-36.3-24.7-32.8c-9.4,2.3-0.5,17-0.5,17s-30.2-30.9-41.7-20.4
				l109.8,104.5C958.5,414.5,941.2,346.7,924.7,343.7z"/>
			<path class="st3" d="M978.2,432.9c0,0-32.5-33-48.8-36.5s-13.4,8.2-13.4,8.2s-32.4-28.4-40-21.5s0.6,13.5,0.6,13.5
				s-27-4.8-30.9,4.1c-5.9,13.6,38.5,21,38.5,21s-18.6,1.3-14.3,9.8C876.4,444.5,978.2,432.9,978.2,432.9z"/>
			<path class="st0" d="M845.7,400.8c3.9-8.9,30.9-4.1,30.9-4.1s-8.1-6.6-0.6-13.5s39,17.6,39,17.6s-7.4-14.2,8.9-10.7
				s54.3,42.8,54.3,42.8L845.7,400.8z"/>
			<path class="st4" d="M1029.9,92.4c-10.9,1.8-14.2,16.1-5.1,22.6c1.6,1.2,2.8,2.9,3.2,4.8l1.7,6.7c0.5,1.8,2.2,3,4.1,2.7l4.1-0.7
				c1.9-0.3,3.2-2,3-3.9c-0.6-6.9-1.3-9.4,1-12.5C1048.5,103.2,1040.8,90.6,1029.9,92.4z"/>
			<path class="st5" d="M1031,121.6c-0.7-5.9-1.7-12.1-2.1-13.9c-6.3,0.3-3.9-6.3-1-3.6c0.8,0.8,1.3,1.8,1.5,2.9
				c2.1-0.2,4.1-0.8,6-1.7c-0.2-1.2-0.2-2.4,0.2-3.5c0.6-1.4,2.4-1.8,3.1-0.4c0.3,0.5,0.3,1.2,0.1,1.7c-0.6,1.1-1.6,2-2.8,2.5
				c0.3,4.7,0.8,9.4,1.4,14.1l-0.6,0.1c-0.6-4.6-1-9.2-1.3-13.8c-1.8,0.9-3.8,1.5-5.9,1.7c0.4,2.3,1.4,8.3,2,13.9L1031,121.6z
				 M1026,106.3c0.8,0.7,1.8,1,2.8,0.8c-0.2-1-0.6-1.8-1.3-2.6C1026,103.1,1025,105.3,1026,106.3z M1036.1,102.1
				c-0.3,1-0.3,2-0.1,2.9c1-0.4,1.8-1.2,2.3-2.1c0.3-0.7,0-1.5-0.7-1.8C1037.4,101.2,1036.3,101.5,1036.1,102.1L1036.1,102.1z"/>
			<path class="st1" d="M1028,119.7v0.2l1.7,6.7c0.5,1.8,2.2,3,4.1,2.7l4.1-0.7c1.9-0.3,3.2-2,3-3.9c-0.3-3.1-0.5-5.3-0.6-7
				L1028,119.7z"/>
			<path class="st6" d="M1021.8,87.5l-3.3-6c-0.3-0.6-0.1-1.3,0.5-1.6c0.6-0.3,1.3-0.1,1.6,0.5l3.3,6c0.3,0.6,0.1,1.3-0.5,1.6
				C1022.8,88.2,1022.1,88,1021.8,87.5L1021.8,87.5z"/>
			<path class="st6" d="M1014.6,101.9l-7.1-0.6c-0.7-0.1-1.1-0.7-1-1.3c0.1-0.6,0.6-1.1,1.3-1.1l7.1,0.6c0.7,0,1.2,0.6,1.1,1.3
				C1015.9,101.4,1015.3,101.9,1014.6,101.9C1014.7,101.9,1014.6,101.9,1014.6,101.9z"/>
			<path class="st6" d="M1007.6,123.7c-0.5-0.5-0.5-1.2,0-1.7c0,0,0,0,0,0c1.8-1.7,3.7-3.3,5.7-4.7c0.6-0.4,1.3-0.2,1.7,0.3
				c0.4,0.6,0.2,1.3-0.3,1.7l0,0c-1.9,1.3-3.7,2.8-5.4,4.4C1008.8,124.2,1008,124.2,1007.6,123.7z"/>
			<path class="st6" d="M1039.4,87.1c-0.6-0.2-1-0.8-0.8-1.5c0,0,0,0,0,0c0.8-3,1.3-6.1,1.5-9.2c0-0.7,0.6-1.2,1.3-1.1
				c0.7,0,1.2,0.6,1.1,1.3l0,0c-0.2,3.3-0.7,6.6-1.6,9.7C1040.6,86.9,1040,87.3,1039.4,87.1C1039.4,87.1,1039.4,87.1,1039.4,87.1z"
				/>
			<path class="st6" d="M1046.7,96.3c-0.2-0.6,0.2-1.3,0.8-1.5c0,0,0,0,0,0l7.4-2.2c0.6-0.2,1.3,0.2,1.5,0.8s-0.2,1.3-0.8,1.5
				l-7.4,2.2C1047.6,97.3,1046.9,96.9,1046.7,96.3z"/>
			<path class="st6" d="M1058.9,116c-0.1,0-0.2,0-0.3,0c-2.6-0.7-5.1-1.7-7.4-3c-0.6-0.3-0.8-1-0.5-1.6c0.3-0.6,1-0.8,1.6-0.5
				c2.2,1.2,4.5,2.1,6.9,2.8c0.6,0.2,1,0.8,0.8,1.5C1059.9,115.7,1059.4,116,1058.9,116L1058.9,116z"/>
			<path class="st2" d="M1167.3,168.7l-3.7-8.8l-9.4-1.9c-0.7-0.1-1.2-0.8-1-1.6c0.1-0.3,0.2-0.5,0.4-0.7l7.2-6.3l-1.1-9.5
				c-0.1-0.7,0.4-1.4,1.2-1.5c0.3,0,0.6,0,0.8,0.2l8.2,5l8.7-4c0.7-0.3,1.4,0,1.7,0.7c0.1,0.3,0.1,0.6,0.1,0.8l-2.2,9.3l6.5,7.1
				c0.5,0.5,0.4,1.4-0.1,1.9c-0.2,0.2-0.5,0.3-0.8,0.3l-9.6,0.8l-4.7,8.3c-0.4,0.6-1.2,0.9-1.8,0.5
				C1167.6,169.2,1167.4,168.9,1167.3,168.7z"/>
			<polygon class="st7" points="1226.8,138.4 1225.3,144.6 1215,143.2 1211.7,151.9 1203.9,152.2 1204,156.1 1214.4,155.8 
				1217.6,147.5 1228.2,148.9 1230.6,139.6 			"/>
			<path class="st7" d="M1135.7,434.9H956c-7-0.1-12.6-5.9-12.5-12.9v-7.7c-0.1-7,5.4-12.8,12.4-12.9c0,0,0,0,0,0h179.7
				c-8.2,9.4-8.4,23.5-0.3,33.1L1135.7,434.9z"/>
			<path class="st6" d="M1132.9,405.2h-99.7c-7,0.1-12.6,5.9-12.4,12.9l0,0c-0.1,7,5.4,12.7,12.4,12.9h99.7
				C1128.3,423,1128.3,413.2,1132.9,405.2z"/>
			<path class="st0" d="M1072.6,378.2c0.2-0.4,0-0.8-0.4-1c-0.1-0.1-0.2-0.1-0.4-0.1h-95.1c-7.5,0-13.5,5.4-13.5,12.1l0,0
				c0,6.7,6,12.1,13.5,12.1h95.1c0.4,0,0.8-0.3,0.8-0.7c0-0.1,0-0.3-0.1-0.4l0,0C1068.8,393.4,1068.8,385.1,1072.6,378.2z"/>
			<path class="st6" d="M1072,379.4h-47.1c-8.8,0-15.8,4.6-15.8,10.2s7.1,10.2,15.8,10.2h47.4C1069.1,393.4,1069,385.8,1072,379.4z"
				/>
			<path class="st1" d="M1059.8,384.2h-6.1c-1.3,0-2.4,0.4-2.4,1v0.1h8.5V384.2z"/>
			<path class="st1" d="M1065,386.7c0-1.4-1.6-2.5-3.6-2.5h-7.9c1.5,0,2.7,0.8,2.7,1.9v26.6l4.3-3.4l4.4,3.4L1065,386.7z"/>
			<path class="st6" d="M1055.1,376.2h-55.3c-4.9,0-8.9-4.7-8.9-10.5l0,0c0-5.8,4-10.5,8.9-10.5h55.3c-4.2,6.1-4.4,14.2-0.4,20.5
				L1055.1,376.2z"/>
			<path class="st3" d="M990.9,365.7L990.9,365.7c0-5.8,4.1-10.5,9.1-10.5h56.2c0.3,0,0.5-0.3,0.5-0.5c0,0,0,0,0,0l0,0
				c0-0.3-0.2-0.5-0.5-0.5H967c-5.5,0-10,5.2-10,11.6l0,0c0,6.4,4.5,11.6,10,11.6h89.1c0.3,0,0.5-0.3,0.5-0.5l0,0
				c0-0.3-0.2-0.5-0.5-0.5c0,0,0,0,0,0H1000C994.9,376.2,990.9,371.5,990.9,365.7z"/>
			<path class="st7" d="M1045.4,360.3h-6.1c-1.3,0-2.4,0.4-2.4,1v0.1h8.5V360.3z"/>
			<path class="st7" d="M1050.7,362.8c0-1.3-1.6-2.4-3.6-2.4h-7.9c1.5,0,2.7,0.8,2.7,1.9v26.1l4.3-3.4l4.4,3.4L1050.7,362.8z"/>
			<path class="st1" d="M1143.2,199.1l8.2-2.1l-5.5,73.8l-9.8,0.3l4.9-69.3C1141.1,200.5,1142,199.4,1143.2,199.1z"/>
			<path class="st4" d="M1146.6,272.9c-0.2,0-0.4,0-0.6,0c-1.7-0.3-2.9-1.9-2.7-3.6l5.4-69.4c0.1-1.7,1.5-2.9,3.1-2.9
				c0,0,0.1,0,0.1,0c1.7,0.3,2.9,1.9,2.7,3.6l-5.4,69.4C1149.2,271.5,1148.1,272.7,1146.6,272.9z"/>
			<path class="st4" d="M1071.4,276.6c0,0,0,0.1,0,0.1l0,0c0.3,2.8,2.4,4.9,4.9,4.7l69-6.2c2.4-0.2,4.2-2.7,4-5.5c0-0.1,0-0.2,0-0.4
				L1071.4,276.6z"/>
			<path class="st8" d="M1119.5,351.2c-4.5,2.5-18.3-1.9-18.3-2.3c-0.2,3.8-15.5,40.7-15.5,40.7V401c0,0,31.4,1.5,31-1.3
				s-2.1-1-8.4-6.2c-0.6-0.5-9.4-2.5-7-7.7C1106.1,375.3,1116.3,357.8,1119.5,351.2z"/>
			<path class="st3" d="M1084.7,401.4h34.4c1.2-0.1,1.5-1.1,1.1-1.8c-0.9-1.3-7.5-4.2-11.9-6.2c-7.7,0.9-21.3-2.1-22.6-3.8
				C1082.4,394,1084,401.2,1084.7,401.4z"/>
			<path class="st3" d="M1077.1,324.7c-0.5-1.4,29.6-14.2,31-12.7c2.4,2.6-16.3,51-16.3,51l21.4,6.6c0,0,22.3-56,21.4-66.2
				s-12.1-21.9-36.3-14.4S1077.1,324.7,1077.1,324.7z"/>
			<path class="st8" d="M1139.4,357.6c-5.6-0.8-11.3-1.3-16.9-1.3c0.6,4.7,3.6,28.8,3.1,30.2c-1.4,3.6-3.9,6.7-7.2,8.8
				c0,0,23.4,21.1,24.8,18.7s-1-2.1-2.6-10.1c-0.1-0.7-3.5-11.9-3.7-18C1136.5,374.3,1139.3,364,1139.4,357.6z"/>
			<path class="st0" d="M1131.9,278.8c-3.3-1.7-11.7-1.8-21-1.2c-18.1,1.2-36.1,4.7-53.3,10.5l-11.6,3.8V280c0,0-36.8-6.1-38,3
				c-1.9,13.7,0.5,41.6,12.7,47.8c38,19.3,91.3-30.8,91.5-24.2c0.3,8.8,7.7,41.5,9.6,55.9c5.3,0.1,14.3,0.1,18.3-0.8
				C1140.9,333.6,1141.2,283.8,1131.9,278.8z"/>
			<path class="st3" d="M1117.7,395.8l26.3,21c1,0.7,1.9,0.1,2-0.7c0.1-1.5-3.1-8-5.3-12.4c-6.6-4.2-15.2-15.1-15-17.3
				C1122.8,388.8,1117.2,395.3,1117.7,395.8z"/>
			<path class="st3" d="M1058.2,164.3c-0.9-8.1-1.8-16.2-8.5-22.1c-5.4-4.8-12.3-5.6-19.1-3c-19.3,7.3-9.3,24.4-33.9,41.7
				c-7.6,5.4-16.1,9-21.8,16.3c-8,10.1-5,22.3,2.3,30.4c35.1,38.9,74.3-13.6,77.1-26.2C1056.4,191.9,1058.8,169.5,1058.2,164.3z"/>
			<path class="st7" d="M1051.1,209.7c-1.8-3.3-3.7-6.4-5.8-9.5c-3-5.3-10.7-8-10.7-8s-2.6,0.1-5.5,0.2c-0.1,0.4-0.3,0.7-0.6,1
				c-1.1,0.8-7.5-0.2-11.6,2.6c-13.8,11.8-10,69-8.9,87.1l41.9,0.4c0,0-5.3-38.9,3.2-48.9C1059.1,227.6,1055.3,217.5,1051.1,209.7z"
				/>
			<path class="st8" d="M1032.2,172.9c0,0-2.3,16.5-3.9,20.5s8.8,12.6,17.6,15.1s-2.7-8.8-2.3-13.1s1.9-24.5,1.9-24.5L1032.2,172.9z
				"/>
			<path class="st9" d="M1045,176.7c0.2-3.4,0.4-5.8,0.4-5.8l-13.3,2c0,0-0.3,1.9-0.7,4.7C1036.8,180.7,1041.7,179.7,1045,176.7z"/>
			<path class="st8" d="M1036.3,142.8c-3.5,1-6.5,3.1-8.5,6.1c-3.2,4.9-5.5,19.4,5.2,26.2c10.7,6.8,18.9-2.8,19.1-12.2
				S1050.3,141.2,1036.3,142.8z"/>
			
				<ellipse transform="matrix(0.3733 -0.9277 0.9277 0.3733 511.764 1075.7443)" class="st8" cx="1052.1" cy="159.1" rx="4.4" ry="2.6"/>
			<path class="st3" d="M1037.9,142.5c0,0-6.7,15-12.5,16.3s-5.8,8.9-5.8,8.9s0.1-17.4,5.6-21.4S1037.9,142.5,1037.9,142.5z"/>
			
				<ellipse transform="matrix(0.9531 -0.3027 0.3027 0.9531 -1.2081 317.8242)" class="st8" cx="1024.7" cy="162.8" rx="3.1" ry="4.6"/>
			<path class="st8" d="M1102.7,270c-2.5-0.9-6.3-1-6.2-1.4c0.2-1.3,11.4,3,9.9,1c-0.8-1.1-9.2-5-11.2-4.3s-14.8,4.2-14.8,4.2
				l-35.2-8.2c0,0-8.9-20.2-9.8-37.5c-6.6,0.8-13,3-18.7,6.4c3.1,16.6,10.6,43.5,18.8,48.5c3.5,2.1,45-2.5,45-2.5s9.2-0.6,10.7-1.2
				c1.1-0.4,4.1-2.1,5.6-2.5c3.6-1,10,1.5,10.1,0.8C1106.9,272.7,1105.2,271,1102.7,270z"/>
			<path class="st10" d="M1035.6,205.3c-0.3-5.3-2.4-10.5-8-12.1c-3.6-1-7.4-0.1-10.3,2.2c-3.3,2.7-4.3,7.1-4.3,11.3
				c0,9.5,0.8,19.1,2.4,28.5c6.6-3.5,13.8-5.8,21.2-6.7C1036.6,228.4,1036.1,212.3,1035.6,205.3z"/>
			<path class="st2" d="M867.2,205.1l6.7-36.6c0.2-1.1,1.2-1.8,2.3-1.6l54.4,10c1.1,0.2,1.8,1.2,1.6,2.3l-6.7,36.6
				c-0.2,1.1-1.2,1.8-2.3,1.6l-54.4-10C867.7,207.2,867,206.2,867.2,205.1z"/>
			<path class="st2" d="M882.4,167.9l1-5.6c0.2-1.1,1.3-1.8,2.4-1.6l16.6,3.1c1.1,0.2,1.8,1.3,1.6,2.4l-1,5.6
				c-0.2,1.1-1.3,1.8-2.4,1.6l-16.6-3.1C882.9,170.1,882.2,169,882.4,167.9z"/>
			<path class="st4" d="M929,213.9c-0.3,1-1.3,1.6-2.3,1.4l-54.9-10.2c-1-0.2-1.7-1.1-1.6-2.2l2.9-32.9c0.1-1.1,1-1.9,2.1-1.8
				c0.1,0,0.2,0,0.2,0l61,11.4c1.1,0.2,1.8,1.2,1.6,2.3c0,0.1,0,0.1,0,0.2L929,213.9z"/>
			<polygon class="st0" points="1179.3,93.7 1170,96.3 1167.9,84.9 1171,84.4 1172.4,92.4 1178.5,90.7 			"/>
			<path class="st3" d="M881.6,249.2c2.6-0.1,5.3,0.6,7.5,1.9c1.7,1,3.1,2.4,4,4.1l-0.4,0.3c-1.3-1.5-3.1-2.6-5-3.1
				c-1.8-0.5-3.8-0.5-5.6-0.1L881.6,249.2z"/>
			<path class="st7" d="M893,255.4c0,0-14.3,2.4-12.9,13.5s16.4,19.8,29.8,12.9c18.1-9.3,10.9-32.8-1.9-34.6S893,255.4,893,255.4z"
				/>
			<path class="st8" d="M899,250.6c0,0,3.7-3.8,11.9-0.3s8.7,19.7,1.5,18.7S893.2,252.9,899,250.6z"/>
			<path class="st1" d="M925.2,86.3l58.6-20.9c1.9-0.7,4,0.3,4.6,2.2L999.3,98c0.7,1.9-0.3,4-2.2,4.6l-58.6,20.9
				c-1.9,0.7-4-0.3-4.6-2.2L923,91C922.3,89.1,923.3,87,925.2,86.3z"/>
			
				<ellipse transform="matrix(0.9419 -0.3359 0.3359 0.9419 21.8902 323.9811)" class="st5" cx="947.3" cy="98.7" rx="11.6" ry="11.6"/>
			
				<ellipse transform="matrix(0.9419 -0.3359 0.3359 0.9419 23.2664 323.1998)" class="st1" cx="945.7" cy="94.4" rx="3.4" ry="3.4"/>
			<path class="st1" d="M947.4,99.7l0.3-0.1c2.8-1,5.8,0.5,6.8,3.2l0,0l0,0l-10.3,3.7l0,0l0,0C943.2,103.7,944.7,100.7,947.4,99.7
				C947.4,99.7,947.4,99.7,947.4,99.7z"/>
			<path class="st5" d="M959.7,88.4c-0.8,0-1.5-0.6-1.5-1.5c0-0.6,0.4-1.2,1-1.4l25.6-9.1c0.8-0.3,1.6,0.1,1.9,0.9
				c0.3,0.8-0.1,1.6-0.9,1.9l-25.6,9.1C960,88.4,959.9,88.4,959.7,88.4z"/>
			<path class="st5" d="M966.6,94.8c-0.8,0-1.5-0.6-1.5-1.5c0-0.6,0.4-1.2,1-1.4l20-7.1c0.8-0.3,1.6,0.1,1.9,0.9
				c0.3,0.8-0.1,1.6-0.9,1.9l-20,7.1C966.9,94.8,966.8,94.8,966.6,94.8z"/>
			<path class="st7" d="M1088.2,331.4H946.6c-4.4,0-8,3.6-8,8v6.7c0,4.4,3.6,8,8,8h141.6l-0.1-0.1
				C1082,347.7,1082.1,337.7,1088.2,331.4z"/>
			<path class="st6" d="M1085.7,334.8H1010c-4.4,0-8,3.6-8,8l0,0c0,4.4,3.6,8,8,8h75.7C1082.9,345.8,1082.9,339.7,1085.7,334.8z"/>
			<path class="st4" d="M1204.1,332.1l-10.7-26.9c-0.5-1.4,0.1-2.9,1.5-3.4l38.6-15.4c1.4-0.5,2.9,0.1,3.4,1.5l10.7,26.9
				c0.5,1.4-0.1,2.9-1.5,3.4l-38.6,15.4C1206.2,334.1,1204.6,333.4,1204.1,332.1z"/>
			<path class="st2" d="M1240.5,316.5l-9.6-24.2c-0.2-0.4,0-0.8,0.4-1c0,0,0,0,0,0l0,0c0.4-0.2,0.8,0,1,0.4c0,0,0,0,0,0l9.6,24.2
				c0.2,0.4,0,0.8-0.4,1c0,0,0,0,0,0l0,0C1241.1,317.1,1240.7,316.9,1240.5,316.5C1240.5,316.5,1240.5,316.5,1240.5,316.5z"/>
			<path class="st2" d="M1235.9,313.3l-7.9-19.9c-0.2-0.4,0-0.8,0.4-1c0,0,0,0,0,0l0,0c0.4-0.2,0.8,0,1,0.4c0,0,0,0,0,0l7.9,19.9
				c0.2,0.4,0,0.8-0.4,1c0,0,0,0,0,0l0,0C1236.5,313.9,1236.1,313.7,1235.9,313.3C1235.9,313.3,1235.9,313.3,1235.9,313.3z"/>
			<path class="st2" d="M1234.8,318.8l-9.6-24.2c-0.2-0.4,0-0.8,0.4-1c0,0,0,0,0,0l0,0c0.4-0.2,0.8,0,1,0.4c0,0,0,0,0,0l9.6,24.2
				c0.2,0.4,0,0.8-0.4,1c0,0,0,0,0,0l0,0C1235.4,319.4,1234.9,319.2,1234.8,318.8C1234.8,318.8,1234.8,318.8,1234.8,318.8z"/>
			<path class="st2" d="M1229.7,314.4l-7.4-18.7c-0.2-0.4,0-0.8,0.4-1c0,0,0,0,0,0l0,0c0.4-0.2,0.8,0,1,0.4c0,0,0,0,0,0l7.4,18.7
				c0.2,0.4,0,0.8-0.4,1c0,0,0,0,0,0l0,0C1230.3,315,1229.9,314.8,1229.7,314.4C1229.7,314.4,1229.7,314.4,1229.7,314.4z"/>
			<path class="st2" d="M1240.3,289.7l-0.2-0.5c-0.1-0.2-0.3-0.3-0.4-0.2l-3.7,1.5c-0.2,0.1-0.3,0.3-0.2,0.4c0,0,0,0,0,0l0.2,0.5
				c0.1,0.2,0.3,0.3,0.4,0.2l3.7-1.5C1240.3,290.1,1240.3,289.9,1240.3,289.7C1240.3,289.7,1240.3,289.7,1240.3,289.7z"/>
			<path class="st2" d="M1241.1,291.8l-0.2-0.5c-0.1-0.2-0.3-0.3-0.4-0.2l-3.7,1.5c-0.2,0.1-0.3,0.3-0.2,0.4c0,0,0,0,0,0l0.2,0.5
				c0.1,0.2,0.3,0.3,0.4,0.2l3.7-1.5C1241.1,292.2,1241.2,292,1241.1,291.8C1241.1,291.8,1241.1,291.8,1241.1,291.8z"/>
			<path class="st2" d="M1241.9,293.9l-0.2-0.5c-0.1-0.2-0.3-0.3-0.4-0.2l-3.7,1.5c-0.2,0.1-0.3,0.3-0.2,0.4c0,0,0,0,0,0l0.2,0.5
				c0.1,0.2,0.3,0.3,0.4,0.2l3.7-1.5C1241.9,294.3,1242,294.1,1241.9,293.9C1241.9,293.9,1241.9,293.9,1241.9,293.9z"/>
			<path class="st2" d="M1242.8,296l-0.2-0.5c-0.1-0.2-0.3-0.3-0.4-0.2c0,0,0,0,0,0l-3.7,1.5c-0.2,0.1-0.3,0.3-0.2,0.4c0,0,0,0,0,0
				l0.2,0.5c0.1,0.2,0.3,0.3,0.4,0.2l3.7-1.5C1242.7,296.4,1242.8,296.2,1242.8,296C1242.8,296,1242.8,296,1242.8,296z"/>
			<path class="st2" d="M1243.6,298.1l-0.2-0.5c-0.1-0.2-0.3-0.3-0.4-0.2l-3.7,1.5c-0.2,0.1-0.3,0.3-0.2,0.4c0,0,0,0,0,0l0.2,0.5
				c0.1,0.2,0.3,0.3,0.4,0.2l3.7-1.5C1243.6,298.5,1243.7,298.3,1243.6,298.1C1243.6,298.1,1243.6,298.1,1243.6,298.1z"/>
			<path class="st2" d="M1244.4,300.2l-0.2-0.5c-0.1-0.2-0.3-0.3-0.4-0.2l-3.7,1.5c-0.2,0.1-0.3,0.3-0.2,0.4c0,0,0,0,0,0l0.2,0.5
				c0.1,0.2,0.3,0.3,0.4,0.2l3.7-1.5C1244.4,300.5,1244.5,300.3,1244.4,300.2C1244.4,300.2,1244.4,300.2,1244.4,300.2z"/>
			<path class="st2" d="M1245.2,302.2l-0.2-0.5c-0.1-0.2-0.3-0.3-0.4-0.2l-3.6,1.5c-0.2,0.1-0.3,0.3-0.2,0.4c0,0,0,0,0,0l0.2,0.5
				c0.1,0.2,0.3,0.3,0.4,0.2l3.7-1.5C1245.3,302.6,1245.3,302.4,1245.2,302.2z"/>
			<path class="st2" d="M1246.1,304.3l-0.2-0.5c-0.1-0.2-0.3-0.3-0.4-0.2l-3.7,1.5c-0.2,0.1-0.3,0.3-0.2,0.4c0,0,0,0,0,0l0.2,0.5
				c0.1,0.2,0.3,0.3,0.4,0.2l3.7-1.5C1246.1,304.7,1246.2,304.5,1246.1,304.3C1246.1,304.3,1246.1,304.3,1246.1,304.3z"/>
			<path class="st2" d="M1246.9,306.4l-0.2-0.5c-0.1-0.2-0.3-0.3-0.4-0.2l-3.7,1.5c-0.2,0.1-0.3,0.3-0.2,0.4c0,0,0,0,0,0l0.2,0.5
				c0.1,0.2,0.3,0.3,0.4,0.2l3.7-1.5C1246.9,306.8,1247,306.6,1246.9,306.4C1246.9,306.4,1246.9,306.4,1246.9,306.4z"/>
			<path class="st2" d="M1247.7,308.5l-0.2-0.5c-0.1-0.2-0.3-0.3-0.4-0.2l-3.7,1.5c-0.2,0.1-0.3,0.3-0.2,0.4c0,0,0,0,0,0l0.2,0.5
				c0.1,0.2,0.3,0.3,0.4,0.2l3.7-1.5C1247.7,308.9,1247.8,308.7,1247.7,308.5C1247.7,308.5,1247.7,308.5,1247.7,308.5z"/>
			<path class="st2" d="M1248.6,310.6l-0.2-0.5c-0.1-0.2-0.3-0.3-0.4-0.2l-3.7,1.5c-0.2,0.1-0.3,0.3-0.2,0.4c0,0,0,0,0,0l0.2,0.5
				c0.1,0.2,0.3,0.3,0.4,0.2l3.7-1.5C1248.6,311,1248.6,310.8,1248.6,310.6C1248.6,310.6,1248.6,310.6,1248.6,310.6z"/>
			<path class="st2" d="M1249.4,312.7l-0.2-0.5c-0.1-0.2-0.3-0.3-0.4-0.2l-3.7,1.5c-0.2,0.1-0.3,0.3-0.2,0.4c0,0,0,0,0,0l0.2,0.5
				c0.1,0.2,0.3,0.3,0.4,0.2l3.7-1.5C1249.4,313,1249.5,312.8,1249.4,312.7C1249.4,312.7,1249.4,312.7,1249.4,312.7z"/>
			<path class="st7" d="M1259.5,310.5l-15.3,21.8c0,0-0.1,0.1-0.1,0.2l-1.6,4.8c-0.1,0.3,0.1,0.7,0.4,0.8c0.2,0.1,0.4,0,0.6-0.1
				l4.1-3.1c0,0,0.1-0.1,0.1-0.1l15.4-21.9c0.2-0.3,0.1-0.6-0.1-0.8c0,0,0,0,0,0l-2.6-1.6C1260.1,310.2,1259.7,310.3,1259.5,310.5z"
				/>
			<path class="st4" d="M1247.7,334.8L1247.7,334.8l-4,3l-1.1-0.7l1.5-4.5C1245.4,333.1,1246.6,333.9,1247.7,334.8z"/>
			<path class="st0" d="M1104.2,74.2c2.2,1.8,6,7.4,10.9,11.4c2.9,2.3,5.1,1.7,8.7,2.2c17.3,2.1,12.7,5.6,14.7,6
				c-0.6,1.4-6,12.8-7,15.2c-0.7,2-2.8,3.2-4.9,2.8c-3.6-0.5-7.2-0.9-10.7-1.6c-9.1-2-14.1-6.5-20.6-12c-1.7-1.2-2.2-3.5-1.2-5.3
				C1097.1,86.4,1100.5,80.2,1104.2,74.2z"/>
			<path class="st1" d="M1140.5,107.6c-0.1,3.8,0.2,4.5-1.4,4c-1-0.4-1.9-0.8-2.8-1.3c-0.7-0.3-0.7-0.8-0.2-1.3
				c0.8-0.8,1.6-1.5,2.3-2.3c-0.5-1.5,0.1-3.2,1.5-4c0.3-0.2,0.1,0.2,2.5-5.4c-8-1-13.6-1.7-23.4-2.8c-2.6-0.3-5-1.3-6.9-3
				L1091.2,74c-0.9-0.6-1.1-1.8-0.4-2.7c0,0,0.1-0.1,0.1-0.1c0.6-0.6,1.4-0.8,2.2-0.6c2.2,0.3,24,3,26.2,3.2
				c2.8,0.3,5.5,1.5,7.7,3.3c6.8,5.7,13.7,11.4,20.5,17.2c0.9,0.8,1.2,1.5,0.9,2.4c-0.3,1-1.4,1.5-2.3,1.2c0,0,0,0,0,0
				c-0.9-0.2-1.2,0.1-1.5,0.9c-1.3,3.6-2.3,4.4-2,5.7C1142.8,105.4,1141.6,107.2,1140.5,107.6z"/>
			<path class="st1" d="M1176.7,364.5l4,3.8c9.4,9,17.1,19.6,22.6,31.3l0.6,1.3c0,0,10.4,0.9,11.9-8.5l0,0
				c-9-10.2-16.7-21.4-22.8-33.6l-1.9-4.4L1176.7,364.5z"/>
			<path class="st4" d="M1191,354.4c0.5,0.7-2.3,3.6-6.2,6.3s-7.6,4.4-8.1,3.7s2.3-3.6,6.2-6.4S1190.5,353.7,1191,354.4z"/>
			<path class="st2" d="M1191,354.4L1191,354.4c0,0-7.9,6.7-11.2,7.4l1,1.4c1.4-0.7,2.7-1.6,3.9-2.5
				C1188.7,358,1191.5,355.2,1191,354.4z"/>
			<path class="st7" d="M1201.6,373.9c0,1.2-0.4,6.1-8.7,8.2c0.5,0.7,1.1,1.5,1.6,2.2c5.3-1.5,7.6-4.2,8.7-6.3
				c0.2-0.3,0.4-0.8,0.5-1.1C1203,376,1202.3,374.9,1201.6,373.9z"/>
			<polygon class="st7" points="1193.6,380.7 1181.4,380.2 1184.3,382.7 1182.6,385.8 1194.2,382.9 			"/>
			<polygon class="st7" points="1194.8,383.5 1190.4,391.1 1193.5,389.9 1194.6,392.3 1196.7,384.4 			"/>
			
				<ellipse transform="matrix(0.9976 -6.982913e-02 6.982913e-02 0.9976 -23.8321 84.6527)" class="st7" cx="1198.9" cy="383.2" rx="3.9" ry="4"/>
			<path class="st4" d="M1222.3,214l-25.7-23c-1.7-1.5-1-4.6,1.3-5.9l20.5-11.6c1.2-0.8,2.7-0.7,3.8,0.2l25.7,23
				c1.7,1.5,1,4.6-1.3,5.9l-20.5,11.6C1224.9,214.9,1223.4,214.9,1222.3,214z"/>
			<path class="st5" d="M1221.1,195.7l-2.1-17.6c0-0.7,0.4-1.4,1.1-1.6c0.5-0.2,1.1,0,1.3,0.5c0,0.1,0.1,0.2,0.1,0.3l2,16.2
				l19.5,4.7c0.6,0.2,0.9,0.8,0.7,1.3c0,0.1,0,0.1-0.1,0.2c-0.2,0.7-0.9,1.1-1.7,1L1221.1,195.7z"/>
			<path class="st0" d="M786.8,434.6c-1.5,0.1-2.6,1.4-2.5,2.9c0,1.6,1.1,2.9,2.8,1h506.8c0.7,0,1.2-0.9,1.2-1.9l0,0
				c0-1.1-0.5-1.9-1.2-1.9L786.8,434.6z"/>
			<polygon class="st4" points="885.1,114.9 887.8,120.2 893.8,120 896.4,126.1 902.7,123.9 905.9,130.7 912,129.4 916.1,135.4 
				913.9,137 910.8,132.5 904.3,133.8 901.3,127.3 894.8,129.5 892,122.8 886.1,123 883.7,118.1 879.8,119.1 879.2,116.4 			"/>
			<polygon class="st2" points="1206.9,249.5 1212.4,251.7 1216.8,247.6 1222.7,250.5 1226.1,244.7 1232.9,247.8 1236.7,242.8 
				1243.8,244.6 1243.1,247.3 1237.8,245.9 1233.8,251.2 1227.2,248.3 1223.8,254.2 1217.3,250.9 1213,254.9 1207.9,252.9 
				1205.6,256.1 1203.4,254.5 			"/>
		</g>
	</g>
</g>
</svg>
