<?xml version="1.0" encoding="utf-8"?>
<!-- Generator: Adobe Illustrator 21.0.2, SVG Export Plug-In . SVG Version: 6.00 Build 0)  -->
<svg version="1.1" xmlns="http://www.w3.org/2000/svg" xmlns:xlink="http://www.w3.org/1999/xlink" x="0px" y="0px"
	 viewBox="0 0 372.3 198.1" style="enable-background:new 0 0 372.3 198.1;" xml:space="preserve">
<style type="text/css">
	.st0{fill:#F9DF5C;}
	.st1{fill:#FFFFFF;}
	.st2{fill:#F3CC30;}
	.st3{fill:#EDBD31;}
	.st4{fill:#F6D738;}
</style>
<g id="BG">
</g>
<g id="Object">
	<g>
		<path id="XMLID_156_" class="st0" d="M186.2,12.9V9.6c0-5.3-6.7-9.6-15-9.6H15C6.7,0,0,4.3,0,9.6v173.5h372.3V22.5
			c0-5.3-6.7-9.6-15-9.6H186.2z"/>
		<rect id="XMLID_154_" x="16.5" y="26.8" class="st1" width="342.7" height="158.1"/>
		<path id="XMLID_149_" class="st2" d="M180.8,46.5l-5.5,9.8H15c-8.3,0-15,4.3-15,9.6v122.5c0,5.3,6.7,9.6,15,9.6h342.4
			c8.3,0,15-4.3,15-9.6V49.8c0-5.3-6.7-9.6-15-9.6H194.9C188.6,40.2,183,42.7,180.8,46.5z"/>
		<path class="st3" d="M372.3,188.5v-79.9C268.9,173.3,89.5,190.5,4.2,195.2c2.7,1.8,6.6,3,10.8,3h342.4
			C365.6,198.1,372.3,193.8,372.3,188.5z"/>
		<g>
			<path class="st4" d="M151.2,64.1H24.6c-6.7,0-12.1,3.5-12.1,7.8v17.2C33.8,79.7,81.8,67.9,151.2,64.1z"/>
		</g>
	</g>
</g>
</svg>
