<?xml version="1.0" encoding="utf-8"?>
<!-- Generator: Adobe Illustrator 21.0.2, SVG Export Plug-In . SVG Version: 6.00 Build 0)  -->
<svg version="1.1" id="圖層_1" xmlns="http://www.w3.org/2000/svg" xmlns:xlink="http://www.w3.org/1999/xlink" x="0px" y="0px"
	 viewBox="0 0 170.2 216.8" style="enable-background:new 0 0 170.2 216.8;" xml:space="preserve">
<style type="text/css">
	.st0{opacity:0.75;}
	.st1{opacity:0;fill:#070707;}
	.st2{opacity:2.173900e-02;fill:#070707;}
	.st3{opacity:4.347800e-02;fill:#070707;}
	.st4{opacity:6.521700e-02;fill:#070707;}
	.st5{opacity:8.695700e-02;fill:#070707;}
	.st6{opacity:0.1087;fill:#070707;}
	.st7{opacity:0.1304;fill:#070707;}
	.st8{opacity:0.1522;fill:#070707;}
	.st9{opacity:0.1739;fill:#070707;}
	.st10{opacity:0.1957;fill:#070707;}
	.st11{opacity:0.2174;fill:#070707;}
	.st12{opacity:0.2391;fill:#070707;}
	.st13{opacity:0.2609;fill:#070707;}
	.st14{opacity:0.2826;fill:#070707;}
	.st15{opacity:0.3043;fill:#070707;}
	.st16{opacity:0.3261;fill:#070707;}
	.st17{opacity:0.3478;fill:#070707;}
	.st18{opacity:0.3696;fill:#070707;}
	.st19{opacity:0.3913;fill:#070707;}
	.st20{opacity:0.413;fill:#070707;}
	.st21{opacity:0.4348;fill:#070707;}
	.st22{opacity:0.4565;fill:#070707;}
	.st23{opacity:0.4783;fill:#070707;}
	.st24{opacity:0.5;fill:#070707;}
	.st25{opacity:0.5217;fill:#070707;}
	.st26{opacity:0.5435;fill:#070707;}
	.st27{opacity:0.5652;fill:#070707;}
	.st28{opacity:0.587;fill:#070707;}
	.st29{opacity:0.6087;fill:#070707;}
	.st30{opacity:0.6304;fill:#070707;}
	.st31{opacity:0.6522;fill:#070707;}
	.st32{opacity:0.6739;fill:#070707;}
	.st33{opacity:0.6957;fill:#070707;}
	.st34{opacity:0.7174;fill:#070707;}
	.st35{opacity:0.7391;fill:#070707;}
	.st36{opacity:0.7609;fill:#070707;}
	.st37{opacity:0.7826;fill:#070707;}
	.st38{opacity:0.8043;fill:#070707;}
	.st39{opacity:0.8261;fill:#070707;}
	.st40{opacity:0.8478;fill:#070707;}
	.st41{opacity:0.8696;fill:#070707;}
	.st42{opacity:0.8913;fill:#070707;}
	.st43{opacity:0.913;fill:#070707;}
	.st44{opacity:0.9348;fill:#070707;}
	.st45{opacity:0.9565;fill:#070707;}
	.st46{opacity:0.9783;fill:#070707;}
	.st47{fill:#070707;}
	.st48{fill:#FFFFFF;}
	.st49{opacity:0.43;}
	.st50{fill:#F44040;}
</style>
<g class="st0">
	<path class="st1" d="M159,4.9c0,0.5,0,0.4,0,0.4s0.1,0.8,0.1,1.4s-0.2,0.4-0.2,1.2s-0.1,0.5-0.1,0.5s0,0-0.2,1
		c1.3,1.1,2.1,2.7,2.1,4.6c0,3.3-2.7,6.1-6.1,6.1c-3.4,0-6.1-2.7-6.1-6.1c0-1.8,0.8-3.4,2-4.5c0,0,0,0,0,0c0,0,0,0,0,0
		c0,0,0-0.1,0.1-0.2c0.4-0.9,0,0,0.1-1.2c0.1-1.2-0.1-1.8-0.1-1.8l-0.2-0.7c0,0-0.1-0.3-0.1-0.6h-15.1c0.1,0.3,0-0.1,0.2,0.6
		c0.2,0.9,0.1,0.8,0.1,0.8s0,0-0.2,1.2c-0.2,1.1-0.1,0.9-0.1,1.7c1.4,1.1,2.2,2.8,2.2,4.7c0,3.3-2.7,6.1-6.1,6.1s-6.1-2.7-6.1-6.1
		c0-2.3,1.3-4.3,3.1-5.3c0-0.2,0.1-0.6,0.1-1.6c0.2-1.7-0.1-1.5-0.1-1.5l-0.1-0.6h-16.7c0.1,1.4,0.3,3.3,0.3,3.6
		c0,0.1-0.1,0.3-0.1,0.6c1.5,1.1,2.4,2.8,2.4,4.8c0,3.3-2.7,6.1-6.1,6.1c-3.4,0-6.1-2.7-6.1-6.1c0-1.9,0.9-3.6,2.3-4.7
		c-0.4-0.8-0.8-1.7-0.8-1.7l0.9-0.9c0,0,0,0,0.1-0.8c0.1-0.5,0-0.7-0.1-0.8H89.5c0,0.5,0,0.4,0,0.4s0.1,0.8,0.1,1.4
		s-0.2,0.4-0.2,1.2s-0.1,0.5-0.1,0.5s0,0-0.2,1c1.3,1.1,2,2.7,2,4.5c0,3.3-2.7,6.1-6.1,6.1c-3.4,0-6.1-2.7-6.1-6.1
		c0-1.8,0.8-3.5,2.1-4.6c0,0,0-0.1,0.1-0.1c0.4-0.9,0,0,0.1-1.2c0.1-1.2-0.1-1.8-0.1-1.8L81,5.5c0,0-0.1-0.3-0.1-0.6H65.7
		c0.1,0.3,0-0.1,0.2,0.6c0.2,0.9,0.1,0.8,0.1,0.8s0,0-0.2,1.2c-0.2,1.1-0.1,0.9-0.1,1.6c1.5,1.1,2.4,2.9,2.4,4.8
		c0,3.3-2.7,6.1-6.1,6.1s-6.1-2.7-6.1-6.1c0-2.2,1.2-4.1,2.9-5.2v0c0,0,0,0,0.2-1.7c0.2-1.7-0.1-1.5-0.1-1.5l-0.1-0.6H42.4
		c0.1,0.3,0.1,0.6,0.1,0.7c0,0.2,0,0.3,0,0.5l0.1,0.4c0.2,0.8,0,0-0.4,1c-0.4,1,0.1,1.2,0.1,1.2l0,0.2c1.6,1.1,2.6,2.9,2.6,4.9
		c0,3.3-2.7,6.1-6.1,6.1c-3.4,0-6.1-2.7-6.1-6.1c0-1.7,0.7-3.2,1.8-4.3l-0.1-0.4c-0.1-0.3,0-0.6,0.1-0.9l0.3-0.6
		C35,7.6,35,7.5,35,7.4l0.1-0.4c0.1-0.3,0.1-0.6,0-0.9L35,5.7c0-0.1,0-0.5,0-0.8H18.8c-0.4,1,0.1-0.1,0.2,0.7c0.2,0.9,0,0,0.2,0.9
		c0.2,0.9,0.1,0.8,0.1,0.8s0,0-0.2,1.2C19,8.6,19,8.7,19,8.9c1.6,1.1,2.7,2.9,2.7,5c0,3.3-2.7,6.1-6.1,6.1c-3.4,0-6.1-2.7-6.1-6.1
		c0-2.1,1.1-4,2.7-5c0-0.2,0-0.5,0.1-0.8c0.2-1.7-0.1-1.5-0.1-1.5l-0.1-0.8L12,4.9H0v216h170.2V4.9H159z"/>
	<path class="st2" d="M159,4.8c0,0.5,0,0.4,0,0.4s0.1,0.8,0.1,1.4s-0.2,0.4-0.2,1.2s-0.1,0.5-0.1,0.5s0,0-0.2,1
		c1.3,1.1,2.1,2.7,2.1,4.6c0,3.3-2.7,6.1-6.1,6.1c-3.4,0-6.1-2.7-6.1-6.1c0-1.8,0.8-3.4,2-4.5c0,0,0,0,0,0c0,0,0,0,0,0
		c0,0,0-0.1,0.1-0.2c0.4-0.9,0,0,0.1-1.2c0.1-1.2-0.1-1.8-0.1-1.8l-0.2-0.7c0,0-0.1-0.3-0.1-0.6h-15.1c0.1,0.3,0-0.1,0.2,0.6
		c0.2,0.9,0.1,0.8,0.1,0.8s0,0-0.2,1.2c-0.2,1.1-0.1,0.9-0.1,1.7c1.4,1.1,2.2,2.8,2.2,4.7c0,3.3-2.7,6.1-6.1,6.1s-6.1-2.7-6.1-6.1
		c0-2.3,1.3-4.3,3.1-5.3c0-0.2,0.1-0.6,0.1-1.6c0.2-1.7-0.1-1.5-0.1-1.5l-0.1-0.6h-16.7c0.1,1.4,0.3,3.3,0.3,3.6
		c0,0.1-0.1,0.3-0.1,0.6c1.5,1.1,2.4,2.8,2.4,4.8c0,3.3-2.7,6.1-6.1,6.1c-3.4,0-6.1-2.7-6.1-6.1c0-1.9,0.9-3.6,2.3-4.7
		c-0.4-0.8-0.8-1.7-0.8-1.7l0.9-0.9c0,0,0,0,0.1-0.8c0.1-0.5,0-0.7-0.1-0.8H89.5c0,0.5,0,0.4,0,0.4s0.1,0.8,0.1,1.4S89.4,7,89.4,7.8
		s-0.1,0.5-0.1,0.5s0,0-0.2,1c1.3,1.1,2,2.7,2,4.5c0,3.3-2.7,6.1-6.1,6.1c-3.4,0-6.1-2.7-6.1-6.1c0-1.8,0.8-3.5,2.1-4.6
		c0,0,0-0.1,0.1-0.1c0.4-0.9,0,0,0.1-1.2c0.1-1.2-0.1-1.8-0.1-1.8L81,5.4C81,5.4,81,5,81,4.8H65.7c0.1,0.3,0-0.1,0.2,0.6
		c0.2,0.9,0.1,0.8,0.1,0.8s0,0-0.2,1.2c-0.2,1.1-0.1,0.9-0.1,1.6c1.5,1.1,2.4,2.9,2.4,4.8c0,3.3-2.7,6.1-6.1,6.1s-6.1-2.7-6.1-6.1
		c0-2.2,1.2-4.1,2.9-5.2v0c0,0,0,0,0.2-1.7c0.2-1.7-0.1-1.5-0.1-1.5l-0.1-0.6H42.4c0.1,0.3,0.1,0.6,0.1,0.7c0,0.2,0,0.3,0,0.5
		l0.1,0.4c0.2,0.8,0,0-0.4,1c-0.4,1,0.1,1.2,0.1,1.2l0,0.2c1.6,1.1,2.6,2.9,2.6,4.9c0,3.3-2.7,6.1-6.1,6.1c-3.4,0-6.1-2.7-6.1-6.1
		c0-1.7,0.7-3.2,1.8-4.3l-0.1-0.4c-0.1-0.3,0-0.6,0.1-0.9l0.3-0.6C35,7.5,35,7.4,35,7.3L35.2,7c0.1-0.3,0.1-0.6,0-0.9L35,5.6
		c0-0.1,0-0.5,0-0.8H18.8c-0.4,1,0.1-0.1,0.2,0.7c0.2,0.9,0,0,0.2,0.9c0.2,0.9,0.1,0.8,0.1,0.8s0,0-0.2,1.2C19,8.5,19,8.6,19,8.7
		c1.6,1.1,2.7,2.9,2.7,5c0,3.3-2.7,6.1-6.1,6.1c-3.4,0-6.1-2.7-6.1-6.1c0-2.1,1.1-4,2.7-5c0-0.2,0-0.5,0.1-0.8
		c0.2-1.7-0.1-1.5-0.1-1.5l-0.1-0.8L12,4.8H0v216h170.2V4.8H159z"/>
	<path class="st3" d="M159,4.7c0,0.5,0,0.4,0,0.4s0.1,0.8,0.1,1.4s-0.2,0.4-0.2,1.2s-0.1,0.5-0.1,0.5s0,0-0.2,1
		c1.3,1.1,2.1,2.7,2.1,4.6c0,3.3-2.7,6.1-6.1,6.1c-3.4,0-6.1-2.7-6.1-6.1c0-1.8,0.8-3.4,2-4.5c0,0,0,0,0,0c0,0,0,0,0,0
		c0,0,0-0.1,0.1-0.2c0.4-0.9,0,0,0.1-1.2c0.1-1.2-0.1-1.8-0.1-1.8l-0.2-0.7c0,0-0.1-0.3-0.1-0.6h-15.1c0.1,0.3,0-0.1,0.2,0.6
		c0.2,0.9,0.1,0.8,0.1,0.8s0,0-0.2,1.2c-0.2,1.1-0.1,0.9-0.1,1.7c1.4,1.1,2.2,2.8,2.2,4.7c0,3.3-2.7,6.1-6.1,6.1s-6.1-2.7-6.1-6.1
		c0-2.3,1.3-4.3,3.1-5.3c0-0.2,0.1-0.6,0.1-1.6c0.2-1.7-0.1-1.5-0.1-1.5l-0.1-0.6h-16.7c0.1,1.4,0.3,3.3,0.3,3.6
		c0,0.1-0.1,0.3-0.1,0.6c1.5,1.1,2.4,2.8,2.4,4.8c0,3.3-2.7,6.1-6.1,6.1c-3.4,0-6.1-2.7-6.1-6.1c0-1.9,0.9-3.6,2.3-4.7
		c-0.4-0.8-0.8-1.7-0.8-1.7l0.9-0.9c0,0,0,0,0.1-0.8c0.1-0.5,0-0.7-0.1-0.8H89.5c0,0.5,0,0.4,0,0.4s0.1,0.8,0.1,1.4
		s-0.2,0.4-0.2,1.2s-0.1,0.5-0.1,0.5s0,0-0.2,1c1.3,1.1,2,2.7,2,4.5c0,3.3-2.7,6.1-6.1,6.1c-3.4,0-6.1-2.7-6.1-6.1
		c0-1.8,0.8-3.5,2.1-4.6c0,0,0-0.1,0.1-0.1c0.4-0.9,0,0,0.1-1.2C81.5,6.5,81.2,6,81.2,6L81,5.3c0,0-0.1-0.3-0.1-0.6H65.7
		c0.1,0.3,0-0.1,0.2,0.6c0.2,0.9,0.1,0.8,0.1,0.8s0,0-0.2,1.2c-0.2,1.1-0.1,0.9-0.1,1.6c1.5,1.1,2.4,2.9,2.4,4.8
		c0,3.3-2.7,6.1-6.1,6.1s-6.1-2.7-6.1-6.1c0-2.2,1.2-4.1,2.9-5.2v0c0,0,0,0,0.2-1.7c0.2-1.7-0.1-1.5-0.1-1.5l-0.1-0.6H42.4
		c0.1,0.3,0.1,0.6,0.1,0.7c0,0.2,0,0.3,0,0.5l0.1,0.4c0.2,0.8,0,0-0.4,1c-0.4,1,0.1,1.2,0.1,1.2l0,0.2c1.6,1.1,2.6,2.9,2.6,4.9
		c0,3.3-2.7,6.1-6.1,6.1c-3.4,0-6.1-2.7-6.1-6.1c0-1.7,0.7-3.2,1.8-4.3L34.5,9c-0.1-0.3,0-0.6,0.1-0.9l0.3-0.6C35,7.4,35,7.3,35,7.2
		l0.1-0.4c0.1-0.3,0.1-0.6,0-0.9L35,5.5c0-0.1,0-0.5,0-0.8H18.8c-0.4,1,0.1-0.1,0.2,0.7c0.2,0.9,0,0,0.2,0.9
		c0.2,0.9,0.1,0.8,0.1,0.8s0,0-0.2,1.2C19,8.4,19,8.5,19,8.6c1.6,1.1,2.7,2.9,2.7,5c0,3.3-2.7,6.1-6.1,6.1c-3.4,0-6.1-2.7-6.1-6.1
		c0-2.1,1.1-4,2.7-5c0-0.2,0-0.5,0.1-0.8c0.2-1.7-0.1-1.5-0.1-1.5l-0.1-0.8L12,4.7H0v216h170.2V4.7H159z"/>
	<path class="st4" d="M159,4.6c0,0.5,0,0.4,0,0.4s0.1,0.8,0.1,1.4s-0.2,0.4-0.2,1.2c0,0.8-0.1,0.5-0.1,0.5s0,0-0.2,1
		c1.3,1.1,2.1,2.7,2.1,4.6c0,3.3-2.7,6.1-6.1,6.1c-3.4,0-6.1-2.7-6.1-6.1c0-1.8,0.8-3.4,2-4.5c0,0,0,0,0,0c0,0,0,0,0,0
		c0,0,0-0.1,0.1-0.2c0.4-0.9,0,0,0.1-1.2c0.1-1.2-0.1-1.8-0.1-1.8l-0.2-0.7c0,0-0.1-0.3-0.1-0.6h-15.1c0.1,0.3,0-0.1,0.2,0.6
		c0.2,0.9,0.1,0.8,0.1,0.8s0,0-0.2,1.2c-0.2,1.1-0.1,0.9-0.1,1.7c1.4,1.1,2.2,2.8,2.2,4.7c0,3.3-2.7,6.1-6.1,6.1s-6.1-2.7-6.1-6.1
		c0-2.3,1.3-4.3,3.1-5.3c0-0.2,0.1-0.6,0.1-1.6c0.2-1.7-0.1-1.5-0.1-1.5l-0.1-0.6h-16.7c0.1,1.4,0.3,3.3,0.3,3.6
		c0,0.1-0.1,0.3-0.1,0.6c1.5,1.1,2.4,2.8,2.4,4.8c0,3.3-2.7,6.1-6.1,6.1c-3.4,0-6.1-2.7-6.1-6.1c0-1.9,0.9-3.6,2.3-4.7
		c-0.4-0.8-0.8-1.7-0.8-1.7l0.9-0.9c0,0,0,0,0.1-0.8c0.1-0.5,0-0.7-0.1-0.8H89.5c0,0.5,0,0.4,0,0.4s0.1,0.8,0.1,1.4
		s-0.2,0.4-0.2,1.2c0,0.8-0.1,0.5-0.1,0.5s0,0-0.2,1c1.3,1.1,2,2.7,2,4.5c0,3.3-2.7,6.1-6.1,6.1c-3.4,0-6.1-2.7-6.1-6.1
		c0-1.8,0.8-3.5,2.1-4.6c0,0,0-0.1,0.1-0.1c0.4-0.9,0,0,0.1-1.2c0.1-1.2-0.1-1.8-0.1-1.8L81,5.2c0,0-0.1-0.3-0.1-0.6H65.7
		c0.1,0.3,0-0.1,0.2,0.6C66.1,6.1,65.9,6,65.9,6s0,0-0.2,1.2c-0.2,1.1-0.1,0.9-0.1,1.6c1.5,1.1,2.4,2.9,2.4,4.8
		c0,3.3-2.7,6.1-6.1,6.1s-6.1-2.7-6.1-6.1c0-2.2,1.2-4.1,2.9-5.2v0c0,0,0,0,0.2-1.7c0.2-1.7-0.1-1.5-0.1-1.5l-0.1-0.6H42.4
		c0.1,0.3,0.1,0.6,0.1,0.7c0,0.2,0,0.3,0,0.5l0.1,0.4c0.2,0.8,0,0-0.4,1c-0.4,1,0.1,1.2,0.1,1.2l0,0.2c1.6,1.1,2.6,2.9,2.6,4.9
		c0,3.3-2.7,6.1-6.1,6.1c-3.4,0-6.1-2.7-6.1-6.1c0-1.7,0.7-3.2,1.8-4.3l-0.1-0.4c-0.1-0.3,0-0.6,0.1-0.9l0.3-0.6
		C35,7.3,35,7.2,35,7.1l0.1-0.4c0.1-0.3,0.1-0.6,0-0.9L35,5.4c0-0.1,0-0.5,0-0.8H18.8c-0.4,1,0.1-0.1,0.2,0.7c0.2,0.9,0,0,0.2,0.9
		C19.5,7.1,19.3,7,19.3,7s0,0-0.2,1.2C19,8.3,19,8.4,19,8.5c1.6,1.1,2.7,2.9,2.7,5c0,3.3-2.7,6.1-6.1,6.1c-3.4,0-6.1-2.7-6.1-6.1
		c0-2.1,1.1-4,2.7-5c0-0.2,0-0.5,0.1-0.8c0.2-1.7-0.1-1.5-0.1-1.5l-0.1-0.8L12,4.6H0v216h170.2V4.6H159z"/>
	<path class="st5" d="M159,4.5c0,0.5,0,0.4,0,0.4s0.1,0.8,0.1,1.4s-0.2,0.4-0.2,1.2s-0.1,0.5-0.1,0.5s0,0-0.2,1
		c1.3,1.1,2.1,2.7,2.1,4.6c0,3.3-2.7,6.1-6.1,6.1c-3.4,0-6.1-2.7-6.1-6.1c0-1.8,0.8-3.4,2-4.5c0,0,0,0,0,0c0,0,0,0,0,0
		c0,0,0-0.1,0.1-0.2c0.4-0.9,0,0,0.1-1.2c0.1-1.2-0.1-1.8-0.1-1.8l-0.2-0.7c0,0-0.1-0.3-0.1-0.6h-15.1c0.1,0.3,0-0.1,0.2,0.6
		c0.2,0.9,0.1,0.8,0.1,0.8s0,0-0.2,1.2c-0.2,1.1-0.1,0.9-0.1,1.7c1.4,1.1,2.2,2.8,2.2,4.7c0,3.3-2.7,6.1-6.1,6.1s-6.1-2.7-6.1-6.1
		c0-2.3,1.3-4.3,3.1-5.3c0-0.2,0.1-0.6,0.1-1.6c0.2-1.7-0.1-1.5-0.1-1.5l-0.1-0.6h-16.7c0.1,1.4,0.3,3.3,0.3,3.6
		c0,0.1-0.1,0.3-0.1,0.6c1.5,1.1,2.4,2.8,2.4,4.8c0,3.3-2.7,6.1-6.1,6.1c-3.4,0-6.1-2.7-6.1-6.1c0-1.9,0.9-3.6,2.3-4.7
		c-0.4-0.8-0.8-1.7-0.8-1.7l0.9-0.9c0,0,0,0,0.1-0.8c0.1-0.5,0-0.7-0.1-0.8H89.5c0,0.5,0,0.4,0,0.4s0.1,0.8,0.1,1.4
		s-0.2,0.4-0.2,1.2s-0.1,0.5-0.1,0.5s0,0-0.2,1c1.3,1.1,2,2.7,2,4.5c0,3.3-2.7,6.1-6.1,6.1c-3.4,0-6.1-2.7-6.1-6.1
		c0-1.8,0.8-3.5,2.1-4.6c0,0,0-0.1,0.1-0.1c0.4-0.9,0,0,0.1-1.2c0.1-1.2-0.1-1.8-0.1-1.8L81,5.1c0,0-0.1-0.3-0.1-0.6H65.7
		c0.1,0.3,0-0.1,0.2,0.6c0.2,0.9,0.1,0.8,0.1,0.8s0,0-0.2,1.2c-0.2,1.1-0.1,0.9-0.1,1.6c1.5,1.1,2.4,2.9,2.4,4.8
		c0,3.3-2.7,6.1-6.1,6.1s-6.1-2.7-6.1-6.1c0-2.2,1.2-4.1,2.9-5.2v0c0,0,0,0,0.2-1.7c0.2-1.7-0.1-1.5-0.1-1.5l-0.1-0.6H42.4
		c0.1,0.3,0.1,0.6,0.1,0.7c0,0.2,0,0.3,0,0.5l0.1,0.4c0.2,0.8,0,0-0.4,1c-0.4,1,0.1,1.2,0.1,1.2l0,0.2c1.6,1.1,2.6,2.9,2.6,4.9
		c0,3.3-2.7,6.1-6.1,6.1c-3.4,0-6.1-2.7-6.1-6.1c0-1.7,0.7-3.2,1.8-4.3l-0.1-0.4c-0.1-0.3,0-0.6,0.1-0.9l0.3-0.6C35,7.2,35,7.1,35,7
		l0.1-0.4c0.1-0.3,0.1-0.6,0-0.9L35,5.3c0-0.1,0-0.5,0-0.8H18.8c-0.4,1,0.1-0.1,0.2,0.7c0.2,0.9,0,0,0.2,0.9
		c0.2,0.9,0.1,0.8,0.1,0.8s0,0-0.2,1.2C19,8.2,19,8.3,19,8.4c1.6,1.1,2.7,2.9,2.7,5c0,3.3-2.7,6.1-6.1,6.1c-3.4,0-6.1-2.7-6.1-6.1
		c0-2.1,1.1-4,2.7-5c0-0.2,0-0.5,0.1-0.8c0.2-1.7-0.1-1.5-0.1-1.5l-0.1-0.8L12,4.5H0v216h170.2V4.5H159z"/>
	<path class="st6" d="M159,4.4c0,0.5,0,0.4,0,0.4s0.1,0.8,0.1,1.4s-0.2,0.4-0.2,1.2s-0.1,0.5-0.1,0.5s0,0-0.2,1
		c1.3,1.1,2.1,2.7,2.1,4.6c0,3.3-2.7,6.1-6.1,6.1c-3.4,0-6.1-2.7-6.1-6.1c0-1.8,0.8-3.4,2-4.5c0,0,0,0,0,0c0,0,0,0,0,0
		c0,0,0-0.1,0.1-0.2c0.4-0.9,0,0,0.1-1.2c0.1-1.2-0.1-1.8-0.1-1.8L150.5,5c0,0-0.1-0.3-0.1-0.6h-15.1c0.1,0.3,0-0.1,0.2,0.6
		c0.2,0.9,0.1,0.8,0.1,0.8s0,0-0.2,1.2c-0.2,1.1-0.1,0.9-0.1,1.7c1.4,1.1,2.2,2.8,2.2,4.7c0,3.3-2.7,6.1-6.1,6.1s-6.1-2.7-6.1-6.1
		c0-2.3,1.3-4.3,3.1-5.3c0-0.2,0.1-0.6,0.1-1.6c0.2-1.7-0.1-1.5-0.1-1.5l-0.1-0.6h-16.7c0.1,1.4,0.3,3.3,0.3,3.6
		c0,0.1-0.1,0.3-0.1,0.6c1.5,1.1,2.4,2.8,2.4,4.8c0,3.3-2.7,6.1-6.1,6.1c-3.4,0-6.1-2.7-6.1-6.1c0-1.9,0.9-3.6,2.3-4.7
		c-0.4-0.8-0.8-1.7-0.8-1.7l0.9-0.9c0,0,0,0,0.1-0.8c0.1-0.5,0-0.7-0.1-0.8H89.5c0,0.5,0,0.4,0,0.4s0.1,0.8,0.1,1.4
		s-0.2,0.4-0.2,1.2s-0.1,0.5-0.1,0.5s0,0-0.2,1c1.3,1.1,2,2.7,2,4.5c0,3.3-2.7,6.1-6.1,6.1c-3.4,0-6.1-2.7-6.1-6.1
		c0-1.8,0.8-3.5,2.1-4.6c0,0,0-0.1,0.1-0.1c0.4-0.9,0,0,0.1-1.2c0.1-1.2-0.1-1.8-0.1-1.8L81,5C81,5,81,4.6,81,4.4H65.7
		c0.1,0.3,0-0.1,0.2,0.6c0.2,0.9,0.1,0.8,0.1,0.8s0,0-0.2,1.2c-0.2,1.1-0.1,0.9-0.1,1.6c1.5,1.1,2.4,2.9,2.4,4.8
		c0,3.3-2.7,6.1-6.1,6.1s-6.1-2.7-6.1-6.1c0-2.2,1.2-4.1,2.9-5.2v0c0,0,0,0,0.2-1.7C59.1,4.8,58.9,5,58.9,5l-0.1-0.6H42.4
		c0.1,0.3,0.1,0.6,0.1,0.7c0,0.2,0,0.3,0,0.5L42.6,6c0.2,0.8,0,0-0.4,1c-0.4,1,0.1,1.2,0.1,1.2l0,0.2c1.6,1.1,2.6,2.9,2.6,4.9
		c0,3.3-2.7,6.1-6.1,6.1c-3.4,0-6.1-2.7-6.1-6.1c0-1.7,0.7-3.2,1.8-4.3l-0.1-0.4c-0.1-0.3,0-0.6,0.1-0.9l0.3-0.6C35,7,35,7,35,6.9
		l0.1-0.4c0.1-0.3,0.1-0.6,0-0.9L35,5.1c0-0.1,0-0.5,0-0.8H18.8c-0.4,1,0.1-0.1,0.2,0.7c0.2,0.9,0,0,0.2,0.9
		c0.2,0.9,0.1,0.8,0.1,0.8s0,0-0.2,1.2C19,8.1,19,8.2,19,8.3c1.6,1.1,2.7,2.9,2.7,5c0,3.3-2.7,6.1-6.1,6.1c-3.4,0-6.1-2.7-6.1-6.1
		c0-2.1,1.1-4,2.7-5c0-0.2,0-0.5,0.1-0.8C12.5,5.8,12.3,6,12.3,6l-0.1-0.8L12,4.4H0v216h170.2V4.4H159z"/>
	<path class="st7" d="M159,4.3c0,0.5,0,0.4,0,0.4s0.1,0.8,0.1,1.4s-0.2,0.4-0.2,1.2c0,0.8-0.1,0.5-0.1,0.5s0,0-0.2,1
		c1.3,1.1,2.1,2.7,2.1,4.6c0,3.3-2.7,6.1-6.1,6.1c-3.4,0-6.1-2.7-6.1-6.1c0-1.8,0.8-3.4,2-4.5c0,0,0,0,0,0c0,0,0,0,0,0
		c0,0,0-0.1,0.1-0.2c0.4-0.9,0,0,0.1-1.2c0.1-1.2-0.1-1.8-0.1-1.8l-0.2-0.7c0,0-0.1-0.3-0.1-0.6h-15.1c0.1,0.3,0-0.1,0.2,0.6
		c0.2,0.9,0.1,0.8,0.1,0.8s0,0-0.2,1.2c-0.2,1.1-0.1,0.9-0.1,1.7c1.4,1.1,2.2,2.8,2.2,4.7c0,3.3-2.7,6.1-6.1,6.1s-6.1-2.7-6.1-6.1
		c0-2.3,1.3-4.3,3.1-5.3c0-0.2,0.1-0.6,0.1-1.6c0.2-1.7-0.1-1.5-0.1-1.5l-0.1-0.6h-16.7c0.1,1.4,0.3,3.3,0.3,3.6
		c0,0.1-0.1,0.3-0.1,0.6c1.5,1.1,2.4,2.8,2.4,4.8c0,3.3-2.7,6.1-6.1,6.1c-3.4,0-6.1-2.7-6.1-6.1c0-1.9,0.9-3.6,2.3-4.7
		c-0.4-0.8-0.8-1.7-0.8-1.7l0.9-0.9c0,0,0,0,0.1-0.8c0.1-0.5,0-0.7-0.1-0.8H89.5c0,0.5,0,0.4,0,0.4s0.1,0.8,0.1,1.4
		s-0.2,0.4-0.2,1.2c0,0.8-0.1,0.5-0.1,0.5s0,0-0.2,1c1.3,1.1,2,2.7,2,4.5c0,3.3-2.7,6.1-6.1,6.1c-3.4,0-6.1-2.7-6.1-6.1
		c0-1.8,0.8-3.5,2.1-4.6c0,0,0-0.1,0.1-0.1c0.4-0.9,0,0,0.1-1.2c0.1-1.2-0.1-1.8-0.1-1.8L81,4.8c0,0-0.1-0.3-0.1-0.6H65.7
		c0.1,0.3,0-0.1,0.2,0.6c0.2,0.9,0.1,0.8,0.1,0.8s0,0-0.2,1.2c-0.2,1.1-0.1,0.9-0.1,1.6c1.5,1.1,2.4,2.9,2.4,4.8
		c0,3.3-2.7,6.1-6.1,6.1s-6.1-2.7-6.1-6.1c0-2.2,1.2-4.1,2.9-5.2v0c0,0,0,0,0.2-1.7c0.2-1.7-0.1-1.5-0.1-1.5l-0.1-0.6H42.4
		c0.1,0.3,0.1,0.6,0.1,0.7c0,0.2,0,0.3,0,0.5l0.1,0.4c0.2,0.8,0,0-0.4,1c-0.4,1,0.1,1.2,0.1,1.2l0,0.2c1.6,1.1,2.6,2.9,2.6,4.9
		c0,3.3-2.7,6.1-6.1,6.1c-3.4,0-6.1-2.7-6.1-6.1c0-1.7,0.7-3.2,1.8-4.3l-0.1-0.4c-0.1-0.3,0-0.6,0.1-0.9L34.9,7
		C35,6.9,35,6.9,35,6.8l0.1-0.4c0.1-0.3,0.1-0.6,0-0.9L35,5c0-0.1,0-0.5,0-0.8H18.8c-0.4,1,0.1-0.1,0.2,0.7c0.2,0.9,0,0,0.2,0.9
		c0.2,0.9,0.1,0.8,0.1,0.8s0,0-0.2,1.2C19,8,19,8.1,19,8.2c1.6,1.1,2.7,2.9,2.7,5c0,3.3-2.7,6.1-6.1,6.1c-3.4,0-6.1-2.7-6.1-6.1
		c0-2.1,1.1-4,2.7-5c0-0.2,0-0.5,0.1-0.8c0.2-1.7-0.1-1.5-0.1-1.5l-0.1-0.8L12,4.3H0v216h170.2V4.3H159z"/>
	<path class="st8" d="M159,4.2c0,0.5,0,0.4,0,0.4s0.1,0.8,0.1,1.4s-0.2,0.4-0.2,1.2c0,0.8-0.1,0.5-0.1,0.5s0,0-0.2,1
		c1.3,1.1,2.1,2.7,2.1,4.6c0,3.3-2.7,6.1-6.1,6.1c-3.4,0-6.1-2.7-6.1-6.1c0-1.8,0.8-3.4,2-4.5c0,0,0,0,0,0c0,0,0,0,0,0
		c0,0,0-0.1,0.1-0.2c0.4-0.9,0,0,0.1-1.2c0.1-1.2-0.1-1.8-0.1-1.8l-0.2-0.7c0,0-0.1-0.3-0.1-0.6h-15.1c0.1,0.3,0-0.1,0.2,0.6
		c0.2,0.9,0.1,0.8,0.1,0.8s0,0-0.2,1.2c-0.2,1.1-0.1,0.9-0.1,1.7c1.4,1.1,2.2,2.8,2.2,4.7c0,3.3-2.7,6.1-6.1,6.1s-6.1-2.7-6.1-6.1
		c0-2.3,1.3-4.3,3.1-5.3c0-0.2,0.1-0.6,0.1-1.6c0.2-1.7-0.1-1.5-0.1-1.5l-0.1-0.6h-16.7c0.1,1.4,0.3,3.3,0.3,3.6
		c0,0.1-0.1,0.3-0.1,0.6c1.5,1.1,2.4,2.8,2.4,4.8c0,3.3-2.7,6.1-6.1,6.1c-3.4,0-6.1-2.7-6.1-6.1c0-1.9,0.9-3.6,2.3-4.7
		c-0.4-0.8-0.8-1.7-0.8-1.7l0.9-0.9c0,0,0,0,0.1-0.8c0.1-0.5,0-0.7-0.1-0.8H89.5c0,0.5,0,0.4,0,0.4s0.1,0.8,0.1,1.4
		s-0.2,0.4-0.2,1.2c0,0.8-0.1,0.5-0.1,0.5s0,0-0.2,1c1.3,1.1,2,2.7,2,4.5c0,3.3-2.7,6.1-6.1,6.1c-3.4,0-6.1-2.7-6.1-6.1
		c0-1.8,0.8-3.5,2.1-4.6c0,0,0-0.1,0.1-0.1c0.4-0.9,0,0,0.1-1.2c0.1-1.2-0.1-1.8-0.1-1.8L81,4.7c0,0-0.1-0.3-0.1-0.6H65.7
		c0.1,0.3,0-0.1,0.2,0.6c0.2,0.9,0.1,0.8,0.1,0.8s0,0-0.2,1.2c-0.2,1.1-0.1,0.9-0.1,1.6c1.5,1.1,2.4,2.9,2.4,4.8
		c0,3.3-2.7,6.1-6.1,6.1s-6.1-2.7-6.1-6.1c0-2.2,1.2-4.1,2.9-5.2v0c0,0,0,0,0.2-1.7c0.2-1.7-0.1-1.5-0.1-1.5l-0.1-0.6H42.4
		c0.1,0.3,0.1,0.6,0.1,0.7c0,0.2,0,0.3,0,0.5l0.1,0.4c0.2,0.8,0,0-0.4,1c-0.4,1,0.1,1.2,0.1,1.2l0,0.2c1.6,1.1,2.6,2.9,2.6,4.9
		c0,3.3-2.7,6.1-6.1,6.1c-3.4,0-6.1-2.7-6.1-6.1c0-1.7,0.7-3.2,1.8-4.3l-0.1-0.4c-0.1-0.3,0-0.6,0.1-0.9l0.3-0.6
		C35,6.8,35,6.8,35,6.7l0.1-0.4c0.1-0.3,0.1-0.6,0-0.9L35,4.9c0-0.1,0-0.5,0-0.8H18.8c-0.4,1,0.1-0.1,0.2,0.7c0.2,0.9,0,0,0.2,0.9
		c0.2,0.9,0.1,0.8,0.1,0.8s0,0-0.2,1.2C19,7.9,19,8,19,8.1c1.6,1.1,2.7,2.9,2.7,5c0,3.3-2.7,6.1-6.1,6.1c-3.4,0-6.1-2.7-6.1-6.1
		c0-2.1,1.1-4,2.7-5c0-0.2,0-0.5,0.1-0.8c0.2-1.7-0.1-1.5-0.1-1.5L12.2,5L12,4.2H0v216h170.2V4.2H159z"/>
	<path class="st9" d="M159,4c0,0.5,0,0.4,0,0.4s0.1,0.8,0.1,1.4s-0.2,0.4-0.2,1.2c0,0.8-0.1,0.5-0.1,0.5s0,0-0.2,1
		c1.3,1.1,2.1,2.7,2.1,4.6c0,3.3-2.7,6.1-6.1,6.1c-3.4,0-6.1-2.7-6.1-6.1c0-1.8,0.8-3.4,2-4.5c0,0,0,0,0,0c0,0,0,0,0,0
		c0,0,0-0.1,0.1-0.2c0.4-0.9,0,0,0.1-1.2c0.1-1.2-0.1-1.8-0.1-1.8l-0.2-0.7c0,0-0.1-0.3-0.1-0.6h-15.1c0.1,0.3,0-0.1,0.2,0.6
		c0.2,0.9,0.1,0.8,0.1,0.8s0,0-0.2,1.2c-0.2,1.1-0.1,0.9-0.1,1.7c1.4,1.1,2.2,2.8,2.2,4.7c0,3.3-2.7,6.1-6.1,6.1s-6.1-2.7-6.1-6.1
		c0-2.3,1.3-4.3,3.1-5.3c0-0.2,0.1-0.6,0.1-1.6c0.2-1.7-0.1-1.5-0.1-1.5L128.5,4h-16.7c0.1,1.4,0.3,3.3,0.3,3.6
		c0,0.1-0.1,0.3-0.1,0.6c1.5,1.1,2.4,2.8,2.4,4.8c0,3.3-2.7,6.1-6.1,6.1c-3.4,0-6.1-2.7-6.1-6.1c0-1.9,0.9-3.6,2.3-4.7
		c-0.4-0.8-0.8-1.7-0.8-1.7l0.9-0.9c0,0,0,0,0.1-0.8c0.1-0.5,0-0.7-0.1-0.8H89.5c0,0.5,0,0.4,0,0.4s0.1,0.8,0.1,1.4S89.4,6.3,89.4,7
		c0,0.8-0.1,0.5-0.1,0.5s0,0-0.2,1c1.3,1.1,2,2.7,2,4.5c0,3.3-2.7,6.1-6.1,6.1c-3.4,0-6.1-2.7-6.1-6.1c0-1.8,0.8-3.5,2.1-4.6
		c0,0,0-0.1,0.1-0.1c0.4-0.9,0,0,0.1-1.2c0.1-1.2-0.1-1.8-0.1-1.8L81,4.6C81,4.6,81,4.3,81,4H65.7c0.1,0.3,0-0.1,0.2,0.6
		c0.2,0.9,0.1,0.8,0.1,0.8s0,0-0.2,1.2c-0.2,1.1-0.1,0.9-0.1,1.6C67.1,9.3,68,11.1,68,13c0,3.3-2.7,6.1-6.1,6.1s-6.1-2.7-6.1-6.1
		c0-2.2,1.2-4.1,2.9-5.2v0c0,0,0,0,0.2-1.7c0.2-1.7-0.1-1.5-0.1-1.5L58.8,4H42.4c0.1,0.3,0.1,0.6,0.1,0.7c0,0.2,0,0.3,0,0.5l0.1,0.4
		c0.2,0.8,0,0-0.4,1c-0.4,1,0.1,1.2,0.1,1.2l0,0.2c1.6,1.1,2.6,2.9,2.6,4.9c0,3.3-2.7,6.1-6.1,6.1c-3.4,0-6.1-2.7-6.1-6.1
		c0-1.7,0.7-3.2,1.8-4.3l-0.1-0.4c-0.1-0.3,0-0.6,0.1-0.9l0.3-0.6C35,6.7,35,6.7,35,6.6l0.1-0.4c0.1-0.3,0.1-0.6,0-0.9L35,4.8
		c0-0.1,0-0.5,0-0.8H18.8c-0.4,1,0.1-0.1,0.2,0.7c0.2,0.9,0,0,0.2,0.9c0.2,0.9,0.1,0.8,0.1,0.8s0,0-0.2,1.2C19,7.8,19,7.9,19,8
		c1.6,1.1,2.7,2.9,2.7,5c0,3.3-2.7,6.1-6.1,6.1c-3.4,0-6.1-2.7-6.1-6.1c0-2.1,1.1-4,2.7-5c0-0.2,0-0.5,0.1-0.8
		c0.2-1.7-0.1-1.5-0.1-1.5l-0.1-0.8L12,4H0v216h170.2V4H159z"/>
	<path class="st10" d="M159,3.9c0,0.5,0,0.4,0,0.4s0.1,0.8,0.1,1.4s-0.2,0.4-0.2,1.2c0,0.8-0.1,0.5-0.1,0.5s0,0-0.2,1
		c1.3,1.1,2.1,2.7,2.1,4.6c0,3.3-2.7,6.1-6.1,6.1c-3.4,0-6.1-2.7-6.1-6.1c0-1.8,0.8-3.4,2-4.5c0,0,0,0,0,0c0,0,0,0,0,0
		c0,0,0-0.1,0.1-0.2c0.4-0.9,0,0,0.1-1.2c0.1-1.2-0.1-1.8-0.1-1.8l-0.2-0.7c0,0-0.1-0.3-0.1-0.6h-15.1c0.1,0.3,0-0.1,0.2,0.6
		c0.2,0.9,0.1,0.8,0.1,0.8s0,0-0.2,1.2c-0.2,1.1-0.1,0.9-0.1,1.7c1.4,1.1,2.2,2.8,2.2,4.7c0,3.3-2.7,6.1-6.1,6.1s-6.1-2.7-6.1-6.1
		c0-2.3,1.3-4.3,3.1-5.3c0-0.2,0.1-0.6,0.1-1.6c0.2-1.7-0.1-1.5-0.1-1.5l-0.1-0.6h-16.7c0.1,1.4,0.3,3.3,0.3,3.6
		c0,0.1-0.1,0.3-0.1,0.6c1.5,1.1,2.4,2.8,2.4,4.8c0,3.3-2.7,6.1-6.1,6.1c-3.4,0-6.1-2.7-6.1-6.1c0-1.9,0.9-3.6,2.3-4.7
		c-0.4-0.8-0.8-1.7-0.8-1.7l0.9-0.9c0,0,0,0,0.1-0.8c0.1-0.5,0-0.7-0.1-0.8H89.5c0,0.5,0,0.4,0,0.4s0.1,0.8,0.1,1.4
		s-0.2,0.4-0.2,1.2c0,0.8-0.1,0.5-0.1,0.5s0,0-0.2,1c1.3,1.1,2,2.7,2,4.5c0,3.3-2.7,6.1-6.1,6.1c-3.4,0-6.1-2.7-6.1-6.1
		c0-1.8,0.8-3.5,2.1-4.6c0,0,0-0.1,0.1-0.1c0.4-0.9,0,0,0.1-1.2c0.1-1.2-0.1-1.8-0.1-1.8L81,4.5c0,0-0.1-0.3-0.1-0.6H65.7
		c0.1,0.3,0-0.1,0.2,0.6c0.2,0.9,0.1,0.8,0.1,0.8s0,0-0.2,1.2c-0.2,1.1-0.1,0.9-0.1,1.6c1.5,1.1,2.4,2.9,2.4,4.8
		c0,3.3-2.7,6.1-6.1,6.1s-6.1-2.7-6.1-6.1c0-2.2,1.2-4.1,2.9-5.2v0c0,0,0,0,0.2-1.7c0.2-1.7-0.1-1.5-0.1-1.5l-0.1-0.6H42.4
		c0.1,0.3,0.1,0.6,0.1,0.7c0,0.2,0,0.3,0,0.5l0.1,0.4c0.2,0.8,0,0-0.4,1c-0.4,1,0.1,1.2,0.1,1.2l0,0.2c1.6,1.1,2.6,2.9,2.6,4.9
		c0,3.3-2.7,6.1-6.1,6.1c-3.4,0-6.1-2.7-6.1-6.1c0-1.7,0.7-3.2,1.8-4.3l-0.1-0.4c-0.1-0.3,0-0.6,0.1-0.9l0.3-0.6
		C35,6.6,35,6.5,35,6.5l0.1-0.4c0.1-0.3,0.1-0.6,0-0.9L35,4.7c0-0.1,0-0.5,0-0.8H18.8c-0.4,1,0.1-0.1,0.2,0.7c0.2,0.9,0,0,0.2,0.9
		c0.2,0.9,0.1,0.8,0.1,0.8s0,0-0.2,1.2C19,7.7,19,7.8,19,7.9c1.6,1.1,2.7,2.9,2.7,5c0,3.3-2.7,6.1-6.1,6.1c-3.4,0-6.1-2.7-6.1-6.1
		c0-2.1,1.1-4,2.7-5c0-0.2,0-0.5,0.1-0.8c0.2-1.7-0.1-1.5-0.1-1.5l-0.1-0.8L12,3.9H0v216h170.2V3.9H159z"/>
	<path class="st11" d="M159,3.8c0,0.5,0,0.4,0,0.4s0.1,0.8,0.1,1.4s-0.2,0.4-0.2,1.2c0,0.8-0.1,0.5-0.1,0.5s0,0-0.2,1
		c1.3,1.1,2.1,2.7,2.1,4.6c0,3.3-2.7,6.1-6.1,6.1c-3.4,0-6.1-2.7-6.1-6.1c0-1.8,0.8-3.4,2-4.5c0,0,0,0,0,0c0,0,0,0,0,0
		c0,0,0-0.1,0.1-0.2c0.4-0.9,0,0,0.1-1.2c0.1-1.2-0.1-1.8-0.1-1.8l-0.2-0.7c0,0-0.1-0.3-0.1-0.6h-15.1c0.1,0.3,0-0.1,0.2,0.6
		c0.2,0.9,0.1,0.8,0.1,0.8s0,0-0.2,1.2c-0.2,1.1-0.1,0.9-0.1,1.7c1.4,1.1,2.2,2.8,2.2,4.7c0,3.3-2.7,6.1-6.1,6.1s-6.1-2.7-6.1-6.1
		c0-2.3,1.3-4.3,3.1-5.3c0-0.2,0.1-0.6,0.1-1.6c0.2-1.7-0.1-1.5-0.1-1.5l-0.1-0.6h-16.7c0.1,1.4,0.3,3.3,0.3,3.6
		c0,0.1-0.1,0.3-0.1,0.6c1.5,1.1,2.4,2.8,2.4,4.8c0,3.3-2.7,6.1-6.1,6.1c-3.4,0-6.1-2.7-6.1-6.1c0-1.9,0.9-3.6,2.3-4.7
		c-0.4-0.8-0.8-1.7-0.8-1.7l0.9-0.9c0,0,0,0,0.1-0.8c0.1-0.5,0-0.7-0.1-0.8H89.5c0,0.5,0,0.4,0,0.4s0.1,0.8,0.1,1.4
		s-0.2,0.4-0.2,1.2c0,0.8-0.1,0.5-0.1,0.5s0,0-0.2,1c1.3,1.1,2,2.7,2,4.5c0,3.3-2.7,6.1-6.1,6.1c-3.4,0-6.1-2.7-6.1-6.1
		c0-1.8,0.8-3.5,2.1-4.6c0,0,0-0.1,0.1-0.1c0.4-0.9,0,0,0.1-1.2c0.1-1.2-0.1-1.8-0.1-1.8L81,4.4c0,0-0.1-0.3-0.1-0.6H65.7
		c0.1,0.3,0-0.1,0.2,0.6c0.2,0.9,0.1,0.8,0.1,0.8s0,0-0.2,1.2c-0.2,1.1-0.1,0.9-0.1,1.6c1.5,1.1,2.4,2.9,2.4,4.8
		c0,3.3-2.7,6.1-6.1,6.1s-6.1-2.7-6.1-6.1c0-2.2,1.2-4.1,2.9-5.2v0c0,0,0,0,0.2-1.7c0.2-1.7-0.1-1.5-0.1-1.5l-0.1-0.6H42.4
		c0.1,0.3,0.1,0.6,0.1,0.7c0,0.2,0,0.3,0,0.5l0.1,0.4c0.2,0.8,0,0-0.4,1c-0.4,1,0.1,1.2,0.1,1.2l0,0.2c1.6,1.1,2.6,2.9,2.6,4.9
		c0,3.3-2.7,6.1-6.1,6.1c-3.4,0-6.1-2.7-6.1-6.1c0-1.7,0.7-3.2,1.8-4.3l-0.1-0.4c-0.1-0.3,0-0.6,0.1-0.9l0.3-0.6
		C35,6.5,35,6.4,35,6.4L35.2,6c0.1-0.3,0.1-0.6,0-0.9L35,4.6c0-0.1,0-0.5,0-0.8H18.8c-0.4,1,0.1-0.1,0.2,0.7c0.2,0.9,0,0,0.2,0.9
		c0.2,0.9,0.1,0.8,0.1,0.8s0,0-0.2,1.2C19,7.6,19,7.7,19,7.8c1.6,1.1,2.7,2.9,2.7,5c0,3.3-2.7,6.1-6.1,6.1c-3.4,0-6.1-2.7-6.1-6.1
		c0-2.1,1.1-4,2.7-5c0-0.2,0-0.5,0.1-0.8c0.2-1.7-0.1-1.5-0.1-1.5l-0.1-0.8L12,3.8H0v216h170.2V3.8H159z"/>
	<path class="st12" d="M159,3.7c0,0.5,0,0.4,0,0.4s0.1,0.8,0.1,1.4s-0.2,0.4-0.2,1.2c0,0.8-0.1,0.5-0.1,0.5s0,0-0.2,1
		c1.3,1.1,2.1,2.7,2.1,4.6c0,3.3-2.7,6.1-6.1,6.1c-3.4,0-6.1-2.7-6.1-6.1c0-1.8,0.8-3.4,2-4.5c0,0,0,0,0,0c0,0,0,0,0,0
		c0,0,0-0.1,0.1-0.2c0.4-0.9,0,0,0.1-1.2c0.1-1.2-0.1-1.8-0.1-1.8l-0.2-0.7c0,0-0.1-0.3-0.1-0.6h-15.1c0.1,0.3,0-0.1,0.2,0.6
		c0.2,0.9,0.1,0.8,0.1,0.8s0,0-0.2,1.2c-0.2,1.1-0.1,0.9-0.1,1.7c1.4,1.1,2.2,2.8,2.2,4.7c0,3.3-2.7,6.1-6.1,6.1s-6.1-2.7-6.1-6.1
		c0-2.3,1.3-4.3,3.1-5.3c0-0.2,0.1-0.6,0.1-1.6c0.2-1.7-0.1-1.5-0.1-1.5l-0.1-0.6h-16.7c0.1,1.4,0.3,3.3,0.3,3.6
		c0,0.1-0.1,0.3-0.1,0.6c1.5,1.1,2.4,2.8,2.4,4.8c0,3.3-2.7,6.1-6.1,6.1c-3.4,0-6.1-2.7-6.1-6.1c0-1.9,0.9-3.6,2.3-4.7
		c-0.4-0.8-0.8-1.7-0.8-1.7l0.9-0.9c0,0,0,0,0.1-0.8c0.1-0.5,0-0.7-0.1-0.8H89.5c0,0.5,0,0.4,0,0.4s0.1,0.8,0.1,1.4
		s-0.2,0.4-0.2,1.2c0,0.8-0.1,0.5-0.1,0.5s0,0-0.2,1c1.3,1.1,2,2.7,2,4.5c0,3.3-2.7,6.1-6.1,6.1c-3.4,0-6.1-2.7-6.1-6.1
		c0-1.8,0.8-3.5,2.1-4.6c0,0,0-0.1,0.1-0.1c0.4-0.9,0,0,0.1-1.2C81.5,5.5,81.2,5,81.2,5L81,4.3C81,4.3,81,4,81,3.7H65.7
		c0.1,0.3,0-0.1,0.2,0.6c0.2,0.9,0.1,0.8,0.1,0.8s0,0-0.2,1.2c-0.2,1.1-0.1,0.9-0.1,1.6C67.1,9,68,10.7,68,12.7
		c0,3.3-2.7,6.1-6.1,6.1s-6.1-2.7-6.1-6.1c0-2.2,1.2-4.1,2.9-5.2v0c0,0,0,0,0.2-1.7c0.2-1.7-0.1-1.5-0.1-1.5l-0.1-0.6H42.4
		c0.1,0.3,0.1,0.6,0.1,0.7c0,0.2,0,0.3,0,0.5l0.1,0.4c0.2,0.8,0,0-0.4,1c-0.4,1,0.1,1.2,0.1,1.2l0,0.2c1.6,1.1,2.6,2.9,2.6,4.9
		c0,3.3-2.7,6.1-6.1,6.1c-3.4,0-6.1-2.7-6.1-6.1c0-1.7,0.7-3.2,1.8-4.3L34.5,8c-0.1-0.3,0-0.6,0.1-0.9l0.3-0.6C35,6.4,35,6.3,35,6.3
		l0.1-0.4c0.1-0.3,0.1-0.6,0-0.9L35,4.5c0-0.1,0-0.5,0-0.8H18.8c-0.4,1,0.1-0.1,0.2,0.7c0.2,0.9,0,0,0.2,0.9
		c0.2,0.9,0.1,0.8,0.1,0.8s0,0-0.2,1.2C19,7.5,19,7.6,19,7.7c1.6,1.1,2.7,2.9,2.7,5c0,3.3-2.7,6.1-6.1,6.1c-3.4,0-6.1-2.7-6.1-6.1
		c0-2.1,1.1-4,2.7-5c0-0.2,0-0.5,0.1-0.8c0.2-1.7-0.1-1.5-0.1-1.5l-0.1-0.8L12,3.7H0v216h170.2V3.7H159z"/>
	<path class="st13" d="M159,3.6c0,0.5,0,0.4,0,0.4s0.1,0.8,0.1,1.4s-0.2,0.4-0.2,1.2c0,0.8-0.1,0.5-0.1,0.5s0,0-0.2,1
		c1.3,1.1,2.1,2.7,2.1,4.6c0,3.3-2.7,6.1-6.1,6.1c-3.4,0-6.1-2.7-6.1-6.1c0-1.8,0.8-3.4,2-4.5c0,0,0,0,0,0c0,0,0,0,0,0
		c0,0,0-0.1,0.1-0.2c0.4-0.9,0,0,0.1-1.2c0.1-1.2-0.1-1.8-0.1-1.8l-0.2-0.7c0,0-0.1-0.3-0.1-0.6h-15.1c0.1,0.3,0-0.1,0.2,0.6
		c0.2,0.9,0.1,0.8,0.1,0.8s0,0-0.2,1.2c-0.2,1.1-0.1,0.9-0.1,1.7c1.4,1.1,2.2,2.8,2.2,4.7c0,3.3-2.7,6.1-6.1,6.1s-6.1-2.7-6.1-6.1
		c0-2.3,1.3-4.3,3.1-5.3c0-0.2,0.1-0.6,0.1-1.6c0.2-1.7-0.1-1.5-0.1-1.5l-0.1-0.6h-16.7c0.1,1.4,0.3,3.3,0.3,3.6
		c0,0.1-0.1,0.3-0.1,0.6c1.5,1.1,2.4,2.8,2.4,4.8c0,3.3-2.7,6.1-6.1,6.1c-3.4,0-6.1-2.7-6.1-6.1c0-1.9,0.9-3.6,2.3-4.7
		c-0.4-0.8-0.8-1.7-0.8-1.7l0.9-0.9c0,0,0,0,0.1-0.8c0.1-0.5,0-0.7-0.1-0.8H89.5c0,0.5,0,0.4,0,0.4s0.1,0.8,0.1,1.4
		s-0.2,0.4-0.2,1.2c0,0.8-0.1,0.5-0.1,0.5s0,0-0.2,1c1.3,1.1,2,2.7,2,4.5c0,3.3-2.7,6.1-6.1,6.1c-3.4,0-6.1-2.7-6.1-6.1
		c0-1.8,0.8-3.5,2.1-4.6c0,0,0-0.1,0.1-0.1c0.4-0.9,0,0,0.1-1.2c0.1-1.2-0.1-1.8-0.1-1.8L81,4.2c0,0-0.1-0.3-0.1-0.6H65.7
		c0.1,0.3,0-0.1,0.2,0.6C66.1,5.2,65.9,5,65.9,5s0,0-0.2,1.2c-0.2,1.1-0.1,0.9-0.1,1.6c1.5,1.1,2.4,2.9,2.4,4.8
		c0,3.3-2.7,6.1-6.1,6.1s-6.1-2.7-6.1-6.1c0-2.2,1.2-4.1,2.9-5.2v0c0,0,0,0,0.2-1.7c0.2-1.7-0.1-1.5-0.1-1.5l-0.1-0.6H42.4
		c0.1,0.3,0.1,0.6,0.1,0.7c0,0.2,0,0.3,0,0.5l0.1,0.4c0.2,0.8,0,0-0.4,1s0.1,1.2,0.1,1.2l0,0.2c1.6,1.1,2.6,2.9,2.6,4.9
		c0,3.3-2.7,6.1-6.1,6.1c-3.4,0-6.1-2.7-6.1-6.1c0-1.7,0.7-3.2,1.8-4.3l-0.1-0.4c-0.1-0.3,0-0.6,0.1-0.9l0.3-0.6
		C35,6.3,35,6.2,35,6.2l0.1-0.4c0.1-0.3,0.1-0.6,0-0.9L35,4.4c0-0.1,0-0.5,0-0.8H18.8c-0.4,1,0.1-0.1,0.2,0.7c0.2,0.9,0,0,0.2,0.9
		C19.5,6.2,19.3,6,19.3,6s0,0-0.2,1.2C19,7.3,19,7.5,19,7.6c1.6,1.1,2.7,2.9,2.7,5c0,3.3-2.7,6.1-6.1,6.1c-3.4,0-6.1-2.7-6.1-6.1
		c0-2.1,1.1-4,2.7-5c0-0.2,0-0.5,0.1-0.8c0.2-1.7-0.1-1.5-0.1-1.5l-0.1-0.8L12,3.6H0v216h170.2V3.6H159z"/>
	<path class="st14" d="M159,3.5c0,0.5,0,0.4,0,0.4s0.1,0.8,0.1,1.4c0,0.6-0.2,0.4-0.2,1.2c0,0.8-0.1,0.5-0.1,0.5s0,0-0.2,1
		c1.3,1.1,2.1,2.7,2.1,4.6c0,3.3-2.7,6.1-6.1,6.1c-3.4,0-6.1-2.7-6.1-6.1c0-1.8,0.8-3.4,2-4.5c0,0,0,0,0,0c0,0,0,0,0,0
		c0,0,0-0.1,0.1-0.2c0.4-0.9,0,0,0.1-1.2c0.1-1.2-0.1-1.8-0.1-1.8l-0.2-0.7c0,0-0.1-0.3-0.1-0.6h-15.1c0.1,0.3,0-0.1,0.2,0.6
		c0.2,0.9,0.1,0.8,0.1,0.8s0,0-0.2,1.2c-0.2,1.1-0.1,0.9-0.1,1.7c1.4,1.1,2.2,2.8,2.2,4.7c0,3.3-2.7,6.1-6.1,6.1s-6.1-2.7-6.1-6.1
		c0-2.3,1.3-4.3,3.1-5.3c0-0.2,0.1-0.6,0.1-1.6c0.2-1.7-0.1-1.5-0.1-1.5l-0.1-0.6h-16.7c0.1,1.4,0.3,3.3,0.3,3.6
		c0,0.1-0.1,0.3-0.1,0.6c1.5,1.1,2.4,2.8,2.4,4.8c0,3.3-2.7,6.1-6.1,6.1c-3.4,0-6.1-2.7-6.1-6.1c0-1.9,0.9-3.6,2.3-4.7
		c-0.4-0.8-0.8-1.7-0.8-1.7l0.9-0.9c0,0,0,0,0.1-0.8c0.1-0.5,0-0.7-0.1-0.8H89.5c0,0.5,0,0.4,0,0.4s0.1,0.8,0.1,1.4
		c0,0.6-0.2,0.4-0.2,1.2c0,0.8-0.1,0.5-0.1,0.5s0,0-0.2,1c1.3,1.1,2,2.7,2,4.5c0,3.3-2.7,6.1-6.1,6.1c-3.4,0-6.1-2.7-6.1-6.1
		c0-1.8,0.8-3.5,2.1-4.6c0,0,0-0.1,0.1-0.1c0.4-0.9,0,0,0.1-1.2c0.1-1.2-0.1-1.8-0.1-1.8L81,4.1c0,0-0.1-0.3-0.1-0.6H65.7
		c0.1,0.3,0-0.1,0.2,0.6c0.2,0.9,0.1,0.8,0.1,0.8s0,0-0.2,1.2c-0.2,1.1-0.1,0.9-0.1,1.6c1.5,1.1,2.4,2.9,2.4,4.8
		c0,3.3-2.7,6.1-6.1,6.1s-6.1-2.7-6.1-6.1c0-2.2,1.2-4.1,2.9-5.2v0c0,0,0,0,0.2-1.7c0.2-1.7-0.1-1.5-0.1-1.5l-0.1-0.6H42.4
		c0.1,0.3,0.1,0.6,0.1,0.7c0,0.2,0,0.3,0,0.5l0.1,0.4c0.2,0.8,0,0-0.4,1s0.1,1.2,0.1,1.2l0,0.2c1.6,1.1,2.6,2.9,2.6,4.9
		c0,3.3-2.7,6.1-6.1,6.1c-3.4,0-6.1-2.7-6.1-6.1c0-1.7,0.7-3.2,1.8-4.3l-0.1-0.4c-0.1-0.3,0-0.6,0.1-0.9l0.3-0.6C35,6.2,35,6.1,35,6
		l0.1-0.4c0.1-0.3,0.1-0.6,0-0.9L35,4.3c0-0.1,0-0.5,0-0.8H18.8c-0.4,1,0.1-0.1,0.2,0.7c0.2,0.9,0,0,0.2,0.9
		c0.2,0.9,0.1,0.8,0.1,0.8s0,0-0.2,1.2C19,7.2,19,7.4,19,7.5c1.6,1.1,2.7,2.9,2.7,5c0,3.3-2.7,6.1-6.1,6.1c-3.4,0-6.1-2.7-6.1-6.1
		c0-2.1,1.1-4,2.7-5c0-0.2,0-0.5,0.1-0.8c0.2-1.7-0.1-1.5-0.1-1.5l-0.1-0.8L12,3.5H0v216h170.2V3.5H159z"/>
	<path class="st15" d="M159,3.4c0,0.5,0,0.4,0,0.4s0.1,0.8,0.1,1.4c0,0.6-0.2,0.4-0.2,1.2c0,0.8-0.1,0.5-0.1,0.5s0,0-0.2,1
		c1.3,1.1,2.1,2.7,2.1,4.6c0,3.3-2.7,6.1-6.1,6.1c-3.4,0-6.1-2.7-6.1-6.1c0-1.8,0.8-3.4,2-4.5c0,0,0,0,0,0c0,0,0,0,0,0
		c0,0,0-0.1,0.1-0.2c0.4-0.9,0,0,0.1-1.2c0.1-1.2-0.1-1.8-0.1-1.8L150.5,4c0,0-0.1-0.3-0.1-0.6h-15.1c0.1,0.3,0-0.1,0.2,0.6
		c0.2,0.9,0.1,0.8,0.1,0.8s0,0-0.2,1.2c-0.2,1.1-0.1,0.9-0.1,1.7c1.4,1.1,2.2,2.8,2.2,4.7c0,3.3-2.7,6.1-6.1,6.1s-6.1-2.7-6.1-6.1
		c0-2.3,1.3-4.3,3.1-5.3c0-0.2,0.1-0.6,0.1-1.6c0.2-1.7-0.1-1.5-0.1-1.5l-0.1-0.6h-16.7c0.1,1.4,0.3,3.3,0.3,3.6
		c0,0.1-0.1,0.3-0.1,0.6c1.5,1.1,2.4,2.8,2.4,4.8c0,3.3-2.7,6.1-6.1,6.1c-3.4,0-6.1-2.7-6.1-6.1c0-1.9,0.9-3.6,2.3-4.7
		c-0.4-0.8-0.8-1.7-0.8-1.7l0.9-0.9c0,0,0,0,0.1-0.8c0.1-0.5,0-0.7-0.1-0.8H89.5c0,0.5,0,0.4,0,0.4s0.1,0.8,0.1,1.4
		c0,0.6-0.2,0.4-0.2,1.2c0,0.8-0.1,0.5-0.1,0.5s0,0-0.2,1c1.3,1.1,2,2.7,2,4.5c0,3.3-2.7,6.1-6.1,6.1c-3.4,0-6.1-2.7-6.1-6.1
		c0-1.8,0.8-3.5,2.1-4.6c0,0,0-0.1,0.1-0.1c0.4-0.9,0,0,0.1-1.2c0.1-1.2-0.1-1.8-0.1-1.8L81,4C81,4,81,3.7,81,3.4H65.7
		c0.1,0.3,0-0.1,0.2,0.6c0.2,0.9,0.1,0.8,0.1,0.8s0,0-0.2,1.2c-0.2,1.1-0.1,0.9-0.1,1.6c1.5,1.1,2.4,2.9,2.4,4.8
		c0,3.3-2.7,6.1-6.1,6.1s-6.1-2.7-6.1-6.1c0-2.2,1.2-4.1,2.9-5.2v0c0,0,0,0,0.2-1.7C59.1,3.8,58.9,4,58.9,4l-0.1-0.6H42.4
		c0.1,0.3,0.1,0.6,0.1,0.7c0,0.2,0,0.3,0,0.5L42.6,5c0.2,0.8,0,0-0.4,1s0.1,1.2,0.1,1.2l0,0.2c1.6,1.1,2.6,2.9,2.6,4.9
		c0,3.3-2.7,6.1-6.1,6.1c-3.4,0-6.1-2.7-6.1-6.1c0-1.7,0.7-3.2,1.8-4.3l-0.1-0.4c-0.1-0.3,0-0.6,0.1-0.9l0.3-0.6C35,6.1,35,6,35,5.9
		l0.1-0.4c0.1-0.3,0.1-0.6,0-0.9L35,4.2c0-0.1,0-0.5,0-0.8H18.8c-0.4,1,0.1-0.1,0.2,0.7c0.2,0.9,0,0,0.2,0.9
		c0.2,0.9,0.1,0.8,0.1,0.8s0,0-0.2,1.2C19,7.1,19,7.3,19,7.4c1.6,1.1,2.7,2.9,2.7,5c0,3.3-2.7,6.1-6.1,6.1c-3.4,0-6.1-2.7-6.1-6.1
		c0-2.1,1.1-4,2.7-5c0-0.2,0-0.5,0.1-0.8C12.5,4.8,12.3,5,12.3,5l-0.1-0.8L12,3.4H0v216h170.2V3.4H159z"/>
	<path class="st16" d="M159,3.3c0,0.5,0,0.4,0,0.4s0.1,0.8,0.1,1.4c0,0.6-0.2,0.4-0.2,1.2c0,0.8-0.1,0.5-0.1,0.5s0,0-0.2,1
		c1.3,1.1,2.1,2.7,2.1,4.6c0,3.3-2.7,6.1-6.1,6.1c-3.4,0-6.1-2.7-6.1-6.1c0-1.8,0.8-3.4,2-4.5c0,0,0,0,0,0c0,0,0,0,0,0
		c0,0,0-0.1,0.1-0.2c0.4-0.9,0,0,0.1-1.2c0.1-1.2-0.1-1.8-0.1-1.8l-0.2-0.7c0,0-0.1-0.3-0.1-0.6h-15.1c0.1,0.3,0-0.1,0.2,0.6
		c0.2,0.9,0.1,0.8,0.1,0.8s0,0-0.2,1.2c-0.2,1.1-0.1,0.9-0.1,1.7c1.4,1.1,2.2,2.8,2.2,4.7c0,3.3-2.7,6.1-6.1,6.1s-6.1-2.7-6.1-6.1
		c0-2.3,1.3-4.3,3.1-5.3c0-0.2,0.1-0.6,0.1-1.6c0.2-1.7-0.1-1.5-0.1-1.5l-0.1-0.6h-16.7c0.1,1.4,0.3,3.3,0.3,3.6
		c0,0.1-0.1,0.3-0.1,0.6c1.5,1.1,2.4,2.8,2.4,4.8c0,3.3-2.7,6.1-6.1,6.1c-3.4,0-6.1-2.7-6.1-6.1c0-1.9,0.9-3.6,2.3-4.7
		c-0.4-0.8-0.8-1.7-0.8-1.7l0.9-0.9c0,0,0,0,0.1-0.8c0.1-0.5,0-0.7-0.1-0.8H89.5c0,0.5,0,0.4,0,0.4s0.1,0.8,0.1,1.4
		c0,0.6-0.2,0.4-0.2,1.2c0,0.8-0.1,0.5-0.1,0.5s0,0-0.2,1c1.3,1.1,2,2.7,2,4.5c0,3.3-2.7,6.1-6.1,6.1c-3.4,0-6.1-2.7-6.1-6.1
		c0-1.8,0.8-3.5,2.1-4.6c0,0,0-0.1,0.1-0.1c0.4-0.9,0,0,0.1-1.2c0.1-1.2-0.1-1.8-0.1-1.8L81,3.9c0,0-0.1-0.3-0.1-0.6H65.7
		c0.1,0.3,0-0.1,0.2,0.6c0.2,0.9,0.1,0.8,0.1,0.8s0,0-0.2,1.2c-0.2,1.1-0.1,0.9-0.1,1.6c1.5,1.1,2.4,2.9,2.4,4.8
		c0,3.3-2.7,6.1-6.1,6.1s-6.1-2.7-6.1-6.1c0-2.2,1.2-4.1,2.9-5.2v0c0,0,0,0,0.2-1.7c0.2-1.7-0.1-1.5-0.1-1.5l-0.1-0.6H42.4
		c0.1,0.3,0.1,0.6,0.1,0.7c0,0.2,0,0.3,0,0.5l0.1,0.4c0.2,0.8,0,0-0.4,1s0.1,1.2,0.1,1.2l0,0.2c1.6,1.1,2.6,2.9,2.6,4.9
		c0,3.3-2.7,6.1-6.1,6.1c-3.4,0-6.1-2.7-6.1-6.1c0-1.7,0.7-3.2,1.8-4.3l-0.1-0.4c-0.1-0.3,0-0.6,0.1-0.9l0.3-0.6C35,6,35,5.9,35,5.8
		l0.1-0.4c0.1-0.3,0.1-0.6,0-0.9L35,4.1c0-0.1,0-0.5,0-0.8H18.8c-0.4,1,0.1-0.1,0.2,0.7c0.2,0.9,0,0,0.2,0.9
		c0.2,0.9,0.1,0.8,0.1,0.8s0,0-0.2,1.2C19,7,19,7.1,19,7.3c1.6,1.1,2.7,2.9,2.7,5c0,3.3-2.7,6.1-6.1,6.1c-3.4,0-6.1-2.7-6.1-6.1
		c0-2.1,1.1-4,2.7-5c0-0.2,0-0.5,0.1-0.8c0.2-1.7-0.1-1.5-0.1-1.5l-0.1-0.8L12,3.3H0v216h170.2V3.3H159z"/>
	<path class="st17" d="M159,3.2c0,0.5,0,0.4,0,0.4s0.1,0.8,0.1,1.4c0,0.6-0.2,0.4-0.2,1.2c0,0.8-0.1,0.5-0.1,0.5s0,0-0.2,1
		c1.3,1.1,2.1,2.7,2.1,4.6c0,3.3-2.7,6.1-6.1,6.1c-3.4,0-6.1-2.7-6.1-6.1c0-1.8,0.8-3.4,2-4.5c0,0,0,0,0,0c0,0,0,0,0,0
		c0,0,0-0.1,0.1-0.2c0.4-0.9,0,0,0.1-1.2c0.1-1.2-0.1-1.8-0.1-1.8l-0.2-0.7c0,0-0.1-0.3-0.1-0.6h-15.1c0.1,0.3,0-0.1,0.2,0.6
		c0.2,0.9,0.1,0.8,0.1,0.8s0,0-0.2,1.2c-0.2,1.1-0.1,0.9-0.1,1.7c1.4,1.1,2.2,2.8,2.2,4.7c0,3.3-2.7,6.1-6.1,6.1s-6.1-2.7-6.1-6.1
		c0-2.3,1.3-4.3,3.1-5.3c0-0.2,0.1-0.6,0.1-1.6c0.2-1.7-0.1-1.5-0.1-1.5l-0.1-0.6h-16.7c0.1,1.4,0.3,3.3,0.3,3.6
		c0,0.1-0.1,0.3-0.1,0.6c1.5,1.1,2.4,2.8,2.4,4.8c0,3.3-2.7,6.1-6.1,6.1c-3.4,0-6.1-2.7-6.1-6.1c0-1.9,0.9-3.6,2.3-4.7
		c-0.4-0.8-0.8-1.7-0.8-1.7l0.9-0.9c0,0,0,0,0.1-0.8c0.1-0.5,0-0.7-0.1-0.8H89.5c0,0.5,0,0.4,0,0.4s0.1,0.8,0.1,1.4
		c0,0.6-0.2,0.4-0.2,1.2c0,0.8-0.1,0.5-0.1,0.5s0,0-0.2,1c1.3,1.1,2,2.7,2,4.5c0,3.3-2.7,6.1-6.1,6.1c-3.4,0-6.1-2.7-6.1-6.1
		c0-1.8,0.8-3.5,2.1-4.6c0,0,0-0.1,0.1-0.1c0.4-0.9,0,0,0.1-1.2c0.1-1.2-0.1-1.8-0.1-1.8L81,3.8c0,0-0.1-0.3-0.1-0.6H65.7
		c0.1,0.3,0-0.1,0.2,0.6c0.2,0.9,0.1,0.8,0.1,0.8s0,0-0.2,1.2c-0.2,1.1-0.1,0.9-0.1,1.6c1.5,1.1,2.4,2.9,2.4,4.8
		c0,3.3-2.7,6.1-6.1,6.1s-6.1-2.7-6.1-6.1c0-2.2,1.2-4.1,2.9-5.2v0c0,0,0,0,0.2-1.7c0.2-1.7-0.1-1.5-0.1-1.5l-0.1-0.6H42.4
		c0.1,0.3,0.1,0.6,0.1,0.7c0,0.2,0,0.3,0,0.5l0.1,0.4c0.2,0.8,0,0-0.4,1s0.1,1.2,0.1,1.2l0,0.2c1.6,1.1,2.6,2.9,2.6,4.9
		c0,3.3-2.7,6.1-6.1,6.1c-3.4,0-6.1-2.7-6.1-6.1c0-1.7,0.7-3.2,1.8-4.3l-0.1-0.4c-0.1-0.3,0-0.6,0.1-0.9l0.3-0.6
		C35,5.9,35,5.8,35,5.7l0.1-0.4c0.1-0.3,0.1-0.6,0-0.9L35,4c0-0.1,0-0.5,0-0.8H18.8c-0.4,1,0.1-0.1,0.2,0.7c0.2,0.9,0,0,0.2,0.9
		c0.2,0.9,0.1,0.8,0.1,0.8s0,0-0.2,1.2C19,6.9,19,7,19,7.1c1.6,1.1,2.7,2.9,2.7,5c0,3.3-2.7,6.1-6.1,6.1c-3.4,0-6.1-2.7-6.1-6.1
		c0-2.1,1.1-4,2.7-5c0-0.2,0-0.5,0.1-0.8c0.2-1.7-0.1-1.5-0.1-1.5l-0.1-0.8L12,3.2H0v216h170.2V3.2H159z"/>
	<path class="st18" d="M159,3.1c0,0.5,0,0.4,0,0.4s0.1,0.8,0.1,1.4c0,0.6-0.2,0.4-0.2,1.2c0,0.8-0.1,0.5-0.1,0.5s0,0-0.2,1
		c1.3,1.1,2.1,2.7,2.1,4.6c0,3.3-2.7,6.1-6.1,6.1c-3.4,0-6.1-2.7-6.1-6.1c0-1.8,0.8-3.4,2-4.5c0,0,0,0,0,0c0,0,0,0,0,0
		c0,0,0-0.1,0.1-0.2c0.4-0.9,0,0,0.1-1.2c0.1-1.2-0.1-1.8-0.1-1.8l-0.2-0.7c0,0-0.1-0.3-0.1-0.6h-15.1c0.1,0.3,0-0.1,0.2,0.6
		c0.2,0.9,0.1,0.8,0.1,0.8s0,0-0.2,1.2c-0.2,1.1-0.1,0.9-0.1,1.7c1.4,1.1,2.2,2.8,2.2,4.7c0,3.3-2.7,6.1-6.1,6.1s-6.1-2.7-6.1-6.1
		c0-2.3,1.3-4.3,3.1-5.3c0-0.2,0.1-0.6,0.1-1.6c0.2-1.7-0.1-1.5-0.1-1.5l-0.1-0.6h-16.7c0.1,1.4,0.3,3.3,0.3,3.6
		c0,0.1-0.1,0.3-0.1,0.6c1.5,1.1,2.4,2.8,2.4,4.8c0,3.3-2.7,6.1-6.1,6.1c-3.4,0-6.1-2.7-6.1-6.1c0-1.9,0.9-3.6,2.3-4.7
		c-0.4-0.8-0.8-1.7-0.8-1.7l0.9-0.9c0,0,0,0,0.1-0.8c0.1-0.5,0-0.7-0.1-0.8H89.5c0,0.5,0,0.4,0,0.4s0.1,0.8,0.1,1.4
		c0,0.6-0.2,0.4-0.2,1.2c0,0.8-0.1,0.5-0.1,0.5s0,0-0.2,1c1.3,1.1,2,2.7,2,4.5c0,3.3-2.7,6.1-6.1,6.1c-3.4,0-6.1-2.7-6.1-6.1
		c0-1.8,0.8-3.5,2.1-4.6c0,0,0-0.1,0.1-0.1c0.4-0.9,0,0,0.1-1.2c0.1-1.2-0.1-1.8-0.1-1.8L81,3.7c0,0-0.1-0.3-0.1-0.6H65.7
		c0.1,0.3,0-0.1,0.2,0.6c0.2,0.9,0.1,0.8,0.1,0.8s0,0-0.2,1.2c-0.2,1.1-0.1,0.9-0.1,1.6c1.5,1.1,2.4,2.9,2.4,4.8
		c0,3.3-2.7,6.1-6.1,6.1s-6.1-2.7-6.1-6.1c0-2.2,1.2-4.1,2.9-5.2v0c0,0,0,0,0.2-1.7c0.2-1.7-0.1-1.5-0.1-1.5l-0.1-0.6H42.4
		c0.1,0.3,0.1,0.6,0.1,0.7c0,0.2,0,0.3,0,0.5l0.1,0.4c0.2,0.8,0,0-0.4,1c-0.4,1,0.1,1.2,0.1,1.2l0,0.2c1.6,1.1,2.6,2.9,2.6,4.9
		c0,3.3-2.7,6.1-6.1,6.1c-3.4,0-6.1-2.7-6.1-6.1c0-1.7,0.7-3.2,1.8-4.3l-0.1-0.4c-0.1-0.3,0-0.6,0.1-0.9l0.3-0.6
		C35,5.8,35,5.7,35,5.6l0.1-0.4c0.1-0.3,0.1-0.6,0-0.9L35,3.9c0-0.1,0-0.5,0-0.8H18.8c-0.4,1,0.1-0.1,0.2,0.7c0.2,0.9,0,0,0.2,0.9
		c0.2,0.9,0.1,0.8,0.1,0.8s0,0-0.2,1.2C19,6.8,19,6.9,19,7c1.6,1.1,2.7,2.9,2.7,5c0,3.3-2.7,6.1-6.1,6.1c-3.4,0-6.1-2.7-6.1-6.1
		c0-2.1,1.1-4,2.7-5c0-0.2,0-0.5,0.1-0.8c0.2-1.7-0.1-1.5-0.1-1.5l-0.1-0.8L12,3.1H0v216h170.2V3.1H159z"/>
	<path class="st19" d="M159,3c0,0.5,0,0.4,0,0.4s0.1,0.8,0.1,1.4c0,0.6-0.2,0.4-0.2,1.2c0,0.8-0.1,0.5-0.1,0.5s0,0-0.2,1
		c1.3,1.1,2.1,2.7,2.1,4.6c0,3.3-2.7,6.1-6.1,6.1c-3.4,0-6.1-2.7-6.1-6.1c0-1.8,0.8-3.4,2-4.5c0,0,0,0,0,0c0,0,0,0,0,0
		c0,0,0-0.1,0.1-0.2c0.4-0.9,0,0,0.1-1.2c0.1-1.2-0.1-1.8-0.1-1.8l-0.2-0.7c0,0-0.1-0.3-0.1-0.6h-15.1c0.1,0.3,0-0.1,0.2,0.6
		c0.2,0.9,0.1,0.8,0.1,0.8s0,0-0.2,1.2c-0.2,1.1-0.1,0.9-0.1,1.7c1.4,1.1,2.2,2.8,2.2,4.7c0,3.3-2.7,6.1-6.1,6.1s-6.1-2.7-6.1-6.1
		c0-2.3,1.3-4.3,3.1-5.3c0-0.2,0.1-0.6,0.1-1.6c0.2-1.7-0.1-1.5-0.1-1.5L128.5,3h-16.7c0.1,1.4,0.3,3.3,0.3,3.6
		c0,0.1-0.1,0.3-0.1,0.6c1.5,1.1,2.4,2.8,2.4,4.8c0,3.3-2.7,6.1-6.1,6.1c-3.4,0-6.1-2.7-6.1-6.1c0-1.9,0.9-3.6,2.3-4.7
		c-0.4-0.8-0.8-1.7-0.8-1.7l0.9-0.9c0,0,0,0,0.1-0.8c0.1-0.5,0-0.7-0.1-0.8H89.5c0,0.5,0,0.4,0,0.4s0.1,0.8,0.1,1.4
		c0,0.6-0.2,0.4-0.2,1.2c0,0.8-0.1,0.5-0.1,0.5s0,0-0.2,1c1.3,1.1,2,2.7,2,4.5c0,3.3-2.7,6.1-6.1,6.1C81.8,18,79,15.3,79,12
		c0-1.8,0.8-3.5,2.1-4.6c0,0,0-0.1,0.1-0.1c0.4-0.9,0,0,0.1-1.2c0.1-1.2-0.1-1.8-0.1-1.8L81,3.6C81,3.6,81,3.2,81,3H65.7
		c0.1,0.3,0-0.1,0.2,0.6c0.2,0.9,0.1,0.8,0.1,0.8s0,0-0.2,1.2c-0.2,1.1-0.1,0.9-0.1,1.6C67.1,8.2,68,10,68,12c0,3.3-2.7,6.1-6.1,6.1
		s-6.1-2.7-6.1-6.1c0-2.2,1.2-4.1,2.9-5.2v0c0,0,0,0,0.2-1.7c0.2-1.7-0.1-1.5-0.1-1.5L58.8,3H42.4c0.1,0.3,0.1,0.6,0.1,0.7
		c0,0.2,0,0.3,0,0.5l0.1,0.4c0.2,0.8,0,0-0.4,1c-0.4,1,0.1,1.2,0.1,1.2l0,0.2c1.6,1.1,2.6,2.9,2.6,4.9c0,3.3-2.7,6.1-6.1,6.1
		c-3.4,0-6.1-2.7-6.1-6.1c0-1.7,0.7-3.2,1.8-4.3l-0.1-0.4c-0.1-0.3,0-0.6,0.1-0.9l0.3-0.6C35,5.7,35,5.6,35,5.5l0.1-0.4
		c0.1-0.3,0.1-0.6,0-0.9L35,3.8c0-0.1,0-0.5,0-0.8H18.8c-0.4,1,0.1-0.1,0.2,0.7c0.2,0.9,0,0,0.2,0.9c0.2,0.9,0.1,0.8,0.1,0.8
		s0,0-0.2,1.2C19,6.7,19,6.8,19,6.9c1.6,1.1,2.7,2.9,2.7,5c0,3.3-2.7,6.1-6.1,6.1c-3.4,0-6.1-2.7-6.1-6.1c0-2.1,1.1-4,2.7-5
		c0-0.2,0-0.5,0.1-0.8c0.2-1.7-0.1-1.5-0.1-1.5l-0.1-0.8L12,3H0v216h170.2V3H159z"/>
	<path class="st20" d="M159,2.9c0,0.5,0,0.4,0,0.4s0.1,0.8,0.1,1.4c0,0.6-0.2,0.4-0.2,1.2c0,0.8-0.1,0.5-0.1,0.5s0,0-0.2,1
		c1.3,1.1,2.1,2.7,2.1,4.6c0,3.3-2.7,6.1-6.1,6.1c-3.4,0-6.1-2.7-6.1-6.1c0-1.8,0.8-3.4,2-4.5c0,0,0,0,0,0c0,0,0,0,0,0
		c0,0,0-0.1,0.1-0.2c0.4-0.9,0,0,0.1-1.2c0.1-1.2-0.1-1.8-0.1-1.8l-0.2-0.7c0,0-0.1-0.3-0.1-0.6h-15.1c0.1,0.3,0-0.1,0.2,0.6
		c0.2,0.9,0.1,0.8,0.1,0.8s0,0-0.2,1.2c-0.2,1.1-0.1,0.9-0.1,1.7c1.4,1.1,2.2,2.8,2.2,4.7c0,3.3-2.7,6.1-6.1,6.1s-6.1-2.7-6.1-6.1
		c0-2.3,1.3-4.3,3.1-5.3c0-0.2,0.1-0.6,0.1-1.6c0.2-1.7-0.1-1.5-0.1-1.5l-0.1-0.6h-16.7c0.1,1.4,0.3,3.3,0.3,3.6
		c0,0.1-0.1,0.3-0.1,0.6c1.5,1.1,2.4,2.8,2.4,4.8c0,3.3-2.7,6.1-6.1,6.1c-3.4,0-6.1-2.7-6.1-6.1c0-1.9,0.9-3.6,2.3-4.7
		c-0.4-0.8-0.8-1.7-0.8-1.7l0.9-0.9c0,0,0,0,0.1-0.8c0.1-0.5,0-0.7-0.1-0.8H89.5c0,0.5,0,0.4,0,0.4s0.1,0.8,0.1,1.4
		c0,0.6-0.2,0.4-0.2,1.2c0,0.8-0.1,0.5-0.1,0.5s0,0-0.2,1c1.3,1.1,2,2.7,2,4.5c0,3.3-2.7,6.1-6.1,6.1c-3.4,0-6.1-2.7-6.1-6.1
		c0-1.8,0.8-3.5,2.1-4.6c0,0,0-0.1,0.1-0.1c0.4-0.9,0,0,0.1-1.2c0.1-1.2-0.1-1.8-0.1-1.8L81,3.5c0,0-0.1-0.3-0.1-0.6H65.7
		c0.1,0.3,0-0.1,0.2,0.6c0.2,0.9,0.1,0.8,0.1,0.8s0,0-0.2,1.2c-0.2,1.1-0.1,0.9-0.1,1.6c1.5,1.1,2.4,2.9,2.4,4.8
		c0,3.3-2.7,6.1-6.1,6.1s-6.1-2.7-6.1-6.1c0-2.2,1.2-4.1,2.9-5.2v0c0,0,0,0,0.2-1.7c0.2-1.7-0.1-1.5-0.1-1.5l-0.1-0.6H42.4
		c0.1,0.3,0.1,0.6,0.1,0.7c0,0.2,0,0.3,0,0.5l0.1,0.4c0.2,0.8,0,0-0.4,1c-0.4,1,0.1,1.2,0.1,1.2l0,0.2c1.6,1.1,2.6,2.9,2.6,4.9
		c0,3.3-2.7,6.1-6.1,6.1c-3.4,0-6.1-2.7-6.1-6.1c0-1.7,0.7-3.2,1.8-4.3l-0.1-0.4c-0.1-0.3,0-0.6,0.1-0.9l0.3-0.6
		C35,5.6,35,5.5,35,5.4L35.2,5c0.1-0.3,0.1-0.6,0-0.9L35,3.7c0-0.1,0-0.5,0-0.8H18.8c-0.4,1,0.1-0.1,0.2,0.7c0.2,0.9,0,0,0.2,0.9
		c0.2,0.9,0.1,0.8,0.1,0.8s0,0-0.2,1.2C19,6.6,19,6.7,19,6.8c1.6,1.1,2.7,2.9,2.7,5c0,3.3-2.7,6.1-6.1,6.1c-3.4,0-6.1-2.7-6.1-6.1
		c0-2.1,1.1-4,2.7-5c0-0.2,0-0.5,0.1-0.8c0.2-1.7-0.1-1.5-0.1-1.5l-0.1-0.8L12,2.9H0v216h170.2V2.9H159z"/>
	<path class="st21" d="M159,2.8c0,0.5,0,0.4,0,0.4s0.1,0.8,0.1,1.4s-0.2,0.4-0.2,1.2s-0.1,0.5-0.1,0.5s0,0-0.2,1
		c1.3,1.1,2.1,2.7,2.1,4.6c0,3.3-2.7,6.1-6.1,6.1c-3.4,0-6.1-2.7-6.1-6.1c0-1.8,0.8-3.4,2-4.5c0,0,0,0,0,0c0,0,0,0,0,0
		c0,0,0-0.1,0.1-0.2c0.4-0.9,0,0,0.1-1.2c0.1-1.2-0.1-1.8-0.1-1.8l-0.2-0.7c0,0-0.1-0.3-0.1-0.6h-15.1c0.1,0.3,0-0.1,0.2,0.6
		c0.2,0.9,0.1,0.8,0.1,0.8s0,0-0.2,1.2c-0.2,1.1-0.1,0.9-0.1,1.7c1.4,1.1,2.2,2.8,2.2,4.7c0,3.3-2.7,6.1-6.1,6.1s-6.1-2.7-6.1-6.1
		c0-2.3,1.3-4.3,3.1-5.3c0-0.2,0.1-0.6,0.1-1.6c0.2-1.7-0.1-1.5-0.1-1.5l-0.1-0.6h-16.7c0.1,1.4,0.3,3.3,0.3,3.6
		c0,0.1-0.1,0.3-0.1,0.6c1.5,1.1,2.4,2.8,2.4,4.8c0,3.3-2.7,6.1-6.1,6.1c-3.4,0-6.1-2.7-6.1-6.1c0-1.9,0.9-3.6,2.3-4.7
		c-0.4-0.8-0.8-1.7-0.8-1.7l0.9-0.9c0,0,0,0,0.1-0.8c0.1-0.5,0-0.7-0.1-0.8H89.5c0,0.5,0,0.4,0,0.4s0.1,0.8,0.1,1.4S89.4,5,89.4,5.7
		s-0.1,0.5-0.1,0.5s0,0-0.2,1c1.3,1.1,2,2.7,2,4.5c0,3.3-2.7,6.1-6.1,6.1c-3.4,0-6.1-2.7-6.1-6.1c0-1.8,0.8-3.5,2.1-4.6
		c0,0,0-0.1,0.1-0.1c0.4-0.9,0,0,0.1-1.2c0.1-1.2-0.1-1.8-0.1-1.8L81,3.4C81,3.4,81,3,81,2.8H65.7c0.1,0.3,0-0.1,0.2,0.6
		c0.2,0.9,0.1,0.8,0.1,0.8s0,0-0.2,1.2c-0.2,1.1-0.1,0.9-0.1,1.6C67.1,8,68,9.8,68,11.8c0,3.3-2.7,6.1-6.1,6.1s-6.1-2.7-6.1-6.1
		c0-2.2,1.2-4.1,2.9-5.2v0c0,0,0,0,0.2-1.7c0.2-1.7-0.1-1.5-0.1-1.5l-0.1-0.6H42.4c0.1,0.3,0.1,0.6,0.1,0.7c0,0.2,0,0.3,0,0.5
		l0.1,0.4c0.2,0.8,0,0-0.4,1c-0.4,1,0.1,1.2,0.1,1.2l0,0.2c1.6,1.1,2.6,2.9,2.6,4.9c0,3.3-2.7,6.1-6.1,6.1c-3.4,0-6.1-2.7-6.1-6.1
		c0-1.7,0.7-3.2,1.8-4.3l-0.1-0.4c-0.1-0.3,0-0.6,0.1-0.9l0.3-0.6C35,5.5,35,5.4,35,5.3l0.1-0.4c0.1-0.3,0.1-0.6,0-0.9L35,3.5
		c0-0.1,0-0.5,0-0.8H18.8c-0.4,1,0.1-0.1,0.2,0.7c0.2,0.9,0,0,0.2,0.9c0.2,0.9,0.1,0.8,0.1,0.8s0,0-0.2,1.2C19,6.5,19,6.6,19,6.7
		c1.6,1.1,2.7,2.9,2.7,5c0,3.3-2.7,6.1-6.1,6.1c-3.4,0-6.1-2.7-6.1-6.1c0-2.1,1.1-4,2.7-5c0-0.2,0-0.5,0.1-0.8
		c0.2-1.7-0.1-1.5-0.1-1.5l-0.1-0.8L12,2.8H0v216h170.2V2.8H159z"/>
	<path class="st22" d="M159,2.7c0,0.5,0,0.4,0,0.4s0.1,0.8,0.1,1.4s-0.2,0.4-0.2,1.2s-0.1,0.5-0.1,0.5s0,0-0.2,1
		c1.3,1.1,2.1,2.7,2.1,4.6c0,3.3-2.7,6.1-6.1,6.1c-3.4,0-6.1-2.7-6.1-6.1c0-1.8,0.8-3.4,2-4.5c0,0,0,0,0,0c0,0,0,0,0,0
		c0,0,0-0.1,0.1-0.2c0.4-0.9,0,0,0.1-1.2c0.1-1.2-0.1-1.8-0.1-1.8l-0.2-0.7c0,0-0.1-0.3-0.1-0.6h-15.1c0.1,0.3,0-0.1,0.2,0.6
		c0.2,0.9,0.1,0.8,0.1,0.8s0,0-0.2,1.2c-0.2,1.1-0.1,0.9-0.1,1.7c1.4,1.1,2.2,2.8,2.2,4.7c0,3.3-2.7,6.1-6.1,6.1s-6.1-2.7-6.1-6.1
		c0-2.3,1.3-4.3,3.1-5.3c0-0.2,0.1-0.6,0.1-1.6c0.2-1.7-0.1-1.5-0.1-1.5l-0.1-0.6h-16.7c0.1,1.4,0.3,3.3,0.3,3.6
		c0,0.1-0.1,0.3-0.1,0.6c1.5,1.1,2.4,2.8,2.4,4.8c0,3.3-2.7,6.1-6.1,6.1c-3.4,0-6.1-2.7-6.1-6.1c0-1.9,0.9-3.6,2.3-4.7
		c-0.4-0.8-0.8-1.7-0.8-1.7l0.9-0.9c0,0,0,0,0.1-0.8c0.1-0.5,0-0.7-0.1-0.8H89.5c0,0.5,0,0.4,0,0.4s0.1,0.8,0.1,1.4
		s-0.2,0.4-0.2,1.2s-0.1,0.5-0.1,0.5s0,0-0.2,1c1.3,1.1,2,2.7,2,4.5c0,3.3-2.7,6.1-6.1,6.1c-3.4,0-6.1-2.7-6.1-6.1
		c0-1.8,0.8-3.5,2.1-4.6c0,0,0-0.1,0.1-0.1c0.4-0.9,0,0,0.1-1.2c0.1-1.2-0.1-1.8-0.1-1.8L81,3.2c0,0-0.1-0.3-0.1-0.6H65.7
		c0.1,0.3,0-0.1,0.2,0.6c0.2,0.9,0.1,0.8,0.1,0.8s0,0-0.2,1.2c-0.2,1.1-0.1,0.9-0.1,1.6c1.5,1.1,2.4,2.9,2.4,4.8
		c0,3.3-2.7,6.1-6.1,6.1s-6.1-2.7-6.1-6.1c0-2.2,1.2-4.1,2.9-5.2v0c0,0,0,0,0.2-1.7c0.2-1.7-0.1-1.5-0.1-1.5l-0.1-0.6H42.4
		c0.1,0.3,0.1,0.6,0.1,0.7c0,0.2,0,0.3,0,0.5l0.1,0.4c0.2,0.8,0,0-0.4,1c-0.4,1,0.1,1.2,0.1,1.2l0,0.2c1.6,1.1,2.6,2.9,2.6,4.9
		c0,3.3-2.7,6.1-6.1,6.1c-3.4,0-6.1-2.7-6.1-6.1c0-1.7,0.7-3.2,1.8-4.3L34.5,7c-0.1-0.3,0-0.6,0.1-0.9l0.3-0.6C35,5.3,35,5.3,35,5.2
		l0.1-0.4c0.1-0.3,0.1-0.6,0-0.9L35,3.4c0-0.1,0-0.5,0-0.8H18.8c-0.4,1,0.1-0.1,0.2,0.7c0.2,0.9,0,0,0.2,0.9
		c0.2,0.9,0.1,0.8,0.1,0.8s0,0-0.2,1.2C19,6.4,19,6.5,19,6.6c1.6,1.1,2.7,2.9,2.7,5c0,3.3-2.7,6.1-6.1,6.1c-3.4,0-6.1-2.7-6.1-6.1
		c0-2.1,1.1-4,2.7-5c0-0.2,0-0.5,0.1-0.8c0.2-1.7-0.1-1.5-0.1-1.5l-0.1-0.8L12,2.7H0v216h170.2V2.7H159z"/>
	<path class="st23" d="M159,2.6c0,0.5,0,0.4,0,0.4s0.1,0.8,0.1,1.4s-0.2,0.4-0.2,1.2S158.8,6,158.8,6s0,0-0.2,1
		c1.3,1.1,2.1,2.7,2.1,4.6c0,3.3-2.7,6.1-6.1,6.1c-3.4,0-6.1-2.7-6.1-6.1c0-1.8,0.8-3.4,2-4.5c0,0,0,0,0,0c0,0,0,0,0,0
		c0,0,0-0.1,0.1-0.2c0.4-0.9,0,0,0.1-1.2c0.1-1.2-0.1-1.8-0.1-1.8l-0.2-0.7c0,0-0.1-0.3-0.1-0.6h-15.1c0.1,0.3,0-0.1,0.2,0.6
		c0.2,0.9,0.1,0.8,0.1,0.8s0,0-0.2,1.2c-0.2,1.1-0.1,0.9-0.1,1.7c1.4,1.1,2.2,2.8,2.2,4.7c0,3.3-2.7,6.1-6.1,6.1s-6.1-2.7-6.1-6.1
		c0-2.3,1.3-4.3,3.1-5.3c0-0.2,0.1-0.6,0.1-1.6c0.2-1.7-0.1-1.5-0.1-1.5l-0.1-0.6h-16.7c0.1,1.4,0.3,3.3,0.3,3.6
		c0,0.1-0.1,0.3-0.1,0.6c1.5,1.1,2.4,2.8,2.4,4.8c0,3.3-2.7,6.1-6.1,6.1c-3.4,0-6.1-2.7-6.1-6.1c0-1.9,0.9-3.6,2.3-4.7
		c-0.4-0.8-0.8-1.7-0.8-1.7l0.9-0.9c0,0,0,0,0.1-0.8c0.1-0.5,0-0.7-0.1-0.8H89.5c0,0.5,0,0.4,0,0.4s0.1,0.8,0.1,1.4
		s-0.2,0.4-0.2,1.2S89.3,6,89.3,6s0,0-0.2,1c1.3,1.1,2,2.7,2,4.5c0,3.3-2.7,6.1-6.1,6.1c-3.4,0-6.1-2.7-6.1-6.1
		c0-1.8,0.8-3.5,2.1-4.6c0,0,0-0.1,0.1-0.1c0.4-0.9,0,0,0.1-1.2c0.1-1.2-0.1-1.8-0.1-1.8L81,3.1c0,0-0.1-0.3-0.1-0.6H65.7
		c0.1,0.3,0-0.1,0.2,0.6C66.1,4.1,65.9,4,65.9,4s0,0-0.2,1.2c-0.2,1.1-0.1,0.9-0.1,1.6c1.5,1.1,2.4,2.9,2.4,4.8
		c0,3.3-2.7,6.1-6.1,6.1s-6.1-2.7-6.1-6.1c0-2.2,1.2-4.1,2.9-5.2v0c0,0,0,0,0.2-1.7c0.2-1.7-0.1-1.5-0.1-1.5l-0.1-0.6H42.4
		c0.1,0.3,0.1,0.6,0.1,0.7c0,0.2,0,0.3,0,0.5l0.1,0.4c0.2,0.8,0,0-0.4,1c-0.4,1,0.1,1.2,0.1,1.2l0,0.2c1.6,1.1,2.6,2.9,2.6,4.9
		c0,3.3-2.7,6.1-6.1,6.1c-3.4,0-6.1-2.7-6.1-6.1c0-1.7,0.7-3.2,1.8-4.3l-0.1-0.4c-0.1-0.3,0-0.6,0.1-0.9l0.3-0.6
		C35,5.2,35,5.2,35,5.1l0.1-0.4c0.1-0.3,0.1-0.6,0-0.9L35,3.3c0-0.1,0-0.5,0-0.8H18.8c-0.4,1,0.1-0.1,0.2,0.7c0.2,0.9,0,0,0.2,0.9
		C19.5,5.1,19.3,5,19.3,5s0,0-0.2,1.2C19,6.3,19,6.4,19,6.5c1.6,1.1,2.7,2.9,2.7,5c0,3.3-2.7,6.1-6.1,6.1c-3.4,0-6.1-2.7-6.1-6.1
		c0-2.1,1.1-4,2.7-5c0-0.2,0-0.5,0.1-0.8c0.2-1.7-0.1-1.5-0.1-1.5l-0.1-0.8L12,2.6H0v216h170.2V2.6H159z"/>
	<path class="st24" d="M159,2.5c0,0.5,0,0.4,0,0.4s0.1,0.8,0.1,1.4s-0.2,0.4-0.2,1.2s-0.1,0.5-0.1,0.5s0,0-0.2,1
		c1.3,1.1,2.1,2.7,2.1,4.6c0,3.3-2.7,6.1-6.1,6.1c-3.4,0-6.1-2.7-6.1-6.1c0-1.8,0.8-3.4,2-4.5c0,0,0,0,0,0c0,0,0,0,0,0
		c0,0,0-0.1,0.1-0.2c0.4-0.9,0,0,0.1-1.2c0.1-1.2-0.1-1.8-0.1-1.8L150.5,3c0,0-0.1-0.3-0.1-0.6h-15.1c0.1,0.3,0-0.1,0.2,0.6
		c0.2,0.9,0.1,0.8,0.1,0.8s0,0-0.2,1.2c-0.2,1.1-0.1,0.9-0.1,1.7c1.4,1.1,2.2,2.8,2.2,4.7c0,3.3-2.7,6.1-6.1,6.1s-6.1-2.7-6.1-6.1
		c0-2.3,1.3-4.3,3.1-5.3c0-0.2,0.1-0.6,0.1-1.6c0.2-1.7-0.1-1.5-0.1-1.5l-0.1-0.6h-16.7c0.1,1.4,0.3,3.3,0.3,3.6
		c0,0.1-0.1,0.3-0.1,0.6c1.5,1.1,2.4,2.8,2.4,4.8c0,3.3-2.7,6.1-6.1,6.1c-3.4,0-6.1-2.7-6.1-6.1c0-1.9,0.9-3.6,2.3-4.7
		c-0.4-0.8-0.8-1.7-0.8-1.7l0.9-0.9c0,0,0,0,0.1-0.8c0.1-0.5,0-0.7-0.1-0.8H89.5c0,0.5,0,0.4,0,0.4s0.1,0.8,0.1,1.4
		s-0.2,0.4-0.2,1.2s-0.1,0.5-0.1,0.5s0,0-0.2,1c1.3,1.1,2,2.7,2,4.5c0,3.3-2.7,6.1-6.1,6.1c-3.4,0-6.1-2.7-6.1-6.1
		c0-1.8,0.8-3.5,2.1-4.6c0,0,0-0.1,0.1-0.1c0.4-0.9,0,0,0.1-1.2c0.1-1.2-0.1-1.8-0.1-1.8L81,3C81,3,81,2.7,81,2.5H65.7
		c0.1,0.3,0-0.1,0.2,0.6c0.2,0.9,0.1,0.8,0.1,0.8s0,0-0.2,1.2c-0.2,1.1-0.1,0.9-0.1,1.6c1.5,1.1,2.4,2.9,2.4,4.8
		c0,3.3-2.7,6.1-6.1,6.1s-6.1-2.7-6.1-6.1c0-2.2,1.2-4.1,2.9-5.2v0c0,0,0,0,0.2-1.7c0.2-1.7-0.1-1.5-0.1-1.5l-0.1-0.6H42.4
		c0.1,0.3,0.1,0.6,0.1,0.7c0,0.2,0,0.3,0,0.5l0.1,0.4c0.2,0.8,0,0-0.4,1c-0.4,1,0.1,1.2,0.1,1.2l0,0.2c1.6,1.1,2.6,2.9,2.6,4.9
		c0,3.3-2.7,6.1-6.1,6.1c-3.4,0-6.1-2.7-6.1-6.1c0-1.7,0.7-3.2,1.8-4.3l-0.1-0.4c-0.1-0.3,0-0.6,0.1-0.9l0.3-0.6C35,5.1,35,5.1,35,5
		l0.1-0.4c0.1-0.3,0.1-0.6,0-0.9L35,3.2c0-0.1,0-0.5,0-0.8H18.8c-0.4,1,0.1-0.1,0.2,0.7c0.2,0.9,0,0,0.2,0.9
		c0.2,0.9,0.1,0.8,0.1,0.8s0,0-0.2,1.2C19,6.2,19,6.3,19,6.4c1.6,1.1,2.7,2.9,2.7,5c0,3.3-2.7,6.1-6.1,6.1c-3.4,0-6.1-2.7-6.1-6.1
		c0-2.1,1.1-4,2.7-5c0-0.2,0-0.5,0.1-0.8c0.2-1.7-0.1-1.5-0.1-1.5l-0.1-0.8L12,2.5H0v216h170.2V2.5H159z"/>
	<path class="st25" d="M159,2.3c0,0.5,0,0.4,0,0.4s0.1,0.8,0.1,1.4s-0.2,0.4-0.2,1.2s-0.1,0.5-0.1,0.5s0,0-0.2,1
		c1.3,1.1,2.1,2.7,2.1,4.6c0,3.3-2.7,6.1-6.1,6.1c-3.4,0-6.1-2.7-6.1-6.1c0-1.8,0.8-3.4,2-4.5c0,0,0,0,0,0c0,0,0,0,0,0
		c0,0,0-0.1,0.1-0.2c0.4-0.9,0,0,0.1-1.2c0.1-1.2-0.1-1.8-0.1-1.8l-0.2-0.7c0,0-0.1-0.3-0.1-0.6h-15.1c0.1,0.3,0-0.1,0.2,0.6
		c0.2,0.9,0.1,0.8,0.1,0.8s0,0-0.2,1.2c-0.2,1.1-0.1,0.9-0.1,1.7c1.4,1.1,2.2,2.8,2.2,4.7c0,3.3-2.7,6.1-6.1,6.1s-6.1-2.7-6.1-6.1
		c0-2.3,1.3-4.3,3.1-5.3c0-0.2,0.1-0.6,0.1-1.6c0.2-1.7-0.1-1.5-0.1-1.5l-0.1-0.6h-16.7c0.1,1.4,0.3,3.3,0.3,3.6
		c0,0.1-0.1,0.3-0.1,0.6c1.5,1.1,2.4,2.8,2.4,4.8c0,3.3-2.7,6.1-6.1,6.1c-3.4,0-6.1-2.7-6.1-6.1c0-1.9,0.9-3.6,2.3-4.7
		c-0.4-0.8-0.8-1.7-0.8-1.7l0.9-0.9c0,0,0,0,0.1-0.8c0.1-0.5,0-0.7-0.1-0.8H89.5c0,0.5,0,0.4,0,0.4s0.1,0.8,0.1,1.4
		s-0.2,0.4-0.2,1.2s-0.1,0.5-0.1,0.5s0,0-0.2,1c1.3,1.1,2,2.7,2,4.5c0,3.3-2.7,6.1-6.1,6.1c-3.4,0-6.1-2.7-6.1-6.1
		c0-1.8,0.8-3.5,2.1-4.6c0,0,0-0.1,0.1-0.1c0.4-0.9,0,0,0.1-1.2c0.1-1.2-0.1-1.8-0.1-1.8L81,2.9c0,0-0.1-0.3-0.1-0.6H65.7
		c0.1,0.3,0-0.1,0.2,0.6c0.2,0.9,0.1,0.8,0.1,0.8s0,0-0.2,1.2c-0.2,1.1-0.1,0.9-0.1,1.6c1.5,1.1,2.4,2.9,2.4,4.8
		c0,3.3-2.7,6.1-6.1,6.1s-6.1-2.7-6.1-6.1c0-2.2,1.2-4.1,2.9-5.2v0c0,0,0,0,0.2-1.7C59.1,2.7,58.9,3,58.9,3l-0.1-0.6H42.4
		c0.1,0.3,0.1,0.6,0.1,0.7c0,0.2,0,0.3,0,0.5L42.6,4c0.2,0.8,0,0-0.4,1c-0.4,1,0.1,1.2,0.1,1.2l0,0.2c1.6,1.1,2.6,2.9,2.6,4.9
		c0,3.3-2.7,6.1-6.1,6.1c-3.4,0-6.1-2.7-6.1-6.1c0-1.7,0.7-3.2,1.8-4.3l-0.1-0.4c-0.1-0.3,0-0.6,0.1-0.9l0.3-0.6C35,5,35,4.9,35,4.9
		l0.1-0.4c0.1-0.3,0.1-0.6,0-0.9L35,3.1c0-0.1,0-0.5,0-0.8H18.8c-0.4,1,0.1-0.1,0.2,0.7c0.2,0.9,0,0,0.2,0.9
		c0.2,0.9,0.1,0.8,0.1,0.8s0,0-0.2,1.2C19,6.1,19,6.2,19,6.3c1.6,1.1,2.7,2.9,2.7,5c0,3.3-2.7,6.1-6.1,6.1c-3.4,0-6.1-2.7-6.1-6.1
		c0-2.1,1.1-4,2.7-5c0-0.2,0-0.5,0.1-0.8C12.5,3.7,12.3,4,12.3,4l-0.1-0.8L12,2.3H0v216h170.2V2.3H159z"/>
	<path class="st26" d="M159,2.2c0,0.5,0,0.4,0,0.4s0.1,0.8,0.1,1.4s-0.2,0.4-0.2,1.2s-0.1,0.5-0.1,0.5s0,0-0.2,1
		c1.3,1.1,2.1,2.7,2.1,4.6c0,3.3-2.7,6.1-6.1,6.1c-3.4,0-6.1-2.7-6.1-6.1c0-1.8,0.8-3.4,2-4.5c0,0,0,0,0,0c0,0,0,0,0,0
		c0,0,0-0.1,0.1-0.2c0.4-0.9,0,0,0.1-1.2c0.1-1.2-0.1-1.8-0.1-1.8l-0.2-0.7c0,0-0.1-0.3-0.1-0.6h-15.1c0.1,0.3,0-0.1,0.2,0.6
		c0.2,0.9,0.1,0.8,0.1,0.8s0,0-0.2,1.2c-0.2,1.1-0.1,0.9-0.1,1.7c1.4,1.1,2.2,2.8,2.2,4.7c0,3.3-2.7,6.1-6.1,6.1s-6.1-2.7-6.1-6.1
		c0-2.3,1.3-4.3,3.1-5.3c0-0.2,0.1-0.6,0.1-1.6c0.2-1.7-0.1-1.5-0.1-1.5l-0.1-0.6h-16.7c0.1,1.4,0.3,3.3,0.3,3.6
		c0,0.1-0.1,0.3-0.1,0.6c1.5,1.1,2.4,2.8,2.4,4.8c0,3.3-2.7,6.1-6.1,6.1c-3.4,0-6.1-2.7-6.1-6.1c0-1.9,0.9-3.6,2.3-4.7
		c-0.4-0.8-0.8-1.7-0.8-1.7l0.9-0.9c0,0,0,0,0.1-0.8c0.1-0.5,0-0.7-0.1-0.8H89.5c0,0.5,0,0.4,0,0.4s0.1,0.8,0.1,1.4
		s-0.2,0.4-0.2,1.2s-0.1,0.5-0.1,0.5s0,0-0.2,1c1.3,1.1,2,2.7,2,4.5c0,3.3-2.7,6.1-6.1,6.1c-3.4,0-6.1-2.7-6.1-6.1
		c0-1.8,0.8-3.5,2.1-4.6c0,0,0-0.1,0.1-0.1c0.4-0.9,0,0,0.1-1.2c0.1-1.2-0.1-1.8-0.1-1.8L81,2.8c0,0-0.1-0.3-0.1-0.6H65.7
		c0.1,0.3,0-0.1,0.2,0.6c0.2,0.9,0.1,0.8,0.1,0.8s0,0-0.2,1.2c-0.2,1.1-0.1,0.9-0.1,1.6c1.5,1.1,2.4,2.9,2.4,4.8
		c0,3.3-2.7,6.1-6.1,6.1s-6.1-2.7-6.1-6.1c0-2.2,1.2-4.1,2.9-5.2v0c0,0,0,0,0.2-1.7c0.2-1.7-0.1-1.5-0.1-1.5l-0.1-0.6H42.4
		c0.1,0.3,0.1,0.6,0.1,0.7c0,0.2,0,0.3,0,0.5l0.1,0.4c0.2,0.8,0,0-0.4,1c-0.4,1,0.1,1.2,0.1,1.2l0,0.2c1.6,1.1,2.6,2.9,2.6,4.9
		c0,3.3-2.7,6.1-6.1,6.1c-3.4,0-6.1-2.7-6.1-6.1c0-1.7,0.7-3.2,1.8-4.3l-0.1-0.4c-0.1-0.3,0-0.6,0.1-0.9L34.9,5
		C35,4.9,35,4.8,35,4.8l0.1-0.4c0.1-0.3,0.1-0.6,0-0.9L35,3c0-0.1,0-0.5,0-0.8H18.8c-0.4,1,0.1-0.1,0.2,0.7c0.2,0.9,0,0,0.2,0.9
		c0.2,0.9,0.1,0.8,0.1,0.8s0,0-0.2,1.2C19,6,19,6.1,19,6.2c1.6,1.1,2.7,2.9,2.7,5c0,3.3-2.7,6.1-6.1,6.1c-3.4,0-6.1-2.7-6.1-6.1
		c0-2.1,1.1-4,2.7-5c0-0.2,0-0.5,0.1-0.8c0.2-1.7-0.1-1.5-0.1-1.5l-0.1-0.8L12,2.2H0v216h170.2V2.2H159z"/>
	<path class="st27" d="M159,2.1c0,0.5,0,0.4,0,0.4s0.1,0.8,0.1,1.4s-0.2,0.4-0.2,1.2c0,0.8-0.1,0.5-0.1,0.5s0,0-0.2,1
		c1.3,1.1,2.1,2.7,2.1,4.6c0,3.3-2.7,6.1-6.1,6.1c-3.4,0-6.1-2.7-6.1-6.1c0-1.8,0.8-3.4,2-4.5c0,0,0,0,0,0c0,0,0,0,0,0
		c0,0,0-0.1,0.1-0.2c0.4-0.9,0,0,0.1-1.2c0.1-1.2-0.1-1.8-0.1-1.8l-0.2-0.7c0,0-0.1-0.3-0.1-0.6h-15.1c0.1,0.3,0-0.1,0.2,0.6
		c0.2,0.9,0.1,0.8,0.1,0.8s0,0-0.2,1.2c-0.2,1.1-0.1,0.9-0.1,1.7c1.4,1.1,2.2,2.8,2.2,4.7c0,3.3-2.7,6.1-6.1,6.1s-6.1-2.7-6.1-6.1
		c0-2.3,1.3-4.3,3.1-5.3c0-0.2,0.1-0.6,0.1-1.6c0.2-1.7-0.1-1.5-0.1-1.5l-0.1-0.6h-16.7c0.1,1.4,0.3,3.3,0.3,3.6
		c0,0.1-0.1,0.3-0.1,0.6c1.5,1.1,2.4,2.8,2.4,4.8c0,3.3-2.7,6.1-6.1,6.1c-3.4,0-6.1-2.7-6.1-6.1c0-1.9,0.9-3.6,2.3-4.7
		c-0.4-0.8-0.8-1.7-0.8-1.7l0.9-0.9c0,0,0,0,0.1-0.8c0.1-0.5,0-0.7-0.1-0.8H89.5c0,0.5,0,0.4,0,0.4s0.1,0.8,0.1,1.4
		s-0.2,0.4-0.2,1.2c0,0.8-0.1,0.5-0.1,0.5s0,0-0.2,1c1.3,1.1,2,2.7,2,4.5c0,3.3-2.7,6.1-6.1,6.1c-3.4,0-6.1-2.7-6.1-6.1
		c0-1.8,0.8-3.5,2.1-4.6c0,0,0-0.1,0.1-0.1c0.4-0.9,0,0,0.1-1.2c0.1-1.2-0.1-1.8-0.1-1.8L81,2.7c0,0-0.1-0.3-0.1-0.6H65.7
		c0.1,0.3,0-0.1,0.2,0.6c0.2,0.9,0.1,0.8,0.1,0.8s0,0-0.2,1.2c-0.2,1.1-0.1,0.9-0.1,1.6c1.5,1.1,2.4,2.9,2.4,4.8
		c0,3.3-2.7,6.1-6.1,6.1s-6.1-2.7-6.1-6.1c0-2.2,1.2-4.1,2.9-5.2v0c0,0,0,0,0.2-1.7c0.2-1.7-0.1-1.5-0.1-1.5l-0.1-0.6H42.4
		c0.1,0.3,0.1,0.6,0.1,0.7c0,0.2,0,0.3,0,0.5l0.1,0.4c0.2,0.8,0,0-0.4,1c-0.4,1,0.1,1.2,0.1,1.2l0,0.2c1.6,1.1,2.6,2.9,2.6,4.9
		c0,3.3-2.7,6.1-6.1,6.1c-3.4,0-6.1-2.7-6.1-6.1c0-1.7,0.7-3.2,1.8-4.3l-0.1-0.4c-0.1-0.3,0-0.6,0.1-0.9l0.3-0.6
		C35,4.8,35,4.7,35,4.7l0.1-0.4c0.1-0.3,0.1-0.6,0-0.9L35,2.9c0-0.1,0-0.5,0-0.8H18.8c-0.4,1,0.1-0.1,0.2,0.7c0.2,0.9,0,0,0.2,0.9
		c0.2,0.9,0.1,0.8,0.1,0.8s0,0-0.2,1.2C19,5.9,19,6,19,6.1c1.6,1.1,2.7,2.9,2.7,5c0,3.3-2.7,6.1-6.1,6.1c-3.4,0-6.1-2.7-6.1-6.1
		c0-2.1,1.1-4,2.7-5c0-0.2,0-0.5,0.1-0.8c0.2-1.7-0.1-1.5-0.1-1.5L12.2,3L12,2.1H0v216h170.2V2.1H159z"/>
	<path class="st28" d="M159,2c0,0.5,0,0.4,0,0.4s0.1,0.8,0.1,1.4s-0.2,0.4-0.2,1.2c0,0.8-0.1,0.5-0.1,0.5s0,0-0.2,1
		c1.3,1.1,2.1,2.7,2.1,4.6c0,3.3-2.7,6.1-6.1,6.1c-3.4,0-6.1-2.7-6.1-6.1c0-1.8,0.8-3.4,2-4.5c0,0,0,0,0,0c0,0,0,0,0,0
		c0,0,0-0.1,0.1-0.2c0.4-0.9,0,0,0.1-1.2c0.1-1.2-0.1-1.8-0.1-1.8l-0.2-0.7c0,0-0.1-0.3-0.1-0.6h-15.1c0.1,0.3,0-0.1,0.2,0.6
		c0.2,0.9,0.1,0.8,0.1,0.8s0,0-0.2,1.2c-0.2,1.1-0.1,0.9-0.1,1.7c1.4,1.1,2.2,2.8,2.2,4.7c0,3.3-2.7,6.1-6.1,6.1s-6.1-2.7-6.1-6.1
		c0-2.3,1.3-4.3,3.1-5.3c0-0.2,0.1-0.6,0.1-1.6c0.2-1.7-0.1-1.5-0.1-1.5L128.5,2h-16.7c0.1,1.4,0.3,3.3,0.3,3.6
		c0,0.1-0.1,0.3-0.1,0.6c1.5,1.1,2.4,2.8,2.4,4.8c0,3.3-2.7,6.1-6.1,6.1c-3.4,0-6.1-2.7-6.1-6.1c0-1.9,0.9-3.6,2.3-4.7
		c-0.4-0.8-0.8-1.7-0.8-1.7l0.9-0.9c0,0,0,0,0.1-0.8c0.1-0.5,0-0.7-0.1-0.8H89.5c0,0.5,0,0.4,0,0.4s0.1,0.8,0.1,1.4S89.4,4.2,89.4,5
		c0,0.8-0.1,0.5-0.1,0.5s0,0-0.2,1c1.3,1.1,2,2.7,2,4.5c0,3.3-2.7,6.1-6.1,6.1c-3.4,0-6.1-2.7-6.1-6.1c0-1.8,0.8-3.5,2.1-4.6
		c0,0,0-0.1,0.1-0.1c0.4-0.9,0,0,0.1-1.2c0.1-1.2-0.1-1.8-0.1-1.8L81,2.6C81,2.6,81,2.3,81,2H65.7c0.1,0.3,0-0.1,0.2,0.6
		c0.2,0.9,0.1,0.8,0.1,0.8s0,0-0.2,1.2c-0.2,1.1-0.1,0.9-0.1,1.6C67.1,7.3,68,9,68,11c0,3.3-2.7,6.1-6.1,6.1s-6.1-2.7-6.1-6.1
		c0-2.2,1.2-4.1,2.9-5.2v0c0,0,0,0,0.2-1.7c0.2-1.7-0.1-1.5-0.1-1.5L58.8,2H42.4c0.1,0.3,0.1,0.6,0.1,0.7c0,0.2,0,0.3,0,0.5l0.1,0.4
		c0.2,0.8,0,0-0.4,1c-0.4,1,0.1,1.2,0.1,1.2l0,0.2c1.6,1.1,2.6,2.9,2.6,4.9c0,3.3-2.7,6.1-6.1,6.1c-3.4,0-6.1-2.7-6.1-6.1
		c0-1.7,0.7-3.2,1.8-4.3l-0.1-0.4c-0.1-0.3,0-0.6,0.1-0.9l0.3-0.6C35,4.7,35,4.6,35,4.6l0.1-0.4c0.1-0.3,0.1-0.6,0-0.9L35,2.8
		c0-0.1,0-0.5,0-0.8H18.8c-0.4,1,0.1-0.1,0.2,0.7c0.2,0.9,0,0,0.2,0.9c0.2,0.9,0.1,0.8,0.1,0.8s0,0-0.2,1.2C19,5.7,19,5.9,19,6
		c1.6,1.1,2.7,2.9,2.7,5c0,3.3-2.7,6.1-6.1,6.1c-3.4,0-6.1-2.7-6.1-6.1c0-2.1,1.1-4,2.7-5c0-0.2,0-0.5,0.1-0.8
		c0.2-1.7-0.1-1.5-0.1-1.5l-0.1-0.8L12,2H0v216h170.2V2H159z"/>
	<path class="st29" d="M159,1.9c0,0.5,0,0.4,0,0.4s0.1,0.8,0.1,1.4s-0.2,0.4-0.2,1.2c0,0.8-0.1,0.5-0.1,0.5s0,0-0.2,1
		c1.3,1.1,2.1,2.7,2.1,4.6c0,3.3-2.7,6.1-6.1,6.1c-3.4,0-6.1-2.7-6.1-6.1c0-1.8,0.8-3.4,2-4.5c0,0,0,0,0,0c0,0,0,0,0,0
		c0,0,0-0.1,0.1-0.2c0.4-0.9,0,0,0.1-1.2c0.1-1.2-0.1-1.8-0.1-1.8l-0.2-0.7c0,0-0.1-0.3-0.1-0.6h-15.1c0.1,0.3,0-0.1,0.2,0.6
		c0.2,0.9,0.1,0.8,0.1,0.8s0,0-0.2,1.2c-0.2,1.1-0.1,0.9-0.1,1.7c1.4,1.1,2.2,2.8,2.2,4.7c0,3.3-2.7,6.1-6.1,6.1s-6.1-2.7-6.1-6.1
		c0-2.3,1.3-4.3,3.1-5.3c0-0.2,0.1-0.6,0.1-1.6c0.2-1.7-0.1-1.5-0.1-1.5l-0.1-0.6h-16.7c0.1,1.4,0.3,3.3,0.3,3.6
		c0,0.1-0.1,0.3-0.1,0.6c1.5,1.1,2.4,2.8,2.4,4.8c0,3.3-2.7,6.1-6.1,6.1c-3.4,0-6.1-2.7-6.1-6.1c0-1.9,0.9-3.6,2.3-4.7
		c-0.4-0.8-0.8-1.7-0.8-1.7l0.9-0.9c0,0,0,0,0.1-0.8c0.1-0.5,0-0.7-0.1-0.8H89.5c0,0.5,0,0.4,0,0.4s0.1,0.8,0.1,1.4
		s-0.2,0.4-0.2,1.2c0,0.8-0.1,0.5-0.1,0.5s0,0-0.2,1c1.3,1.1,2,2.7,2,4.5c0,3.3-2.7,6.1-6.1,6.1c-3.4,0-6.1-2.7-6.1-6.1
		c0-1.8,0.8-3.5,2.1-4.6c0,0,0-0.1,0.1-0.1c0.4-0.9,0,0,0.1-1.2c0.1-1.2-0.1-1.8-0.1-1.8L81,2.5c0,0-0.1-0.3-0.1-0.6H65.7
		c0.1,0.3,0-0.1,0.2,0.6c0.2,0.9,0.1,0.8,0.1,0.8s0,0-0.2,1.2c-0.2,1.1-0.1,0.9-0.1,1.6c1.5,1.1,2.4,2.9,2.4,4.8
		c0,3.3-2.7,6.1-6.1,6.1s-6.1-2.7-6.1-6.1c0-2.2,1.2-4.1,2.9-5.2v0c0,0,0,0,0.2-1.7c0.2-1.7-0.1-1.5-0.1-1.5l-0.1-0.6H42.4
		c0.1,0.3,0.1,0.6,0.1,0.7c0,0.2,0,0.3,0,0.5l0.1,0.4c0.2,0.8,0,0-0.4,1c-0.4,1,0.1,1.2,0.1,1.2l0,0.2c1.6,1.1,2.6,2.9,2.6,4.9
		c0,3.3-2.7,6.1-6.1,6.1c-3.4,0-6.1-2.7-6.1-6.1c0-1.7,0.7-3.2,1.8-4.3l-0.1-0.4c-0.1-0.3,0-0.6,0.1-0.9l0.3-0.6
		C35,4.6,35,4.5,35,4.4l0.1-0.4c0.1-0.3,0.1-0.6,0-0.9L35,2.7c0-0.1,0-0.5,0-0.8H18.8c-0.4,1,0.1-0.1,0.2,0.7c0.2,0.9,0,0,0.2,0.9
		c0.2,0.9,0.1,0.8,0.1,0.8s0,0-0.2,1.2C19,5.6,19,5.8,19,5.9c1.6,1.1,2.7,2.9,2.7,5c0,3.3-2.7,6.1-6.1,6.1c-3.4,0-6.1-2.7-6.1-6.1
		c0-2.1,1.1-4,2.7-5c0-0.2,0-0.5,0.1-0.8c0.2-1.7-0.1-1.5-0.1-1.5l-0.1-0.8L12,1.9H0v216h170.2V1.9H159z"/>
	<path class="st30" d="M159,1.8c0,0.5,0,0.4,0,0.4s0.1,0.8,0.1,1.4s-0.2,0.4-0.2,1.2c0,0.8-0.1,0.5-0.1,0.5s0,0-0.2,1
		c1.3,1.1,2.1,2.7,2.1,4.6c0,3.3-2.7,6.1-6.1,6.1c-3.4,0-6.1-2.7-6.1-6.1c0-1.8,0.8-3.4,2-4.5c0,0,0,0,0,0c0,0,0,0,0,0
		c0,0,0-0.1,0.1-0.2c0.4-0.9,0,0,0.1-1.2c0.1-1.2-0.1-1.8-0.1-1.8l-0.2-0.7c0,0-0.1-0.3-0.1-0.6h-15.1c0.1,0.3,0-0.1,0.2,0.6
		c0.2,0.9,0.1,0.8,0.1,0.8s0,0-0.2,1.2c-0.2,1.1-0.1,0.9-0.1,1.7c1.4,1.1,2.2,2.8,2.2,4.7c0,3.3-2.7,6.1-6.1,6.1s-6.1-2.7-6.1-6.1
		c0-2.3,1.3-4.3,3.1-5.3c0-0.2,0.1-0.6,0.1-1.6c0.2-1.7-0.1-1.5-0.1-1.5l-0.1-0.6h-16.7c0.1,1.4,0.3,3.3,0.3,3.6
		c0,0.1-0.1,0.3-0.1,0.6c1.5,1.1,2.4,2.8,2.4,4.8c0,3.3-2.7,6.1-6.1,6.1c-3.4,0-6.1-2.7-6.1-6.1c0-1.9,0.9-3.6,2.3-4.7
		c-0.4-0.8-0.8-1.7-0.8-1.7l0.9-0.9c0,0,0,0,0.1-0.8c0.1-0.5,0-0.7-0.1-0.8H89.5c0,0.5,0,0.4,0,0.4s0.1,0.8,0.1,1.4S89.4,4,89.4,4.8
		c0,0.8-0.1,0.5-0.1,0.5s0,0-0.2,1c1.3,1.1,2,2.7,2,4.5c0,3.3-2.7,6.1-6.1,6.1c-3.4,0-6.1-2.7-6.1-6.1c0-1.8,0.8-3.5,2.1-4.6
		c0,0,0-0.1,0.1-0.1c0.4-0.9,0,0,0.1-1.2c0.1-1.2-0.1-1.8-0.1-1.8L81,2.4c0,0-0.1-0.3-0.1-0.6H65.7c0.1,0.3,0-0.1,0.2,0.6
		c0.2,0.9,0.1,0.8,0.1,0.8s0,0-0.2,1.2c-0.2,1.1-0.1,0.9-0.1,1.6c1.5,1.1,2.4,2.9,2.4,4.8c0,3.3-2.7,6.1-6.1,6.1s-6.1-2.7-6.1-6.1
		c0-2.2,1.2-4.1,2.9-5.2v0c0,0,0,0,0.2-1.7c0.2-1.7-0.1-1.5-0.1-1.5l-0.1-0.6H42.4c0.1,0.3,0.1,0.6,0.1,0.7c0,0.2,0,0.3,0,0.5
		l0.1,0.4c0.2,0.8,0,0-0.4,1c-0.4,1,0.1,1.2,0.1,1.2l0,0.2c1.6,1.1,2.6,2.9,2.6,4.9c0,3.3-2.7,6.1-6.1,6.1c-3.4,0-6.1-2.7-6.1-6.1
		c0-1.7,0.7-3.2,1.8-4.3l-0.1-0.4c-0.1-0.3,0-0.6,0.1-0.9l0.3-0.6C35,4.5,35,4.4,35,4.3L35.2,4c0.1-0.3,0.1-0.6,0-0.9L35,2.6
		c0-0.1,0-0.5,0-0.8H18.8c-0.4,1,0.1-0.1,0.2,0.7c0.2,0.9,0,0,0.2,0.9c0.2,0.9,0.1,0.8,0.1,0.8s0,0-0.2,1.2C19,5.5,19,5.7,19,5.8
		c1.6,1.1,2.7,2.9,2.7,5c0,3.3-2.7,6.1-6.1,6.1c-3.4,0-6.1-2.7-6.1-6.1c0-2.1,1.1-4,2.7-5c0-0.2,0-0.5,0.1-0.8
		c0.2-1.7-0.1-1.5-0.1-1.5l-0.1-0.8L12,1.8H0v216h170.2V1.8H159z"/>
	<path class="st31" d="M159,1.7c0,0.5,0,0.4,0,0.4s0.1,0.8,0.1,1.4s-0.2,0.4-0.2,1.2c0,0.8-0.1,0.5-0.1,0.5s0,0-0.2,1
		c1.3,1.1,2.1,2.7,2.1,4.6c0,3.3-2.7,6.1-6.1,6.1c-3.4,0-6.1-2.7-6.1-6.1c0-1.8,0.8-3.4,2-4.5c0,0,0,0,0,0c0,0,0,0,0,0
		c0,0,0-0.1,0.1-0.2c0.4-0.9,0,0,0.1-1.2c0.1-1.2-0.1-1.8-0.1-1.8l-0.2-0.7c0,0-0.1-0.3-0.1-0.6h-15.1c0.1,0.3,0-0.1,0.2,0.6
		c0.2,0.9,0.1,0.8,0.1,0.8s0,0-0.2,1.2c-0.2,1.1-0.1,0.9-0.1,1.7c1.4,1.1,2.2,2.8,2.2,4.7c0,3.3-2.7,6.1-6.1,6.1s-6.1-2.7-6.1-6.1
		c0-2.3,1.3-4.3,3.1-5.3c0-0.2,0.1-0.6,0.1-1.6c0.2-1.7-0.1-1.5-0.1-1.5l-0.1-0.6h-16.7c0.1,1.4,0.3,3.3,0.3,3.6
		c0,0.1-0.1,0.3-0.1,0.6c1.5,1.1,2.4,2.8,2.4,4.8c0,3.3-2.7,6.1-6.1,6.1c-3.4,0-6.1-2.7-6.1-6.1c0-1.9,0.9-3.6,2.3-4.7
		c-0.4-0.8-0.8-1.7-0.8-1.7l0.9-0.9c0,0,0,0,0.1-0.8c0.1-0.5,0-0.7-0.1-0.8H89.5c0,0.5,0,0.4,0,0.4s0.1,0.8,0.1,1.4
		s-0.2,0.4-0.2,1.2c0,0.8-0.1,0.5-0.1,0.5s0,0-0.2,1c1.3,1.1,2,2.7,2,4.5c0,3.3-2.7,6.1-6.1,6.1c-3.4,0-6.1-2.7-6.1-6.1
		c0-1.8,0.8-3.5,2.1-4.6c0,0,0-0.1,0.1-0.1c0.4-0.9,0,0,0.1-1.2C81.5,3.5,81.2,3,81.2,3L81,2.3C81,2.3,81,2,81,1.7H65.7
		c0.1,0.3,0-0.1,0.2,0.6c0.2,0.9,0.1,0.8,0.1,0.8s0,0-0.2,1.2c-0.2,1.1-0.1,0.9-0.1,1.6C67.1,7,68,8.7,68,10.7
		c0,3.3-2.7,6.1-6.1,6.1s-6.1-2.7-6.1-6.1c0-2.2,1.2-4.1,2.9-5.2v0c0,0,0,0,0.2-1.7c0.2-1.7-0.1-1.5-0.1-1.5l-0.1-0.6H42.4
		c0.1,0.3,0.1,0.6,0.1,0.7c0,0.2,0,0.3,0,0.5l0.1,0.4c0.2,0.8,0,0-0.4,1c-0.4,1,0.1,1.2,0.1,1.2l0,0.2c1.6,1.1,2.6,2.9,2.6,4.9
		c0,3.3-2.7,6.1-6.1,6.1c-3.4,0-6.1-2.7-6.1-6.1c0-1.7,0.7-3.2,1.8-4.3L34.5,6c-0.1-0.3,0-0.6,0.1-0.9l0.3-0.6C35,4.4,35,4.3,35,4.2
		l0.1-0.4c0.1-0.3,0.1-0.6,0-0.9L35,2.5c0-0.1,0-0.5,0-0.8H18.8c-0.4,1,0.1-0.1,0.2,0.7c0.2,0.9,0,0,0.2,0.9
		c0.2,0.9,0.1,0.8,0.1,0.8s0,0-0.2,1.2C19,5.4,19,5.6,19,5.7c1.6,1.1,2.7,2.9,2.7,5c0,3.3-2.7,6.1-6.1,6.1c-3.4,0-6.1-2.7-6.1-6.1
		c0-2.1,1.1-4,2.7-5c0-0.2,0-0.5,0.1-0.8c0.2-1.7-0.1-1.5-0.1-1.5l-0.1-0.8L12,1.7H0v216h170.2V1.7H159z"/>
	<path class="st32" d="M159,1.6c0,0.5,0,0.4,0,0.4s0.1,0.8,0.1,1.4s-0.2,0.4-0.2,1.2c0,0.8-0.1,0.5-0.1,0.5s0,0-0.2,1
		c1.3,1.1,2.1,2.7,2.1,4.6c0,3.3-2.7,6.1-6.1,6.1c-3.4,0-6.1-2.7-6.1-6.1c0-1.8,0.8-3.4,2-4.5c0,0,0,0,0,0c0,0,0,0,0,0
		c0,0,0-0.1,0.1-0.2c0.4-0.9,0,0,0.1-1.2c0.1-1.2-0.1-1.8-0.1-1.8l-0.2-0.7c0,0-0.1-0.3-0.1-0.6h-15.1c0.1,0.3,0-0.1,0.2,0.6
		c0.2,0.9,0.1,0.8,0.1,0.8s0,0-0.2,1.2c-0.2,1.1-0.1,0.9-0.1,1.7c1.4,1.1,2.2,2.8,2.2,4.7c0,3.3-2.7,6.1-6.1,6.1s-6.1-2.7-6.1-6.1
		c0-2.3,1.3-4.3,3.1-5.3c0-0.2,0.1-0.6,0.1-1.6c0.2-1.7-0.1-1.5-0.1-1.5l-0.1-0.6h-16.7c0.1,1.4,0.3,3.3,0.3,3.6
		c0,0.1-0.1,0.3-0.1,0.6c1.5,1.1,2.4,2.8,2.4,4.8c0,3.3-2.7,6.1-6.1,6.1c-3.4,0-6.1-2.7-6.1-6.1c0-1.9,0.9-3.6,2.3-4.7
		c-0.4-0.8-0.8-1.7-0.8-1.7l0.9-0.9c0,0,0,0,0.1-0.8c0.1-0.5,0-0.7-0.1-0.8H89.5c0,0.5,0,0.4,0,0.4s0.1,0.8,0.1,1.4
		s-0.2,0.4-0.2,1.2c0,0.8-0.1,0.5-0.1,0.5s0,0-0.2,1c1.3,1.1,2,2.7,2,4.5c0,3.3-2.7,6.1-6.1,6.1c-3.4,0-6.1-2.7-6.1-6.1
		c0-1.8,0.8-3.5,2.1-4.6c0,0,0-0.1,0.1-0.1c0.4-0.9,0,0,0.1-1.2c0.1-1.2-0.1-1.8-0.1-1.8L81,2.2c0,0-0.1-0.3-0.1-0.6H65.7
		c0.1,0.3,0-0.1,0.2,0.6C66.1,3.2,65.9,3,65.9,3s0,0-0.2,1.2c-0.2,1.1-0.1,0.9-0.1,1.6c1.5,1.1,2.4,2.9,2.4,4.8
		c0,3.3-2.7,6.1-6.1,6.1s-6.1-2.7-6.1-6.1c0-2.2,1.2-4.1,2.9-5.2v0c0,0,0,0,0.2-1.7c0.2-1.7-0.1-1.5-0.1-1.5l-0.1-0.6H42.4
		c0.1,0.3,0.1,0.6,0.1,0.7c0,0.2,0,0.3,0,0.5l0.1,0.4c0.2,0.8,0,0-0.4,1c-0.4,1,0.1,1.2,0.1,1.2l0,0.2c1.6,1.1,2.6,2.9,2.6,4.9
		c0,3.3-2.7,6.1-6.1,6.1c-3.4,0-6.1-2.7-6.1-6.1c0-1.7,0.7-3.2,1.8-4.3l-0.1-0.4c-0.1-0.3,0-0.6,0.1-0.9l0.3-0.6
		C35,4.3,35,4.2,35,4.1l0.1-0.4c0.1-0.3,0.1-0.6,0-0.9L35,2.4c0-0.1,0-0.5,0-0.8H18.8c-0.4,1,0.1-0.1,0.2,0.7c0.2,0.9,0,0,0.2,0.9
		C19.5,4.2,19.3,4,19.3,4s0,0-0.2,1.2C19,5.3,19,5.4,19,5.5c1.6,1.1,2.7,2.9,2.7,5c0,3.3-2.7,6.1-6.1,6.1c-3.4,0-6.1-2.7-6.1-6.1
		c0-2.1,1.1-4,2.7-5c0-0.2,0-0.5,0.1-0.8c0.2-1.7-0.1-1.5-0.1-1.5l-0.1-0.8L12,1.6H0v216h170.2V1.6H159z"/>
	<path class="st33" d="M159,1.5c0,0.5,0,0.4,0,0.4s0.1,0.8,0.1,1.4s-0.2,0.4-0.2,1.2c0,0.8-0.1,0.5-0.1,0.5s0,0-0.2,1
		c1.3,1.1,2.1,2.7,2.1,4.6c0,3.3-2.7,6.1-6.1,6.1c-3.4,0-6.1-2.7-6.1-6.1c0-1.8,0.8-3.4,2-4.5c0,0,0,0,0,0c0,0,0,0,0,0
		c0,0,0-0.1,0.1-0.2c0.4-0.9,0,0,0.1-1.2c0.1-1.2-0.1-1.8-0.1-1.8l-0.2-0.7c0,0-0.1-0.3-0.1-0.6h-15.1c0.1,0.3,0-0.1,0.2,0.6
		c0.2,0.9,0.1,0.8,0.1,0.8s0,0-0.2,1.2c-0.2,1.1-0.1,0.9-0.1,1.7c1.4,1.1,2.2,2.8,2.2,4.7c0,3.3-2.7,6.1-6.1,6.1s-6.1-2.7-6.1-6.1
		c0-2.3,1.3-4.3,3.1-5.3c0-0.2,0.1-0.6,0.1-1.6c0.2-1.7-0.1-1.5-0.1-1.5l-0.1-0.6h-16.7c0.1,1.4,0.3,3.3,0.3,3.6
		c0,0.1-0.1,0.3-0.1,0.6c1.5,1.1,2.4,2.8,2.4,4.8c0,3.3-2.7,6.1-6.1,6.1c-3.4,0-6.1-2.7-6.1-6.1c0-1.9,0.9-3.6,2.3-4.7
		c-0.4-0.8-0.8-1.7-0.8-1.7l0.9-0.9c0,0,0,0,0.1-0.8c0.1-0.5,0-0.7-0.1-0.8H89.5c0,0.5,0,0.4,0,0.4s0.1,0.8,0.1,1.4
		s-0.2,0.4-0.2,1.2c0,0.8-0.1,0.5-0.1,0.5s0,0-0.2,1c1.3,1.1,2,2.7,2,4.5c0,3.3-2.7,6.1-6.1,6.1c-3.4,0-6.1-2.7-6.1-6.1
		c0-1.8,0.8-3.5,2.1-4.6c0,0,0-0.1,0.1-0.1c0.4-0.9,0,0,0.1-1.2c0.1-1.2-0.1-1.8-0.1-1.8L81,2.1c0,0-0.1-0.3-0.1-0.6H65.7
		c0.1,0.3,0-0.1,0.2,0.6c0.2,0.9,0.1,0.8,0.1,0.8s0,0-0.2,1.2c-0.2,1.1-0.1,0.9-0.1,1.6c1.5,1.1,2.4,2.9,2.4,4.8
		c0,3.3-2.7,6.1-6.1,6.1s-6.1-2.7-6.1-6.1c0-2.2,1.2-4.1,2.9-5.2v0c0,0,0,0,0.2-1.7c0.2-1.7-0.1-1.5-0.1-1.5l-0.1-0.6H42.4
		c0.1,0.3,0.1,0.6,0.1,0.7c0,0.2,0,0.3,0,0.5l0.1,0.4c0.2,0.8,0,0-0.4,1s0.1,1.2,0.1,1.2l0,0.2c1.6,1.1,2.6,2.9,2.6,4.9
		c0,3.3-2.7,6.1-6.1,6.1c-3.4,0-6.1-2.7-6.1-6.1c0-1.7,0.7-3.2,1.8-4.3l-0.1-0.4c-0.1-0.3,0-0.6,0.1-0.9l0.3-0.6C35,4.2,35,4.1,35,4
		l0.1-0.4c0.1-0.3,0.1-0.6,0-0.9L35,2.3c0-0.1,0-0.5,0-0.8H18.8c-0.4,1,0.1-0.1,0.2,0.7c0.2,0.9,0,0,0.2,0.9
		c0.2,0.9,0.1,0.8,0.1,0.8s0,0-0.2,1.2C19,5.2,19,5.3,19,5.4c1.6,1.1,2.7,2.9,2.7,5c0,3.3-2.7,6.1-6.1,6.1c-3.4,0-6.1-2.7-6.1-6.1
		c0-2.1,1.1-4,2.7-5c0-0.2,0-0.5,0.1-0.8c0.2-1.7-0.1-1.5-0.1-1.5l-0.1-0.8L12,1.5H0v216h170.2V1.5H159z"/>
	<path class="st34" d="M159,1.4c0,0.5,0,0.4,0,0.4s0.1,0.8,0.1,1.4c0,0.6-0.2,0.4-0.2,1.2c0,0.8-0.1,0.5-0.1,0.5s0,0-0.2,1
		c1.3,1.1,2.1,2.7,2.1,4.6c0,3.3-2.7,6.1-6.1,6.1c-3.4,0-6.1-2.7-6.1-6.1c0-1.8,0.8-3.4,2-4.5c0,0,0,0,0,0c0,0,0,0,0,0
		c0,0,0-0.1,0.1-0.2c0.4-0.9,0,0,0.1-1.2c0.1-1.2-0.1-1.8-0.1-1.8L150.5,2c0,0-0.1-0.3-0.1-0.6h-15.1c0.1,0.3,0-0.1,0.2,0.6
		c0.2,0.9,0.1,0.8,0.1,0.8s0,0-0.2,1.2c-0.2,1.1-0.1,0.9-0.1,1.7c1.4,1.1,2.2,2.8,2.2,4.7c0,3.3-2.7,6.1-6.1,6.1s-6.1-2.7-6.1-6.1
		c0-2.3,1.3-4.3,3.1-5.3c0-0.2,0.1-0.6,0.1-1.6c0.2-1.7-0.1-1.5-0.1-1.5l-0.1-0.6h-16.7c0.1,1.4,0.3,3.3,0.3,3.6
		c0,0.1-0.1,0.3-0.1,0.6c1.5,1.1,2.4,2.8,2.4,4.8c0,3.3-2.7,6.1-6.1,6.1c-3.4,0-6.1-2.7-6.1-6.1c0-1.9,0.9-3.6,2.3-4.7
		c-0.4-0.8-0.8-1.7-0.8-1.7l0.9-0.9c0,0,0,0,0.1-0.8c0.1-0.5,0-0.7-0.1-0.8H89.5c0,0.5,0,0.4,0,0.4s0.1,0.8,0.1,1.4
		c0,0.6-0.2,0.4-0.2,1.2c0,0.8-0.1,0.5-0.1,0.5s0,0-0.2,1c1.3,1.1,2,2.7,2,4.5c0,3.3-2.7,6.1-6.1,6.1c-3.4,0-6.1-2.7-6.1-6.1
		c0-1.8,0.8-3.5,2.1-4.6c0,0,0-0.1,0.1-0.1c0.4-0.9,0,0,0.1-1.2c0.1-1.2-0.1-1.8-0.1-1.8L81,2C81,2,81,1.6,81,1.4H65.7
		c0.1,0.3,0-0.1,0.2,0.6c0.2,0.9,0.1,0.8,0.1,0.8s0,0-0.2,1.2c-0.2,1.1-0.1,0.9-0.1,1.6c1.5,1.1,2.4,2.9,2.4,4.8
		c0,3.3-2.7,6.1-6.1,6.1s-6.1-2.7-6.1-6.1c0-2.2,1.2-4.1,2.9-5.2v0c0,0,0,0,0.2-1.7C59.1,1.8,58.9,2,58.9,2l-0.1-0.6H42.4
		c0.1,0.3,0.1,0.6,0.1,0.7c0,0.2,0,0.3,0,0.5L42.6,3c0.2,0.8,0,0-0.4,1s0.1,1.2,0.1,1.2l0,0.2c1.6,1.1,2.6,2.9,2.6,4.9
		c0,3.3-2.7,6.1-6.1,6.1c-3.4,0-6.1-2.7-6.1-6.1c0-1.7,0.7-3.2,1.8-4.3l-0.1-0.4c-0.1-0.3,0-0.6,0.1-0.9l0.3-0.6C35,4.1,35,4,35,3.9
		l0.1-0.4c0.1-0.3,0.1-0.6,0-0.9L35,2.2c0-0.1,0-0.5,0-0.8H18.8c-0.4,1,0.1-0.1,0.2,0.7c0.2,0.9,0,0,0.2,0.9
		c0.2,0.9,0.1,0.8,0.1,0.8s0,0-0.2,1.2C19,5.1,19,5.2,19,5.3c1.6,1.1,2.7,2.9,2.7,5c0,3.3-2.7,6.1-6.1,6.1c-3.4,0-6.1-2.7-6.1-6.1
		c0-2.1,1.1-4,2.7-5c0-0.2,0-0.5,0.1-0.8C12.5,2.8,12.3,3,12.3,3l-0.1-0.8L12,1.4H0v216h170.2V1.4H159z"/>
	<path class="st35" d="M159,1.3c0,0.5,0,0.4,0,0.4s0.1,0.8,0.1,1.4c0,0.6-0.2,0.4-0.2,1.2c0,0.8-0.1,0.5-0.1,0.5s0,0-0.2,1
		c1.3,1.1,2.1,2.7,2.1,4.6c0,3.3-2.7,6.1-6.1,6.1c-3.4,0-6.1-2.7-6.1-6.1c0-1.8,0.8-3.4,2-4.5c0,0,0,0,0,0c0,0,0,0,0,0
		c0,0,0-0.1,0.1-0.2c0.4-0.9,0,0,0.1-1.2c0.1-1.2-0.1-1.8-0.1-1.8l-0.2-0.7c0,0-0.1-0.3-0.1-0.6h-15.1c0.1,0.3,0-0.1,0.2,0.6
		c0.2,0.9,0.1,0.8,0.1,0.8s0,0-0.2,1.2c-0.2,1.1-0.1,0.9-0.1,1.7c1.4,1.1,2.2,2.8,2.2,4.7c0,3.3-2.7,6.1-6.1,6.1s-6.1-2.7-6.1-6.1
		c0-2.3,1.3-4.3,3.1-5.3c0-0.2,0.1-0.6,0.1-1.6c0.2-1.7-0.1-1.5-0.1-1.5l-0.1-0.6h-16.7c0.1,1.4,0.3,3.3,0.3,3.6
		c0,0.1-0.1,0.3-0.1,0.6c1.5,1.1,2.4,2.8,2.4,4.8c0,3.3-2.7,6.1-6.1,6.1c-3.4,0-6.1-2.7-6.1-6.1c0-1.9,0.9-3.6,2.3-4.7
		c-0.4-0.8-0.8-1.7-0.8-1.7l0.9-0.9c0,0,0,0,0.1-0.8c0.1-0.5,0-0.7-0.1-0.8H89.5c0,0.5,0,0.4,0,0.4s0.1,0.8,0.1,1.4
		c0,0.6-0.2,0.4-0.2,1.2c0,0.8-0.1,0.5-0.1,0.5s0,0-0.2,1c1.3,1.1,2,2.7,2,4.5c0,3.3-2.7,6.1-6.1,6.1c-3.4,0-6.1-2.7-6.1-6.1
		c0-1.8,0.8-3.5,2.1-4.6c0,0,0-0.1,0.1-0.1c0.4-0.9,0,0,0.1-1.2c0.1-1.2-0.1-1.8-0.1-1.8L81,1.9c0,0-0.1-0.3-0.1-0.6H65.7
		c0.1,0.3,0-0.1,0.2,0.6c0.2,0.9,0.1,0.8,0.1,0.8s0,0-0.2,1.2c-0.2,1.1-0.1,0.9-0.1,1.6c1.5,1.1,2.4,2.9,2.4,4.8
		c0,3.3-2.7,6.1-6.1,6.1s-6.1-2.7-6.1-6.1c0-2.2,1.2-4.1,2.9-5.2v0c0,0,0,0,0.2-1.7c0.2-1.7-0.1-1.5-0.1-1.5l-0.1-0.6H42.4
		c0.1,0.3,0.1,0.6,0.1,0.7c0,0.2,0,0.3,0,0.5l0.1,0.4c0.2,0.8,0,0-0.4,1s0.1,1.2,0.1,1.2l0,0.2c1.6,1.1,2.6,2.9,2.6,4.9
		c0,3.3-2.7,6.1-6.1,6.1c-3.4,0-6.1-2.7-6.1-6.1c0-1.7,0.7-3.2,1.8-4.3l-0.1-0.4c-0.1-0.3,0-0.6,0.1-0.9L34.9,4C35,4,35,3.9,35,3.8
		l0.1-0.4c0.1-0.3,0.1-0.6,0-0.9L35,2.1c0-0.1,0-0.5,0-0.8H18.8c-0.4,1,0.1-0.1,0.2,0.7c0.2,0.9,0,0,0.2,0.9
		c0.2,0.9,0.1,0.8,0.1,0.8s0,0-0.2,1.2C19,5,19,5.1,19,5.2c1.6,1.1,2.7,2.9,2.7,5c0,3.3-2.7,6.1-6.1,6.1c-3.4,0-6.1-2.7-6.1-6.1
		c0-2.1,1.1-4,2.7-5c0-0.2,0-0.5,0.1-0.8c0.2-1.7-0.1-1.5-0.1-1.5l-0.1-0.8L12,1.3H0v216h170.2V1.3H159z"/>
	<path class="st36" d="M159,1.2c0,0.5,0,0.4,0,0.4s0.1,0.8,0.1,1.4c0,0.6-0.2,0.4-0.2,1.2c0,0.8-0.1,0.5-0.1,0.5s0,0-0.2,1
		c1.3,1.1,2.1,2.7,2.1,4.6c0,3.3-2.7,6.1-6.1,6.1c-3.4,0-6.1-2.7-6.1-6.1c0-1.8,0.8-3.4,2-4.5c0,0,0,0,0,0c0,0,0,0,0,0
		c0,0,0-0.1,0.1-0.2c0.4-0.9,0,0,0.1-1.2c0.1-1.2-0.1-1.8-0.1-1.8l-0.2-0.7c0,0-0.1-0.3-0.1-0.6h-15.1c0.1,0.3,0-0.1,0.2,0.6
		c0.2,0.9,0.1,0.8,0.1,0.8s0,0-0.2,1.2c-0.2,1.1-0.1,0.9-0.1,1.7c1.4,1.1,2.2,2.8,2.2,4.7c0,3.3-2.7,6.1-6.1,6.1s-6.1-2.7-6.1-6.1
		c0-2.3,1.3-4.3,3.1-5.3c0-0.2,0.1-0.6,0.1-1.6c0.2-1.7-0.1-1.5-0.1-1.5l-0.1-0.6h-16.7c0.1,1.4,0.3,3.3,0.3,3.6
		c0,0.1-0.1,0.3-0.1,0.6c1.5,1.1,2.4,2.8,2.4,4.8c0,3.3-2.7,6.1-6.1,6.1c-3.4,0-6.1-2.7-6.1-6.1c0-1.9,0.9-3.6,2.3-4.7
		c-0.4-0.8-0.8-1.7-0.8-1.7l0.9-0.9c0,0,0,0,0.1-0.8c0.1-0.5,0-0.7-0.1-0.8H89.5c0,0.5,0,0.4,0,0.4s0.1,0.8,0.1,1.4
		c0,0.6-0.2,0.4-0.2,1.2c0,0.8-0.1,0.5-0.1,0.5s0,0-0.2,1c1.3,1.1,2,2.7,2,4.5c0,3.3-2.7,6.1-6.1,6.1c-3.4,0-6.1-2.7-6.1-6.1
		c0-1.8,0.8-3.5,2.1-4.6c0,0,0-0.1,0.1-0.1c0.4-0.9,0,0,0.1-1.2c0.1-1.2-0.1-1.8-0.1-1.8L81,1.8c0,0-0.1-0.3-0.1-0.6H65.7
		c0.1,0.3,0-0.1,0.2,0.6c0.2,0.9,0.1,0.8,0.1,0.8s0,0-0.2,1.2c-0.2,1.1-0.1,0.9-0.1,1.6c1.5,1.1,2.4,2.9,2.4,4.8
		c0,3.3-2.7,6.1-6.1,6.1s-6.1-2.7-6.1-6.1C55.9,8,57.1,6,58.8,5v0c0,0,0,0,0.2-1.7c0.2-1.7-0.1-1.5-0.1-1.5l-0.1-0.6H42.4
		c0.1,0.3,0.1,0.6,0.1,0.7c0,0.2,0,0.3,0,0.5l0.1,0.4c0.2,0.8,0,0-0.4,1s0.1,1.2,0.1,1.2l0,0.2c1.6,1.1,2.6,2.9,2.6,4.9
		c0,3.3-2.7,6.1-6.1,6.1c-3.4,0-6.1-2.7-6.1-6.1c0-1.7,0.7-3.2,1.8-4.3l-0.1-0.4c-0.1-0.3,0-0.6,0.1-0.9l0.3-0.6
		C35,3.9,35,3.8,35,3.7l0.1-0.4c0.1-0.3,0.1-0.6,0-0.9L35,1.9c0-0.1,0-0.5,0-0.8H18.8c-0.4,1,0.1-0.1,0.2,0.7c0.2,0.9,0,0,0.2,0.9
		c0.2,0.9,0.1,0.8,0.1,0.8s0,0-0.2,1.2C19,4.9,19,5,19,5.1c1.6,1.1,2.7,2.9,2.7,5c0,3.3-2.7,6.1-6.1,6.1c-3.4,0-6.1-2.7-6.1-6.1
		c0-2.1,1.1-4,2.7-5c0-0.2,0-0.5,0.1-0.8c0.2-1.7-0.1-1.5-0.1-1.5L12.2,2L12,1.2H0v216h170.2V1.2H159z"/>
	<path class="st37" d="M159,1.1c0,0.5,0,0.4,0,0.4s0.1,0.8,0.1,1.4c0,0.6-0.2,0.4-0.2,1.2c0,0.8-0.1,0.5-0.1,0.5s0,0-0.2,1
		c1.3,1.1,2.1,2.7,2.1,4.6c0,3.3-2.7,6.1-6.1,6.1c-3.4,0-6.1-2.7-6.1-6.1c0-1.8,0.8-3.4,2-4.5c0,0,0,0,0,0c0,0,0,0,0,0
		c0,0,0-0.1,0.1-0.2c0.4-0.9,0,0,0.1-1.2c0.1-1.2-0.1-1.8-0.1-1.8l-0.2-0.7c0,0-0.1-0.3-0.1-0.6h-15.1c0.1,0.3,0-0.1,0.2,0.6
		c0.2,0.9,0.1,0.8,0.1,0.8s0,0-0.2,1.2c-0.2,1.1-0.1,0.9-0.1,1.7c1.4,1.1,2.2,2.8,2.2,4.7c0,3.3-2.7,6.1-6.1,6.1s-6.1-2.7-6.1-6.1
		c0-2.3,1.3-4.3,3.1-5.3c0-0.2,0.1-0.6,0.1-1.6c0.2-1.7-0.1-1.5-0.1-1.5l-0.1-0.6h-16.7c0.1,1.4,0.3,3.3,0.3,3.6
		c0,0.1-0.1,0.3-0.1,0.6c1.5,1.1,2.4,2.8,2.4,4.8c0,3.3-2.7,6.1-6.1,6.1c-3.4,0-6.1-2.7-6.1-6.1c0-1.9,0.9-3.6,2.3-4.7
		c-0.4-0.8-0.8-1.7-0.8-1.7l0.9-0.9c0,0,0,0,0.1-0.8c0.1-0.5,0-0.7-0.1-0.8H89.5c0,0.5,0,0.4,0,0.4s0.1,0.8,0.1,1.4
		c0,0.6-0.2,0.4-0.2,1.2c0,0.8-0.1,0.5-0.1,0.5s0,0-0.2,1c1.3,1.1,2,2.7,2,4.5c0,3.3-2.7,6.1-6.1,6.1c-3.4,0-6.1-2.7-6.1-6.1
		c0-1.8,0.8-3.5,2.1-4.6c0,0,0-0.1,0.1-0.1c0.4-0.9,0,0,0.1-1.2c0.1-1.2-0.1-1.8-0.1-1.8L81,1.6c0,0-0.1-0.3-0.1-0.6H65.7
		c0.1,0.3,0-0.1,0.2,0.6c0.2,0.9,0.1,0.8,0.1,0.8s0,0-0.2,1.2c-0.2,1.1-0.1,0.9-0.1,1.6C67.1,6.3,68,8.1,68,10
		c0,3.3-2.7,6.1-6.1,6.1s-6.1-2.7-6.1-6.1c0-2.2,1.2-4.1,2.9-5.2v0c0,0,0,0,0.2-1.7c0.2-1.7-0.1-1.5-0.1-1.5l-0.1-0.6H42.4
		c0.1,0.3,0.1,0.6,0.1,0.7c0,0.2,0,0.3,0,0.5l0.1,0.4c0.2,0.8,0,0-0.4,1S42.3,5,42.3,5l0,0.2c1.6,1.1,2.6,2.9,2.6,4.9
		c0,3.3-2.7,6.1-6.1,6.1c-3.4,0-6.1-2.7-6.1-6.1c0-1.7,0.7-3.2,1.8-4.3l-0.1-0.4c-0.1-0.3,0-0.6,0.1-0.9l0.3-0.6
		C35,3.7,35,3.7,35,3.6l0.1-0.4c0.1-0.3,0.1-0.6,0-0.9L35,1.8c0-0.1,0-0.5,0-0.8H18.8C18.3,2,18.8,1,19,1.8c0.2,0.9,0,0,0.2,0.9
		c0.2,0.9,0.1,0.8,0.1,0.8s0,0-0.2,1.2C19,4.8,19,4.9,19,5c1.6,1.1,2.7,2.9,2.7,5c0,3.3-2.7,6.1-6.1,6.1c-3.4,0-6.1-2.7-6.1-6.1
		c0-2.1,1.1-4,2.7-5c0-0.2,0-0.5,0.1-0.8c0.2-1.7-0.1-1.5-0.1-1.5l-0.1-0.8L12,1.1H0v216h170.2V1.1H159z"/>
	<path class="st38" d="M159,1c0,0.5,0,0.4,0,0.4s0.1,0.8,0.1,1.4c0,0.6-0.2,0.4-0.2,1.2c0,0.8-0.1,0.5-0.1,0.5s0,0-0.2,1
		c1.3,1.1,2.1,2.7,2.1,4.6c0,3.3-2.7,6.1-6.1,6.1c-3.4,0-6.1-2.7-6.1-6.1c0-1.8,0.8-3.4,2-4.5c0,0,0,0,0,0c0,0,0,0,0,0
		c0,0,0-0.1,0.1-0.2c0.4-0.9,0,0,0.1-1.2c0.1-1.2-0.1-1.8-0.1-1.8l-0.2-0.7c0,0-0.1-0.3-0.1-0.6h-15.1c0.1,0.3,0-0.1,0.2,0.6
		c0.2,0.9,0.1,0.8,0.1,0.8s0,0-0.2,1.2c-0.2,1.1-0.1,0.9-0.1,1.7c1.4,1.1,2.2,2.8,2.2,4.7c0,3.3-2.7,6.1-6.1,6.1s-6.1-2.7-6.1-6.1
		c0-2.3,1.3-4.3,3.1-5.3c0-0.2,0.1-0.6,0.1-1.6c0.2-1.7-0.1-1.5-0.1-1.5L128.5,1h-16.7c0.1,1.4,0.3,3.3,0.3,3.6
		c0,0.1-0.1,0.3-0.1,0.6c1.5,1.1,2.4,2.8,2.4,4.8c0,3.3-2.7,6.1-6.1,6.1c-3.4,0-6.1-2.7-6.1-6.1c0-1.9,0.9-3.6,2.3-4.7
		c-0.4-0.8-0.8-1.7-0.8-1.7l0.9-0.9c0,0,0,0,0.1-0.8c0.1-0.5,0-0.7-0.1-0.8H89.5c0,0.5,0,0.4,0,0.4s0.1,0.8,0.1,1.4
		c0,0.6-0.2,0.4-0.2,1.2c0,0.8-0.1,0.5-0.1,0.5s0,0-0.2,1c1.3,1.1,2,2.7,2,4.5c0,3.3-2.7,6.1-6.1,6.1c-3.4,0-6.1-2.7-6.1-6.1
		c0-1.8,0.8-3.5,2.1-4.6c0,0,0-0.1,0.1-0.1c0.4-0.9,0,0,0.1-1.2c0.1-1.2-0.1-1.8-0.1-1.8L81,1.5C81,1.5,81,1.2,81,1H65.7
		c0.1,0.3,0-0.1,0.2,0.6c0.2,0.9,0.1,0.8,0.1,0.8s0,0-0.2,1.2c-0.2,1.1-0.1,0.9-0.1,1.6C67.1,6.2,68,8,68,9.9c0,3.3-2.7,6.1-6.1,6.1
		s-6.1-2.7-6.1-6.1c0-2.2,1.2-4.1,2.9-5.2v0c0,0,0,0,0.2-1.7c0.2-1.7-0.1-1.5-0.1-1.5L58.8,1H42.4c0.1,0.3,0.1,0.6,0.1,0.7
		c0,0.2,0,0.3,0,0.5l0.1,0.4c0.2,0.8,0,0-0.4,1c-0.4,1,0.1,1.2,0.1,1.2l0,0.2c1.6,1.1,2.6,2.9,2.6,4.9c0,3.3-2.7,6.1-6.1,6.1
		c-3.4,0-6.1-2.7-6.1-6.1c0-1.7,0.7-3.2,1.8-4.3l-0.1-0.4c-0.1-0.3,0-0.6,0.1-0.9l0.3-0.6C35,3.6,35,3.6,35,3.5l0.1-0.4
		c0.1-0.3,0.1-0.6,0-0.9L35,1.7c0-0.1,0-0.5,0-0.8H18.8c-0.4,1,0.1-0.1,0.2,0.7c0.2,0.9,0,0,0.2,0.9c0.2,0.9,0.1,0.8,0.1,0.8
		s0,0-0.2,1.2C19,4.7,19,4.8,19,4.9c1.6,1.1,2.7,2.9,2.7,5c0,3.3-2.7,6.1-6.1,6.1c-3.4,0-6.1-2.7-6.1-6.1c0-2.1,1.1-4,2.7-5
		c0-0.2,0-0.5,0.1-0.8c0.2-1.7-0.1-1.5-0.1-1.5l-0.1-0.8L12,1H0v216h170.2V1H159z"/>
	<path class="st39" d="M159,0.9c0,0.5,0,0.4,0,0.4s0.1,0.8,0.1,1.4c0,0.6-0.2,0.4-0.2,1.2c0,0.8-0.1,0.5-0.1,0.5s0,0-0.2,1
		c1.3,1.1,2.1,2.7,2.1,4.6c0,3.3-2.7,6.1-6.1,6.1c-3.4,0-6.1-2.7-6.1-6.1c0-1.8,0.8-3.4,2-4.5c0,0,0,0,0,0c0,0,0,0,0,0
		c0,0,0-0.1,0.1-0.2c0.4-0.9,0,0,0.1-1.2c0.1-1.2-0.1-1.8-0.1-1.8l-0.2-0.7c0,0-0.1-0.3-0.1-0.6h-15.1c0.1,0.3,0-0.1,0.2,0.6
		c0.2,0.9,0.1,0.8,0.1,0.8s0,0-0.2,1.2c-0.2,1.1-0.1,0.9-0.1,1.7c1.4,1.1,2.2,2.8,2.2,4.7c0,3.3-2.7,6.1-6.1,6.1s-6.1-2.7-6.1-6.1
		c0-2.3,1.3-4.3,3.1-5.3c0-0.2,0.1-0.6,0.1-1.6c0.2-1.7-0.1-1.5-0.1-1.5l-0.1-0.6h-16.7c0.1,1.4,0.3,3.3,0.3,3.6
		c0,0.1-0.1,0.3-0.1,0.6c1.5,1.1,2.4,2.8,2.4,4.8c0,3.3-2.7,6.1-6.1,6.1c-3.4,0-6.1-2.7-6.1-6.1c0-1.9,0.9-3.6,2.3-4.7
		c-0.4-0.8-0.8-1.7-0.8-1.7l0.9-0.9c0,0,0,0,0.1-0.8c0.1-0.5,0-0.7-0.1-0.8H89.5c0,0.5,0,0.4,0,0.4s0.1,0.8,0.1,1.4
		c0,0.6-0.2,0.4-0.2,1.2c0,0.8-0.1,0.5-0.1,0.5s0,0-0.2,1c1.3,1.1,2,2.7,2,4.5c0,3.3-2.7,6.1-6.1,6.1c-3.4,0-6.1-2.7-6.1-6.1
		c0-1.8,0.8-3.5,2.1-4.6c0,0,0-0.1,0.1-0.1c0.4-0.9,0,0,0.1-1.2c0.1-1.2-0.1-1.8-0.1-1.8L81,1.4c0,0-0.1-0.3-0.1-0.6H65.7
		c0.1,0.3,0-0.1,0.2,0.6c0.2,0.9,0.1,0.8,0.1,0.8s0,0-0.2,1.2c-0.2,1.1-0.1,0.9-0.1,1.6C67.1,6.1,68,7.9,68,9.8
		c0,3.3-2.7,6.1-6.1,6.1s-6.1-2.7-6.1-6.1c0-2.2,1.2-4.1,2.9-5.2v0c0,0,0,0,0.2-1.7c0.2-1.7-0.1-1.5-0.1-1.5l-0.1-0.6H42.4
		c0.1,0.3,0.1,0.6,0.1,0.7c0,0.2,0,0.3,0,0.5l0.1,0.4c0.2,0.8,0,0-0.4,1c-0.4,1,0.1,1.2,0.1,1.2l0,0.2c1.6,1.1,2.6,2.9,2.6,4.9
		c0,3.3-2.7,6.1-6.1,6.1c-3.4,0-6.1-2.7-6.1-6.1c0-1.7,0.7-3.2,1.8-4.3l-0.1-0.4c-0.1-0.3,0-0.6,0.1-0.9l0.3-0.6
		C35,3.5,35,3.5,35,3.4L35.2,3c0.1-0.3,0.1-0.6,0-0.9L35,1.6c0-0.1,0-0.5,0-0.8H18.8c-0.4,1,0.1-0.1,0.2,0.7c0.2,0.9,0,0,0.2,0.9
		c0.2,0.9,0.1,0.8,0.1,0.8s0,0-0.2,1.2C19,4.6,19,4.7,19,4.8c1.6,1.1,2.7,2.9,2.7,5c0,3.3-2.7,6.1-6.1,6.1c-3.4,0-6.1-2.7-6.1-6.1
		c0-2.1,1.1-4,2.7-5c0-0.2,0-0.5,0.1-0.8c0.2-1.7-0.1-1.5-0.1-1.5l-0.1-0.8L12,0.9H0v216h170.2V0.9H159z"/>
	<path class="st40" d="M159,0.7c0,0.5,0,0.4,0,0.4s0.1,0.8,0.1,1.4c0,0.6-0.2,0.4-0.2,1.2c0,0.8-0.1,0.5-0.1,0.5s0,0-0.2,1
		c1.3,1.1,2.1,2.7,2.1,4.6c0,3.3-2.7,6.1-6.1,6.1c-3.4,0-6.1-2.7-6.1-6.1c0-1.8,0.8-3.4,2-4.5c0,0,0,0,0,0c0,0,0,0,0,0
		c0,0,0-0.1,0.1-0.2c0.4-0.9,0,0,0.1-1.2c0.1-1.2-0.1-1.8-0.1-1.8l-0.2-0.7c0,0-0.1-0.3-0.1-0.6h-15.1c0.1,0.3,0-0.1,0.2,0.6
		c0.2,0.9,0.1,0.8,0.1,0.8s0,0-0.2,1.2c-0.2,1.1-0.1,0.9-0.1,1.7c1.4,1.1,2.2,2.8,2.2,4.7c0,3.3-2.7,6.1-6.1,6.1s-6.1-2.7-6.1-6.1
		c0-2.3,1.3-4.3,3.1-5.3c0-0.2,0.1-0.6,0.1-1.6c0.2-1.7-0.1-1.5-0.1-1.5l-0.1-0.6h-16.7c0.1,1.4,0.3,3.3,0.3,3.6
		c0,0.1-0.1,0.3-0.1,0.6c1.5,1.1,2.4,2.8,2.4,4.8c0,3.3-2.7,6.1-6.1,6.1c-3.4,0-6.1-2.7-6.1-6.1c0-1.9,0.9-3.6,2.3-4.7
		c-0.4-0.8-0.8-1.7-0.8-1.7l0.9-0.9c0,0,0,0,0.1-0.8c0.1-0.5,0-0.7-0.1-0.8H89.5c0,0.5,0,0.4,0,0.4s0.1,0.8,0.1,1.4
		c0,0.6-0.2,0.4-0.2,1.2c0,0.8-0.1,0.5-0.1,0.5s0,0-0.2,1c1.3,1.1,2,2.7,2,4.5c0,3.3-2.7,6.1-6.1,6.1c-3.4,0-6.1-2.7-6.1-6.1
		c0-1.8,0.8-3.5,2.1-4.6c0,0,0-0.1,0.1-0.1c0.4-0.9,0,0,0.1-1.2C81.5,2.6,81.2,2,81.2,2L81,1.3C81,1.3,81,1,81,0.7H65.7
		c0.1,0.3,0-0.1,0.2,0.6c0.2,0.9,0.1,0.8,0.1,0.8s0,0-0.2,1.2c-0.2,1.1-0.1,0.9-0.1,1.6C67.1,6,68,7.8,68,9.7c0,3.3-2.7,6.1-6.1,6.1
		s-6.1-2.7-6.1-6.1c0-2.2,1.2-4.1,2.9-5.2v0c0,0,0,0,0.2-1.7c0.2-1.7-0.1-1.5-0.1-1.5l-0.1-0.6H42.4c0.1,0.3,0.1,0.6,0.1,0.7
		c0,0.2,0,0.3,0,0.5l0.1,0.4c0.2,0.8,0,0-0.4,1c-0.4,1,0.1,1.2,0.1,1.2l0,0.2c1.6,1.1,2.6,2.9,2.6,4.9c0,3.3-2.7,6.1-6.1,6.1
		c-3.4,0-6.1-2.7-6.1-6.1c0-1.7,0.7-3.2,1.8-4.3l-0.1-0.4c-0.1-0.3,0-0.6,0.1-0.9l0.3-0.6C35,3.4,35,3.4,35,3.3l0.1-0.4
		c0.1-0.3,0.1-0.6,0-0.9L35,1.5c0-0.1,0-0.5,0-0.8H18.8c-0.4,1,0.1-0.1,0.2,0.7c0.2,0.9,0,0,0.2,0.9c0.2,0.9,0.1,0.8,0.1,0.8
		s0,0-0.2,1.2C19,4.5,19,4.6,19,4.7c1.6,1.1,2.7,2.9,2.7,5c0,3.3-2.7,6.1-6.1,6.1c-3.4,0-6.1-2.7-6.1-6.1c0-2.1,1.1-4,2.7-5
		c0-0.2,0-0.5,0.1-0.8c0.2-1.7-0.1-1.5-0.1-1.5l-0.1-0.8L12,0.7H0v216h170.2V0.7H159z"/>
	<path class="st41" d="M159,0.6c0,0.5,0,0.4,0,0.4s0.1,0.8,0.1,1.4s-0.2,0.4-0.2,1.2s-0.1,0.5-0.1,0.5s0,0-0.2,1
		c1.3,1.1,2.1,2.7,2.1,4.6c0,3.3-2.7,6.1-6.1,6.1c-3.4,0-6.1-2.7-6.1-6.1c0-1.8,0.8-3.4,2-4.5c0,0,0,0,0,0c0,0,0,0,0,0
		c0,0,0-0.1,0.1-0.2c0.4-0.9,0,0,0.1-1.2c0.1-1.2-0.1-1.8-0.1-1.8l-0.2-0.7c0,0-0.1-0.3-0.1-0.6h-15.1c0.1,0.3,0-0.1,0.2,0.6
		c0.2,0.9,0.1,0.8,0.1,0.8s0,0-0.2,1.2c-0.2,1.1-0.1,0.9-0.1,1.7c1.4,1.1,2.2,2.8,2.2,4.7c0,3.3-2.7,6.1-6.1,6.1s-6.1-2.7-6.1-6.1
		c0-2.3,1.3-4.3,3.1-5.3c0-0.2,0.1-0.6,0.1-1.6c0.2-1.7-0.1-1.5-0.1-1.5l-0.1-0.6h-16.7c0.1,1.4,0.3,3.3,0.3,3.6
		c0,0.1-0.1,0.3-0.1,0.6c1.5,1.1,2.4,2.8,2.4,4.8c0,3.3-2.7,6.1-6.1,6.1c-3.4,0-6.1-2.7-6.1-6.1c0-1.9,0.9-3.6,2.3-4.7
		c-0.4-0.8-0.8-1.7-0.8-1.7l0.9-0.9c0,0,0,0,0.1-0.8c0.1-0.5,0-0.7-0.1-0.8H89.5c0,0.5,0,0.4,0,0.4s0.1,0.8,0.1,1.4
		s-0.2,0.4-0.2,1.2s-0.1,0.5-0.1,0.5s0,0-0.2,1c1.3,1.1,2,2.7,2,4.5c0,3.3-2.7,6.1-6.1,6.1c-3.4,0-6.1-2.7-6.1-6.1
		c0-1.8,0.8-3.5,2.1-4.6c0,0,0-0.1,0.1-0.1c0.4-0.9,0,0,0.1-1.2c0.1-1.2-0.1-1.8-0.1-1.8L81,1.2c0,0-0.1-0.3-0.1-0.6H65.7
		c0.1,0.3,0-0.1,0.2,0.6C66.1,2.2,65.9,2,65.9,2s0,0-0.2,1.2c-0.2,1.1-0.1,0.9-0.1,1.6C67.1,5.9,68,7.6,68,9.6
		c0,3.3-2.7,6.1-6.1,6.1s-6.1-2.7-6.1-6.1c0-2.2,1.2-4.1,2.9-5.2v0c0,0,0,0,0.2-1.7c0.2-1.7-0.1-1.5-0.1-1.5l-0.1-0.6H42.4
		c0.1,0.3,0.1,0.6,0.1,0.7c0,0.2,0,0.3,0,0.5l0.1,0.4c0.2,0.8,0,0-0.4,1c-0.4,1,0.1,1.2,0.1,1.2l0,0.2c1.6,1.1,2.6,2.9,2.6,4.9
		c0,3.3-2.7,6.1-6.1,6.1c-3.4,0-6.1-2.7-6.1-6.1c0-1.7,0.7-3.2,1.8-4.3l-0.1-0.4c-0.1-0.3,0-0.6,0.1-0.9l0.3-0.6
		C35,3.3,35,3.2,35,3.2l0.1-0.4c0.1-0.3,0.1-0.6,0-0.9L35,1.4c0-0.1,0-0.5,0-0.8H18.8c-0.4,1,0.1-0.1,0.2,0.7c0.2,0.9,0,0,0.2,0.9
		c0.2,0.9,0.1,0.8,0.1,0.8s0,0-0.2,1.2C19,4.4,19,4.5,19,4.6c1.6,1.1,2.7,2.9,2.7,5c0,3.3-2.7,6.1-6.1,6.1c-3.4,0-6.1-2.7-6.1-6.1
		c0-2.1,1.1-4,2.7-5c0-0.2,0-0.5,0.1-0.8c0.2-1.7-0.1-1.5-0.1-1.5l-0.1-0.8L12,0.6H0v216h170.2V0.6H159z"/>
	<path class="st42" d="M159,0.5c0,0.5,0,0.4,0,0.4s0.1,0.8,0.1,1.4s-0.2,0.4-0.2,1.2S158.8,4,158.8,4s0,0-0.2,1
		c1.3,1.1,2.1,2.7,2.1,4.6c0,3.3-2.7,6.1-6.1,6.1c-3.4,0-6.1-2.7-6.1-6.1c0-1.8,0.8-3.4,2-4.5c0,0,0,0,0,0c0,0,0,0,0,0
		c0,0,0-0.1,0.1-0.2c0.4-0.9,0,0,0.1-1.2c0.1-1.2-0.1-1.8-0.1-1.8l-0.2-0.7c0,0-0.1-0.3-0.1-0.6h-15.1c0.1,0.3,0-0.1,0.2,0.6
		c0.2,0.9,0.1,0.8,0.1,0.8s0,0-0.2,1.2c-0.2,1.1-0.1,0.9-0.1,1.7c1.4,1.1,2.2,2.8,2.2,4.7c0,3.3-2.7,6.1-6.1,6.1s-6.1-2.7-6.1-6.1
		c0-2.3,1.3-4.3,3.1-5.3c0-0.2,0.1-0.6,0.1-1.6c0.2-1.7-0.1-1.5-0.1-1.5l-0.1-0.6h-16.7c0.1,1.4,0.3,3.3,0.3,3.6
		c0,0.1-0.1,0.3-0.1,0.6c1.5,1.1,2.4,2.8,2.4,4.8c0,3.3-2.7,6.1-6.1,6.1c-3.4,0-6.1-2.7-6.1-6.1c0-1.9,0.9-3.6,2.3-4.7
		c-0.4-0.8-0.8-1.7-0.8-1.7l0.9-0.9c0,0,0,0,0.1-0.8c0.1-0.5,0-0.7-0.1-0.8H89.5c0,0.5,0,0.4,0,0.4s0.1,0.8,0.1,1.4
		s-0.2,0.4-0.2,1.2S89.3,4,89.3,4s0,0-0.2,1c1.3,1.1,2,2.7,2,4.5c0,3.3-2.7,6.1-6.1,6.1c-3.4,0-6.1-2.7-6.1-6.1
		c0-1.8,0.8-3.5,2.1-4.6c0,0,0-0.1,0.1-0.1c0.4-0.9,0,0,0.1-1.2c0.1-1.2-0.1-1.8-0.1-1.8L81,1.1c0,0-0.1-0.3-0.1-0.6H65.7
		c0.1,0.3,0-0.1,0.2,0.6c0.2,0.9,0.1,0.8,0.1,0.8s0,0-0.2,1.2c-0.2,1.1-0.1,0.9-0.1,1.6C67.1,5.8,68,7.5,68,9.5
		c0,3.3-2.7,6.1-6.1,6.1s-6.1-2.7-6.1-6.1c0-2.2,1.2-4.1,2.9-5.2v0c0,0,0,0,0.2-1.7c0.2-1.7-0.1-1.5-0.1-1.5l-0.1-0.6H42.4
		c0.1,0.3,0.1,0.6,0.1,0.7c0,0.2,0,0.3,0,0.5l0.1,0.4c0.2,0.8,0,0-0.4,1c-0.4,1,0.1,1.2,0.1,1.2l0,0.2c1.6,1.1,2.6,2.9,2.6,4.9
		c0,3.3-2.7,6.1-6.1,6.1c-3.4,0-6.1-2.7-6.1-6.1c0-1.7,0.7-3.2,1.8-4.3l-0.1-0.4c-0.1-0.3,0-0.6,0.1-0.9l0.3-0.6
		C35,3.2,35,3.1,35,3.1l0.1-0.4c0.1-0.3,0.1-0.6,0-0.9L35,1.3c0-0.1,0-0.5,0-0.8H18.8c-0.4,1,0.1-0.1,0.2,0.7c0.2,0.9,0,0,0.2,0.9
		c0.2,0.9,0.1,0.8,0.1,0.8s0,0-0.2,1.2C19,4.3,19,4.4,19,4.5c1.6,1.1,2.7,2.9,2.7,5c0,3.3-2.7,6.1-6.1,6.1c-3.4,0-6.1-2.7-6.1-6.1
		c0-2.1,1.1-4,2.7-5c0-0.2,0-0.5,0.1-0.8c0.2-1.7-0.1-1.5-0.1-1.5l-0.1-0.8L12,0.5H0v216h170.2V0.5H159z"/>
	<path class="st43" d="M159,0.4c0,0.5,0,0.4,0,0.4s0.1,0.8,0.1,1.4s-0.2,0.4-0.2,1.2s-0.1,0.5-0.1,0.5s0,0-0.2,1
		c1.3,1.1,2.1,2.7,2.1,4.6c0,3.3-2.7,6.1-6.1,6.1c-3.4,0-6.1-2.7-6.1-6.1c0-1.8,0.8-3.4,2-4.5c0,0,0,0,0,0c0,0,0,0,0,0
		c0,0,0-0.1,0.1-0.2c0.4-0.9,0,0,0.1-1.2c0.1-1.2-0.1-1.8-0.1-1.8L150.5,1c0,0-0.1-0.3-0.1-0.6h-15.1c0.1,0.3,0-0.1,0.2,0.6
		c0.2,0.9,0.1,0.8,0.1,0.8s0,0-0.2,1.2c-0.2,1.1-0.1,0.9-0.1,1.7c1.4,1.1,2.2,2.8,2.2,4.7c0,3.3-2.7,6.1-6.1,6.1s-6.1-2.7-6.1-6.1
		c0-2.3,1.3-4.3,3.1-5.3c0-0.2,0.1-0.6,0.1-1.6c0.2-1.7-0.1-1.5-0.1-1.5l-0.1-0.6h-16.7c0.1,1.4,0.3,3.3,0.3,3.6
		c0,0.1-0.1,0.3-0.1,0.6c1.5,1.1,2.4,2.8,2.4,4.8c0,3.3-2.7,6.1-6.1,6.1c-3.4,0-6.1-2.7-6.1-6.1c0-1.9,0.9-3.6,2.3-4.7
		c-0.4-0.8-0.8-1.7-0.8-1.7l0.9-0.9c0,0,0,0,0.1-0.8c0.1-0.5,0-0.7-0.1-0.8H89.5c0,0.5,0,0.4,0,0.4s0.1,0.8,0.1,1.4
		s-0.2,0.4-0.2,1.2s-0.1,0.5-0.1,0.5s0,0-0.2,1c1.3,1.1,2,2.7,2,4.5c0,3.3-2.7,6.1-6.1,6.1c-3.4,0-6.1-2.7-6.1-6.1
		c0-1.8,0.8-3.5,2.1-4.6c0,0,0-0.1,0.1-0.1c0.4-0.9,0,0,0.1-1.2c0.1-1.2-0.1-1.8-0.1-1.8L81,1C81,1,81,0.7,81,0.4H65.7
		c0.1,0.3,0-0.1,0.2,0.6c0.2,0.9,0.1,0.8,0.1,0.8s0,0-0.2,1.2c-0.2,1.1-0.1,0.9-0.1,1.6C67.1,5.7,68,7.4,68,9.4
		c0,3.3-2.7,6.1-6.1,6.1s-6.1-2.7-6.1-6.1c0-2.2,1.2-4.1,2.9-5.2v0c0,0,0,0,0.2-1.7C59.1,0.8,58.9,1,58.9,1l-0.1-0.6H42.4
		c0.1,0.3,0.1,0.6,0.1,0.7c0,0.2,0,0.3,0,0.5l0.1,0.4c0.2,0.8,0,0-0.4,1c-0.4,1,0.1,1.2,0.1,1.2l0,0.2c1.6,1.1,2.6,2.9,2.6,4.9
		c0,3.3-2.7,6.1-6.1,6.1c-3.4,0-6.1-2.7-6.1-6.1c0-1.7,0.7-3.2,1.8-4.3l-0.1-0.4c-0.1-0.3,0-0.6,0.1-0.9l0.3-0.6C35,3.1,35,3,35,3
		l0.1-0.4c0.1-0.3,0.1-0.6,0-0.9L35,1.2c0-0.1,0-0.5,0-0.8H18.8c-0.4,1,0.1-0.1,0.2,0.7c0.2,0.9,0,0,0.2,0.9
		c0.2,0.9,0.1,0.8,0.1,0.8s0,0-0.2,1.2C19,4.2,19,4.3,19,4.4c1.6,1.1,2.7,2.9,2.7,5c0,3.3-2.7,6.1-6.1,6.1c-3.4,0-6.1-2.7-6.1-6.1
		c0-2.1,1.1-4,2.7-5c0-0.2,0-0.5,0.1-0.8c0.2-1.7-0.1-1.5-0.1-1.5l-0.1-0.8L12,0.4H0v216h170.2V0.4H159z"/>
	<path class="st44" d="M159,0.3c0,0.5,0,0.4,0,0.4s0.1,0.8,0.1,1.4s-0.2,0.4-0.2,1.2s-0.1,0.5-0.1,0.5s0,0-0.2,1
		c1.3,1.1,2.1,2.7,2.1,4.6c0,3.3-2.7,6.1-6.1,6.1c-3.4,0-6.1-2.7-6.1-6.1c0-1.8,0.8-3.4,2-4.5c0,0,0,0,0,0c0,0,0,0,0,0
		c0,0,0-0.1,0.1-0.2c0.4-0.9,0,0,0.1-1.2c0.1-1.2-0.1-1.8-0.1-1.8l-0.2-0.7c0,0-0.1-0.3-0.1-0.6h-15.1c0.1,0.3,0-0.1,0.2,0.6
		c0.2,0.9,0.1,0.8,0.1,0.8s0,0-0.2,1.2c-0.2,1.1-0.1,0.9-0.1,1.7c1.4,1.1,2.2,2.8,2.2,4.7c0,3.3-2.7,6.1-6.1,6.1s-6.1-2.7-6.1-6.1
		c0-2.3,1.3-4.3,3.1-5.3c0-0.2,0.1-0.6,0.1-1.6c0.2-1.7-0.1-1.5-0.1-1.5l-0.1-0.6h-16.7c0.1,1.4,0.3,3.3,0.3,3.6
		c0,0.1-0.1,0.3-0.1,0.6c1.5,1.1,2.4,2.8,2.4,4.8c0,3.3-2.7,6.1-6.1,6.1c-3.4,0-6.1-2.7-6.1-6.1c0-1.9,0.9-3.6,2.3-4.7
		c-0.4-0.8-0.8-1.7-0.8-1.7l0.9-0.9c0,0,0,0,0.1-0.8c0.1-0.5,0-0.7-0.1-0.8H89.5c0,0.5,0,0.4,0,0.4s0.1,0.8,0.1,1.4
		s-0.2,0.4-0.2,1.2s-0.1,0.5-0.1,0.5s0,0-0.2,1c1.3,1.1,2,2.7,2,4.5c0,3.3-2.7,6.1-6.1,6.1c-3.4,0-6.1-2.7-6.1-6.1
		c0-1.8,0.8-3.5,2.1-4.6c0,0,0-0.1,0.1-0.1c0.4-0.9,0,0,0.1-1.2c0.1-1.2-0.1-1.8-0.1-1.8L81,0.9c0,0-0.1-0.3-0.1-0.6H65.7
		c0.1,0.3,0-0.1,0.2,0.6c0.2,0.9,0.1,0.8,0.1,0.8s0,0-0.2,1.2c-0.2,1.1-0.1,0.9-0.1,1.6C67.1,5.6,68,7.3,68,9.3
		c0,3.3-2.7,6.1-6.1,6.1s-6.1-2.7-6.1-6.1c0-2.2,1.2-4.1,2.9-5.2v0c0,0,0,0,0.2-1.7c0.2-1.7-0.1-1.5-0.1-1.5l-0.1-0.6H42.4
		c0.1,0.3,0.1,0.6,0.1,0.7c0,0.2,0,0.3,0,0.5L42.6,2c0.2,0.8,0,0-0.4,1c-0.4,1,0.1,1.2,0.1,1.2l0,0.2c1.6,1.1,2.6,2.9,2.6,4.9
		c0,3.3-2.7,6.1-6.1,6.1c-3.4,0-6.1-2.7-6.1-6.1c0-1.7,0.7-3.2,1.8-4.3l-0.1-0.4c-0.1-0.3,0-0.6,0.1-0.9l0.3-0.6C35,3,35,2.9,35,2.8
		l0.1-0.4c0.1-0.3,0.1-0.6,0-0.9L35,1.1c0-0.1,0-0.5,0-0.8H18.8c-0.4,1,0.1-0.1,0.2,0.7c0.2,0.9,0,0,0.2,0.9
		c0.2,0.9,0.1,0.8,0.1,0.8s0,0-0.2,1.2C19,4,19,4.2,19,4.3c1.6,1.1,2.7,2.9,2.7,5c0,3.3-2.7,6.1-6.1,6.1c-3.4,0-6.1-2.7-6.1-6.1
		c0-2.1,1.1-4,2.7-5c0-0.2,0-0.5,0.1-0.8C12.5,1.7,12.3,2,12.3,2l-0.1-0.8L12,0.3H0v216h170.2V0.3H159z"/>
	<path class="st45" d="M159,0.2c0,0.5,0,0.4,0,0.4s0.1,0.8,0.1,1.4s-0.2,0.4-0.2,1.2s-0.1,0.5-0.1,0.5s0,0-0.2,1
		c1.3,1.1,2.1,2.7,2.1,4.6c0,3.3-2.7,6.1-6.1,6.1c-3.4,0-6.1-2.7-6.1-6.1c0-1.8,0.8-3.4,2-4.5c0,0,0,0,0,0c0,0,0,0,0,0
		c0,0,0-0.1,0.1-0.2c0.4-0.9,0,0,0.1-1.2c0.1-1.2-0.1-1.8-0.1-1.8l-0.2-0.7c0,0-0.1-0.3-0.1-0.6h-15.1c0.1,0.3,0-0.1,0.2,0.6
		c0.2,0.9,0.1,0.8,0.1,0.8s0,0-0.2,1.2c-0.2,1.1-0.1,0.9-0.1,1.7c1.4,1.1,2.2,2.8,2.2,4.7c0,3.3-2.7,6.1-6.1,6.1s-6.1-2.7-6.1-6.1
		c0-2.3,1.3-4.3,3.1-5.3c0-0.2,0.1-0.6,0.1-1.6c0.2-1.7-0.1-1.5-0.1-1.5l-0.1-0.6h-16.7c0.1,1.4,0.3,3.3,0.3,3.6
		c0,0.1-0.1,0.3-0.1,0.6c1.5,1.1,2.4,2.8,2.4,4.8c0,3.3-2.7,6.1-6.1,6.1c-3.4,0-6.1-2.7-6.1-6.1c0-1.9,0.9-3.6,2.3-4.7
		c-0.4-0.8-0.8-1.7-0.8-1.7l0.9-0.9c0,0,0,0,0.1-0.8c0.1-0.5,0-0.7-0.1-0.8H89.5c0,0.5,0,0.4,0,0.4s0.1,0.8,0.1,1.4
		s-0.2,0.4-0.2,1.2s-0.1,0.5-0.1,0.5s0,0-0.2,1c1.3,1.1,2,2.7,2,4.5c0,3.3-2.7,6.1-6.1,6.1c-3.4,0-6.1-2.7-6.1-6.1
		c0-1.8,0.8-3.5,2.1-4.6c0,0,0-0.1,0.1-0.1c0.4-0.9,0,0,0.1-1.2c0.1-1.2-0.1-1.8-0.1-1.8L81,0.8c0,0-0.1-0.3-0.1-0.6H65.7
		c0.1,0.3,0-0.1,0.2,0.6c0.2,0.9,0.1,0.8,0.1,0.8s0,0-0.2,1.2c-0.2,1.1-0.1,0.9-0.1,1.6C67.1,5.5,68,7.2,68,9.2
		c0,3.3-2.7,6.1-6.1,6.1s-6.1-2.7-6.1-6.1c0-2.2,1.2-4.1,2.9-5.2v0c0,0,0,0,0.2-1.7c0.2-1.7-0.1-1.5-0.1-1.5l-0.1-0.6H42.4
		c0.1,0.3,0.1,0.6,0.1,0.7c0,0.2,0,0.3,0,0.5l0.1,0.4c0.2,0.8,0,0-0.4,1c-0.4,1,0.1,1.2,0.1,1.2l0,0.2c1.6,1.1,2.6,2.9,2.6,4.9
		c0,3.3-2.7,6.1-6.1,6.1c-3.4,0-6.1-2.7-6.1-6.1c0-1.7,0.7-3.2,1.8-4.3l-0.1-0.4c-0.1-0.3,0-0.6,0.1-0.9L34.9,3
		C35,2.9,35,2.8,35,2.7l0.1-0.4c0.1-0.3,0.1-0.6,0-0.9L35,1c0-0.1,0-0.5,0-0.8H18.8c-0.4,1,0.1-0.1,0.2,0.7c0.2,0.9,0,0,0.2,0.9
		c0.2,0.9,0.1,0.8,0.1,0.8s0,0-0.2,1.2C19,3.9,19,4.1,19,4.2c1.6,1.1,2.7,2.9,2.7,5c0,3.3-2.7,6.1-6.1,6.1c-3.4,0-6.1-2.7-6.1-6.1
		c0-2.1,1.1-4,2.7-5c0-0.2,0-0.5,0.1-0.8c0.2-1.7-0.1-1.5-0.1-1.5l-0.1-0.8L12,0.2H0v216h170.2V0.2H159z"/>
	<path class="st46" d="M159,0.1c0,0.5,0,0.4,0,0.4s0.1,0.8,0.1,1.4s-0.2,0.4-0.2,1.2s-0.1,0.5-0.1,0.5s0,0-0.2,1
		c1.3,1.1,2.1,2.7,2.1,4.6c0,3.3-2.7,6.1-6.1,6.1c-3.4,0-6.1-2.7-6.1-6.1c0-1.8,0.8-3.4,2-4.5c0,0,0,0,0,0c0,0,0,0,0,0
		c0,0,0-0.1,0.1-0.2c0.4-0.9,0,0,0.1-1.2c0.1-1.2-0.1-1.8-0.1-1.8l-0.2-0.7c0,0-0.1-0.3-0.1-0.6h-15.1c0.1,0.3,0-0.1,0.2,0.6
		c0.2,0.9,0.1,0.8,0.1,0.8s0,0-0.2,1.2c-0.2,1.1-0.1,0.9-0.1,1.7c1.4,1.1,2.2,2.8,2.2,4.7c0,3.3-2.7,6.1-6.1,6.1s-6.1-2.7-6.1-6.1
		c0-2.3,1.3-4.3,3.1-5.3c0-0.2,0.1-0.6,0.1-1.6c0.2-1.7-0.1-1.5-0.1-1.5l-0.1-0.6h-16.7c0.1,1.4,0.3,3.3,0.3,3.6
		c0,0.1-0.1,0.3-0.1,0.6c1.5,1.1,2.4,2.8,2.4,4.8c0,3.3-2.7,6.1-6.1,6.1c-3.4,0-6.1-2.7-6.1-6.1c0-1.9,0.9-3.6,2.3-4.7
		c-0.4-0.8-0.8-1.7-0.8-1.7l0.9-0.9c0,0,0,0,0.1-0.8c0.1-0.5,0-0.7-0.1-0.8H89.5c0,0.5,0,0.4,0,0.4s0.1,0.8,0.1,1.4
		s-0.2,0.4-0.2,1.2s-0.1,0.5-0.1,0.5s0,0-0.2,1c1.3,1.1,2,2.7,2,4.5c0,3.3-2.7,6.1-6.1,6.1c-3.4,0-6.1-2.7-6.1-6.1
		c0-1.8,0.8-3.5,2.1-4.6c0,0,0-0.1,0.1-0.1c0.4-0.9,0,0,0.1-1.2c0.1-1.2-0.1-1.8-0.1-1.8L81,0.7c0,0-0.1-0.3-0.1-0.6H65.7
		c0.1,0.3,0-0.1,0.2,0.6c0.2,0.9,0.1,0.8,0.1,0.8s0,0-0.2,1.2c-0.2,1.1-0.1,0.9-0.1,1.6C67.1,5.4,68,7.1,68,9.1
		c0,3.3-2.7,6.1-6.1,6.1s-6.1-2.7-6.1-6.1c0-2.2,1.2-4.1,2.9-5.2v0c0,0,0,0,0.2-1.7c0.2-1.7-0.1-1.5-0.1-1.5l-0.1-0.6H42.4
		c0.1,0.3,0.1,0.6,0.1,0.7c0,0.2,0,0.3,0,0.5l0.1,0.4c0.2,0.8,0,0-0.4,1c-0.4,1,0.1,1.2,0.1,1.2l0,0.2c1.6,1.1,2.6,2.9,2.6,4.9
		c0,3.3-2.7,6.1-6.1,6.1c-3.4,0-6.1-2.7-6.1-6.1c0-1.7,0.7-3.2,1.8-4.3l-0.1-0.4c-0.1-0.3,0-0.6,0.1-0.9l0.3-0.6
		C35,2.8,35,2.7,35,2.6l0.1-0.4c0.1-0.3,0.1-0.6,0-0.9L35,0.9c0-0.1,0-0.5,0-0.8H18.8c-0.4,1,0.1-0.1,0.2,0.7c0.2,0.9,0,0,0.2,0.9
		c0.2,0.9,0.1,0.8,0.1,0.8s0,0-0.2,1.2C19,3.8,19,4,19,4.1c1.6,1.1,2.7,2.9,2.7,5c0,3.3-2.7,6.1-6.1,6.1c-3.4,0-6.1-2.7-6.1-6.1
		c0-2.1,1.1-4,2.7-5c0-0.2,0-0.5,0.1-0.8c0.2-1.7-0.1-1.5-0.1-1.5L12.2,1L12,0.1H0v216h170.2V0.1H159z"/>
	<path class="st47" d="M159,0c0,0.5,0,0.4,0,0.4s0.1,0.8,0.1,1.4s-0.2,0.4-0.2,1.2c0,0.8-0.1,0.5-0.1,0.5s0,0-0.2,1
		c1.3,1.1,2.1,2.7,2.1,4.6c0,3.3-2.7,6.1-6.1,6.1c-3.4,0-6.1-2.7-6.1-6.1c0-1.8,0.8-3.4,2-4.5c0,0,0,0,0,0c0,0,0,0,0,0
		c0,0,0-0.1,0.1-0.2c0.4-0.9,0,0,0.1-1.2c0.1-1.2-0.1-1.8-0.1-1.8l-0.2-0.7c0,0-0.1-0.3-0.1-0.6h-15.1c0.1,0.3,0-0.1,0.2,0.6
		c0.2,0.9,0.1,0.8,0.1,0.8s0,0-0.2,1.2c-0.2,1.1-0.1,0.9-0.1,1.7c1.4,1.1,2.2,2.8,2.2,4.7c0,3.3-2.7,6.1-6.1,6.1s-6.1-2.7-6.1-6.1
		c0-2.3,1.3-4.3,3.1-5.3c0-0.2,0.1-0.6,0.1-1.6c0.2-1.7-0.1-1.5-0.1-1.5L128.5,0h-16.7c0.1,1.4,0.3,3.3,0.3,3.6
		c0,0.1-0.1,0.3-0.1,0.6c1.5,1.1,2.4,2.8,2.4,4.8c0,3.3-2.7,6.1-6.1,6.1c-3.4,0-6.1-2.7-6.1-6.1c0-1.9,0.9-3.6,2.3-4.7
		c-0.4-0.8-0.8-1.7-0.8-1.7l0.9-0.9c0,0,0,0,0.1-0.8c0.1-0.5,0-0.7-0.1-0.8H89.5c0,0.5,0,0.4,0,0.4s0.1,0.8,0.1,1.4S89.4,2.2,89.4,3
		c0,0.8-0.1,0.5-0.1,0.5s0,0-0.2,1c1.3,1.1,2,2.7,2,4.5c0,3.3-2.7,6.1-6.1,6.1C81.8,15,79,12.3,79,9c0-1.8,0.8-3.5,2.1-4.6
		c0,0,0-0.1,0.1-0.1c0.4-0.9,0,0,0.1-1.2c0.1-1.2-0.1-1.8-0.1-1.8L81,0.6C81,0.6,81,0.3,81,0H65.7c0.1,0.3,0-0.1,0.2,0.6
		c0.2,0.9,0.1,0.8,0.1,0.8s0,0-0.2,1.2c-0.2,1.1-0.1,0.9-0.1,1.6C67.1,5.3,68,7,68,9c0,3.3-2.7,6.1-6.1,6.1s-6.1-2.7-6.1-6.1
		c0-2.2,1.2-4.1,2.9-5.2v0c0,0,0,0,0.2-1.7c0.2-1.7-0.1-1.5-0.1-1.5L58.8,0H42.4c0.1,0.3,0.1,0.6,0.1,0.7c0,0.2,0,0.3,0,0.5l0.1,0.4
		c0.2,0.8,0,0-0.4,1c-0.4,1,0.1,1.2,0.1,1.2l0,0.2c1.6,1.1,2.6,2.9,2.6,4.9c0,3.3-2.7,6.1-6.1,6.1c-3.4,0-6.1-2.7-6.1-6.1
		c0-1.7,0.7-3.2,1.8-4.3l-0.1-0.4c-0.1-0.3,0-0.6,0.1-0.9l0.3-0.6C35,2.7,35,2.6,35,2.5l0.1-0.4c0.1-0.3,0.1-0.6,0-0.9L35,0.8
		c0-0.1,0-0.5,0-0.8H18.8c-0.4,1,0.1-0.1,0.2,0.7c0.2,0.9,0,0,0.2,0.9c0.2,0.9,0.1,0.8,0.1,0.8s0,0-0.2,1.2C19,3.7,19,3.8,19,4
		c1.6,1.1,2.7,2.9,2.7,5c0,3.3-2.7,6.1-6.1,6.1c-3.4,0-6.1-2.7-6.1-6.1c0-2.1,1.1-4,2.7-5c0-0.2,0-0.5,0.1-0.8
		c0.2-1.7-0.1-1.5-0.1-1.5l-0.1-0.8L12,0H0v216h170.2V0H159z"/>
</g>
<g>
	<path class="st48" d="M159,0c0,0.5,0,0.4,0,0.4s0.1,0.8,0.1,1.4s-0.2,0.4-0.2,1.2s-0.1,0.5-0.1,0.5s0,0-0.2,1
		c1.3,1.1,2.1,2.7,2.1,4.6c0,3.4-2.7,6.1-6.1,6.1c-3.4,0-6.1-2.7-6.1-6.1c0-1.8,0.8-3.4,2-4.5c0,0,0,0,0,0c0,0,0,0,0,0
		c0,0,0-0.1,0.1-0.2c0.4-0.9,0,0,0.1-1.2c0.1-1.2-0.1-1.8-0.1-1.8l-0.2-0.7c0,0-0.1-0.3-0.1-0.6h-15.1c0.1,0.3,0-0.1,0.2,0.6
		c0.2,0.9,0.1,0.8,0.1,0.8s0,0-0.2,1.2c-0.2,1.1-0.1,0.9-0.1,1.7c1.4,1.1,2.2,2.8,2.2,4.7c0,3.4-2.7,6.1-6.1,6.1s-6.1-2.7-6.1-6.1
		c0-2.3,1.3-4.3,3.1-5.3c0-0.2,0.1-0.6,0.1-1.6c0.2-1.7-0.1-1.5-0.1-1.5L128.5,0h-16.7c0.1,1.4,0.3,3.3,0.3,3.6
		c0,0.1-0.1,0.3-0.1,0.6c1.5,1.1,2.4,2.9,2.4,4.8c0,3.4-2.7,6.1-6.1,6.1c-3.4,0-6.1-2.7-6.1-6.1c0-1.9,0.9-3.7,2.3-4.8
		c-0.4-0.8-0.8-1.7-0.8-1.7l0.9-0.9c0,0,0,0,0.1-0.8c0.1-0.5,0-0.7-0.1-0.8H89.5c0,0.5,0,0.4,0,0.4s0.1,0.8,0.1,1.4S89.4,2.2,89.4,3
		s-0.1,0.5-0.1,0.5s0,0-0.2,1c1.3,1.1,2,2.7,2,4.5c0,3.4-2.7,6.1-6.1,6.1c-3.4,0-6.1-2.7-6.1-6.1c0-1.8,0.8-3.5,2.1-4.6
		c0,0,0-0.1,0.1-0.1c0.4-0.9,0,0,0.1-1.2c0.1-1.2-0.1-1.8-0.1-1.8L81,0.6C81,0.6,81,0.3,81,0H65.7c0.1,0.3,0-0.1,0.2,0.6
		c0.2,0.9,0.1,0.8,0.1,0.8s0,0-0.2,1.2c-0.2,1.1-0.1,0.9-0.1,1.6C67.1,5.3,68,7,68,9c0,3.4-2.7,6.1-6.1,6.1s-6.1-2.7-6.1-6.1
		c0-2.2,1.2-4.1,2.9-5.2v0c0,0,0,0,0.2-1.7c0.2-1.7-0.1-1.5-0.1-1.5L58.8,0H42.4c0.1,0.3,0.1,0.6,0.1,0.7c0,0.2,0,0.3,0,0.5l0.1,0.5
		c0.2,0.8,0,0-0.4,1c-0.4,1,0.1,1.2,0.1,1.2l0,0.2c1.6,1.1,2.6,2.9,2.6,5c0,3.4-2.7,6.1-6.1,6.1c-3.4,0-6.1-2.7-6.1-6.1
		c0-1.7,0.7-3.2,1.8-4.3l-0.1-0.4c-0.1-0.3,0-0.7,0.1-0.9l0.3-0.6C35,2.7,35,2.6,35,2.5l0.1-0.4c0.1-0.3,0.1-0.6,0-0.9L35,0.8
		c0-0.1,0-0.5,0-0.8H18.8c-0.4,1,0.1-0.1,0.2,0.7c0.2,0.9,0,0,0.2,0.9c0.2,0.9,0.1,0.8,0.1,0.8s0,0-0.2,1.2C19,3.7,19,3.9,19,4
		c1.6,1.1,2.7,2.9,2.7,5.1c0,3.4-2.7,6.1-6.1,6.1c-3.4,0-6.1-2.7-6.1-6.1c0-2.1,1.1-4,2.7-5.1c0-0.2,0-0.5,0.1-0.8
		c0.2-1.7-0.1-1.5-0.1-1.5l-0.1-0.8L12,0H0v216.8h170.2V0H159z"/>
</g>
<g class="st49">
	<rect x="19.5" y="26.3" class="st50" width="0.8" height="181.7"/>
</g>
</svg>
