<svg id="圖層_1" data-name="圖層 1" xmlns="http://www.w3.org/2000/svg" viewBox="0 0 626 626"><defs><style>.cls-1{fill:#faa749;}.cls-2,.cls-3,.cls-5{fill:#fff;}.cls-2{fill-opacity:0.22;}.cls-4{fill:#515c56;}.cls-5{fill-rule:evenodd;}.cls-6{fill:#fba399;}.cls-7{fill:#deab9a;}.cls-8{fill:#827371;}</style></defs><title>bn_dashboard-01</title><rect class="cls-1" x="33.28" y="156.3" width="501.52" height="345.54"/><circle class="cls-2" cx="198.08" cy="277.66" r="90.12"/><circle class="cls-3" cx="62.85" cy="183.9" r="10.7"/><circle class="cls-3" cx="97.03" cy="183.32" r="10.7"/><circle class="cls-3" cx="130.69" cy="182.58" r="10.7"/><rect class="cls-3" x="58.37" y="239.92" width="173.24" height="233.32"/><rect class="cls-4" x="300.39" y="183.16" width="312.88" height="142.32"/><path class="cls-5" d="M325.09,298.38l32.19-43.09,16.49,25.08a1.51,1.51,0,0,0,2.41.15L427,220.44,453.86,256a1.5,1.5,0,0,0,2.41,0l13.57-18.3,46.64,49.76a1.5,1.5,0,0,0,2.37-.23l41.88-66.9L589,253.07a1.5,1.5,0,0,0,2.28-2l-29.61-34.34a1.51,1.51,0,0,0-2.41.18l-41.92,67L470.8,234.28a1.51,1.51,0,0,0-2.31.13L455,252.54l-26.78-35.41a1.51,1.51,0,0,0-1.16-.6,1.5,1.5,0,0,0-1.19.53l-50.75,60-16.56-25.19a1.5,1.5,0,0,0-2.46-.07l-33.48,44.8a1.5,1.5,0,0,0,2.41,1.8Z"/><circle class="cls-6" cx="356.6" cy="254.68" r="6.63"/><circle class="cls-6" cx="426.59" cy="219.32" r="6.63"/><circle class="cls-6" cx="468.98" cy="235.52" r="6.63"/><circle class="cls-6" cx="517.54" cy="286.28" r="6.63"/><circle class="cls-6" cx="560.19" cy="218.87" r="6.63"/><circle class="cls-6" cx="374.5" cy="278.5" r="6.63"/><rect class="cls-7" x="440.43" y="341.85" width="168.35" height="138.62"/><path class="cls-5" d="M524.24,381.75a37.57,37.57,0,1,0,37.57,37.57H524.24Z"/><rect class="cls-3" x="253.25" y="409.22" width="12.4" height="52.2"/><rect class="cls-3" x="322.67" y="409.22" width="12.4" height="52.2"/><rect class="cls-3" x="275.05" y="384.14" width="12.4" height="77.29"/><rect class="cls-3" x="344.47" y="418.96" width="12.4" height="42.47"/><rect class="cls-3" x="388.76" y="384.14" width="12.4" height="77.29"/><rect class="cls-3" x="297.94" y="354.21" width="12.4" height="107.21"/><rect class="cls-3" x="367.36" y="398.45" width="12.4" height="62.98"/><rect class="cls-3" x="411.65" y="354.21" width="12.4" height="107.21"/><rect class="cls-8" x="95.41" y="263.2" width="59.92" height="5.17"/><circle class="cls-8" cx="83.83" cy="265.78" r="6.24"/><rect class="cls-8" x="95.41" y="341.08" width="59.92" height="5.17"/><circle class="cls-8" cx="83.83" cy="343.66" r="6.24"/><rect class="cls-8" x="95.41" y="287.94" width="91.01" height="5.17"/><circle class="cls-8" cx="83.83" cy="290.52" r="6.24"/><rect class="cls-8" x="95.41" y="365.82" width="91.01" height="5.17"/><circle class="cls-8" cx="83.83" cy="368.4" r="6.24"/><rect class="cls-8" x="95.41" y="314.32" width="68.75" height="5.17"/><circle class="cls-8" cx="83.83" cy="316.9" r="6.24"/><rect class="cls-8" x="95.41" y="392.2" width="68.75" height="5.17"/><circle class="cls-8" cx="83.83" cy="394.78" r="6.24"/><circle class="cls-3" cx="448.1" cy="310.46" r="2.75"/><circle class="cls-3" cx="518.33" cy="352.52" r="2.75"/><circle class="cls-6" cx="135.58" cy="459.99" r="3.29"/><circle class="cls-3" cx="322.38" cy="484.17" r="4.41"/><circle class="cls-3" cx="456.87" cy="310.31" r="2.75"/><circle class="cls-3" cx="527.1" cy="352.37" r="2.75"/><circle class="cls-6" cx="146.08" cy="459.81" r="3.29"/><circle class="cls-3" cx="336.47" cy="483.93" r="4.41"/><circle class="cls-3" cx="465.51" cy="310.12" r="2.75"/><circle class="cls-3" cx="535.74" cy="352.18" r="2.75"/><circle class="cls-6" cx="156.43" cy="459.59" r="3.29"/><circle class="cls-3" cx="350.34" cy="483.63" r="4.41"/></svg>