<?xml version="1.0" encoding="utf-8"?>
<!-- Generator: Adobe Illustrator 21.0.2, SVG Export Plug-In . SVG Version: 6.00 Build 0)  -->
<svg version="1.1" id="圖層_1" xmlns="http://www.w3.org/2000/svg" xmlns:xlink="http://www.w3.org/1999/xlink" x="0px" y="0px"
	 viewBox="0 0 626 626" style="enable-background:new 0 0 626 626;" xml:space="preserve">
<style type="text/css">
	.st0{fill:#539BEA;}
	.st1{fill:#FFFFFF;fill-opacity:0.22;}
	.st2{fill:#FFFFFF;}
	.st3{fill:#084B9B;}
	.st4{fill:#FBA399;}
	.st5{fill:#849AD3;}
	.st6{fill:#827371;}
</style>
<title>bn_dashboard-01</title>
<rect x="33.3" y="156.3" class="st0" width="501.5" height="345.5"/>
<circle class="st1" cx="198.1" cy="277.7" r="90.1"/>
<circle class="st2" cx="62.8" cy="183.9" r="10.7"/>
<circle class="st2" cx="97" cy="183.3" r="10.7"/>
<circle class="st2" cx="130.7" cy="182.6" r="10.7"/>
<rect x="58.4" y="239.9" class="st2" width="173.2" height="233.3"/>
<rect x="300.4" y="183.2" class="st3" width="312.9" height="142.3"/>
<path class="st2" d="M325.1,298.4l32.2-43.1l16.5,25.1c0.5,0.7,1.4,0.9,2.1,0.4c0.1-0.1,0.2-0.2,0.3-0.3l50.8-60.1l26.9,35.6
	c0.5,0.7,1.4,0.8,2.1,0.3c0.1-0.1,0.2-0.2,0.3-0.3l13.6-18.3l46.6,49.8c0.6,0.6,1.5,0.6,2.1,0.1c0.1-0.1,0.2-0.2,0.2-0.3l41.9-66.9
	l28.3,32.7c0.6,0.6,1.5,0.7,2.1,0.1s0.7-1.5,0.1-2.1l-29.6-34.3c-0.5-0.6-1.5-0.7-2.1-0.1c-0.1,0.1-0.2,0.2-0.3,0.3l-41.9,67
	l-46.5-49.6c-0.6-0.6-1.5-0.6-2.1-0.1c-0.1,0.1-0.1,0.1-0.2,0.2L455,252.5l-26.8-35.4c-0.3-0.4-0.7-0.6-1.2-0.6
	c-0.5,0-0.9,0.2-1.2,0.5l-50.8,60l-16.6-25.2c-0.5-0.7-1.4-0.9-2.1-0.4c-0.1,0.1-0.3,0.2-0.4,0.4l-33.5,44.8
	c-0.5,0.7-0.4,1.6,0.3,2.1C323.6,299.2,324.5,299.1,325.1,298.4L325.1,298.4L325.1,298.4z"/>
<circle class="st4" cx="356.6" cy="254.7" r="6.6"/>
<circle class="st4" cx="426.6" cy="219.3" r="6.6"/>
<circle class="st4" cx="469" cy="235.5" r="6.6"/>
<circle class="st4" cx="517.5" cy="286.3" r="6.6"/>
<circle class="st4" cx="560.2" cy="218.9" r="6.6"/>
<circle class="st4" cx="374.5" cy="278.5" r="6.6"/>
<rect x="440.4" y="341.9" class="st5" width="168.4" height="138.6"/>
<path class="st2" d="M524.2,381.8c-20.7,0-37.6,16.8-37.6,37.6c0,20.7,16.8,37.6,37.6,37.6s37.6-16.8,37.6-37.6h-37.6V381.8z"/>
<rect x="253.2" y="409.2" class="st2" width="12.4" height="52.2"/>
<rect x="322.7" y="409.2" class="st2" width="12.4" height="52.2"/>
<rect x="275" y="384.1" class="st2" width="12.4" height="77.3"/>
<rect x="344.5" y="419" class="st2" width="12.4" height="42.5"/>
<rect x="388.8" y="384.1" class="st2" width="12.4" height="77.3"/>
<rect x="297.9" y="354.2" class="st2" width="12.4" height="107.2"/>
<rect x="367.4" y="398.5" class="st2" width="12.4" height="63"/>
<rect x="411.6" y="354.2" class="st2" width="12.4" height="107.2"/>
<rect x="95.4" y="263.2" class="st6" width="59.9" height="5.2"/>
<circle class="st6" cx="83.8" cy="265.8" r="6.2"/>
<rect x="95.4" y="341.1" class="st6" width="59.9" height="5.2"/>
<circle class="st6" cx="83.8" cy="343.7" r="6.2"/>
<rect x="95.4" y="287.9" class="st6" width="91" height="5.2"/>
<circle class="st6" cx="83.8" cy="290.5" r="6.2"/>
<rect x="95.4" y="365.8" class="st6" width="91" height="5.2"/>
<circle class="st6" cx="83.8" cy="368.4" r="6.2"/>
<rect x="95.4" y="314.3" class="st6" width="68.8" height="5.2"/>
<circle class="st6" cx="83.8" cy="316.9" r="6.2"/>
<rect x="95.4" y="392.2" class="st6" width="68.8" height="5.2"/>
<circle class="st6" cx="83.8" cy="394.8" r="6.2"/>
<circle class="st2" cx="448.1" cy="310.5" r="2.8"/>
<circle class="st2" cx="518.3" cy="352.5" r="2.8"/>
<circle class="st4" cx="135.6" cy="460" r="3.3"/>
<circle class="st2" cx="322.4" cy="484.2" r="4.4"/>
<circle class="st2" cx="456.9" cy="310.3" r="2.8"/>
<circle class="st2" cx="527.1" cy="352.4" r="2.8"/>
<circle class="st4" cx="146.1" cy="459.8" r="3.3"/>
<circle class="st2" cx="336.5" cy="483.9" r="4.4"/>
<circle class="st2" cx="465.5" cy="310.1" r="2.8"/>
<circle class="st2" cx="535.7" cy="352.2" r="2.8"/>
<circle class="st4" cx="156.4" cy="459.6" r="3.3"/>
<circle class="st2" cx="350.3" cy="483.6" r="4.4"/>
</svg>
