<svg id="圖層_1" data-name="圖層 1" xmlns="http://www.w3.org/2000/svg" xmlns:xlink="http://www.w3.org/1999/xlink" viewBox="0 0 575.6 417.28"><defs><style>.cls-1{fill:none;clip-rule:evenodd;}.cls-2{fill:#d8e7ff;}.cls-3{fill:#b4d2ff;}.cls-11,.cls-4{fill:#7ba9e3;}.cls-12,.cls-13,.cls-15,.cls-17,.cls-18,.cls-19,.cls-21,.cls-22,.cls-23,.cls-24,.cls-25,.cls-26,.cls-27,.cls-28,.cls-31,.cls-33,.cls-34,.cls-35,.cls-36,.cls-37,.cls-38,.cls-4,.cls-5,.cls-6,.cls-7{fill-rule:evenodd;}.cls-32,.cls-5{fill:#fff;}.cls-6{fill:#5e96da;}.cls-10,.cls-7{fill:#b1d2fc;}.cls-8{fill:#000446;}.cls-9{fill:#e7eff9;}.cls-12{fill:#f85c24;}.cls-13{fill:#ff8c63;}.cls-14{fill:#46a7f1;}.cls-15{fill:#1f3e7a;}.cls-16,.cls-36{fill:#f3adbe;}.cls-17{fill:#df5b7a;}.cls-18{fill:gold;}.cls-19{fill:#c84904;}.cls-20{fill:#cb4700;}.cls-21{fill:#94b2dd;}.cls-22{fill:#f7a12e;}.cls-23{fill:#ef8200;}.cls-24{fill:#edeeee;}.cls-25{fill:#e0e0df;}.cls-26{fill:#3d7dda;}.cls-27{fill:#105dc4;}.cls-28{fill:#71bdf8;}.cls-29{clip-path:url(#clip-path);}.cls-30{fill:url(#linear-gradient);}.cls-31{fill:#d8eefb;}.cls-33{fill:#2a4589;}.cls-34{fill:#fb3c66;}.cls-35{fill:#f6597b;}.cls-37{fill:#3b87c8;}.cls-38{fill:#a1c7e9;}</style><clipPath id="clip-path" transform="translate(-25.68 -131.12)"><path class="cls-1" d="M482.81,508.65l-39-12.21c-2.86-.9-3.79-3.26-2.91-6.13s3-4.3,5.86-3.46L486,498.23a5.45,5.45,0,0,1-3.19,10.42"/></clipPath><linearGradient id="linear-gradient" x1="440.07" y1="365.03" x2="437.68" y2="373.29" gradientUnits="userSpaceOnUse"><stop offset="0" stop-color="#022fa0"/><stop offset="0.68" stop-color="#197bdd"/><stop offset="1" stop-color="#24a1fb"/></linearGradient></defs><title>bn_exam</title><path class="cls-2" d="M514.46,349.77C502.26,364,484.22,376.71,465,376.91c-36.86.37-42.74-35.39-42.74-35.39s-7.81,21.51-37.11,20.37-47.42-37.73-42.56-56.77c5-19.58,11.76-15.73,24.64-11.4s32.2,28.21,42.42,21.38-3.9-12.9-26.92-20.49-36.73-23-30.2-43.27S377,219,379.86,237.82,399.06,283.9,415.09,285s12.63-14.31-5.53-18.13-22.79-20.69-26.62-38.69,4.73-30.4,20.89-36.21,5.72,9.79,13.81,41.39,19.65,16.42,21.16,7.52-15.34-16-17.58-36.52,5.64-21.26,19.92-27.14,12.9-3.91,7.13,16-4.54,29.89-.13,39.82,14,1.58,10.73-9.79-1.64-33.56,9.84-51.92a49.17,49.17,0,0,1,6.4-8.19c10.35-10.59,21.43-11.49,21.43-11.49-3.09,6.42,19.3,15.66,15.31,45.78-1.15,8.7-5.35,16.12-10.37,22.4-12.35,15.47-29.59,24.06-18.48,27.89,7.34,2.52,17-6.32,25.25-16.39A204.9,204.9,0,0,0,525,206.93s6.7,11.43,6.27,20.77c-.26,5.61-9.87,15.9-20.28,24.3-6.87,5.59-14.09,10.36-19.17,12.44-12.76,5.22-28,15.18-.93,12.29a39.68,39.68,0,0,0,16.71-5.94c16.3-10.07,25.1-28.8,26.3-26.88,1.56,2.5-3.31,31.63-8.31,43a21.86,21.86,0,0,1-13.32,12.49c-5.8,2-13.38,2.36-23.11.71-20.52-3.46-36.14,15.85-7.85,20.4a48.21,48.21,0,0,0,23.56-2.23c13.66-4.61,21.74-12.31,24.84-2.57,2.19,6.9-4.07,21.07-15.2,34.06" transform="translate(-25.68 -131.12)"/><path class="cls-2" d="M226.71,348.48A294.06,294.06,0,0,1,237,391.25a200.62,200.62,0,0,0-29.25,11.5,106.93,106.93,0,0,1,30.59-2.24c3.94,29.93,9.25,69.71,2.57,98-19.56-6.83-45.26-26-63.86-37.81Q187.59,452,198.67,444a233.15,233.15,0,0,0-31.55,10,323.37,323.37,0,0,1-51.39-44c12-8.86,25.28-16.13,38.44-23.33a175.62,175.62,0,0,0-50.51,9.82A300.89,300.89,0,0,1,85.1,372.28c-1-1.4-1.89-2.8-2.84-4.23a334.08,334.08,0,0,1-19.42-33l8.08-3.91,42-20.36c-18.52-1.16-35.21,4.77-53.62,7.27-1.49.2-3,.43-4.47.65v0C45.59,295.76,37.37,266.1,32.67,236c3.33-1,6.72-1.82,10.14-2.49s6.94-1.3,10.4-1.71q-5.74-2.18-11.63-4.08c-3.49-1.14-7-2.23-10.62-3.2-2-14.41-3.7-30.1-5.3-47.48,21.2,6,40.7,12,58.62,18.8-.28,3.53-.47,7.05-.61,10.58q-.43,9.45-.17,18.89a133.56,133.56,0,0,1,8-13.51c2.37-3.43,4.85-6.77,7.51-10,18.9,8.09,35.92,17.5,51.27,29.38-2.3,4.2-4.53,8.43-6.83,12.63-5.85,10.84-11.73,21.63-17.57,32.49Q136.6,264,148.3,252.71q6.44-6.22,13.2-12.15a192.39,192.39,0,0,1,32.42,38.29,272.33,272.33,0,0,1,15.17,26.46q-4.79,5.24-9.6,10.48Q188,328.36,176.56,340.88c11.39-5.17,22.79-10.4,34.17-15.57,2.11-1,4.19-1.92,6.28-2.86q5.44,12.73,9.69,26" transform="translate(-25.68 -131.12)"/><path class="cls-3" d="M62.31,221.14l.6.73h-.59q0-.37,0-.75m86,116.64.12.18-.17-.07Zm-111-146.63c2,2.4,22.05,26.3,24,28.72A87.11,87.11,0,0,0,30,217.46l.33,2.55a84.39,84.39,0,0,1,32.87,3.08l.88.26q8.85,10.91,17.49,22a106.83,106.83,0,0,0-44.28,6.58l-1.79.69q.25,1.29.5,2.56l2.19-.84a104.16,104.16,0,0,1,45.52-6.25q3.1,4,6.17,8a149.08,149.08,0,0,0-44.8,9.45q-3.19,1.19-6.34,2.51.29,1.27.59,2.53,3.29-1.39,6.64-2.64a145.81,145.81,0,0,1,45.82-9.36q6.44,8.44,12.76,17a278.28,278.28,0,0,0-57.89,21q.41,1.23.82,2.46a275.79,275.79,0,0,1,58.72-21.16q14.84,20.1,29,40.68A227.62,227.62,0,0,0,93,329.7a221.94,221.94,0,0,0-26.66,12l1.23,2.25A219.32,219.32,0,0,1,93.89,332.1a225.1,225.1,0,0,1,43-11.3q5.57,8.12,11,16.32A167.55,167.55,0,0,0,75,356.63l1.35,2.19a165,165,0,0,1,73.15-19.18h.07q10.38,15.64,20.37,31.54a253,253,0,0,0-58.43,14.15q-6.48,2.41-12.81,5.17l1.68,2.07q6-2.57,12-4.84a250.44,250.44,0,0,1,59-14.15q4.83,7.71,9.56,15.48-8.93,2.36-17.61,5.59a188.91,188.91,0,0,0-41.55,21.67l1.85,1.84a186.23,186.23,0,0,1,58.69-26.81q4.85,8,9.6,16a141.77,141.77,0,0,0-58.7,19.84l2,1.79a139.14,139.14,0,0,1,58.14-19.2q6.61,11.25,13,22.61a114.42,114.42,0,0,0-51.71,12.64l2.28,1.72a112,112,0,0,1,11-4.77,110.83,110.83,0,0,1,39.9-7q7.62,13.56,15,27.27a68.31,68.31,0,0,0-31.9,7.56l2.45,1.64q2.86-1.39,5.84-2.5a65.3,65.3,0,0,1,25-4.1c16.67,31.28-1.54,8.83,12.89,41.19H240c-14.58-32.77,3.45-10.72-13.43-42.38a54.71,54.71,0,0,1,16.82-17.57q-.1-1.46-.21-2.92a57.5,57.5,0,0,0-18,17.86q-7.36-13.74-15-27.33a112.62,112.62,0,0,1,29.78-21.08l-.34-2.68a115.23,115.23,0,0,0-30.75,21.44q-6.56-11.61-13.31-23.11a101.43,101.43,0,0,1,38.27-33.79q-.29-1.29-.59-2.58a104,104,0,0,0-39.13,33.92q-4.63-7.84-9.35-15.62a171.19,171.19,0,0,1,44.52-33.5q-.36-1.26-.74-2.51A173.82,173.82,0,0,0,183.34,388q-4.8-7.88-9.69-15.69a144.46,144.46,0,0,1,48.48-37.06q-.45-1.21-.91-2.41a147.05,147.05,0,0,0-49,37.18q-10.31-16.4-21-32.54a169.62,169.62,0,0,1,41.7-60.22l-1.45-2.16a172.35,172.35,0,0,0-42,59.8q-5.27-7.9-10.64-15.74A214.53,214.53,0,0,1,179.28,259l-1.67-2a217.21,217.21,0,0,0-40.48,59.65q-14-20.27-28.57-40.08a167.63,167.63,0,0,1,32.2-52.41l-2.15-1.45a170.25,170.25,0,0,0-31.85,51.41q-6.43-8.68-13-17.27a112.37,112.37,0,0,1,25.06-45.78l-2.36-1.22a115,115,0,0,0-24.66,44.44q-2.8-3.66-5.63-7.3a137.36,137.36,0,0,1,21.27-41.53l-2.39-1.09a140,140,0,0,0-20.79,40.16q-9.58-12.28-19.41-24.37a111.17,111.17,0,0,1,4-29.91l-2.44-.82a113.88,113.88,0,0,0-4.12,27.62c-1.67-2-21.43-25.56-23.1-27.59a1.28,1.28,0,1,0-2,1.63Z" transform="translate(-25.68 -131.12)"/><path class="cls-4" d="M149.37,237.25H478.53a11.23,11.23,0,0,1,11.2,11.2v209a11.23,11.23,0,0,1-11.2,11.2H149.37a11.23,11.23,0,0,1-11.2-11.2v-209a11.23,11.23,0,0,1,11.2-11.2" transform="translate(-25.68 -131.12)"/><path class="cls-5" d="M148.59,247.64H479.31a0,0,0,0,1,0,0V443.44a0,0,0,0,1,0,0H148.59a0,0,0,0,1,0,0V247.67a0,0,0,0,1,0,0" transform="translate(-25.68 -131.12)"/><path class="cls-6" d="M279.57,468.64h68.75v34.27h36.39a3.24,3.24,0,0,1,3.23,3.2h0v3.26H240v-3.26h0a3.24,3.24,0,0,1,3.23-3.2h36.39Z" transform="translate(-25.68 -131.12)"/><path class="cls-7" d="M313.95,452.3a4,4,0,1,1-4,4,4,4,0,0,1,4-4" transform="translate(-25.68 -131.12)"/><rect class="cls-8" x="56.55" y="378.24" width="519.05" height="1.17"/><rect class="cls-9" x="184.34" y="18.73" width="225.42" height="293.62"/><path class="cls-10" d="M399.68,240.5a22.12,22.12,0,1,0,6.48,15.64,22,22,0,0,0-6.48-15.64M384,228.67a27.47,27.47,0,1,1-19.42,8A27.38,27.38,0,0,1,384,228.67Z" transform="translate(-25.68 -131.12)"/><path class="cls-11" d="M398.47,190H393v-4h16.1v4h-5.5v13.95h-5.09Zm-13.33,14.31a16.62,16.62,0,0,1-4.24-.54,10.42,10.42,0,0,1-3.34-1.44l1.67-3.75a10.8,10.8,0,0,0,2.8,1.28,10.66,10.66,0,0,0,3.13.49q2.93,0,2.93-1.46a1.21,1.21,0,0,0-.83-1.14,15.36,15.36,0,0,0-2.68-.78,25.61,25.61,0,0,1-3.39-.94,5.71,5.71,0,0,1-2.34-1.61,4.34,4.34,0,0,1-1-3,5.16,5.16,0,0,1,.9-3,6,6,0,0,1,2.68-2.09,11,11,0,0,1,4.38-.77,15.45,15.45,0,0,1,3.49.4,10.7,10.7,0,0,1,3,1.17l-1.57,3.78a10.47,10.47,0,0,0-5-1.39,4.18,4.18,0,0,0-2.21.45,1.35,1.35,0,0,0-.69,1.17,1.16,1.16,0,0,0,.82,1.08,14.85,14.85,0,0,0,2.65.74,24.78,24.78,0,0,1,3.4.94,5.88,5.88,0,0,1,2.34,1.59,4.25,4.25,0,0,1,1,3,5.06,5.06,0,0,1-.9,2.93,6.13,6.13,0,0,1-2.7,2.09A10.91,10.91,0,0,1,385.14,204.27ZM376.54,200v3.93H362.1v-18h14.1v3.93h-9.07v3h8v3.8h-8V200Zm-26.38-10h-5.52v-4h16.1v4h-5.5v13.95h-5.09Zm-13.59,10v3.93H322.14v-18h14.1v3.93h-9.07v3h8v3.8h-8V200Zm-17.49-14v18h-4.19L307,194.33v9.58h-5v-18h4.19l7.94,9.58v-9.58Zm-25.27,0h5.09v18h-5.09Zm-15.13,0h5.09v13.95h8.58v4H278.68Zm-3.06,0v18h-4.19l-7.94-9.58v9.58h-5v-18h4.19l7.94,9.58v-9.58Zm-29.23,14.13a4.82,4.82,0,0,0,2.47-.64,4.62,4.62,0,0,0,1.75-1.81,5.93,5.93,0,0,0,0-5.37,4.62,4.62,0,0,0-1.75-1.81,5.06,5.06,0,0,0-4.93,0,4.62,4.62,0,0,0-1.75,1.81,5.93,5.93,0,0,0,0,5.37,4.62,4.62,0,0,0,1.75,1.81A4.81,4.81,0,0,0,246.39,200.06Zm0,4.21a10.75,10.75,0,0,1-5.12-1.21,9.19,9.19,0,0,1,0-16.28,11.48,11.48,0,0,1,10.25,0,9.19,9.19,0,0,1,0,16.28A10.75,10.75,0,0,1,246.39,204.27Z" transform="translate(-25.68 -131.12)"/><path class="cls-12" d="M382.81,260l21-19.55a4.05,4.05,0,0,1,5.52,5.94l-24.06,22.42-.06,0a4.07,4.07,0,0,1-5.71-.38l-11.59-13.27a4.05,4.05,0,0,1,6.09-5.34Z" transform="translate(-25.68 -131.12)"/><path class="cls-10" d="M399.68,304.89a22.12,22.12,0,1,0,6.48,15.64,22,22,0,0,0-6.48-15.64M384,293.06a27.47,27.47,0,1,1-19.42,8A27.38,27.38,0,0,1,384,293.06Z" transform="translate(-25.68 -131.12)"/><path class="cls-10" d="M399.68,369.28a22.12,22.12,0,1,0,6.48,15.64,22,22,0,0,0-6.48-15.64M384,357.45a27.47,27.47,0,1,1-19.42,8A27.38,27.38,0,0,1,384,357.45Z" transform="translate(-25.68 -131.12)"/><path class="cls-13" d="M236.9,235.88h34.44a3.59,3.59,0,1,1,0,7.18H236.9a3.59,3.59,0,1,1,0-7.18" transform="translate(-25.68 -131.12)"/><path class="cls-7" d="M236.9,251.07H342.51a3.59,3.59,0,1,1,0,7.18H236.9a3.59,3.59,0,1,1,0-7.18" transform="translate(-25.68 -131.12)"/><path class="cls-7" d="M236.9,267.92h72.74a3.59,3.59,0,1,1,0,7.18H236.9a3.59,3.59,0,1,1,0-7.18" transform="translate(-25.68 -131.12)"/><path class="cls-13" d="M236.9,300.27h34.44a3.59,3.59,0,0,1,0,7.18H236.9a3.59,3.59,0,1,1,0-7.18" transform="translate(-25.68 -131.12)"/><path class="cls-13" d="M236.9,364.66h34.44a3.59,3.59,0,0,1,0,7.18H236.9a3.59,3.59,0,0,1,0-7.18" transform="translate(-25.68 -131.12)"/><path class="cls-7" d="M236.9,315.47H342.51a3.59,3.59,0,1,1,0,7.18H236.9a3.59,3.59,0,1,1,0-7.18" transform="translate(-25.68 -131.12)"/><path class="cls-7" d="M236.9,379.86H342.51a3.59,3.59,0,1,1,0,7.18H236.9a3.59,3.59,0,0,1,0-7.18" transform="translate(-25.68 -131.12)"/><path class="cls-7" d="M236.9,332.31h72.74a3.59,3.59,0,1,1,0,7.18H236.9a3.59,3.59,0,1,1,0-7.18" transform="translate(-25.68 -131.12)"/><path class="cls-7" d="M236.9,396.7h72.74a3.59,3.59,0,1,1,0,7.18H236.9a3.59,3.59,0,1,1,0-7.18" transform="translate(-25.68 -131.12)"/><rect class="cls-14" x="184.34" width="225.42" height="18.73"/><path class="cls-5" d="M401.76,135.89a4,4,0,1,1-4,4,4,4,0,0,1,4-4" transform="translate(-25.68 -131.12)"/><path class="cls-5" d="M413.25,135.89a4,4,0,1,1-4,4,4,4,0,0,1,4-4" transform="translate(-25.68 -131.12)"/><path class="cls-5" d="M424.74,135.89a4,4,0,1,1-4,4,4,4,0,0,1,4-4" transform="translate(-25.68 -131.12)"/><path class="cls-15" d="M505.07,374.29c-5.06,22.2.47,80.26,3,121.3.1,2-.4,3.33-3.43,5-2.72,1.49-7.81,2.79-9.42,4.33-1.16,1.11-6.53,5.76,9.37,5.34,11.29-.3,13,1.15,14.22-.68.17-.26,10.37-88.51,11.55-95.58,2,9,26.54,83.84,26.54,83.88-.19,1.36-2,5-4,7.22-.62,2.21-4.43,5.37,6.52,5.28s8.7-2.86,9.87-4.64C564.41,460,554,382.62,551.54,370.46l-.68-.63c-2-78.22-40.27-51.52-36.52-4.16.42,5.35-7.39,1.25-9.27,8.63" transform="translate(-25.68 -131.12)"/><path class="cls-4" d="M519.85,318.59c-3.48,7.63-65.26,8.32-63.32-3.12.65-3.84,2.56-5.67,4.47-3,3.45,4.6,45.09-5.39,57.35-8.78,1.15-.74,4.87,9.85,1.5,14.92" transform="translate(-25.68 -131.12)"/><path class="cls-4" d="M555.3,328.75c-2.83,15.1-1.5,40.32.64,59.91-21.31,3.66-41.18,2.69-53.91-1.36.6-14.06,5-74.85,16.3-83.63,12.78-3.58,30.75-2.76,39.81,3.17,1,.63-2.52,20.14-2.86,21.92" transform="translate(-25.68 -131.12)"/><path class="cls-16" d="M522.26,291.72a13.8,13.8,0,0,0,5.94,6.4l-.08,4.34-.63.54c-2.47,2.65.2,8.08,3,7.91,7.11.35,12.57-5.48,10.44-8.65l-.93-1-.21-6.14c.37,0,3-1.54,3.83-1.78a4.13,4.13,0,0,0,2-3.39c.08-1.62-2.42-1.09-2.42-1.09,3-4.14,6.46-7.53,2-11.26s-14.66-5.91-14.66-5.91l-6.15-2.13c.78,2.12-.26,9.2-1.84,13.61-1.41,4-2.38,4.58-.36,8.58" transform="translate(-25.68 -131.12)"/><path class="cls-17" d="M536.92,295.95s-3.48,6-6.33,6.5-1.4.14-2.46,0l.08-4.34c2,.32,3.89.16,8.71-2.18" transform="translate(-25.68 -131.12)"/><path class="cls-15" d="M525.75,278.3c5.18,2.65,11.14-.49,14.16,3.06,1.49,1.76,1.34,4.3-.33,8.21-.49,1.15-1.15,2,.8,1.1.89-.41,2.37-1,2.87-.59,1.12.91.55,2.81-.34,3.42-.4.27-1.15.68-1.15.68,7-1.32,9.87-7.61,9.77-12.67a4.68,4.68,0,0,0-1.54-3.71c2.2-22-38.61-15.11-25.47-.4a7.74,7.74,0,0,0,1.24.89" transform="translate(-25.68 -131.12)"/><path class="cls-4" d="M558.16,306.83c11.34,7.31,23,35,20.47,42.48s-24.28,22.95-30.75,20.24c-3-1.27-1.38-3.71.19-6.29,5.84-4.2,16.29-15.56,16.68-17.43-.61-5-5.3-12.48-9.5-17.14-6.37-7-7.71-26.22,2.92-21.86" transform="translate(-25.68 -131.12)"/><polygon class="cls-12" points="372.95 121.94 371.07 124.14 380.15 133.91 384.61 128.68 372.95 121.94"/><path class="cls-7" d="M437.84,274.17l-29.47-15.64a9.92,9.92,0,0,0-4.23,5L425,289.24l9.94-9Z" transform="translate(-25.68 -131.12)"/><path class="cls-13" d="M425,289.24,544.36,391,557.21,376,437.84,274.17c-1.55-1.32-5.68,1-9.23,5.15s-5.17,8.6-3.63,9.92" transform="translate(-25.68 -131.12)"/><path class="cls-12" d="M551.5,382.68l1.84-2.16-121.93-104a25.79,25.79,0,0,0-5.12,6l121.93,104Z" transform="translate(-25.68 -131.12)"/><path class="cls-18" d="M548,381.12c-3.55,4.16-5.17,8.6-3.63,9.92s5.68-1,9.23-5.15,5.17-8.6,3.63-9.92-5.68,1-9.23,5.15" transform="translate(-25.68 -131.12)"/><path class="cls-19" d="M544.36,391,425,289.24l-.33-.41c-.67-1.21,0-3.64,1.63-6.33l3.15,2.69,116.21,99.14c-1.84,3-2.44,5.74-1.29,6.72" transform="translate(-25.68 -131.12)"/><path class="cls-7" d="M559.78,404.14,545.5,392a2.06,2.06,0,0,1-1.65-.37c-1.67-1.42.08-6.22,3.91-10.71s8.29-7,10-5.55a2.11,2.11,0,0,1,.63,1.65l14.16,12.09Z" transform="translate(-25.68 -131.12)"/><path class="cls-20" d="M547.24,380.49a23.18,23.18,0,0,0-4.14,6.71c-.76,2.08-.77,3.82.12,4.79v0c.07.06.15.14.22.19a3.06,3.06,0,0,0,2.71.38l-1.79-1.44-.1-.06c-.55-.52-.46-1.78.13-3.41a21.78,21.78,0,0,1,3.88-6.27l0,0a21.8,21.8,0,0,1,5.6-4.84c1.54-.86,2.79-1.14,3.38-.64a1,1,0,0,1,.26.36l1.48,1.31a3.06,3.06,0,0,0-.84-2.72l-.05,0c-1.08-.87-2.87-.61-4.9.52a23.21,23.21,0,0,0-6,5.15Z" transform="translate(-25.68 -131.12)"/><path class="cls-21" d="M563,394.72c-3.55,4.16-4.75,8.11-3.2,9.43s5.26-.49,8.8-4.65,5.47-9,3.93-10.37-6,1.43-9.53,5.59" transform="translate(-25.68 -131.12)"/><path class="cls-16" d="M460.6,319.31s3.91-.94,3.43-1.79-3.6-.63-3.6-.63l3-2.52s.11-.93-1.13-.9a16.68,16.68,0,0,0-3.11.56l3.17-2.53s-.14-1.16-.74-.92-2.91,1.45-2.91,1.45l2.27-2.67a1.23,1.23,0,0,0-1.49-.21,20.38,20.38,0,0,0-2.34,1.31c-5.74,3.94,2.21,9.78,3.51,8.84" transform="translate(-25.68 -131.12)"/><path class="cls-16" d="M548.64,363l-2.78,1.35-5.28-.61c-.77-.23-5.65-.67-4.18.71,1,1,4,2.4,4,2.53-.5,1.3-6.37,4.78-5.54,5.52,4.92,4.38,13.63.16,16.32-3.31,4.28-1.06-.92-5.73-2.51-6.19" transform="translate(-25.68 -131.12)"/><path class="cls-22" d="M101.76,456.7h71.53c5,0,9,5.93,9,13.17h0c0,7.24-4.06,13.17-9,13.17H101.76c-5,0-9-5.93-9-13.17h0c0-7.24,4.06-13.17,9-13.17" transform="translate(-25.68 -131.12)"/><path class="cls-23" d="M122.54,456.7h25.65c-5,0-9,5.93-9,13.17h0c0,7.24,4.06,13.17,9,13.17H122.54c-5,0-9-5.92-9-13.17h0c0-7.24,4.06-13.17,9-13.17" transform="translate(-25.68 -131.12)"/><path class="cls-24" d="M170,479h67.67a17.8,17.8,0,0,1,0-18.31H170c-2.27,0-4.12,4.13-4.12,9.15S167.69,479,170,479" transform="translate(-25.68 -131.12)"/><path class="cls-25" d="M235.09,470.22a18.52,18.52,0,0,1,2.53-9.51H170c-2.27,0-4.12,4.13-4.12,9.15,0,.12,0,.24,0,.35Z" transform="translate(-25.68 -131.12)"/><path class="cls-23" d="M239.74,483h-70c-3.26,0-6.71-6-6.71-13.25s3.45-13.09,6.71-13.09h70l0,3.94-69.75.07c-2.27,0-4.12,4.13-4.12,9.15S167.69,479,170,479L239.7,479Z" transform="translate(-25.68 -131.12)"/><path class="cls-26" d="M242.43,483H167.64c-5.19,0-9.44,5.93-9.44,13.17h0c0,7.24,4.25,13.17,9.44,13.17h74.79c5.19,0,9.44-5.93,9.44-13.17h0c0-7.24-4.25-13.17-9.44-13.17" transform="translate(-25.68 -131.12)"/><path class="cls-27" d="M220.71,483H193.89c5.19,0,9.44,5.93,9.44,13.17h0c0,7.24-4.25,13.17-9.44,13.17h26.82c5.19,0,9.44-5.92,9.44-13.17h0c0-7.24-4.25-13.17-9.44-13.17" transform="translate(-25.68 -131.12)"/><path class="cls-24" d="M171.13,505.35H100.38a17.14,17.14,0,0,0,0-18.31h70.75c2.37,0,4.31,4.13,4.31,9.15s-1.94,9.15-4.31,9.15" transform="translate(-25.68 -131.12)"/><path class="cls-25" d="M103,496.55a17.89,17.89,0,0,0-2.64-9.51h70.75c2.37,0,4.31,4.13,4.31,9.15,0,.12,0,.24,0,.35Z" transform="translate(-25.68 -131.12)"/><path class="cls-27" d="M98.17,509.37h73.2c3.41,0,7-6,7-13.25s-3.61-13.09-7-13.09H98.17l0,3.94,72.93.07c2.37,0,4.31,4.13,4.31,9.15s-1.94,9.15-4.31,9.15l-72.93-.07Z" transform="translate(-25.68 -131.12)"/><path class="cls-28" d="M166.07,491.06H158c-3.11,1.63-2.21,8.1-4.05,12.33l4.78-3.5,3.47,3.27c2.69-3.84,1.15-10.39,3.9-12.11" transform="translate(-25.68 -131.12)"/><path class="cls-23" d="M177.53,465h8.1c3.11,1.63,2.21,8.1,4.05,12.33l-4.78-3.5-3.47,3.27c-2.69-3.84-1.15-10.39-3.9-12.11" transform="translate(-25.68 -131.12)"/><path class="cls-22" d="M378,496.4a26.73,26.73,0,1,0-.27-37.8,26.73,26.73,0,0,0,.27,37.8m-4.24,4.3a32.77,32.77,0,1,0-.34-46.34A32.77,32.77,0,0,0,373.72,500.7Z" transform="translate(-25.68 -131.12)"/><path class="cls-23" d="M429.26,490l1.63-5.44,55.73,15.26a4.25,4.25,0,0,1,2.61,5.08c-.59,2-3.06,3.55-5,2.92Z" transform="translate(-25.68 -131.12)"/><path class="cls-23" d="M426.53,489.34l1.8-6a1.4,1.4,0,1,1,2.68.8l-1.8,6a1.4,1.4,0,1,1-2.68-.8" transform="translate(-25.68 -131.12)"/><g class="cls-29"><rect class="cls-30" x="414.39" y="354.89" width="50.43" height="23.53"/></g><path class="cls-31" d="M377.69,458.6a26.74,26.74,0,0,0-3,33.9l.05,0,.7,1.07a26.73,26.73,0,1,0,2.25-34.93" transform="translate(-25.68 -131.12)"/><path class="cls-32" d="M378.83,464.68a1.91,1.91,0,1,1,2.86,2.52c-3.45,3.93-4.43,10.53-2.58,15.38a1.91,1.91,0,0,1-3.56,1.37,19.68,19.68,0,0,1-.88-10.16,18.52,18.52,0,0,1,4.16-9.11" transform="translate(-25.68 -131.12)"/><path class="cls-32" d="M412.65,466.69a17.43,17.43,0,0,1,2.52,5.49,1.66,1.66,0,0,0,2.07,1.38,2,2,0,0,0,1.52-2.29,19.19,19.19,0,0,0-4-7.94,1.92,1.92,0,0,0-3.11.68c-.54,1.17.41,1.81,1,2.69" transform="translate(-25.68 -131.12)"/><path class="cls-33" d="M141.09,332.1a25.75,25.75,0,0,0,1.53,8.33,24,24,0,0,1-.1,14.81c-1.44,4.9,2.81,13.41,3.85,13.75s14.42,2.77,17.19,2.54,15.58-15.23,15.58-15.23l-1.38-13.15Z" transform="translate(-25.68 -131.12)"/><path class="cls-16" d="M121,431.41,95,449.7l-1.15,81.45-.58.67-.45.51c-.36.4-.71.78-1.06,1.13l-.48.47c-2.59,2.44-5.72,2.82-8.28,3.24-2,.32-3.51.44-5,2.94a1.34,1.34,0,0,0-.12.24,1.49,1.49,0,0,0,1.31,2l23.18,1.11a2.24,2.24,0,0,0,2.32-1.81,2.2,2.2,0,0,0,0-.47L104,531a.29.29,0,0,0,0,0c2.13-19.66,8.87-48.18,7-71.48,0,0,28.57-33.48,28.56-34.54s-18.54,6.5-18.54,6.5" transform="translate(-25.68 -131.12)"/><path class="cls-16" d="M121.33,442.84c1,8.7-5.06,13.86-4.05,22.56,0,21.78,15.28,46.88,20.44,68.87.17.73-1.13,7.65-1,8.37,2.29,2.45,8.83,5.91,9.52-5.39-2.92-19-6.56-49.68-14.08-72.79l4.75-23Z" transform="translate(-25.68 -131.12)"/><path class="cls-33" d="M133.78,410.84c-5,16.65-50.17,9.65-40.22,64.52,17.05,2.86,39.43,3.61,53,.35,7.15-25.18,47.36-6.49,26.14-64.27-4.35-10.16-37.35-7.1-39-.6" transform="translate(-25.68 -131.12)"/><path class="cls-34" d="M136.6,367.82s7.6,26.43,2.55,38.42c-.64,1.53-3.09,2.13-5.24,4.26-4.6,4.55-10.51,10.88-13.24,11.52-9.93,2.3-14.43.42-13.42-6.1.31-2,4-4,8.17-5.28,3.57-1.11,8.4-9.65,10.49-14.53,6.06-14.15,5.39-35.68,16.08-42.78,1.22-.78-1.83,9.15-5.39,14.51" transform="translate(-25.68 -131.12)"/><path class="cls-35" d="M184.43,357.53c4.43,18.08-12.94,17.15-8.92,53.64-13.29,1.85-30.3,2.48-41.73-.33,1.83-13.43-.06-23.94-.59-31.27a37,37,0,0,1,6.25-24.36c3.91-6.05,37.51-8.85,45,2.31" transform="translate(-25.68 -131.12)"/><path class="cls-34" d="M174.9,400.89a56.19,56.19,0,0,0,.61,10.29,123,123,0,0,1-13.42,1.32c1.11-2.44,10.15-9.82,12.82-11.61" transform="translate(-25.68 -131.12)"/><path class="cls-36" d="M150.18,348.47l1.12,4.32-.48.71c-1.72,3.31,2.43,8,5.17,7,7.15-1.61,11-8.9,8-11.45l-1.21-.77-1.9-6c.36-.12,2.59-2.36,3.31-2.83a4.25,4.25,0,0,0,1.09-3.93c-.37-1.63-2.7-.42-2.7-.42,1.86-4.94,4.33-9.24-1.11-11.72s-16.16-1.82-16.16-1.82l-6.68-.42c1.36,1.89,2.34,6.47,2,11.28-.49,6.84,3.65,14.85,9.59,16" transform="translate(-25.68 -131.12)"/><path class="cls-17" d="M158.21,343.91s-1.8,6.87-4.49,8.19-1.35.52-2.44.69l-1.12-4.32c2-.23,3.9-.91,8-4.57" transform="translate(-25.68 -131.12)"/><path class="cls-35" d="M180.56,354.52c16.49,5.11,14.27,40.27,11.92,50.35-2,8.18-28.87,29.89-35.95,27.67-3.41-1.07-5.68-5.06-1-8.73,1.62-1.91,22.87-21.26,23.1-23.27.53-13-9.51-46.76,2-46" transform="translate(-25.68 -131.12)"/><polygon class="cls-37" points="86.45 297.98 129.54 298.62 114.6 311.45 67.23 311.45 86.45 297.98"/><polygon class="cls-38" points="53.73 276.6 107.67 276.6 114.6 311.45 60.66 311.45 53.31 276.9 53.73 276.6"/><path class="cls-36" d="M154.24,426l-1.64.9-5.87.1c-.69-.16-5-.33-3.65.82,1,.81,3.4,1.77,3.37,1.88-1.95,1.45-7.21,4.67-7.26,4.81-.73,2,4.44-.69,5.27-1,.22-.08-3.39,2.76-3.2,2.88a1.75,1.75,0,0,0,1.71.17c1.1-.43,3.28-2.15,3.54-2s-3.25,2.88-3,3a1.54,1.54,0,0,0,1.29,0c1.13-.48,3.12-2.22,3.43-2.16s-2.06,1.83-2.11,2.12.37.41.58.34c5.79-1.93,4.24-3.66,10.94-5.69,3.72-1.13-2-5.75-3.41-6.09" transform="translate(-25.68 -131.12)"/><path class="cls-33" d="M153.64,331.7s-9.57,3.65-13.62,1.73c-7-3.32-5.93-19.1,11.79-19.28,15.06.26,14.11,18.36,33.75,19.72,10.41.72,16.77,9.42,13.25,23.79,0,0-1.58-4.57-5.42-4,6.27,7.24,0,15.73-1,17.2-2.24-11-8.83-18.66-27.56-20.9-7.78-2.94-.94-19.52-11.2-18.25" transform="translate(-25.68 -131.12)"/><path class="cls-33" d="M83.8,536.48s-8.23,1.59-8.06,4.1c.33,5.07,28.23,4,28.39,3.78,1.08-1.14,1.64-6.79.46-8.58-.88-1.33-12.23,4.52-20.78.7" transform="translate(-25.68 -131.12)"/><path class="cls-33" d="M134.18,546.16c.18,3.23,11.84,2.3,13.59,1.33,2.61-1.44-.57-11.59-1.55-10.46,0,0-3,4.79-6.64,3.82s-2.33-2-2.95-.82c-1.15,2.27-2.61,3.16-2.45,6.13" transform="translate(-25.68 -131.12)"/><path class="cls-31" d="M109,421.46a3.24,3.24,0,1,1-3.38,3.24,3.31,3.31,0,0,1,3.38-3.24" transform="translate(-25.68 -131.12)"/></svg>