<?xml version="1.0" encoding="utf-8"?>
<!-- Generator: Adobe Illustrator 21.0.2, SVG Export Plug-In . SVG Version: 6.00 Build 0)  -->
<svg version="1.1" id="圖層_1" xmlns="http://www.w3.org/2000/svg" xmlns:xlink="http://www.w3.org/1999/xlink" x="0px" y="0px"
	 viewBox="0 0 626 626" style="enable-background:new 0 0 626 626;" xml:space="preserve">
<style type="text/css">
	.st0{fill:#BBCAEA;}
	.st1{fill:#D1DCF8;}
	.st2{fill:#FFFFFF;}
	.st3{fill:#64D3FF;}
	.st4{fill:#7CD194;}
	.st5{fill:#F3F6FD;}
	.st6{fill:#FE7B73;}
	.st7{fill:#FEC9AC;}
	.st8{opacity:0.5;}
	.st9{fill:#FFAB90;}
	.st10{fill:#2E363A;}
	.st11{fill:#3A4146;}
	.st12{fill:#42C1F4;}
	.st13{fill:#13B1E2;}
	.st14{fill:#61BA76;}
	.st15{fill:#54A866;}
	.st16{fill:#FCC230;}
	.st17{fill:#003567;}
	.st18{fill:#022E4F;}
	.st19{fill:#4F2D2B;}
	.st20{fill:#09A5C9;}
	.st21{fill:#EF9B84;}
	.st22{fill:#4A5258;}
	.st23{fill:#FFD964;}
</style>
<g id="Inventory_List">
	<g>
		<g>
			<g>
				<circle class="st0" cx="51.8" cy="93.1" r="5.3"/>
			</g>
		</g>
		<g>
			<g>
				<g>
					<g>
						<path class="st1" d="M64.1,441c0.7,0,1.3,1.3,1.6,3.8v6.5c-0.3,2.6-0.9,3.8-1.6,3.8c-0.7,0-1.3-1.3-1.6-3.8v-6.5
							C62.8,442.3,63.4,441,64.1,441z"/>
					</g>
				</g>
			</g>
			<g>
				<g>
					<g>
						<path class="st1" d="M64.1,412.7c0.7,0,1.3,1.3,1.6,3.8v6.5c-0.3,2.6-0.9,3.8-1.6,3.8c-0.7,0-1.3-1.3-1.6-3.8v-6.5
							C62.8,414,63.4,412.7,64.1,412.7z"/>
					</g>
				</g>
			</g>
			<g>
				<g>
					<g>
						<path class="st1" d="M64.1,384.4c0.7,0,1.3,1.3,1.6,3.8v6.5c-0.3,2.6-0.9,3.8-1.6,3.8c-0.7,0-1.3-1.3-1.6-3.8v-6.5
							C62.8,385.7,63.4,384.4,64.1,384.4z"/>
					</g>
				</g>
			</g>
			<g>
				<g>
					<g>
						<path class="st1" d="M80.8,372.9c0,0.7-1.3,1.3-3.8,1.6h-6.5c-2.6-0.3-3.8-0.9-3.8-1.6c0-0.7,1.3-1.3,3.8-1.6H77
							C79.6,371.6,80.8,372.2,80.8,372.9z"/>
					</g>
				</g>
			</g>
			<g>
				<g>
					<g>
						<path class="st1" d="M95.4,386.6c-0.7,0-1.3-1.3-1.6-3.8v-6.5c0.2-1.7,0.5-2.8,0.9-3.4l0.7,0.7c-0.3-0.2-0.4-0.4-0.4-0.7
							c0-0.2,0.1-0.5,0.4-0.7l0.1-0.1l0.5,0.8c0.4,0.6,0.7,1.7,0.9,3.4v6.5C96.7,385.3,96.1,386.6,95.4,386.6z"/>
					</g>
				</g>
			</g>
			<g>
				<g>
					<g>
						<path class="st1" d="M95.4,414.9c-0.7,0-1.3-1.3-1.6-3.8v-6.5c0.3-2.6,0.9-3.8,1.6-3.8c0.7,0,1.3,1.3,1.6,3.8v6.5
							C96.7,413.6,96.1,414.9,95.4,414.9z"/>
					</g>
				</g>
			</g>
			<g>
				<g>
					<g>
						<path class="st1" d="M69.2,416.9c0-0.7,1.3-1.3,3.8-1.6h6.5c2.6,0.3,3.8,0.9,3.8,1.6c0,0.7-1.3,1.3-3.8,1.6H73
							C70.5,418.2,69.2,417.6,69.2,416.9z"/>
					</g>
				</g>
			</g>
			<g>
				<g>
					<g>
						<path class="st1" d="M51.8,406c0.7,0,1.3,1.3,1.6,3.8v5.5c0,0,0,0-0.1,0.1c-0.1,0.1,0,0.2,0,0.3c0.2,0.1,0.7,0.2,0.9,0.4
							c0.5,0.3,0.8,0.6,0.8,0.9s-0.3,0.6-0.8,0.9c-0.3,0.1-0.5,0.2-1.1,0.4c-0.7,0.1-1.7,0.2-2.8,0.3c0-0.3,0-0.7-0.1-1v-7.5
							C50.5,407.3,51.1,406,51.8,406z"/>
					</g>
				</g>
			</g>
			<g>
				<g>
					<g>
						<path class="st1" d="M51.8,377.7c0.7,0,1.3,1.3,1.6,3.8v6.5c-0.3,2.6-0.9,3.8-1.6,3.8c-0.7,0-1.3-1.3-1.6-3.8v-6.5
							C50.5,379,51.1,377.7,51.8,377.7z"/>
					</g>
				</g>
			</g>
			<g>
				<g>
					<g>
						<path class="st1" d="M51.8,349.4c0.7,0,1.3,1.3,1.6,3.8v6.5c-0.3,2.6-0.9,3.8-1.6,3.8c-0.7,0-1.3-1.3-1.6-3.8v-6.5
							C50.5,350.7,51.1,349.4,51.8,349.4z"/>
					</g>
				</g>
			</g>
			<g>
				<g>
					<g>
						<path class="st1" d="M51.8,321.1c0.7,0,1.3,1.3,1.6,3.8v6.5c-0.3,2.6-0.9,3.8-1.6,3.8c-0.7,0-1.3-1.3-1.6-3.8V325
							C50.5,322.4,51.1,321.1,51.8,321.1z"/>
					</g>
				</g>
			</g>
			<g>
				<g>
					<g>
						<path class="st1" d="M51.8,292.8c0.7,0,1.3,1.3,1.6,3.8v6.5c-0.3,2.6-0.9,3.8-1.6,3.8c-0.7,0-1.3-1.3-1.6-3.8v-6.5
							C50.5,294.1,51.1,292.8,51.8,292.8z"/>
					</g>
				</g>
			</g>
			<g>
				<g>
					<g>
						<path class="st1" d="M51.8,264.5c0.7,0,1.3,1.3,1.6,3.8v6.5c-0.3,2.6-0.9,3.8-1.6,3.8c-0.7,0-1.3-1.3-1.6-3.8v-6.5
							C50.5,265.8,51.1,264.5,51.8,264.5z"/>
					</g>
				</g>
			</g>
			<g>
				<g>
					<g>
						<path class="st1" d="M51.8,236.2c0.7,0,1.3,1.3,1.6,3.8v6.5c-0.3,2.6-0.9,3.8-1.6,3.8c-0.7,0-1.3-1.3-1.6-3.8V240
							C50.5,237.5,51.1,236.2,51.8,236.2z"/>
					</g>
				</g>
			</g>
			<g>
				<g>
					<g>
						<path class="st1" d="M51.8,207.9c0.7,0,1.3,1.3,1.6,3.8v6.5c-0.3,2.6-0.9,3.8-1.6,3.8c-0.7,0-1.3-1.3-1.6-3.8v-6.5
							C50.5,209.2,51.1,207.9,51.8,207.9z"/>
					</g>
				</g>
			</g>
			<g>
				<g>
					<g>
						<path class="st1" d="M51.8,179.6c0.7,0,1.3,1.3,1.6,3.8v6.5c-0.3,2.6-0.9,3.8-1.6,3.8c-0.7,0-1.3-1.3-1.6-3.8v-6.5
							C50.5,180.9,51.1,179.6,51.8,179.6z"/>
					</g>
				</g>
			</g>
			<g>
				<g>
					<g>
						<path class="st1" d="M51.8,151.3c0.7,0,1.3,1.3,1.6,3.8v6.5c-0.3,2.6-0.9,3.8-1.6,3.8c-0.7,0-1.3-1.3-1.6-3.8v-6.5
							C50.5,152.6,51.1,151.3,51.8,151.3z"/>
					</g>
				</g>
			</g>
			<g>
				<g>
					<g>
						<path class="st1" d="M51.8,123c0.7,0,1.3,1.3,1.6,3.8v6.5c-0.3,2.6-0.9,3.8-1.6,3.8c-0.7,0-1.3-1.3-1.6-3.8v-6.5
							C50.5,124.3,51.1,123,51.8,123z"/>
					</g>
				</g>
			</g>
			<g>
				<g>
					<g>
						<path class="st1" d="M51.8,94.7c0.7,0,1.3,1.3,1.6,3.8v6.5c-0.3,2.6-0.9,3.8-1.6,3.8c-0.7,0-1.3-1.3-1.6-3.8v-6.5
							C50.5,96,51.1,94.7,51.8,94.7z"/>
					</g>
				</g>
			</g>
			<g>
				<g>
					<g>
						<path class="st1" d="M77.9,92.5c0,0.7-1.3,1.3-3.8,1.6h-6.5c-2.6-0.3-3.8-0.9-3.8-1.6c0-0.7,1.3-1.3,3.8-1.6h6.5
							C76.7,91.2,77.9,91.8,77.9,92.5z"/>
					</g>
				</g>
			</g>
			<g>
				<g>
					<g>
						<path class="st1" d="M106.2,92.5c0,0.7-1.3,1.3-3.8,1.6h-6.5c-2.6-0.3-3.8-0.9-3.8-1.6c0-0.7,1.3-1.3,3.8-1.6h6.5
							C105,91.2,106.2,91.8,106.2,92.5z"/>
					</g>
				</g>
			</g>
			<g>
				<g>
					<g>
						<path class="st1" d="M134.5,92.5c0,0.7-1.3,1.3-3.8,1.6h-6.5c-2.6-0.3-3.8-0.9-3.8-1.6c0-0.7,1.3-1.3,3.8-1.6h6.5
							C133.3,91.2,134.5,91.8,134.5,92.5z"/>
					</g>
				</g>
			</g>
			<g>
				<g>
					<g>
						<path class="st1" d="M162.8,92.5c0,0.7-1.3,1.3-3.8,1.6h-6.5c-2.6-0.3-3.8-0.9-3.8-1.6c0-0.7,1.3-1.3,3.8-1.6h6.5
							C161.6,91.2,162.8,91.8,162.8,92.5z"/>
					</g>
				</g>
			</g>
			<g>
				<g>
					<g>
						<path class="st1" d="M191.1,92.5c0,0.7-1.3,1.3-3.8,1.6h-6.5c-2.6-0.3-3.8-0.9-3.8-1.6c0-0.7,1.3-1.3,3.8-1.6h6.5
							C189.9,91.2,191.1,91.8,191.1,92.5z"/>
					</g>
				</g>
			</g>
			<g>
				<g>
					<g>
						<path class="st1" d="M219.4,92.5c0,0.7-1.3,1.3-3.8,1.6h-6.5c-2.6-0.3-3.8-0.9-3.8-1.6c0-0.7,1.3-1.3,3.8-1.6h6.5
							C218.2,91.2,219.4,91.8,219.4,92.5z"/>
					</g>
				</g>
			</g>
			<g>
				<g>
					<g>
						<path class="st1" d="M247.7,92.5c0,0.7-1.3,1.3-3.8,1.6h-6.5c-2.6-0.3-3.8-0.9-3.8-1.6c0-0.7,1.3-1.3,3.8-1.6h6.5
							C246.5,91.2,247.7,91.8,247.7,92.5z"/>
					</g>
				</g>
			</g>
			<g>
				<g>
					<g>
						<path class="st1" d="M276.1,92.5c0,0.7-1.3,1.3-3.8,1.6h-6.5c-2.6-0.3-3.8-0.9-3.8-1.6c0-0.7,1.3-1.3,3.8-1.6h6.5
							C274.8,91.2,276.1,91.8,276.1,92.5z"/>
					</g>
				</g>
			</g>
			<g>
				<g>
					<g>
						<path class="st1" d="M304.4,92.5c0,0.7-1.3,1.3-3.8,1.6H294c-2.6-0.3-3.8-0.9-3.8-1.6c0-0.7,1.3-1.3,3.8-1.6h6.5
							C303.1,91.2,304.4,91.8,304.4,92.5z"/>
					</g>
				</g>
			</g>
			<g>
				<g>
					<g>
						<path class="st1" d="M332.7,92.5c0,0.7-1.3,1.3-3.8,1.6h-6.5c-2.6-0.3-3.8-0.9-3.8-1.6c0-0.7,1.3-1.3,3.8-1.6h6.5
							C331.4,91.2,332.7,91.8,332.7,92.5z"/>
					</g>
				</g>
			</g>
			<g>
				<g>
					<g>
						<path class="st1" d="M361,92.5c0,0.7-1.3,1.3-3.8,1.6h-6.5c-2.6-0.3-3.8-0.9-3.8-1.6c0-0.7,1.3-1.3,3.8-1.6h6.5
							C359.7,91.2,361,91.8,361,92.5z"/>
					</g>
				</g>
			</g>
			<g>
				<g>
					<g>
						<path class="st1" d="M389.3,92.5c0,0.7-1.3,1.3-3.8,1.6h-6.5c-2.6-0.3-3.8-0.9-3.8-1.6c0-0.7,1.3-1.3,3.8-1.6h6.5
							C388,91.2,389.3,91.8,389.3,92.5z"/>
					</g>
				</g>
			</g>
		</g>
		<g>
			<g>
				<g>
					<g>
						<path class="st1" d="M609.8,141.9v19.9c0,2.8-2.3,5.1-5.1,5.1h-50.2c-2.8,0-5.1-2.3-5.1-5.1v-19.9c0-2.8,2.3-5.1,5.1-5.1h50.2
							C607.5,136.8,609.8,139.1,609.8,141.9z"/>
					</g>
				</g>
				<g>
					<g>
						<polygon class="st1" points="603.6,166.9 603.6,175.5 592,166.9 						"/>
					</g>
				</g>
			</g>
			<g>
				<g>
					<g>
						<path class="st2" d="M595.4,145.5h-26.1c-0.5,0-0.9-0.4-0.9-0.9c0-0.5,0.4-0.9,0.9-0.9h26.1c0.5,0,0.9,0.4,0.9,0.9
							C596.3,145.1,595.9,145.5,595.4,145.5z"/>
					</g>
				</g>
			</g>
			<g>
				<g>
					<g>
						<path class="st2" d="M595.4,152.8h-10.9c-0.5,0-0.9-0.4-0.9-0.9c0-0.5,0.4-0.9,0.9-0.9h10.9c0.5,0,0.9,0.4,0.9,0.9
							C596.3,152.4,595.9,152.8,595.4,152.8z"/>
					</g>
				</g>
			</g>
			<g>
				<g>
					<g>
						<path class="st2" d="M577.9,152.8h-19.4c-0.5,0-0.9-0.4-0.9-0.9c0-0.5,0.4-0.9,0.9-0.9h19.4c0.5,0,0.9,0.4,0.9,0.9
							C578.8,152.4,578.4,152.8,577.9,152.8z"/>
					</g>
				</g>
			</g>
			<g>
				<g>
					<g>
						<path class="st2" d="M594.9,160h-22c-0.5,0-0.9-0.4-0.9-0.9c0-0.5,0.4-0.9,0.9-0.9h22c0.5,0,0.9,0.4,0.9,0.9
							C595.8,159.6,595.4,160,594.9,160z"/>
					</g>
				</g>
			</g>
		</g>
		<g>
			<g>
				<g>
					<g>
						<path class="st3" d="M528.3,130.3v19.9c0,2.8,2.3,5.1,5.1,5.1h50.2c2.8,0,5.1-2.3,5.1-5.1v-19.9c0-2.8-2.3-5.1-5.1-5.1h-50.2
							C530.5,125.2,528.3,127.5,528.3,130.3z"/>
					</g>
				</g>
				<g>
					<g>
						<polygon class="st3" points="534.4,155.3 534.4,163.8 546.1,155.3 						"/>
					</g>
				</g>
			</g>
			<g>
				<g>
					<g>
						<path class="st2" d="M542.7,133.9h26.1c0.5,0,0.9-0.4,0.9-0.9c0-0.5-0.4-0.9-0.9-0.9h-26.1c-0.5,0-0.9,0.4-0.9,0.9
							C541.8,133.5,542.2,133.9,542.7,133.9z"/>
					</g>
				</g>
			</g>
			<g>
				<g>
					<g>
						<path class="st2" d="M542.7,141.1h10.9c0.5,0,0.9-0.4,0.9-0.9c0-0.5-0.4-0.9-0.9-0.9h-10.9c-0.5,0-0.9,0.4-0.9,0.9
							C541.8,140.7,542.2,141.1,542.7,141.1z"/>
					</g>
				</g>
			</g>
			<g>
				<g>
					<g>
						<path class="st2" d="M560.2,141.1h19.4c0.5,0,0.9-0.4,0.9-0.9c0-0.5-0.4-0.9-0.9-0.9h-19.4c-0.5,0-0.9,0.4-0.9,0.9
							C559.3,140.7,559.7,141.1,560.2,141.1z"/>
					</g>
				</g>
			</g>
			<g>
				<g>
					<g>
						<path class="st2" d="M543.2,148.3h22c0.5,0,0.9-0.4,0.9-0.9c0-0.5-0.4-0.9-0.9-0.9h-22c-0.5,0-0.9,0.4-0.9,0.9
							C542.3,147.9,542.7,148.3,543.2,148.3z"/>
					</g>
				</g>
			</g>
		</g>
		<g>
			<g>
				<g>
					<circle class="st4" cx="407.6" cy="89.6" r="24.9"/>
				</g>
			</g>
			<g>
				<g>
					<g>
						<path class="st2" d="M405,97.7c-0.4,0-0.7-0.1-1-0.4l-6.7-5.9c-0.6-0.6-0.7-1.5-0.1-2.2c0.6-0.6,1.5-0.7,2.2-0.1l5.7,4.9
							l13.6-13.2c0.6-0.6,1.6-0.6,2.2,0c0.6,0.6,0.6,1.6,0,2.2L406,97.2C405.7,97.5,405.4,97.7,405,97.7z"/>
					</g>
				</g>
			</g>
		</g>
		<g>
			<g>
				<g>
					<g>
						<path class="st5" d="M503,191.9v365.7c0,7.1-5.8,12.9-12.9,12.9H123.7c-7.1,0-12.9-5.8-12.9-12.9V137.9
							c0-7.1,5.8-12.9,12.9-12.9H436L503,191.9z"/>
					</g>
				</g>
				<g>
					<g>
						<path class="st0" d="M501.3,191.9h-63.8c-1.8,0-3.2-1.5-3.2-3.2V125L501.3,191.9z"/>
					</g>
				</g>
			</g>
			<g>
				<g>
					<path class="st6" d="M346.4,165v38c0,3.6-3,6.6-6.6,6.6H205.8c-3.6,0-6.6-2.9-6.6-6.6v-38c0-3.6,2.9-6.6,6.6-6.6h134.1
						C343.5,158.5,346.4,161.4,346.4,165z"/>
				</g>
			</g>
			<g>
				<g>
					<g>
						<path class="st2" d="M244.2,198.3c-0.5-0.5-0.7-1.1-0.7-1.8v-23.7c0-0.5,0.2-0.9,0.5-1.3c0.3-0.4,0.8-0.5,1.3-0.5
							c0.5,0,0.9,0.2,1.3,0.5c0.4,0.4,0.5,0.8,0.5,1.3v22.6h13.1c0.5,0,0.9,0.2,1.3,0.5c0.4,0.4,0.5,0.8,0.5,1.3s-0.2,0.9-0.5,1.3
							c-0.4,0.3-0.8,0.5-1.3,0.5H246C245.3,199,244.7,198.8,244.2,198.3z"/>
					</g>
				</g>
				<g>
					<g>
						<path class="st2" d="M266,173.8c-0.4-0.4-0.6-0.9-0.6-1.4v-0.2c0-0.6,0.2-1,0.6-1.4c0.4-0.4,0.9-0.6,1.4-0.6h0.2
							c0.6,0,1,0.2,1.4,0.6c0.4,0.4,0.6,0.9,0.6,1.4v0.2c0,0.6-0.2,1-0.6,1.4c-0.4,0.4-0.9,0.6-1.4,0.6h-0.2
							C266.9,174.4,266.4,174.2,266,173.8z M266.3,198.7c-0.3-0.3-0.5-0.8-0.5-1.3v-17.2c0-0.5,0.2-0.9,0.5-1.3
							c0.3-0.4,0.8-0.5,1.3-0.5c0.5,0,1,0.2,1.3,0.5c0.3,0.3,0.5,0.8,0.5,1.3v17.2c0,0.5-0.2,0.9-0.5,1.3c-0.4,0.3-0.8,0.5-1.3,0.5
							C267,199.2,266.6,199,266.3,198.7z"/>
					</g>
				</g>
				<g>
					<g>
						<path class="st2" d="M275,197.6c-0.5-0.3-0.7-0.8-0.7-1.3c0-0.4,0.1-0.8,0.4-1.1c0.3-0.3,0.7-0.5,1.1-0.5
							c0.2,0,0.5,0.1,0.7,0.2c0.9,0.4,1.7,0.7,2.6,0.9c0.9,0.2,1.8,0.3,2.9,0.3c3,0,4.4-0.9,4.4-2.8c0-0.6-0.3-1.1-1-1.4
							c-0.7-0.3-1.8-0.7-3.3-1.1c-1.6-0.4-2.9-0.8-3.9-1.2c-1-0.4-1.9-1-2.6-1.8c-0.7-0.8-1.1-1.9-1.1-3.2c0-1.9,0.7-3.4,2-4.6
							c1.3-1.2,3.3-1.8,5.8-1.8c2.1,0,4,0.3,5.8,1c0.4,0.1,0.7,0.3,0.9,0.6c0.2,0.3,0.3,0.6,0.3,0.9c0,0.4-0.2,0.8-0.5,1.1
							c-0.3,0.3-0.7,0.5-1.1,0.5c-0.1,0-0.3,0-0.5-0.1c-1.5-0.5-3.1-0.7-4.6-0.7c-1.4,0-2.6,0.3-3.4,0.8c-0.8,0.5-1.2,1.2-1.2,2
							c0,0.8,0.4,1.4,1.1,1.8c0.7,0.4,1.9,0.7,3.5,1.1c1.6,0.4,2.9,0.8,3.8,1.2c1,0.4,1.8,1,2.5,1.8c0.7,0.8,1.1,1.9,1.1,3.3
							c0,1.7-0.7,3.1-2,4.2c-1.3,1.1-3.2,1.7-5.7,1.7C279.6,199.4,277.2,198.8,275,197.6z"/>
					</g>
				</g>
				<g>
					<g>
						<path class="st2" d="M295.9,194.1v-12.4h-2.8c-0.2,0-0.4-0.1-0.5-0.2c-0.1-0.1-0.2-0.3-0.2-0.5c0-0.3,0.1-0.5,0.4-0.7l5.4-5.3
							c0.2-0.2,0.5-0.4,0.7-0.4c0.2,0,0.4,0.1,0.5,0.2c0.1,0.2,0.2,0.3,0.2,0.6v3.2h4.5c0.5,0,0.8,0.1,1.1,0.4
							c0.3,0.3,0.4,0.7,0.4,1.1c0,0.4-0.1,0.8-0.4,1.1c-0.3,0.3-0.7,0.5-1.1,0.5h-4.5v12.1c0,1,0.2,1.7,0.7,2
							c0.5,0.3,1.1,0.4,1.9,0.4c0.5,0,1.1-0.1,1.6-0.2c0.1,0,0.2-0.1,0.3-0.1c0.1,0,0.3,0,0.5,0c0.4,0,0.7,0.1,1,0.4
							c0.3,0.3,0.4,0.6,0.4,1c0,0.6-0.3,1.1-0.9,1.4c-1,0.5-2.1,0.7-3.3,0.7C297.9,199.4,295.9,197.6,295.9,194.1z"/>
					</g>
				</g>
			</g>
			<g>
				<g>
					
						<ellipse transform="matrix(0.8228 -0.5683 0.5683 0.8228 -260.5869 177.1686)" class="st1" cx="153.8" cy="506.5" rx="17.1" ry="17.1"/>
				</g>
			</g>
			<g>
				<g>
					<g>
						<path class="st1" d="M360.1,513.7c0,1.1-0.9,1.9-1.9,1.9H189.9c-1,0-1.9-0.9-1.9-1.9c0-1,0.9-1.9,1.9-1.9h168.2
							C359.2,511.8,360.1,512.7,360.1,513.7z"/>
					</g>
				</g>
				<g>
					<g>
						<path class="st1" d="M477.5,499.2c0,1.1-0.9,1.9-1.9,1.9H189.9c-1,0-1.9-0.9-1.9-1.9c0-1,0.9-1.9,1.9-1.9h285.7
							C476.7,497.3,477.5,498.1,477.5,499.2z"/>
					</g>
				</g>
			</g>
			<g>
				<g>
					
						<ellipse transform="matrix(0.8228 -0.5683 0.5683 0.8228 -226.2315 166.4567)" class="st1" cx="153.8" cy="446" rx="17.1" ry="17.1"/>
				</g>
			</g>
			<g>
				<g>
					<g>
						<path class="st1" d="M360.1,453.3c0,1.1-0.9,1.9-1.9,1.9H189.9c-1,0-1.9-0.9-1.9-1.9c0-1,0.9-1.9,1.9-1.9h168.2
							C359.2,451.4,360.1,452.2,360.1,453.3z"/>
					</g>
				</g>
				<g>
					<g>
						<path class="st1" d="M477.5,438.7c0,1.1-0.9,1.9-1.9,1.9H189.9c-1,0-1.9-0.9-1.9-1.9c0-1,0.9-1.9,1.9-1.9h285.7
							C476.7,436.8,477.5,437.7,477.5,438.7z"/>
					</g>
				</g>
			</g>
			<g>
				<g>
					
						<ellipse transform="matrix(0.8228 -0.5683 0.5683 0.8228 -191.8761 155.7448)" class="st1" cx="153.8" cy="385.6" rx="17.1" ry="17.1"/>
				</g>
			</g>
			<g>
				<g>
					<g>
						<path class="st1" d="M360.1,392.8c0,1.1-0.9,1.9-1.9,1.9H189.9c-1,0-1.9-0.9-1.9-1.9c0-1,0.9-1.9,1.9-1.9h168.2
							C359.2,390.9,360.1,391.8,360.1,392.8z"/>
					</g>
				</g>
				<g>
					<g>
						<path class="st1" d="M477.5,378.3c0,1.1-0.9,1.9-1.9,1.9H189.9c-1,0-1.9-0.9-1.9-1.9c0-1,0.9-1.9,1.9-1.9h285.7
							C476.7,376.4,477.5,377.2,477.5,378.3z"/>
					</g>
				</g>
			</g>
			<g>
				<g>
					
						<ellipse transform="matrix(0.8228 -0.5683 0.5683 0.8228 -157.5207 145.0328)" class="st1" cx="153.8" cy="325.1" rx="17.1" ry="17.1"/>
				</g>
			</g>
			<g>
				<g>
					<g>
						<path class="st1" d="M360.1,332.4c0,1.1-0.9,1.9-1.9,1.9H189.9c-1,0-1.9-0.9-1.9-1.9c0-1,0.9-1.9,1.9-1.9h168.2
							C359.2,330.5,360.1,331.3,360.1,332.4z"/>
					</g>
				</g>
				<g>
					<g>
						<path class="st1" d="M477.5,317.8c0,1.1-0.9,1.9-1.9,1.9H189.9c-1,0-1.9-0.9-1.9-1.9c0-1,0.9-1.9,1.9-1.9h285.7
							C476.7,315.9,477.5,316.8,477.5,317.8z"/>
					</g>
				</g>
			</g>
			<g>
				<g>
					
						<ellipse transform="matrix(0.8228 -0.5683 0.5683 0.8228 -123.1653 134.3209)" class="st1" cx="153.8" cy="264.7" rx="17.1" ry="17.1"/>
				</g>
			</g>
			<g>
				<g>
					<g>
						<path class="st1" d="M360.1,271.9c0,1.1-0.9,1.9-1.9,1.9H189.9c-1,0-1.9-0.9-1.9-1.9c0-1,0.9-1.9,1.9-1.9h168.2
							C359.2,270,360.1,270.9,360.1,271.9z"/>
					</g>
				</g>
				<g>
					<g>
						<path class="st1" d="M477.5,257.4c0,1.1-0.9,1.9-1.9,1.9H189.9c-1,0-1.9-0.9-1.9-1.9c0-1,0.9-1.9,1.9-1.9h285.7
							C476.7,255.5,477.5,256.3,477.5,257.4z"/>
					</g>
				</g>
			</g>
		</g>
		<g>
			<g>
				<g>
					<g>
						<path class="st7" d="M533.8,557.1l-10.6,7.3l-6.2-2.7c0,0-0.2-5.1-0.3-12.6c-0.1-5.7-0.2-10.8-0.2-11.1
							c0-0.8,15.8,0.2,16.6,0.4c0.3,0.1,0.5,3.6,0.5,7.8C533.8,552.3,533.8,556.6,533.8,557.1z"/>
					</g>
				</g>
				<g class="st8">
					<g>
						<path class="st9" d="M533.7,546.1c-4.7,2.2-10,3.3-15.3,3.1c-0.6,0-1.1-0.1-1.7-0.2c-0.1-5.7-0.2-10.8-0.2-11.1
							c0-0.8,15.8,0.2,16.6,0.4C533.5,538.5,533.6,541.9,533.7,546.1z"/>
					</g>
				</g>
				<g>
					<g>
						<g>
							<path class="st10" d="M518.6,552.2c0,0,5.2,8,8.8,6.3s6.2-10.4,10.4-7.1c2.1,1.7,1.9,13.4,1.3,17.5c-0.2,1-1,1.6-2,1.6h-47.7
								c-0.8,0-1.6-0.5-1.9-1.3c-0.7-1.9-1.7-5.5,0.5-7c3.1-2.1,9.6-0.2,14.2-3.4C506.7,555.7,512.1,544.9,518.6,552.2z"/>
						</g>
					</g>
				</g>
			</g>
			<g>
				<g>
					<g>
						<path class="st7" d="M577.9,557.1l-10.6,7.3l-6.2-2.7c0,0-0.2-5.1-0.3-12.6c-0.1-5.7-0.2-10.8-0.2-11.1
							c0-0.8,15.8,0.2,16.6,0.4c0.3,0.1,0.5,3.6,0.5,7.8C578,552.3,577.9,556.6,577.9,557.1z"/>
					</g>
				</g>
				<g class="st8">
					<g>
						<path class="st9" d="M577.8,546.1c-4.7,2.2-10,3.3-15.3,3.1c-0.6,0-1.1-0.1-1.7-0.2c-0.1-5.7-0.2-10.8-0.2-11.1
							c0-0.8,15.8,0.2,16.6,0.4C577.6,538.5,577.8,541.9,577.8,546.1z"/>
					</g>
				</g>
				<g>
					<g>
						<g>
							<path class="st11" d="M562.8,552.2c0,0,5.2,8,8.8,6.3s6.2-10.4,10.4-7.1c2.1,1.7,1.9,13.4,1.3,17.5c-0.2,1-1,1.6-2,1.6h-47.7
								c-0.8,0-1.6-0.5-1.9-1.3c-0.7-1.9-1.7-5.5,0.5-7c3.1-2.1,9.6-0.2,14.2-3.4C550.9,555.7,556.3,544.9,562.8,552.2z"/>
						</g>
					</g>
				</g>
			</g>
			<g>
				<g>
					<g>
						<g>
							<path class="st12" d="M541.2,243.6l-38,55.7l-0.3,0.4l-7.9,9.8l-29.8-19.3c0,0,8.8-10.7,22.7-21.9
								C501.8,257,520.7,245.5,541.2,243.6z"/>
						</g>
					</g>
					<g>
						<g>
							<path class="st13" d="M514.9,273.6c-4.4,6.3-8,13.2-10.5,20.5l-1.1,5.1l-0.3,0.4l-7.9,9.8l-29.8-19.3c0,0,8.8-10.7,22.7-21.9
								c1,1.2,2.2,2.3,3.4,3.3c3.4,2.8,7.6,5,12,5.1C507.3,276.7,511.2,275.1,514.9,273.6z"/>
						</g>
					</g>
					<g>
						<g>
							<path class="st14" d="M439.3,238.7l101.6,122.2c6.4,7.7,5.4,19.2-2.4,25.7c-7.7,6.4-19.2,5.4-25.7-2.4L411.3,262
								C425.6,260.3,435,252.5,439.3,238.7z"/>
						</g>
					</g>
					<g>
						<g>
							<path class="st15" d="M538.6,386.6c-3,2.5-6.5,3.9-10.1,4.2c0.8-0.5,1.6-1,2.3-1.7c7.7-6.4,8.8-17.9,2.4-25.7L436,246.5
								c1.3-2.3,2.4-4.9,3.3-7.8l101.6,122.2C547.4,368.7,546.3,380.2,538.6,386.6z"/>
						</g>
					</g>
					<g>
						<g>
							<path class="st16" d="M533.1,351.5l7.8,9.4c6.4,7.7,5.4,19.2-2.4,25.7c-7.7,6.4-19.2,5.4-25.7-2.4l-7.8-9.4
								C519.4,373.1,528.7,365.3,533.1,351.5z"/>
						</g>
					</g>
					<g>
						<g>
							<g>
								<path class="st17" d="M586.3,541.6c0.4,4.3-34.9,7.7-35.3,3.4c-0.3-3-5.2-12.5-8.9-27.9c-10-41.7-23.6-117.4-27.7-140.2
									c-0.1-0.5-0.2-1.1-0.3-1.5c20.2,2.3,53.1,2.7,66.1,0.3c0,13.3,0,52.9,1.1,90.9C582.1,497.9,583.6,528.1,586.3,541.6z"/>
							</g>
						</g>
						<g>
							<g>
								<path class="st17" d="M542.1,517.1l-1.3,28.6c0.1,0.8-2.3,1.4-5.8,1.9c-8.8,1.1-24.5,1-24.6-1
									c-7.9-65.3-13.1-125.6-10-173.8c2.9,1,7.7,1.8,13.6,2.5c1,5.6,2.8,15.5,5,27.7C525.1,435.9,534.6,486,542.1,517.1z"/>
							</g>
						</g>
						<g>
							<g>
								<path class="st18" d="M581.3,466.5c-1.3-1.7-2.3-4.5-3.4-6.6c-10.7-21.2-24.1-41-39.7-58.9c-7.5-8.5-15.4-16.6-23.8-24.2
									c-0.1-0.5-0.2-1.1-0.3-1.5c20.2,2.3,53.1,2.7,66.1,0.3C580.2,388.9,580.2,428.5,581.3,466.5z"/>
							</g>
						</g>
						<g>
							<g>
								<path class="st18" d="M542.1,517.1l-1.3,28.6c0.1,0.8-2.3,1.4-5.8,1.9c-5.2-13.2-9.2-26.9-12.2-40.7
									c-7.6-34-8.9-69.4-3.7-103.9C525.1,435.9,534.6,486,542.1,517.1z"/>
							</g>
						</g>
						<g>
							<g>
								<path class="st12" d="M607.1,297c-0.6,0.9-1.7,1.9-3.1,2.9c-8.2,6.3-27.9,15.4-27.9,15.4l2.8,17.1l3.7,22.3l3,18.3
									c0,1-2.1,1.9-5.5,2.5c-12.9,2.4-45.9,2-66.1-0.3c-5.9-0.7-10.7-1.5-13.6-2.5c-2-0.7-3.1-1.4-3.1-2.2
									c0.2-2.6,0.5-5.5,0.8-8.4c2.6-27.9,6.4-68.5,6.4-68.5l36.6-50.2c24.9-2.3,45.2,20.9,56.4,37.4
									C603.7,290,607.1,297,607.1,297z"/>
							</g>
						</g>
						<g>
							<g>
								<path class="st13" d="M607.1,297c-0.6,0.9-1.7,1.9-3.1,2.9c-8.2,6.3-27.9,15.4-27.9,15.4l2.8,17.1l3.7,22.3l3,18.3
									c0,1-2.1,1.9-5.5,2.5c-12.9,2.4-45.9,2-66.1-0.3c-5.9-0.7-10.7-1.5-13.6-2.5c-2-0.7-3.1-1.4-3.1-2.2
									c0.2-2.6,0.5-5.5,0.8-8.4c0.1-0.1,0.3-0.2,0.4-0.4c6-5.4,14.2-7.8,22.3-8.2c8.1-0.4,16.1,1,24,2.6c3,0.6,6.1,1.3,9.1,1
									c3.1-0.3,6.2-1.5,8-4c2.1-2.9,2-7,0.7-10.4c-1.3-3.4-2.8-20.8-4.8-23.8l-4.9-44.2c2.8,6.7,4.6,14,8.2,20.3
									c1.8,3.2,3.9,6.5,7.2,8.3c3.1,1.7,6.9,1.6,10.2,0.4c3.3-1.2,6.2-3.4,8.7-5.8c4.8-4.7,8.3-10.6,10.3-17
									C603.7,290,607.1,297,607.1,297z"/>
							</g>
						</g>
						<g>
							<g>
								<path class="st7" d="M555.9,247.5c0.6,6.4-25.3,3.9-23.8-2.3c0.9-3.3,1.9-1.8,1.2-10c0.1,0,0.4,0,0.9,0
									c7.4-0.6,16.8-8.2,17.8-9c0,0,0,0.1,0,0.1c-0.5,2.4-0.7,4.6-0.5,6.7C551.9,240.5,555.7,245.9,555.9,247.5z"/>
							</g>
						</g>
						<g class="st8">
							<g>
								<g>
									<path class="st9" d="M551.4,233c-3.9,2.5-10.5,5.3-18.1,2.3c0.1,0,0.4,0,0.9,0c3-0.2,12.9-1.4,17.8-8.9
										C551.4,228.7,551.3,230.9,551.4,233z"/>
								</g>
							</g>
						</g>
						<g>
							<g>
								<path class="st7" d="M552.1,226.1C552.1,226.1,552.1,226.2,552.1,226.1c-0.1,0.1-0.1,0.1-0.1,0.1c-1,0.9-11.2,9.1-18.6,9.1
									h0c-1,0-2-0.2-2.9-0.5c-6.8-2.7-10.3-17.8-7.6-30.4c0,0,0,0,0,0c1.5-7,4.9-13.1,10.7-15.9c16.3-7.8,24.1,12.9,24.3,13.1
									c0,0.4-5.2,11.2-5.6,11.9c0.6-0.5,8.6-7.5,10.9,0.7C566.7,226.4,552.1,226.1,552.1,226.1z"/>
							</g>
						</g>
						<g>
							<g>
								<path class="st10" d="M583.5,235.9c-1.4,6.6-29.3,8.7-32.5,5.1c-3.2-3.6,0.8-14.2,1.1-14.8c0,0,0,0,0,0s14.6,0.2,11.1-12.1
									c-2.4-8.4-11-0.6-11-0.6c-4.8-1.6-15.7-21.6-17.6-22.4c-1.5,5.2-11.2,12.9-11.8,13.4c0,0,0,0,0,0
									c-2.7,12.6,0.8,27.7,7.6,30.4c0.9,0.4,1.9,0.5,2.9,0.5c-1.6,11.8-18.1,6.8-21.4,4.8c-3.7-2.2-7-4-1.5-12.7
									c5.5-8.7,8.3-27,12.2-35.8c3.9-8.8,12.4-8,12.4-8c15.5-10.3,29.7,1.2,32.1,13.5C569.6,209.4,584.8,229.2,583.5,235.9z"/>
							</g>
						</g>
						<g>
							<g>
								<g>
									<path class="st19" d="M532.5,223.6c0.1-0.2,0.9,0.3,2.5,0.2c1.4,0,2.7-0.7,3.7-1.6c1.3-1.1,1.8-1.8,2-1.7
										c0.1,0.1-0.2,0.9-1.4,2.2c-1.1,1-2.6,1.8-4.2,1.8C533,224.5,532.4,223.7,532.5,223.6z"/>
								</g>
							</g>
						</g>
						<g>
							<g>
								<g>
									<path class="st19" d="M533.6,218.8c0,0.1-1,0.6-3-0.2c-0.3-0.2-0.9-0.4-1-1.1c-0.1-0.6,0.2-1.1,0.4-1.4
										c0.4-0.7,0.9-1.4,1.3-2.1c1-1.6,1-2.5,1.2-2.5c0.1,0,0.5,1.1-0.5,2.9c-0.4,0.7-0.9,1.4-1.3,2.1c-0.2,0.3-0.4,0.7-0.3,0.9
										c0,0.2,0.3,0.4,0.6,0.6C532.5,218.7,533.6,218.5,533.6,218.8z"/>
								</g>
							</g>
						</g>
						<g>
							<g>
								<ellipse class="st19" cx="540.6" cy="210.5" rx="1.7" ry="2.2"/>
							</g>
						</g>
						<g>
							<g>
								<ellipse class="st19" cx="527.7" cy="210.6" rx="1.5" ry="2.1"/>
							</g>
						</g>
						<g>
							<g>
								<g>
									<path class="st19" d="M525.7,206.2c-0.1-0.1,0.2-0.6,1.2-1.1c0.9-0.4,1.8-0.5,2.8-0.4c1.1,0.2,1.5,0.6,1.5,0.8
										c-0.1,0.2-0.6,0.1-1.6,0c-0.8-0.1-1.7,0-2.4,0.4C526.2,206,525.8,206.3,525.7,206.2z"/>
								</g>
							</g>
						</g>
						<g>
							<g>
								<g>
									<path class="st19" d="M537.6,204.8c-0.1-0.1,0.3-0.6,1.4-1c0.9-0.2,1.9-0.2,2.8,0c1.1,0.4,1.4,0.8,1.3,1
										c-0.1,0.2-0.6,0-1.5-0.2c-0.8-0.2-1.7-0.2-2.5,0C538.2,204.8,537.7,205,537.6,204.8z"/>
								</g>
							</g>
						</g>
						<g>
							<g>
								<g>
									<g>
										<path class="st7" d="M439.3,238.7c-4.3,13.8-13.7,21.6-28,23.3l-6.1-23.5l-2.7-10.6c-0.7-2.9,2.2-5.3,4.9-4.1l9.9,4.6
											L439.3,238.7z"/>
									</g>
								</g>
							</g>
							<g>
								<g>
									<path class="st11" d="M417.3,228.5c-3.1,4.5-7.1,7.8-12.1,10.1l-2.7-10.6c-0.7-2.9,2.2-5.3,4.9-4.1L417.3,228.5z"/>
								</g>
							</g>
						</g>
					</g>
					<g>
						<g>
							<path class="st7" d="M619.6,335.6c-2.9,6.6-21.5,14.1-36.9,19.2c-11.4,3.8-23.6,8.7-23.6,8.7s-16.8,19.6-24,3.5
								c-4.2-9.3,9.2-12,14.3-12.8c-3.2,0.2-8.9,0.3-6.7-3.2c2.9-4.7,13-3.2,13-3.2l23.3-15.4l7.4-4.9l-10.2-12.3
								c0,0,19.7-9.1,27.9-15.4C604,300,624.6,324,619.6,335.6z"/>
						</g>
					</g>
				</g>
				<g>
					<g>
						<path class="st7" d="M470.4,337.9c-5.2,3.9-19.2-15-14-18.9c5.2-3.8,12.6-2.8,16.4,2.4C476.7,326.7,475.6,334,470.4,337.9z"/>
					</g>
				</g>
			</g>
			<g>
				<g>
					<g>
						<path class="st9" d="M554,221.5c0.1-0.1,0.3,0.1,0.9,0.3c0.6,0.2,1.5,0.3,2.6-0.3c1.8-0.9,2-3.5,1.2-5.4
							c-0.9-2.3-1.6-3.5-1.4-3.6c0.1,0,1,0.9,2.1,3.3c0.4,1.1,0.6,2.3,0.4,3.4c-0.2,1.2-0.9,2.3-2,2.9c-1.3,0.6-2.5,0.3-3.1,0
							C554.1,221.9,553.9,221.6,554,221.5z"/>
					</g>
				</g>
			</g>
			<g>
				<g>
					<path class="st20" d="M576.1,315.4c-4.9,2.1-9.8,4.1-15.3,4.9c-0.7,0.1-1.4,0.2-2.2,0.1c-0.4,0-0.9-0.2-1.4-0.5
						c-0.2-0.1-0.5-0.5-0.6-0.7l-0.3-0.6c-0.5-1.4-0.7-2.7-1-4c-0.5-2.6-0.8-5.3-1.1-7.9c-0.6-5.3-1-10.6-1.2-15.9
						c-0.2-5.3-0.4-10.6-0.2-15.9c0.4,2.6,0.7,5.3,1.1,7.9l0.9,7.9l1.7,15.8c0.3,2.6,0.6,5.2,1,7.8c0.2,1.3,0.4,2.6,0.7,3.7l0.1,0.3
						c0.1,0.1,0,0,0,0c0.1,0,0.2,0.1,0.5,0.1c0.5,0.1,1.1,0.1,1.7,0.1c2.5-0.2,5.1-0.7,7.7-1.3C571,316.7,573.6,316,576.1,315.4z"/>
				</g>
			</g>
		</g>
		<g>
			<g>
				<g>
					<path class="st7" d="M203.6,457.3v16.9c0,2.2-1.8,4-4,4h-151c-2.2,0-4-1.8-4-4v-16.9c0-2.2,1.8-4,4-4h151
						C201.8,453.2,203.6,455,203.6,457.3z"/>
				</g>
			</g>
			<g>
				<g>
					<path class="st7" d="M193.9,478.2v86.1c0,4.1-3.4,7.5-7.5,7.5H61.8c-4.1,0-7.5-3.4-7.5-7.5v-86.1H193.9z"/>
				</g>
			</g>
			<g>
				<g>
					<rect x="54.4" y="478.2" class="st21" width="139.5" height="6.8"/>
				</g>
			</g>
			<g>
				<g>
					<path class="st21" d="M143.3,496.5v3.7c0,1.2-1,2.2-2.2,2.2h-33.9c-1.2,0-2.2-1-2.2-2.2v-3.7c0-1.2,1-2.2,2.2-2.2h33.9
						C142.3,494.3,143.3,495.3,143.3,496.5z"/>
				</g>
			</g>
			<g>
				<g>
					<path class="st22" d="M180.1,547.8h-4.8v9.2c0,0.4-0.3,0.7-0.7,0.7h-3.1c-0.4,0-0.7-0.3-0.7-0.7v-9.2h-4.8
						c-0.5,0-0.7-0.6-0.4-0.9l7.2-7.2c0.2-0.2,0.6-0.2,0.8,0l7.2,7.2C180.9,547.3,180.6,547.8,180.1,547.8z"/>
				</g>
			</g>
			<g>
				<g>
					<path class="st22" d="M163,547.8h-4.8v9.2c0,0.4-0.3,0.7-0.7,0.7h-3.1c-0.4,0-0.7-0.3-0.7-0.7v-9.2h-4.8
						c-0.5,0-0.7-0.6-0.4-0.9l7.2-7.2c0.2-0.2,0.6-0.2,0.8,0l7.2,7.2C163.8,547.3,163.5,547.8,163,547.8z"/>
				</g>
			</g>
		</g>
		<g>
			<g>
				<path class="st23" d="M87.1,223.9V274c0,4.2-3.4,7.6-7.6,7.6H24.1c-4.2,0-7.6-3.4-7.6-7.6v-50.1c0-4.2,3.4-7.6,7.6-7.6h55.4
					C83.7,216.3,87.1,219.7,87.1,223.9z"/>
			</g>
		</g>
		<g>
			<g>
				<g>
					<path class="st2" d="M67.4,271.7c-0.3,0-0.7-0.1-1-0.2C50.2,265,37.2,252,30.7,235.8c-0.3-0.7-0.3-1.5,0-2.1
						c0.3-0.7,0.9-1.2,1.6-1.5l2.2-0.8l5.6-2.1c0.3-0.1,0.7-0.2,1-0.2c1.1,0,2.2,0.7,2.6,1.7c1.1,2.7,2.3,5.2,3.7,7.4
						c0.6,0.9,0.5,2.1-0.1,3c-1.1,1.6-2.1,3.3-3.1,5c3.3,4.5,7.3,8.4,11.7,11.7c1.8-1,3.5-2.1,5.1-3.1c0.5-0.3,1-0.5,1.6-0.5
						c0.5,0,1,0.1,1.4,0.4c2.3,1.4,4.8,2.7,7.4,3.7c1.4,0.5,2.1,2.1,1.6,3.5l-2.9,7.8C69.6,271,68.5,271.7,67.4,271.7z"/>
				</g>
			</g>
		</g>
	</g>
</g>
</svg>
