<svg id="圖層_1" data-name="圖層 1" xmlns="http://www.w3.org/2000/svg" viewBox="0 0 24 24"><defs><style>.cls-1{fill:#040000;}</style></defs><title>all-icon</title><path class="cls-1" d="M20.25,5.4V.29A.29.29,0,0,0,20,0h-3.8a.29.29,0,0,0-.29.29V2.78A.29.29,0,0,0,16,3l3.8,2.62A.29.29,0,0,0,20.25,5.4Z"/><path class="cls-1" d="M20.66,10.1,12.5,4.48a.87.87,0,0,0-1,0L3.35,10.1a.87.87,0,0,0-.38.72V23.13a.87.87,0,0,0,.87.87H9V15.88h6.1V24h5.09a.87.87,0,0,0,.87-.87V10.82A.87.87,0,0,0,20.66,10.1Z"/><path class="cls-1" d="M12.8,3.42a1.4,1.4,0,0,0-1.07-.22,1.49,1.49,0,0,0-.55.25L.69,10.67a.54.54,0,0,1-.75-.14l0,0a.53.53,0,0,1,.13-.73L11.3,2a1.25,1.25,0,0,1,1.42,0L23.94,9.75a.54.54,0,0,1,.14.76h0a.56.56,0,0,1-.78.14Z"/></svg>