<?xml version="1.0" encoding="utf-8"?>
<!-- Generator: Adobe Illustrator 21.0.2, SVG Export Plug-In . SVG Version: 6.00 Build 0)  -->
<svg version="1.1" id="圖層_1" xmlns="http://www.w3.org/2000/svg" xmlns:xlink="http://www.w3.org/1999/xlink" x="0px" y="0px"
	 viewBox="0 0 32.5 24" style="enable-background:new 0 0 32.5 24;" xml:space="preserve">
<style type="text/css">
	.st0{fill:#040000;}
</style>
<title>all-icon</title>
<g>
	<polygon class="st0" points="31.5,12.1 25.1,7 25.1,10 20.9,10 20.9,14.1 25.1,14.1 25.1,17.1 	"/>
	<path class="st0" d="M15.9,1.7h-4.3v1.2h4.3c0.6-0.1,1.2,0.4,1.3,1.1v17.8h1.2V4C18.4,2.7,17.2,1.7,15.9,1.7z"/>
	<path class="st0" d="M3.1,1.7C2,1.9,1.1,2.8,1,4v17.8h1.2v-0.6c-0.1-0.2-0.1-0.4-0.1-0.6V3.5C2.2,2.8,2.5,2.1,3.1,1.7z"/>
	<path class="st0" d="M10.3,0.5c-0.2-0.1-0.4-0.2-0.7-0.2c-0.1,0-0.3,0-0.4,0.1L5.4,1.7L3.8,2.3C3.4,2.4,3.2,2.7,3,3
		C3,3.2,2.9,3.3,2.9,3.5v17.1c0,0.5,0.3,1,0.8,1.2l5.4,1.9c0.4,0.1,0.8,0.1,1.1-0.1c0.3-0.2,0.5-0.6,0.5-1.1v-21
		C10.8,1.2,10.6,0.8,10.3,0.5z M9.3,12.8c-0.4,0-0.7-0.3-0.7-0.7c0-0.4,0.3-0.7,0.7-0.7c0.4,0,0.7,0.3,0.7,0.7c0,0,0,0,0,0
		C10,12.5,9.6,12.8,9.3,12.8C9.2,12.8,9.2,12.8,9.3,12.8L9.3,12.8z"/>
</g>
</svg>
