<?xml version="1.0" encoding="utf-8"?>
<!-- Generator: Adobe Illustrator 21.0.2, SVG Export Plug-In . SVG Version: 6.00 Build 0)  -->
<svg version="1.1" id="圖層_1" xmlns="http://www.w3.org/2000/svg" xmlns:xlink="http://www.w3.org/1999/xlink" x="0px" y="0px"
	 viewBox="0 0 24 24" style="enable-background:new 0 0 24 24;" xml:space="preserve">
<style type="text/css">
	.st0{fill:#DBDBDB;}
	.st1{fill:#FFFFFF;}
</style>
<title>all-icon</title>
<g>
	<g>
		<path class="st0" d="M12,22.6c5.8,0,10.6-4.7,10.6-10.6c0-5.8-4.7-10.6-10.6-10.6C6.2,1.4,1.4,6.2,1.4,12S6.2,22.6,12,22.6z"/>
	</g>
	<g>
		<path class="st1" d="M13,15h-2.1c0-0.3,0-0.5,0-0.5c0-0.7,0.1-1.2,0.3-1.7c0.2-0.4,0.7-0.9,1.3-1.5c0.7-0.5,1.1-0.9,1.2-1.1
			C13.9,9.9,14,9.6,14,9.3c0-0.4-0.2-0.8-0.5-1.1c-0.4-0.3-0.8-0.5-1.4-0.5c-0.6,0-1.1,0.2-1.5,0.5S9.9,9,9.8,9.7L7.7,9.5
			c0.1-1,0.5-1.8,1.2-2.5c0.8-0.7,1.8-1,3-1c1.3,0,2.4,0.3,3.2,1s1.2,1.5,1.2,2.4c0,0.5-0.1,1-0.4,1.4c-0.3,0.5-0.9,1.1-1.8,1.8
			c-0.5,0.4-0.8,0.7-0.9,1C13,13.9,13,14.3,13,15L13,15z M10.9,18v-2.3H13V18H10.9z"/>
	</g>
</g>
</svg>
