<?xml version="1.0" encoding="utf-8"?>
<!-- Generator: Adobe Illustrator 21.0.2, SVG Export Plug-In . SVG Version: 6.00 Build 0)  -->
<svg version="1.1" id="圖層_1" xmlns="http://www.w3.org/2000/svg" xmlns:xlink="http://www.w3.org/1999/xlink" x="0px" y="0px"
	 viewBox="0 0 24 24" style="enable-background:new 0 0 24 24;" xml:space="preserve">
<style type="text/css">
	.st0{fill:#AAAAAA;}
</style>
<title>all-icon</title>
<path class="st0" d="M20.8,12c0,0.4,0,0.8-0.1,1.2V13c-0.1,0.8-0.3,1.6-0.6,2.4l0.1-0.2c-0.3,0.7-0.7,1.4-1.2,2l0-0.2
	c-0.5,0.6-1,1.2-1.7,1.7l0.2-0.1c-0.6,0.5-1.3,0.9-2,1.2l0.2-0.1c-0.8,0.3-1.5,0.5-2.4,0.6h0.2c-0.8,0.1-1.6,0.1-2.4,0h0.2
	C10.6,20.2,9.8,20,9,19.7l0.2,0.1c-0.7-0.3-1.4-0.7-2-1.2l0.2,0.1c-0.6-0.5-1.2-1.1-1.7-1.7l0.1,0.2c-0.5-0.6-0.9-1.3-1.2-2l0.1,0.2
	C4.4,14.6,4.2,13.8,4,13v0.2c-0.1-0.8-0.1-1.6,0-2.4V11c0.1-0.8,0.3-1.6,0.7-2.4L4.6,8.8c0.3-0.7,0.7-1.4,1.2-2L5.7,7
	c0.5-0.6,1-1.2,1.7-1.7L7.2,5.4c0.6-0.5,1.3-0.9,2-1.2L9,4.3c0.8-0.3,1.5-0.5,2.4-0.7h-0.2c0.8-0.1,1.6-0.1,2.4,0h-0.2
	C14.2,3.8,15,4,15.7,4.3l-0.2-0.1c0.7,0.3,1.4,0.7,2,1.2l-0.2-0.1C18,5.8,18.6,6.4,19.1,7L19,6.8c0.5,0.6,0.9,1.3,1.2,2l-0.1-0.2
	c0.3,0.8,0.5,1.6,0.6,2.4v-0.2C20.8,11.2,20.8,11.6,20.8,12c0,0.5,0.4,0.8,0.8,0.8c0.5,0,0.8-0.4,0.8-0.8c0-2.1-0.6-4.1-1.8-5.8
	c-1.2-1.7-2.9-3-4.8-3.7c-4-1.4-8.4-0.2-11.1,3C4,6.4,3.5,7.3,3.1,8.3s-0.6,2-0.7,3c-0.3,4.2,2,8.1,5.8,9.8c1,0.5,2,0.8,3.1,0.9
	c5.3,0.6,10.1-3.1,11-8.3c0.1-0.6,0.1-1.1,0.1-1.7c0-0.5-0.4-0.8-0.8-0.8C21.1,11.2,20.8,11.5,20.8,12z"/>
<path class="st0" d="M9.8,15.8l2.2-2.1l3.4-3.4l0.8-0.8c0.3-0.3,0.2-0.9-0.1-1.2C15.7,8,15.3,8,15,8.2l-2.1,2.1l-3.4,3.4l-0.8,0.8
	c-0.3,0.3-0.3,0.8,0,1.2S9.5,16.1,9.8,15.8L9.8,15.8z"/>
<path class="st0" d="M8.6,9.4l2.2,2.1l3.4,3.5l0.8,0.8c0.3,0.3,0.8,0.3,1.2,0c0.3-0.3,0.3-0.8,0-1.2L14,12.4L10.6,9L9.8,8.2
	c-0.3-0.3-0.9-0.3-1.2,0C8.3,8.6,8.3,9.1,8.6,9.4L8.6,9.4z"/>
</svg>
