<svg id="圖層_1" data-name="圖層 1" xmlns="http://www.w3.org/2000/svg" viewBox="0 0 24 24"><defs><style>.cls-1{fill:#a7ca26;}</style></defs><title>all-icon</title><path class="cls-1" d="M20.38,12a9.57,9.57,0,0,1-.08,1.23l0-.22a9.28,9.28,0,0,1-.65,2.36l.08-.2a9.33,9.33,0,0,1-1.19,2L18.7,17A9.39,9.39,0,0,1,17,18.7l.17-.13a9.33,9.33,0,0,1-2,1.19l.2-.08a9.28,9.28,0,0,1-2.36.65l.22,0a9.43,9.43,0,0,1-2.45,0l.22,0a9.28,9.28,0,0,1-2.36-.65l.2.08a9.33,9.33,0,0,1-2-1.19L7,18.7A9.39,9.39,0,0,1,5.3,17l.13.17a9.33,9.33,0,0,1-1.19-2l.08.2A9.28,9.28,0,0,1,3.68,13l0,.22a9.43,9.43,0,0,1,0-2.45l0,.22a9.28,9.28,0,0,1,.65-2.36l-.08.2a9.33,9.33,0,0,1,1.19-2L5.3,7A9.39,9.39,0,0,1,7,5.3l-.17.13a9.33,9.33,0,0,1,2-1.19l-.2.08A9.28,9.28,0,0,1,11,3.68l-.22,0a9.43,9.43,0,0,1,2.45,0l-.22,0a9.28,9.28,0,0,1,2.36.65l-.2-.08a9.33,9.33,0,0,1,2,1.19L17,5.3A9.39,9.39,0,0,1,18.7,7l-.13-.17a9.33,9.33,0,0,1,1.19,2l-.08-.2A9.28,9.28,0,0,1,20.32,11l0-.22A9.57,9.57,0,0,1,20.38,12,.82.82,0,1,0,22,12,10,10,0,0,0,20.2,6.24a10.23,10.23,0,0,0-4.83-3.68,10,10,0,0,0-11.07,3A10.5,10.5,0,0,0,2.69,8.29a9.87,9.87,0,0,0-.69,3A10,10,0,0,0,7.8,21.1a10.43,10.43,0,0,0,3.12.86,10,10,0,0,0,11-8.33A10.83,10.83,0,0,0,22,12a.82.82,0,0,0-1.65,0Z"/><path class="cls-1" d="M7.78,13.06,9.62,14.9l.26.26a.84.84,0,0,0,1.17,0l1.75-1.75,2.78-2.78.64-.64a.82.82,0,1,0-1.17-1.17L13.3,10.58l-2.78,2.78L9.88,14H11L9.21,12.16l-.26-.26a.82.82,0,0,0-1.17,1.17Z"/></svg>