<?xml version="1.0" encoding="utf-8"?>
<!-- Generator: Adobe Illustrator 21.0.2, SVG Export Plug-In . SVG Version: 6.00 Build 0)  -->
<svg version="1.1" id="圖層_1" xmlns="http://www.w3.org/2000/svg" xmlns:xlink="http://www.w3.org/1999/xlink" x="0px" y="0px"
	 viewBox="0 0 24 24" style="enable-background:new 0 0 24 24;" xml:space="preserve">
<style type="text/css">
	.st0{fill:#3C91E0;}
</style>
<title>icon_correct</title>
<path class="st0" d="M8.5,18.4L8.5,18.4c-0.5,0-0.9-0.3-1.1-0.6c-1.2-1.7-2.6-3.3-4.2-4.6c-0.5-0.6-0.5-1.4,0-2
	c0.5-0.4,1.1-0.5,1.7-0.2c1.3,1.1,2.6,2.4,3.7,3.8c3.1-3.5,6.7-6.5,10.7-9c0.6-0.4,1.5-0.3,1.9,0.3s0.3,1.5-0.3,1.9
	c0,0-0.1,0-0.1,0.1c-4.2,2.6-8,5.9-11.2,9.8C9.3,18.2,8.9,18.4,8.5,18.4z"/>
</svg>
