<svg id="圖層_1" data-name="圖層 1" xmlns="http://www.w3.org/2000/svg" viewBox="0 0 24 24"><defs><style>.cls-1{fill:#e84026;}</style></defs><title>all-icon</title><path class="cls-1" d="M20.76,12a9.57,9.57,0,0,1-.08,1.23l0-.22a9.28,9.28,0,0,1-.65,2.36l.08-.2a9.33,9.33,0,0,1-1.19,2l.13-.17a9.39,9.39,0,0,1-1.66,1.66l.17-.13a9.33,9.33,0,0,1-2,1.19l.2-.08a9.28,9.28,0,0,1-2.36.65l.22,0a9.43,9.43,0,0,1-2.45,0l.22,0A9.28,9.28,0,0,1,9,19.68l.2.08a9.33,9.33,0,0,1-2-1.19l.17.13A9.39,9.39,0,0,1,5.69,17l.13.17a9.33,9.33,0,0,1-1.19-2l.08.2A9.28,9.28,0,0,1,4.06,13l0,.22a9.43,9.43,0,0,1,0-2.45l0,.22a9.28,9.28,0,0,1,.65-2.36l-.08.2a9.33,9.33,0,0,1,1.19-2L5.69,7A9.39,9.39,0,0,1,7.34,5.31l-.17.13a9.33,9.33,0,0,1,2-1.19L9,4.33a9.28,9.28,0,0,1,2.36-.65l-.22,0a9.43,9.43,0,0,1,2.45,0l-.22,0a9.28,9.28,0,0,1,2.36.65l-.2-.08a9.33,9.33,0,0,1,2,1.19l-.17-.13A9.39,9.39,0,0,1,19.08,7L19,6.8a9.33,9.33,0,0,1,1.19,2l-.08-.2A9.28,9.28,0,0,1,20.71,11l0-.22A9.57,9.57,0,0,1,20.76,12a.82.82,0,1,0,1.65,0,10,10,0,0,0-1.82-5.76,10.23,10.23,0,0,0-4.83-3.68,10,10,0,0,0-11.07,3A10.5,10.5,0,0,0,3.08,8.29a9.87,9.87,0,0,0-.69,3,10,10,0,0,0,5.8,9.81A10.43,10.43,0,0,0,11.3,22a10,10,0,0,0,11-8.33A10.83,10.83,0,0,0,22.41,12a.82.82,0,0,0-1.65,0Z"/><path class="cls-1" d="M9.78,15.77l2.15-2.15,3.43-3.43.79-.79A.82.82,0,0,0,15,8.24l-2.15,2.15L9.41,13.82l-.79.79a.82.82,0,0,0,1.17,1.17Z"/><path class="cls-1" d="M8.62,9.4l2.15,2.15L14.2,15l.79.79a.82.82,0,0,0,1.17-1.17L14,12.45,10.57,9l-.79-.79A.82.82,0,0,0,8.62,9.4Z"/></svg>