<?xml version="1.0" encoding="utf-8"?>
<!-- Generator: Adobe Illustrator 21.0.2, SVG Export Plug-In . SVG Version: 6.00 Build 0)  -->
<svg version="1.1" id="圖層_1" xmlns="http://www.w3.org/2000/svg" xmlns:xlink="http://www.w3.org/1999/xlink" x="0px" y="0px"
	 viewBox="0 0 24 24" style="enable-background:new 0 0 24 24;" xml:space="preserve">
<style type="text/css">
	.st0{fill:#040000;}
</style>
<title>all-icon</title>
<path class="st0" d="M19.3,9.7h-0.6V7.1c0-3.8-3-6.8-6.8-6.8c-3.7,0-6.8,3.1-6.8,6.8v2.5H4.7c-1.1,0-2.1,0.9-2.1,2.1v9.9
	c0,1.2,0.9,2.1,2.1,2.1h14.7c1.1,0,2.1-0.9,2.1-2.1v-9.9C21.4,10.6,20.5,9.7,19.3,9.7z M12.9,16.8v1.3c0,0.2-0.2,0.3-0.3,0.3h-1
	c-0.2,0-0.3-0.2-0.3-0.3v-1.3c-0.5-0.3-0.8-0.8-0.8-1.4c0-0.9,0.7-1.7,1.7-1.7c0.9,0,1.7,0.7,1.7,1.7C13.7,16,13.3,16.5,12.9,16.8z
	 M15.8,9.7H8.2V7.1C8.2,5,9.9,3.3,12,3.3s3.8,1.7,3.8,3.8V9.7z"/>
</svg>
