<svg id="圖層_1" data-name="圖層 1" xmlns="http://www.w3.org/2000/svg" viewBox="0 0 24 24"><defs><style>.cls-1{fill:#040000;}</style></defs><title>all-icon</title><path class="cls-1" d="M12.17,2C8.21,2,5,4.3,5,7.14a4.46,4.46,0,0,0,1.89,3.48L5.58,13.48l3.66-1.64a9.58,9.58,0,0,0,2.94.45c4,0,7.17-2.3,7.17-5.14S16.13,2,12.17,2ZM9.26,7.76a.68.68,0,1,1,.68-.68A.68.68,0,0,1,9.26,7.76Zm2.9,0a.68.68,0,1,1,.68-.68A.68.68,0,0,1,12.17,7.76Zm2.9,0a.68.68,0,1,1,.68-.68A.68.68,0,0,1,15.07,7.76Z"/><path class="cls-1" d="M21.22,16.45c-1.6-2.81-3.72-2.93-3.72-2.93l-7,0a1.28,1.28,0,0,0-.8,1.17,1.25,1.25,0,0,0,.84,1.15l4.35,0c.29.18,0,.37,0,.37s-8.82,0-9.4-.19C4.65,15.77,2.14,13,2.14,13h0A1.23,1.23,0,1,0,.41,14.71l3.82,3.89a3.24,3.24,0,0,0,2.42,1H13c3.74,0,4.08,2.61,4.08,2.61H24Z"/></svg>