<?xml version="1.0" encoding="utf-8"?>
<!-- Generator: Adobe Illustrator 21.0.2, SVG Export Plug-In . SVG Version: 6.00 Build 0)  -->
<svg version="1.1" id="圖層_1" xmlns="http://www.w3.org/2000/svg" xmlns:xlink="http://www.w3.org/1999/xlink" x="0px" y="0px"
	 viewBox="0 0 151.2 151.2" style="enable-background:new 0 0 151.2 151.2;" xml:space="preserve">
<style type="text/css">
	.st0{fill:#E5E5E5;}
</style>
<title>enotebook_e_grey</title>
<g>
	
		<rect x="50.5" y="17.6" transform="matrix(0.8162 -0.5777 0.5777 0.8162 -3.9128 34.7265)" class="st0" width="4.3" height="11.9"/>
	
		<rect x="58.9" y="12.8" transform="matrix(0.9046 -0.4263 0.4263 0.9046 -2.1627 27.8207)" class="st0" width="4.3" height="11.9"/>
	<rect x="67.8" y="10.2" transform="matrix(0.977 -0.2134 0.2134 0.977 -1.8313 15.3014)" class="st0" width="4.3" height="11.9"/>
	<path class="st0" d="M74.3,102c17.9,1.2,33.6-10,37.2-25.9L41,71.2C42.5,87.4,56.4,100.8,74.3,102"/>
	<path class="st0" d="M70.2,27.3C52,30.5,39.5,48.6,40.4,69.1l72-12.5C106.4,37,88.5,24.2,70.2,27.3z M72.9,58.7
		c-6.2,0-11.2-5-11.2-11.1c0-0.6,0.1-1.1,0.1-1.6c0.4,0.1,0.8,0.1,1.2,0.1c4.5,0,8.2-3.7,8.2-8.2c0-0.4-0.1-0.9-0.1-1.2
		c6.1-0.6,11.6,3.9,12.2,10s-3.9,11.6-10,12.2C73.3,58.6,73.1,58.7,72.9,58.7L72.9,58.7z"/>
</g>
<g>
	<path class="st0" d="M149.1,137.1c0,0.7-0.6,1.2-1.2,1.2s-1.2-0.6-1.2-1.2c0-0.6,0.6-1.2,1.2-1.2S149.1,136.4,149.1,137.1
		L149.1,137.1"/>
	<path class="st0" d="M84.7,136.4c-2.3,0-6.4-1.8-7.1-6.7c-0.6-4,0.7-6.2,1.9-7.3c1.8-1.6,4.2-1.8,5.9-1.5c2.7,0.6,4.4,2.8,4.4,2.9
		l1,1.3l-9.9,5.5c1,2.3,3.3,2.9,4,2.8c3-0.3,4.4-3.4,4.4-3.4l2.7,1.2c-0.1,0.2-2.1,4.6-6.8,5.1C85,136.4,84.8,136.4,84.7,136.4
		 M83.9,123.7c-0.8,0-1.7,0.2-2.4,0.8c-0.7,0.7-1.1,1.7-1.1,3.1l5.8-3.2c-0.4-0.3-0.9-0.5-1.4-0.6C84.4,123.7,84.2,123.7,83.9,123.7
		"/>
	<rect x="6.9" y="117" transform="matrix(0.8162 -0.5777 0.5777 0.8162 -67.0564 26.0242)" class="st0" width="1" height="2.8"/>
	<rect x="8.9" y="115.9" transform="matrix(0.9046 -0.4263 0.4263 0.9046 -49.111 15.2069)" class="st0" width="1" height="2.8"/>
	<polygon class="st0" points="73.5,131.4 73.5,125 75.8,125 75.8,121 73.5,121 73.5,118 68.6,118 68.6,121 66.6,121 66.6,125 
		68.6,125 68.6,135.7 68.6,135.7 68.6,136.2 76.4,136.2 76.4,131.4 	"/>
	<polygon class="st0" points="27.3,123 27.3,122.3 23.4,122.3 23.4,123 23.4,131.7 23.4,137.1 27.7,137.1 27.7,127.6 32.6,127.6 
		32.6,137.1 36.3,137.1 36.3,123 	"/>
	<path class="st0" d="M66.4,128.1c-0.8-4.1-4.7-6.9-8.6-6.1c-4,0.8-6.5,4.8-5.7,8.9c0.8,4.1,4.7,6.9,8.6,6.1
		C64.7,136.2,67.2,132.2,66.4,128.1z M60,133.6c-2.2,0.4-4.3-1.1-4.7-3.3c-0.4-2.2,0.9-4.4,3.1-4.9s4.3,1.1,4.7,3.3
		C63.6,131,62.2,133.1,60,133.6z"/>
	<path class="st0" d="M51.3,128.1c-0.8-4.1-4.7-6.9-8.6-6.1c-4,0.8-6.5,4.8-5.7,8.9c0.8,4.1,4.7,6.9,8.6,6.1S52.1,132.2,51.3,128.1z
		 M44.9,133.6c-2.2,0.4-4.3-1.1-4.7-3.3c-0.4-2.3,0.9-4.4,3.1-4.9c2.2-0.4,4.3,1.1,4.7,3.3C48.5,131,47.1,133.1,44.9,133.6
		L44.9,133.6z"/>
	<path class="st0" d="M12.6,137.2c4.3,0.3,8-2.4,8.9-6.2l-16.8-1.2C5,133.7,8.3,136.9,12.6,137.2"/>
	<path class="st0" d="M11.6,119.3c-4.4,0.8-7.3,5.1-7.1,10l17.2-3C20.2,121.6,16,118.6,11.6,119.3z M12.3,126.8
		c-1.5,0-2.7-1.2-2.7-2.7c0-0.1,0-0.3,0-0.4c0.1,0,0.2,0,0.3,0c1.1,0,2-0.9,2-2c0-0.1,0-0.2,0-0.3c1.5-0.1,2.8,0.9,2.9,2.4
		s-0.9,2.8-2.4,2.9C12.4,126.8,12.3,126.8,12.3,126.8L12.3,126.8z"/>
	<polygon class="st0" points="147.1,134.8 140.3,128.9 146.4,125 145,121 137.3,125.9 137.3,117.1 133.1,117.1 133.1,136.9 
		137.3,136.9 137.3,131.3 145.1,137.5 	"/>
	<path class="st0" d="M132.3,128.5c-0.8-4.1-4.7-6.9-8.6-6.1c-1.6,0.3-3.1,1.2-4.1,2.5l0,0c-1.7-2-4.3-3-6.9-2.5
		c-1.6,0.3-3.1,1.2-4.1,2.5l0,0c-1.7-2-4.3-3.1-7-2.5c-1.8,0.4-3.4,1.4-4.5,2.9v-8.7h-4.2v19.8H97v-2.7c1.6,2.3,4.5,3.6,7.3,3
		c1-0.2,2.4-1.2,3.2-1.9l-1.5-2.7c-0.5,0.4-1.7,1-2.4,1.2c-2.1,0.4-4.2-1-4.7-3.2v-0.9c0.2-1.7,1.4-3.2,3.2-3.5
		c2.1-0.4,4.1,0.9,4.6,3c-0.1,0.8-0.1,1.7,0.1,2.5c0.8,4.1,4.7,6.9,8.6,6.1c1.9-0.4,3.6-1.6,4.7-3.3c0.6-0.9,1-2,1.1-3.1
		c0-0.2,0.1-0.4,0.1-0.6c0-0.5,0-0.9,0-1.3c0-0.2-0.1-0.5-0.1-0.7c0.4-1.4,1.6-2.5,3-2.8c2.2-0.4,4.3,1.1,4.7,3.3
		c0.4,2.2-0.9,4.4-3.1,4.9c-1,0.2-2,0-2.8-0.5c-0.1-0.1-1.2-0.9-1.3-1l-1.6,2.8c0.1,0.1,0.9,1,1,1.1c1.6,1.1,3.5,1.5,5.4,1.1
		C130.5,136.6,133.1,132.6,132.3,128.5z M113.2,125.8c2.2-0.4,4.3,1.1,4.7,3.3c0.2,1.1,0,2.1-0.5,3.1c0,0,0,0.1-0.1,0.1l0,0
		c-0.6,0.8-1.5,1.4-2.5,1.6c-1.3,0.2-2.7-0.2-3.7-1.2c-0.6-0.6-0.9-1.3-1.1-2.1C109.6,128.4,111,126.3,113.2,125.8L113.2,125.8z"/>
</g>
</svg>
