<?xml version="1.0" encoding="utf-8"?>
<!-- Generator: Adobe Illustrator 21.0.2, SVG Export Plug-In . SVG Version: 6.00 Build 0)  -->
<svg version="1.1" id="圖層_1" xmlns="http://www.w3.org/2000/svg" xmlns:xlink="http://www.w3.org/1999/xlink" x="0px" y="0px"
	 viewBox="0 0 15.9 20.3" style="enable-background:new 0 0 15.9 20.3;" xml:space="preserve">
<style type="text/css">
	.st0{fill:#E5E5E5;}
</style>
<title>enotebook_e_grey</title>
<g>
	<rect x="2.2" y="1.7" transform="matrix(0.8162 -0.5777 0.5777 0.8162 -1.2405 2.1219)" class="st0" width="0.9" height="2.6"/>
	<rect x="4.1" y="0.6" transform="matrix(0.9046 -0.4263 0.4263 0.9046 -0.3988 2.1332)" class="st0" width="0.9" height="2.6"/>
	<rect x="6.1" y="0.1" transform="matrix(0.977 -0.2134 0.2134 0.977 -0.1448 1.4251)" class="st0" width="0.9" height="2.6"/>
	<path class="st0" d="M7.5,20.3c3.9,0.3,7.4-2.2,8.2-5.7L0.1,13.5C0.5,17.1,3.5,20.1,7.5,20.3"/>
	<path class="st0" d="M6.6,3.8c-4,0.7-6.8,4.7-6.6,9.2l15.9-2.8C14.6,6,10.6,3.2,6.6,3.8z M7.2,10.8c-1.4,0-2.5-1.1-2.5-2.4
		c0-0.1,0-0.2,0-0.4C4.8,8,4.9,8,5,8c1,0,1.8-0.8,1.8-1.8c0-0.1,0-0.2,0-0.3c1.3-0.1,2.6,0.9,2.7,2.2C9.6,9.5,8.6,10.7,7.2,10.8
		C7.3,10.7,7.2,10.8,7.2,10.8L7.2,10.8z"/>
</g>
</svg>
